<mxfile host="app.diagrams.net" modified="2023-11-21T06:48:02.300Z" agent="Mozilla/5.0 (Windows NT 10.0; Win64; x64) AppleWebKit/537.36 (KHTML, like Gecko) Chrome/119.0.0.0 Safari/537.36" etag="ScgPQnoe9RsXr5hXYvFh" version="22.1.3" type="device">
  <diagram name="Page-1" id="z1sIUQLmpsv2TXnOtT5Z">
    <mxGraphModel dx="4197" dy="2340" grid="0" gridSize="10" guides="1" tooltips="1" connect="1" arrows="1" fold="1" page="1" pageScale="1" pageWidth="1920" pageHeight="1200" math="0" shadow="0">
      <root>
        <mxCell id="0" />
        <mxCell id="1" parent="0" />
        <mxCell id="r0GoYTCdLAr58T-955c1-13" value="" style="group" parent="1" vertex="1" connectable="0">
          <mxGeometry x="672" y="784" width="80" height="80" as="geometry" />
        </mxCell>
        <mxCell id="r0GoYTCdLAr58T-955c1-9" value="" style="ellipse;whiteSpace=wrap;html=1;aspect=fixed;fillColor=#ffe6cc;strokeColor=#d79b00;" parent="r0GoYTCdLAr58T-955c1-13" vertex="1">
          <mxGeometry y="10" width="80" height="80" as="geometry" />
        </mxCell>
        <mxCell id="r0GoYTCdLAr58T-955c1-12" value="" style="shape=image;verticalLabelPosition=bottom;labelBackgroundColor=default;verticalAlign=top;aspect=fixed;imageAspect=0;image=data:image/svg+xml,PHN2ZyB4bWxuczp4bGluaz0iaHR0cDovL3d3dy53My5vcmcvMTk5OS94bGluayIgeG1sbnM9Imh0dHA6Ly93d3cudzMub3JnLzIwMDAvc3ZnIiB4bWw6c3BhY2U9InByZXNlcnZlIiB2aWV3Qm94PSIwIDAgNjQgNjQiIGhlaWdodD0iODAwcHgiIHdpZHRoPSI4MDBweCIgaWQ9IkxheWVyXzEiIHZlcnNpb249IjEuMCI+JiN4YTs8Zz4mI3hhOwk8cmVjdCBoZWlnaHQ9IjgiIHdpZHRoPSI2MCIgZmlsbD0iIzUwNkM3RiIgeT0iMjAiIHg9IjIiLz4mI3hhOwk8Zz4mI3hhOwkJPHBhdGggZD0iTTIsNTJjMCwxLjEwNCwwLjg5NiwyLDIsMmg1NmMxLjEwNCwwLDItMC44OTYsMi0yVjMwSDJWNTJ6IiBmaWxsPSIjQjRDQ0I5Ii8+JiN4YTsJCTxwYXRoIGQ9Ik02MCwxMEg0Yy0xLjEwNCwwLTIsMC44OTUtMiwydjZoNjB2LTZDNjIsMTAuODk1LDYxLjEwNCwxMCw2MCwxMHoiIGZpbGw9IiNCNENDQjkiLz4mI3hhOwk8L2c+JiN4YTsJPHBhdGggZD0iTTYwLDhINGMtMi4yMTEsMC00LDEuNzg5LTQsNHY0MGMwLDIuMjExLDEuNzg5LDQsNCw0aDU2YzIuMjExLDAsNC0xLjc4OSw0LTRWMTJDNjQsOS43ODksNjIuMjExLDgsNjAsOHomIzEwOyYjOTsmIzk7IE02Miw1MmMwLDEuMTA0LTAuODk2LDItMiwySDRjLTEuMTA0LDAtMi0wLjg5Ni0yLTJWMzBoNjBWNTJ6IE02MiwyOEgydi04aDYwVjI4eiBNNjIsMThIMnYtNmMwLTEuMTA1LDAuODk2LTIsMi0yaDU2JiMxMDsmIzk7JiM5O2MxLjEwNCwwLDIsMC44OTUsMiwyVjE4eiIgZmlsbD0iIzM5NDI0MCIvPiYjeGE7CTxwYXRoIGQ9Ik0xMSw0MGgxNGMwLjU1MywwLDEtMC40NDcsMS0xcy0wLjQ0Ny0xLTEtMUgxMWMtMC41NTMsMC0xLDAuNDQ3LTEsMVMxMC40NDcsNDAsMTEsNDB6IiBmaWxsPSIjMzk0MjQwIi8+JiN4YTsJPHBhdGggZD0iTTI5LDQwaDZjMC41NTMsMCwxLTAuNDQ3LDEtMXMtMC40NDctMS0xLTFoLTZjLTAuNTUzLDAtMSwwLjQ0Ny0xLDFTMjguNDQ3LDQwLDI5LDQweiIgZmlsbD0iIzM5NDI0MCIvPiYjeGE7CTxwYXRoIGQ9Ik0xMSw0NmgxMGMwLjU1MywwLDEtMC40NDcsMS0xcy0wLjQ0Ny0xLTEtMUgxMWMtMC41NTMsMC0xLDAuNDQ3LTEsMVMxMC40NDcsNDYsMTEsNDZ6IiBmaWxsPSIjMzk0MjQwIi8+JiN4YTsJPHBhdGggZD0iTTQ1LDQ2aDhjMC41NTMsMCwxLTAuNDQ3LDEtMXYtNmMwLTAuNTUzLTAuNDQ3LTEtMS0xaC04Yy0wLjU1MywwLTEsMC40NDctMSwxdjZDNDQsNDUuNTUzLDQ0LjQ0Nyw0Niw0NSw0NiYjMTA7JiM5OyYjOTt6IE00Niw0MGg2djRoLTZWNDB6IiBmaWxsPSIjMzk0MjQwIi8+JiN4YTsJPHJlY3QgaGVpZ2h0PSI0IiB3aWR0aD0iNiIgZmlsbD0iI0Y5RUJCMiIgeT0iNDAiIHg9IjQ2Ii8+JiN4YTs8L2c+JiN4YTs8L3N2Zz4=;" parent="r0GoYTCdLAr58T-955c1-13" vertex="1">
          <mxGeometry x="15" y="25" width="50" height="50" as="geometry" />
        </mxCell>
        <mxCell id="r0GoYTCdLAr58T-955c1-14" value="" style="group" parent="1" vertex="1" connectable="0">
          <mxGeometry x="673" y="591" width="80" height="80" as="geometry" />
        </mxCell>
        <mxCell id="r0GoYTCdLAr58T-955c1-8" value="" style="ellipse;whiteSpace=wrap;html=1;aspect=fixed;fillColor=#ffe6cc;strokeColor=#d79b00;" parent="r0GoYTCdLAr58T-955c1-14" vertex="1">
          <mxGeometry width="80" height="80" as="geometry" />
        </mxCell>
        <mxCell id="r0GoYTCdLAr58T-955c1-11" value="" style="shape=image;verticalLabelPosition=bottom;labelBackgroundColor=default;verticalAlign=top;aspect=fixed;imageAspect=0;image=data:image/svg+xml,PHN2ZyB4bWxuczp4bGluaz0iaHR0cDovL3d3dy53My5vcmcvMTk5OS94bGluayIgeG1sbnM9Imh0dHA6Ly93d3cudzMub3JnLzIwMDAvc3ZnIiB4bWw6c3BhY2U9InByZXNlcnZlIiB2aWV3Qm94PSIwIDAgNjQgNjQiIGhlaWdodD0iODAwcHgiIHdpZHRoPSI4MDBweCIgaWQ9IkxheWVyXzEiIHZlcnNpb249IjEuMCI+JiN4YTs8Zz4mI3hhOwk8Zz4mI3hhOwkJPHBhdGggZD0iTTI3LDhoMTBjMTcuNDk1LDAsMTgsMjEuNTQ0LDE4LDI0aDJjMC0yLjY2MS0wLjUzMy0yNi0xOS0yNkgyNkMxOC45MDQsNiw3LDkuMzc4LDcsMzJoMiYjMTA7JiM5OyYjOTsmIzk7QzksMTYuNTIzLDE1LjM5Myw4LDI3LDh6IiBmaWxsPSIjNDVBQUI4Ii8+JiN4YTsJCTxwYXRoIGQ9Ik01OCwzNEg2Yy0yLjIwNiwwLTQsMS43OTQtNCw0djEwYzAsMi4yMDYsMS43OTQsNCw0LDRoNTJjMi4yMDYsMCw0LTEuNzk0LDQtNFYzOCYjMTA7JiM5OyYjOTsmIzk7QzYyLDM1Ljc5NCw2MC4yMDYsMzQsNTgsMzR6IiBmaWxsPSIjNDVBQUI4Ii8+JiN4YTsJPC9nPiYjeGE7CTxnPiYjeGE7CQk8cGF0aCBkPSJNNTAuNTgxLDE5LjM5NEM0Ny45MDksMTMuMTYsNDMuMzQsMTAsMzcsMTBIMjdjLTcuMjk5LDAtMTYsMy44MTYtMTYsMjJoNWMwLTQuNDE4LDMuNTgyLTgsOC04JiMxMDsmIzk7JiM5OyYjOTtzOCwzLjU4Miw4LDhoMjFDNTMsMzAuMzY3LDUyLjgyNSwyNC42MzIsNTAuNTgxLDE5LjM5NHoiIGZpbGw9IiNGOUVCQjIiLz4mI3hhOwkJPHBhdGggZD0iTTI0LDI2Yy0zLjMxMywwLTYsMi42ODctNiw2aDEyQzMwLDI4LjY4NywyNy4zMTMsMjYsMjQsMjZ6IiBmaWxsPSIjRjlFQkIyIi8+JiN4YTsJPC9nPiYjeGE7CTxnPiYjeGE7CQk8cGF0aCBkPSJNNTguOTgyLDMyLjA4OEM1OC45ODUsMzIuMDU3LDU5LDMyLjAzMSw1OSwzMmMwLTIuODY2LTAuNTg5LTI4LTIxLTI4SDI2QzEyLjY1NCw0LDUsMTQuMjA2LDUsMzImIzEwOyYjOTsmIzk7JiM5O2MwLDAuMDMxLDAuMDE1LDAuMDU3LDAuMDE4LDAuMDg4QzIuMTc2LDMyLjU1OSwwLDM1LjAyNywwLDM4djEwYzAsMy4zMDksMi42OTEsNiw2LDZ2NWMwLDAuNTUzLDAuNDQ3LDEsMSwxaDgmIzEwOyYjOTsmIzk7JiM5O2MwLjU1MywwLDEtMC40NDcsMS0xdi01aDMydjVjMCwwLjU1MywwLjQ0NywxLDEsMWg4YzAuNTUzLDAsMS0wLjQ0NywxLTF2LTVjMy4zMDksMCw2LTIuNjkxLDYtNlYzOCYjMTA7JiM5OyYjOTsmIzk7QzY0LDM1LjAyNyw2MS44MjQsMzIuNTU5LDU4Ljk4MiwzMi4wODh6IE0yNiw2aDEyYzE4LjQ2NywwLDE5LDIzLjMzOSwxOSwyNmgtMmMwLTIuNDU2LTAuNTA1LTI0LTE4LTI0SDI3QzE1LjM5Myw4LDksMTYuNTIzLDksMzImIzEwOyYjOTsmIzk7JiM5O0g3QzcsOS4zNzgsMTguOTA0LDYsMjYsNnogTTI0LDI0Yy00LjQxOCwwLTgsMy41ODItOCw4aC01YzAtMTguMTg0LDguNzAxLTIyLDE2LTIyaDEwYzYuMzQsMCwxMC45MDksMy4xNiwxMy41ODEsOS4zOTQmIzEwOyYjOTsmIzk7JiM5O0M1Mi44MjUsMjQuNjMyLDUzLDMwLjM2Nyw1MywzMkgzMkMzMiwyNy41ODIsMjguNDE4LDI0LDI0LDI0eiBNMzAsMzJIMThjMC0zLjMxMywyLjY4Ny02LDYtNlMzMCwyOC42ODcsMzAsMzJ6IE0xNCw1OEg4di00aDZWNTh6JiMxMDsmIzk7JiM5OyYjOTsgTTU2LDU4aC02di00aDZWNTh6IE02Miw0OGMwLDIuMjA2LTEuNzk0LDQtNCw0SDZjLTIuMjA2LDAtNC0xLjc5NC00LTRWMzhjMC0yLjIwNiwxLjc5NC00LDQtNGg1MmMyLjIwNiwwLDQsMS43OTQsNCw0VjQ4eiIgZmlsbD0iIzM5NDI0MCIvPiYjeGE7CQk8cGF0aCBkPSJNMTEsMzljLTIuMjA2LDAtNCwxLjc5NC00LDRzMS43OTQsNCw0LDRzNC0xLjc5NCw0LTRTMTMuMjA2LDM5LDExLDM5eiBNMTEsNDVjLTEuMTAzLDAtMi0wLjg5Ny0yLTImIzEwOyYjOTsmIzk7JiM5O3MwLjg5Ny0yLDItMnMyLDAuODk3LDIsMlMxMi4xMDMsNDUsMTEsNDV6IiBmaWxsPSIjMzk0MjQwIi8+JiN4YTsJCTxwYXRoIGQ9Ik01MywzOWMtMi4yMDYsMC00LDEuNzk0LTQsNHMxLjc5NCw0LDQsNHM0LTEuNzk0LDQtNFM1NS4yMDYsMzksNTMsMzl6IE01Myw0NWMtMS4xMDMsMC0yLTAuODk3LTItMiYjMTA7JiM5OyYjOTsmIzk7czAuODk3LTIsMi0yczIsMC44OTcsMiwyUzU0LjEwMyw0NSw1Myw0NXoiIGZpbGw9IiMzOTQyNDAiLz4mI3hhOwkJPHBhdGggZD0iTTQzLDQwSDIxYy0wLjU1MywwLTEsMC40NDctMSwxczAuNDQ3LDEsMSwxaDIyYzAuNTUzLDAsMS0wLjQ0NywxLTFTNDMuNTUzLDQwLDQzLDQweiIgZmlsbD0iIzM5NDI0MCIvPiYjeGE7CQk8cGF0aCBkPSJNNDMsNDRIMjFjLTAuNTUzLDAtMSwwLjQ0Ny0xLDFzMC40NDcsMSwxLDFoMjJjMC41NTMsMCwxLTAuNDQ3LDEtMVM0My41NTMsNDQsNDMsNDR6IiBmaWxsPSIjMzk0MjQwIi8+JiN4YTsJCTxwYXRoIGQ9Ik00My4yOTMsMTguNzA4YzAuMTk1LDAuMTk1LDAuNDUxLDAuMjkzLDAuNzA3LDAuMjkzczAuNTEyLTAuMDk4LDAuNzA3LTAuMjkzJiMxMDsmIzk7JiM5OyYjOTtjMC4zOTEtMC4zOTEsMC4zOTEtMS4wMjMsMC0xLjQxNGwtMi0yYy0wLjM5MS0wLjM5MS0xLjAyMy0wLjM5MS0xLjQxNCwwcy0wLjM5MSwxLjAyMywwLDEuNDE0TDQzLjI5MywxOC43MDh6IiBmaWxsPSIjMzk0MjQwIi8+JiN4YTsJCTxwYXRoIGQ9Ik00My4yOTMsMjMuNzA3QzQzLjQ4OCwyMy45MDIsNDMuNzQ0LDI0LDQ0LDI0czAuNTEyLTAuMDk4LDAuNzA3LTAuMjkzYzAuMzkxLTAuMzkxLDAuMzkxLTEuMDIzLDAtMS40MTQmIzEwOyYjOTsmIzk7JiM5O2wtNy03Yy0wLjM5MS0wLjM5MS0xLjAyMy0wLjM5MS0xLjQxNCwwcy0wLjM5MSwxLjAyMywwLDEuNDE0TDQzLjI5MywyMy43MDd6IiBmaWxsPSIjMzk0MjQwIi8+JiN4YTsJPC9nPiYjeGE7CTxnPiYjeGE7CQk8cmVjdCBoZWlnaHQ9IjQiIHdpZHRoPSI2IiBmaWxsPSIjNTA2QzdGIiB5PSI1NCIgeD0iOCIvPiYjeGE7CQk8cmVjdCBoZWlnaHQ9IjQiIHdpZHRoPSI2IiBmaWxsPSIjNTA2QzdGIiB5PSI1NCIgeD0iNTAiLz4mI3hhOwk8L2c+JiN4YTsJPGc+JiN4YTsJCTxjaXJjbGUgcj0iMiIgY3k9IjQzIiBjeD0iMTEiIGZpbGw9IiNGOUVCQjIiLz4mI3hhOwkJPGNpcmNsZSByPSIyIiBjeT0iNDMiIGN4PSI1MyIgZmlsbD0iI0Y5RUJCMiIvPiYjeGE7CTwvZz4mI3hhOwk8cGF0aCBkPSJNMzAsMzJIMThjMC0zLjMxMywyLjY4Ny02LDYtNlMzMCwyOC42ODcsMzAsMzJ6IiBmaWxsPSIjMjMxRjIwIiBvcGFjaXR5PSIwLjE1Ii8+JiN4YTs8L2c+JiN4YTs8L3N2Zz4=;" parent="r0GoYTCdLAr58T-955c1-14" vertex="1">
          <mxGeometry x="15" y="15" width="50" height="50" as="geometry" />
        </mxCell>
        <mxCell id="r0GoYTCdLAr58T-955c1-15" value="" style="group" parent="1" vertex="1" connectable="0">
          <mxGeometry x="675" y="397" width="80" height="80" as="geometry" />
        </mxCell>
        <mxCell id="r0GoYTCdLAr58T-955c1-7" value="" style="ellipse;whiteSpace=wrap;html=1;aspect=fixed;fillColor=#ffe6cc;strokeColor=#d79b00;" parent="r0GoYTCdLAr58T-955c1-15" vertex="1">
          <mxGeometry width="80" height="80" as="geometry" />
        </mxCell>
        <mxCell id="r0GoYTCdLAr58T-955c1-10" value="" style="shape=image;verticalLabelPosition=bottom;labelBackgroundColor=default;verticalAlign=top;aspect=fixed;imageAspect=0;image=data:image/svg+xml,PHN2ZyB4bWxuczp4bGluaz0iaHR0cDovL3d3dy53My5vcmcvMTk5OS94bGluayIgeG1sbnM9Imh0dHA6Ly93d3cudzMub3JnLzIwMDAvc3ZnIiB4bWw6c3BhY2U9InByZXNlcnZlIiB2aWV3Qm94PSIwIDAgNjQgNjQiIGhlaWdodD0iODAwcHgiIHdpZHRoPSI4MDBweCIgaWQ9IkxheWVyXzEiIHZlcnNpb249IjEuMCI+JiN4YTs8Zz4mI3hhOwk8cGF0aCBkPSJNNTYsNjBjMCwxLjEwNC0wLjg5NiwyLTIsMkgzOFY0N2MwLTAuNTUzLTAuNDQ3LTEtMS0xSDI3Yy0wLjU1MywwLTEsMC40NDctMSwxdjE1SDEwYy0xLjEwNCwwLTItMC44OTYtMi0yJiMxMDsmIzk7JiM5O1YzMS40MTFMMzIuMDA5LDcuNDAzTDU2LDMxLjM5NFY2MHoiIGZpbGw9IiNGOUVCQjIiLz4mI3hhOwk8cG9seWdvbiBwb2ludHM9IjE0LDYgMTgsNiAxOCwxMi42MDEgMTQsMTYuNTkzIiBmaWxsPSIjRjc2RDU3Ii8+JiN4YTsJPHJlY3QgaGVpZ2h0PSIxNCIgd2lkdGg9IjgiIGZpbGw9IiNGOUVCQjIiIHk9IjQ4IiB4PSIyOCIvPiYjeGE7CTxwYXRoIGQ9Ik02MSwzM2MtMC4yNzYsMC0wLjYwMi0wLjAzNi0wLjc4Mi0wLjIxN0wzMi43MTYsNS4yODFjLTAuMTk1LTAuMTk1LTAuNDUxLTAuMjkzLTAuNzA3LTAuMjkzJiMxMDsmIzk7JiM5O3MtMC41MTIsMC4wOTgtMC43MDcsMC4yOTNMMy43OTEsMzIuNzkzQzMuNjEsMzIuOTc0LDMuMjc2LDMzLDMsMzNjLTAuNTUzLDAtMS0wLjQ0Ny0xLTFjMC0wLjI3NiwwLjAxNi0wLjYyMiwwLjE5Ny0wLjgwMyYjMTA7JiM5OyYjOTtMMzEuMDM1LDIuNDFjMCwwLDAuMzczLTAuNDEsMC45NzQtMC40MXMwLjk4MiwwLjM5OCwwLjk4MiwwLjM5OGwyOC44MDYsMjguODA1QzYxLjk3OCwzMS4zODQsNjIsMzEuNzI0LDYyLDMyJiMxMDsmIzk7JiM5O0M2MiwzMi41NTIsNjEuNTUzLDMzLDYxLDMzeiIgZmlsbD0iI0Y3NkQ1NyIvPiYjeGE7CTxnPiYjeGE7CQk8cGF0aCBkPSJNNjMuMjExLDI5Ljc4OUwzNC40MzgsMS4wMTVjMCwwLTAuOTM3LTEuMDE1LTIuNDMtMS4wMTVzLTIuMzc2LDAuOTkxLTIuMzc2LDAuOTkxTDIwLDEwLjYwNFY1JiMxMDsmIzk7JiM5OyYjOTtjMC0wLjU1My0wLjQ0Ny0xLTEtMWgtNmMtMC41NTMsMC0xLDAuNDQ3LTEsMXYxMy41ODlMMC43ODMsMjkuNzgzQzAuMjQsMzAuMzI2LDAsMzEuMTcyLDAsMzJjMCwxLjY1NiwxLjM0MywzLDMsMyYjMTA7JiM5OyYjOTsmIzk7YzAuODI4LDAsMS42NjItMC4yNTEsMi4yMDUtMC43OTRMNiwzMy40MTFWNjBjMCwyLjIxMSwxLjc4OSw0LDQsNGg0NGMyLjIxMSwwLDQtMS43ODksNC00VjMzLjM5NGwwLjgwNCwwLjgwNCYjMTA7JiM5OyYjOTsmIzk7QzU5LjM0NywzNC43MzksNjAuMTcyLDM1LDYxLDM1YzEuNjU3LDAsMy0xLjM0MywzLTNDNjQsMzEuMTcxLDYzLjc1NCwzMC4zMzIsNjMuMjExLDI5Ljc4OXogTTE0LDZoNHY2LjYwMWwtNCwzLjk5MlY2eiBNMzYsNjJoLTgmIzEwOyYjOTsmIzk7JiM5O1Y0OGg4VjYyeiBNNTYsNjBjMCwxLjEwNC0wLjg5NiwyLTIsMkgzOFY0N2MwLTAuNTUzLTAuNDQ3LTEtMS0xSDI3Yy0wLjU1MywwLTEsMC40NDctMSwxdjE1SDEwYy0xLjEwNCwwLTItMC44OTYtMi0yVjMxLjQxMSYjMTA7JiM5OyYjOTsmIzk7TDMyLjAwOSw3LjQwM0w1NiwzMS4zOTRWNjB6IE02MSwzM2MtMC4yNzYsMC0wLjYwMi0wLjAzNi0wLjc4Mi0wLjIxN0wzMi43MTYsNS4yODFjLTAuMTk1LTAuMTk1LTAuNDUxLTAuMjkzLTAuNzA3LTAuMjkzJiMxMDsmIzk7JiM5OyYjOTtzLTAuNTEyLDAuMDk4LTAuNzA3LDAuMjkzTDMuNzkxLDMyLjc5M0MzLjYxLDMyLjk3NCwzLjI3NiwzMywzLDMzYy0wLjU1MywwLTEtMC40NDctMS0xYzAtMC4yNzYsMC4wMTYtMC42MjIsMC4xOTctMC44MDMmIzEwOyYjOTsmIzk7JiM5O0wzMS4wMzUsMi40MWMwLDAsMC4zNzMtMC40MSwwLjk3NC0wLjQxczAuOTgyLDAuMzk4LDAuOTgyLDAuMzk4bDI4LjgwNiwyOC44MDVDNjEuOTc4LDMxLjM4NCw2MiwzMS43MjQsNjIsMzImIzEwOyYjOTsmIzk7JiM5O0M2MiwzMi41NTIsNjEuNTUzLDMzLDYxLDMzeiIgZmlsbD0iIzM5NDI0MCIvPiYjeGE7CQk8cGF0aCBkPSJNMjMsMzJoLThjLTAuNTUzLDAtMSwwLjQ0Ny0xLDF2OGMwLDAuNTUzLDAuNDQ3LDEsMSwxaDhjMC41NTMsMCwxLTAuNDQ3LDEtMXYtOCYjMTA7JiM5OyYjOTsmIzk7QzI0LDMyLjQ0NywyMy41NTMsMzIsMjMsMzJ6IE0yMiw0MGgtNnYtNmg2VjQweiIgZmlsbD0iIzM5NDI0MCIvPiYjeGE7CQk8cGF0aCBkPSJNNDEsNDJoOGMwLjU1MywwLDEtMC40NDcsMS0xdi04YzAtMC41NTMtMC40NDctMS0xLTFoLThjLTAuNTUzLDAtMSwwLjQ0Ny0xLDF2OCYjMTA7JiM5OyYjOTsmIzk7QzQwLDQxLjU1Myw0MC40NDcsNDIsNDEsNDJ6IE00MiwzNGg2djZoLTZWMzR6IiBmaWxsPSIjMzk0MjQwIi8+JiN4YTsJPC9nPiYjeGE7CTxyZWN0IGhlaWdodD0iMTQiIHdpZHRoPSI4IiBmaWxsPSIjNTA2QzdGIiB5PSI0OCIgeD0iMjgiLz4mI3hhOwk8Zz4mI3hhOwkJPHJlY3QgaGVpZ2h0PSI2IiB3aWR0aD0iNiIgZmlsbD0iIzQ1QUFCOCIgeT0iMzQiIHg9IjE2Ii8+JiN4YTsJCTxyZWN0IGhlaWdodD0iNiIgd2lkdGg9IjYiIGZpbGw9IiM0NUFBQjgiIHk9IjM0IiB4PSI0MiIvPiYjeGE7CTwvZz4mI3hhOzwvZz4mI3hhOzwvc3ZnPg==;" parent="r0GoYTCdLAr58T-955c1-15" vertex="1">
          <mxGeometry x="15" y="15" width="50" height="50" as="geometry" />
        </mxCell>
        <mxCell id="r0GoYTCdLAr58T-955c1-16" value="" style="group" parent="1" vertex="1" connectable="0">
          <mxGeometry x="677" y="182" width="80" height="80" as="geometry" />
        </mxCell>
        <mxCell id="r0GoYTCdLAr58T-955c1-6" value="" style="ellipse;whiteSpace=wrap;html=1;aspect=fixed;fillColor=#ffe6cc;strokeColor=#d79b00;" parent="r0GoYTCdLAr58T-955c1-16" vertex="1">
          <mxGeometry width="80" height="80" as="geometry" />
        </mxCell>
        <mxCell id="r0GoYTCdLAr58T-955c1-2" value="" style="shape=image;verticalLabelPosition=bottom;labelBackgroundColor=default;verticalAlign=top;aspect=fixed;imageAspect=0;image=data:image/svg+xml,PHN2ZyB4bWxuczp4bGluaz0iaHR0cDovL3d3dy53My5vcmcvMTk5OS94bGluayIgeG1sbnM9Imh0dHA6Ly93d3cudzMub3JnLzIwMDAvc3ZnIiB4bWw6c3BhY2U9InByZXNlcnZlIiB2aWV3Qm94PSIwIDAgNjQgNjQiIGhlaWdodD0iODAwcHgiIHdpZHRoPSI4MDBweCIgaWQ9IkxheWVyXzEiIHZlcnNpb249IjEuMCI+JiN4YTs8Zz4mI3hhOwk8cGF0aCBkPSJNNjIuNzQzLDI2LjE0M2wtMjIuMDk5LTguODRsMC4zNDktMy4xMzdjMC4wNjUtMC43ODEsMC41MzItNy43NDktMy4wNjEtMTEuNjU0QzM2LjQyLDAuODY4LDM0LjM2OSwwLDMyLDAmIzEwOyYjOTsmIzk7cy00LjQyLDAuODY4LTUuOTMzLDIuNTEyYy0zLjU5MywzLjkwNS0zLjEyNiwxMC44NzMtMy4wNTUsMTEuNzA5bDAuNTIsNC42NzdsLTAuMTQ5LTEuMzQzbC0yMi4xNzgsOS42MSYjMTA7JiM5OyYjOTtDMC40NzQsMjcuNDgxLDAsMjguMjAzLDAsMjl2NWMwLDEuMTA0LDAuODk2LDIsMiwyaDIzLjQzM2wxLjQ5OSwxMy40OTRsLTYuMTgxLDQuOTQ0QzIwLjI3Niw1NC44MTcsMjAsNTUuMzkzLDIwLDU2djImIzEwOyYjOTsmIzk7YzAsMS4xMDQsMC44OTYsMiwyLDJoNi4xM2MwLjQxNiwyLjEwMSwxLjY5NSw0LDMuODcsNGMyLjE4NiwwLDMuNDY1LTEuOTE2LDMuODcxLTRINDJjMS4xMDQsMCwyLTAuODk2LDItMnYtMiYjMTA7JiM5OyYjOTtjMC0wLjYwNy0wLjI3Ni0xLjE4My0wLjc1MS0xLjU2MmwtNi4xODEtNC45NDRsMS41NDYtMTMuOTE0TDM4LjU2NywzNkg2MmMxLjEwNCwwLDItMC44OTYsMi0ydi02JiMxMDsmIzk7JiM5O0M2NCwyNy4xODMsNjMuNTAyLDI2LjQ0Niw2Mi43NDMsMjYuMTQzeiBNMiwyOWwyMS42MTQtOS4zNjZMMjQuNzY2LDMwSDJWMjl6IE0yNS4yMSwzNEgydi0yaDIyLjk4OGwwLjM0MSwzLjA3MkwyNS4yMSwzNHogTTIyLDU2JiMxMDsmIzk7JiM5O2w1LjE5My00LjE1NEwyNy44NzcsNThIMjJWNTZ6IE0zMy45OTUsNTkuMDQyQzMzLjkwMyw2MC4wNjQsMzMuMzY4LDYyLDMyLDYyYy0xLjM2NywwLTEuOTA2LTEuOTYzLTIuMDA1LTMuMDRsLTQuOTkxLTQ0LjkzMyYjMTA7JiM5OyYjOTtjLTAuMDQxLTAuNTA4LTAuNDgzLTYuODgxLDIuNTM1LTEwLjE2MUMyOC42NzksMi42MjgsMzAuMTgsMiwzMiwyczMuMzIxLDAuNjI4LDQuNDYxLDEuODY2YzMuMDA4LDMuMjcsMi41ODEsOS41OTYsMi41NDEsMTAuMTA4JiMxMDsmIzk7JiM5O0wzMy45OTUsNTkuMDQyeiBNNDIsNTZ2MmgtNS44NzdsMC42ODQtNi4xNTRMNDIsNTZ6IE02MiwzNEgzOC43ODlsMC4yMjMtMkg2MlYzNHogTTYyLDMwSDM5LjIzNGwxLjE4MS0xMC42MzRMNjIsMjhWMzB6IiBmaWxsPSIjMzk0MjQwIi8+JiN4YTsJPHBhdGggZD0iTTMzLjk5NSw1OS4wNDJDMzMuOTAzLDYwLjA2NCwzMy4zNjgsNjIsMzIsNjJjLTEuMzY3LDAtMS45MDYtMS45NjMtMi4wMDUtMy4wNGwtNC45OTEtNDQuOTMzJiMxMDsmIzk7JiM5O2MtMC4wNDEtMC41MDgtMC40ODMtNi44ODEsMi41MzUtMTAuMTYxQzI4LjY3OSwyLjYyOCwzMC4xOCwyLDMyLDJzMy4zMjEsMC42MjgsNC40NjEsMS44NjZjMy4wMDgsMy4yNywyLjU4MSw5LjU5NiwyLjU0MSwxMC4xMDgmIzEwOyYjOTsmIzk7TDMzLjk5NSw1OS4wNDJ6IiBmaWxsPSIjRjc2RDU3Ii8+JiN4YTsJPGc+JiN4YTsJCTxwb2x5Z29uIHBvaW50cz0iMjIsNTYgMjIsNTggMjcuODc3LDU4IDI3LjE5Myw1MS44NDYiIGZpbGw9IiNCNENDQjkiLz4mI3hhOwkJPHBvbHlnb24gcG9pbnRzPSIzNi4xMjMsNTggNDIsNTggNDIsNTYgMzYuODA3LDUxLjg0NiIgZmlsbD0iI0I0Q0NCOSIvPiYjeGE7CQk8cG9seWdvbiBwb2ludHM9IjIzLjYxNCwxOS42MzQgMiwyOSAyLDMwIDI0Ljc2NiwzMCIgZmlsbD0iI0I0Q0NCOSIvPiYjeGE7CQk8cG9seWdvbiBwb2ludHM9IjI1LjMyOSwzNS4wNzIgMjQuOTg4LDMyIDIsMzIgMiwzNCAyNS4yMSwzNCIgZmlsbD0iI0I0Q0NCOSIvPiYjeGE7CQk8cG9seWdvbiBwb2ludHM9IjM4Ljc4OSwzNCA2MiwzNCA2MiwzMiAzOS4wMTIsMzIiIGZpbGw9IiNCNENDQjkiLz4mI3hhOwkJPHBvbHlnb24gcG9pbnRzPSI0MC40MTUsMTkuMzY2IDM5LjIzNCwzMCA2MiwzMCA2MiwyOCIgZmlsbD0iI0I0Q0NCOSIvPiYjeGE7CTwvZz4mI3hhOwk8ZyBvcGFjaXR5PSIwLjE1Ij4mI3hhOwkJPHBvbHlnb24gcG9pbnRzPSIyLDMyIDIsMzQgMjUuMjEsMzQgMjUuMzI5LDM1LjA3MiAyNC45ODgsMzIiIGZpbGw9IiMyMzFGMjAiLz4mI3hhOwkJPHBvbHlnb24gcG9pbnRzPSIzOS4wMTIsMzIgMzguNzg5LDM0IDYyLDM0IDYyLDMyIiBmaWxsPSIjMjMxRjIwIi8+JiN4YTsJPC9nPiYjeGE7PC9nPiYjeGE7PC9zdmc+;rotation=70;" parent="r0GoYTCdLAr58T-955c1-16" vertex="1">
          <mxGeometry x="15" y="15" width="50" height="50" as="geometry" />
        </mxCell>
        <mxCell id="r0GoYTCdLAr58T-955c1-17" value="" style="shape=image;verticalLabelPosition=bottom;labelBackgroundColor=default;verticalAlign=top;aspect=fixed;imageAspect=0;image=data:image/svg+xml,PHN2ZyB4bWxuczp4bGluaz0iaHR0cDovL3d3dy53My5vcmcvMTk5OS94bGluayIgeG1sbnM9Imh0dHA6Ly93d3cudzMub3JnLzIwMDAvc3ZnIiB4bWw6c3BhY2U9InByZXNlcnZlIiB2aWV3Qm94PSIwIDAgNjQgNjQiIGhlaWdodD0iODAwcHgiIHdpZHRoPSI4MDBweCIgaWQ9IkxheWVyXzEiIHZlcnNpb249IjEuMCI+JiN4YTs8Zz4mI3hhOwk8cGF0aCBkPSJNMTYsMzJWMTZjMC03LjczMiw2LjI2OC0xNCwxNC0xNGg0YzcuNzMyLDAsMTQsNi4yNjgsMTQsMTR2MTZjMCwyLjgwNiwwLjM4Miw1LjUxOSwxLjA2Miw4LjExMSYjMTA7JiM5OyYjOTtjLTIuNzcxLTEuMDYyLTUuNzA5LTEuODg4LTguNzk4LTIuNDYxQzQzLjUwOCwzNC4xNDEsNDYsMjguNjk1LDQ2LDIyYzAtMC40MzUsMC0wLjc1NCwwLTFjMC00LjQxOC0zLjU4Mi04LTgtOGgtNCYjMTA7JiM5OyYjOTtjLTIuMjA5LDAtNC0xLjc5MS00LTRjMC0wLjU1My0wLjQ0Ny0xLTEtMXMtMSwwLjQ0Ny0xLDFjMCwyLjIwOS0xLjc5MSw0LTQsNGMtMy4zMTMsMC02LDIuNjg3LTYsNnYxdjFjMCwwLjI0NiwwLDAuNTY1LDAsMSYjMTA7JiM5OyYjOTtjMCw2LjcxOSwyLjUwOSwxMi4xODEsNS43NywxNS42ODljLTMuMiwwLjYwNS02LjEyMSwxLjQyNS04LjgzOCwyLjQ0M0MxNS42MTUsMzcuNTM0LDE2LDM0LjgxMywxNiwzMnoiIGZpbGw9IiM1MDZDN0YiLz4mI3hhOwk8Zz4mI3hhOwkJPHBhdGggZD0iTTMyLDQwYzQuNTMxLDAsMTItNiwxMi0xOGMwLTAuNSwwLTAuODEyLDAtMWMwLTMuMzEzLTIuNjg3LTYtNi02aC00Yy0yLjA4OCwwLTMuOTI2LTEuMDY4LTUtMi42ODcmIzEwOyYjOTsmIzk7JiM5O0MyNy45MjYsMTMuOTMyLDI2LjA4OCwxNSwyNCwxNWMtMi4yMDksMC00LDEuNzkxLTQsNHYxdjFjMCwwLjE4OCwwLDAuNSwwLDFDMjAsMzQsMjcuNDY5LDQwLDMyLDQweiIgZmlsbD0iI0Y5RUJCMiIvPiYjeGE7CQk8cGF0aCBkPSJNMzguMzIzLDM5LjQzOUMzNi4yNCw0MS4wODQsMzQuMDEsNDIsMzIsNDJzLTQuMjQtMC45MTYtNi4zMjMtMi41NjEmIzEwOyYjOTsmIzk7JiM5O2MtMi43NDMsMC4zNzgtNS4zOTksMS4wMTgtNy45NjYsMS44NTdjMi40NjksMi40NjksMTMuMzE5LDEzLjMxOSwxMy43MDQsMTMuNzA0YzAuNDM1LDAuNDM1LDAuNzUzLDAuNDE3LDEuMTgzLTAuMDEzJiMxMDsmIzk7JiM5OyYjOTtjMC4zODEtMC4zODEsMTEuMjI0LTExLjIyNCwxMy42OTEtMTMuNjkxQzQzLjcyMyw0MC40NTcsNDEuMDY2LDM5LjgxNywzOC4zMjMsMzkuNDM5eiIgZmlsbD0iI0Y5RUJCMiIvPiYjeGE7CTwvZz4mI3hhOwk8cGF0aCBkPSJNNjIsNjBjMCwxLjEwNC0wLjg5NiwyLTIsMkg0Yy0xLjEwNCwwLTItMC44OTYtMi0ydi04YzAtMS4xMDQsMC40NDctMi4xMDQsMS4xNzItMi44MjhsLTAuMDA0LTAuMDA0JiMxMDsmIzk7JiM5O2MzLjcxNi0yLjk5NCw3LjkxOC01LjQwMSwxMi40NTMtNy4xMzNsMTQuMTcyLDE0LjE3MmMxLjUsMS41LDIuOTE0LDEuNSw0LjQxNCwwbDE0LjE3Mi0xNC4xNzImIzEwOyYjOTsmIzk7YzQuNTM1LDEuNzMxLDguNzM3LDQuMTM5LDEyLjQ1Myw3LjEzM2wtMC4wMDQsMC4wMDRDNjEuNTUzLDQ5Ljg5Niw2Miw1MC44OTYsNjIsNTJWNjB6IiBmaWxsPSIjRjc2RDU3Ii8+JiN4YTsJPGc+JiN4YTsJCTxwYXRoIGQ9Ik02Mi4yNDIsNDcuNzU4bDAuMDE0LTAuMDE0Yy0zLjIzOS0yLjYzNC02Ljg2NS00Ljg3NC0xMC44MzktNi42NDRDNTAuNTAyLDM4LjIyOSw1MCwzNS4xNzUsNTAsMzJWMTYmIzEwOyYjOTsmIzk7JiM5O2MwLTguODM3LTcuMTYzLTE2LTE2LTE2aC00Yy04LjgzNywwLTE2LDcuMTYzLTE2LDE2djE2YzAsMy4xNzMtMC41MDEsNi4yMjYtMS40MTUsOS4wOTZjLTMuOTc5LDEuNzQ1LTcuNTI2LDMuOTUzLTEwLjg0MSw2LjY0OCYjMTA7JiM5OyYjOTsmIzk7bDAuMDE0LDAuMDE0QzAuNjcyLDQ4Ljg0NCwwLDUwLjM0NCwwLDUydjhjMCwyLjIxMSwxLjc4OSw0LDQsNGg1NmMyLjIxMSwwLDQtMS43ODksNC00di04QzY0LDUwLjM0NCw2My4zMjgsNDguODQ0LDYyLjI0Miw0Ny43NTgmIzEwOyYjOTsmIzk7JiM5O3ogTTE2LDMyVjE2YzAtNy43MzIsNi4yNjgtMTQsMTQtMTRoNGM3LjczMiwwLDE0LDYuMjY4LDE0LDE0djE2YzAsMi44MDYsMC4zODIsNS41MTksMS4wNjIsOC4xMTEmIzEwOyYjOTsmIzk7JiM5O2MtMi43NzEtMS4wNjItNS43MDktMS44ODgtOC43OTgtMi40NjFDNDMuNTA4LDM0LjE0MSw0NiwyOC42OTUsNDYsMjJjMC0wLjQzNSwwLTAuNzU0LDAtMWMwLTQuNDE4LTMuNTgyLTgtOC04aC00JiMxMDsmIzk7JiM5OyYjOTtjLTIuMjA5LDAtNC0xLjc5MS00LTRjMC0wLjU1My0wLjQ0Ny0xLTEtMXMtMSwwLjQ0Ny0xLDFjMCwyLjIwOS0xLjc5MSw0LTQsNGMtMy4zMTMsMC02LDIuNjg3LTYsNmMwLDAsMCwyLjU2NSwwLDMmIzEwOyYjOTsmIzk7JiM5O2MwLDYuNzE5LDIuNTA5LDEyLjE4MSw1Ljc3LDE1LjY4OWMtMy4yLDAuNjA1LTYuMTIxLDEuNDI1LTguODM4LDIuNDQzQzE1LjYxNSwzNy41MzQsMTYsMzQuODEzLDE2LDMyeiBNMjUuNjc3LDM5LjQzOSYjMTA7JiM5OyYjOTsmIzk7QzI3Ljc2LDQxLjA4NCwyOS45OSw0MiwzMiw0MnM0LjI0LTAuOTE2LDYuMzIzLTIuNTYxYzIuNzQzLDAuMzc4LDUuMzk5LDEuMDE4LDcuOTY2LDEuODU3JiMxMDsmIzk7JiM5OyYjOTtjLTIuNDY4LDIuNDY4LTEzLjMxMSwxMy4zMTEtMTMuNjkxLDEzLjY5MWMtMC40MywwLjQzLTAuNzQ4LDAuNDQ3LTEuMTgzLDAuMDEzQzMxLjAzLDU0LjYxNiwyMC4xOCw0My43NjYsMTcuNzExLDQxLjI5NyYjMTA7JiM5OyYjOTsmIzk7QzIwLjI3Nyw0MC40NTcsMjIuOTM0LDM5LjgxNywyNS42NzcsMzkuNDM5eiBNMjAsMjJjMC0wLjUsMC0zLDAtM2MwLTIuMjA5LDEuNzkxLTQsNC00YzIuMDg4LDAsMy45MjYtMS4wNjgsNS0yLjY4NyYjMTA7JiM5OyYjOTsmIzk7QzMwLjA3NCwxMy45MzIsMzEuOTEyLDE1LDM0LDE1aDRjMy4zMTMsMCw2LDIuNjg3LDYsNmMwLDAuMTg4LDAsMC41LDAsMWMwLDEyLTcuNDY5LDE4LTEyLDE4UzIwLDM0LDIwLDIyeiBNNjIsNjAmIzEwOyYjOTsmIzk7JiM5O2MwLDEuMTA0LTAuODk2LDItMiwySDRjLTEuMTA0LDAtMi0wLjg5Ni0yLTJ2LThjMC0xLjEwNCwwLjQ0Ny0yLjEwNCwxLjE3Mi0yLjgyOGwtMC4wMDQtMC4wMDQmIzEwOyYjOTsmIzk7JiM5O2MzLjcxNi0yLjk5NCw3LjkxOC01LjQwMSwxMi40NTMtNy4xMzNsMTQuMTcyLDE0LjE3MmMxLjUsMS41LDIuOTE0LDEuNSw0LjQxNCwwbDE0LjE3Mi0xNC4xNzImIzEwOyYjOTsmIzk7JiM5O2M0LjUzNSwxLjczMSw4LjczNyw0LjEzOSwxMi40NTMsNy4xMzNsLTAuMDA0LDAuMDA0QzYxLjU1Myw0OS44OTYsNjIsNTAuODk2LDYyLDUyVjYweiIgZmlsbD0iIzM5NDI0MCIvPiYjeGE7CQk8cGF0aCBkPSJNMjYuOTk4LDIwYy0xLjY5MSwwLTIuNjE4LDAuOTgzLTIuOSwxLjU2NGMtMC4yMzMsMC40ODItMC4wMzQsMS4wNDUsMC40MzksMS4yOTgmIzEwOyYjOTsmIzk7JiM5O2MwLjQ3NSwwLjI1NSwxLjA3MywwLjA2OCwxLjM0NS0wLjM5NkMyNS45MSwyMi40MTksMjYuMTgsMjIsMjYuOTk4LDIyYzAuODA4LDAsMS4wOTYsMC40MzYsMS4xMTEsMC40NTgmIzEwOyYjOTsmIzk7JiM5O0MyOC4yODcsMjIuODAzLDI4LjYzNywyMywyOC45OTksMjNjMC4xNTQsMCwwLjMxMS0wLjAzNSwwLjQ1Ny0wLjExMWMwLjQ5MS0wLjI1MywwLjY4NC0wLjg1NiwwLjQzMS0xLjM0NyYjMTA7JiM5OyYjOTsmIzk7QzI5LjU5MiwyMC45NjksMjguNjUxLDIwLDI2Ljk5OCwyMHoiIGZpbGw9IiMzOTQyNDAiLz4mI3hhOwkJPHBhdGggZD0iTTM0LjUzOSwyMi44NjJjMC40NzUsMC4yNTUsMS4wNzMsMC4wNjgsMS4zNDUtMC4zOTZDMzUuOTEyLDIyLjQxOSwzNi4xODIsMjIsMzcsMjImIzEwOyYjOTsmIzk7JiM5O2MwLjgwOCwwLDEuMDk2LDAuNDM2LDEuMTExLDAuNDU4QzM4LjI4OSwyMi44MDMsMzguNjM5LDIzLDM5LjAwMSwyM2MwLjE1NCwwLDAuMzExLTAuMDM1LDAuNDU3LTAuMTExJiMxMDsmIzk7JiM5OyYjOTtjMC40OTEtMC4yNTMsMC42ODQtMC44NTYsMC40MzEtMS4zNDdDMzkuNTk0LDIwLjk2OSwzOC42NTMsMjAsMzcsMjBjLTEuNjkxLDAtMi42MTgsMC45ODMtMi45LDEuNTY0JiMxMDsmIzk7JiM5OyYjOTtDMzMuODY2LDIyLjA0NywzNC4wNjUsMjIuNjA5LDM0LjUzOSwyMi44NjJ6IiBmaWxsPSIjMzk0MjQwIi8+JiN4YTsJPC9nPiYjeGE7PC9nPiYjeGE7PC9zdmc+;" parent="1" vertex="1">
          <mxGeometry x="424" y="448" width="60" height="60" as="geometry" />
        </mxCell>
        <mxCell id="r0GoYTCdLAr58T-955c1-19" style="rounded=0;orthogonalLoop=1;jettySize=auto;html=1;entryX=0;entryY=0.5;entryDx=0;entryDy=0;" parent="1" source="r0GoYTCdLAr58T-955c1-17" target="r0GoYTCdLAr58T-955c1-7" edge="1">
          <mxGeometry relative="1" as="geometry">
            <mxPoint x="494" y="458" as="sourcePoint" />
            <mxPoint x="684" y="305" as="targetPoint" />
          </mxGeometry>
        </mxCell>
        <mxCell id="r0GoYTCdLAr58T-955c1-20" style="rounded=0;orthogonalLoop=1;jettySize=auto;html=1;entryX=0;entryY=0.5;entryDx=0;entryDy=0;" parent="1" source="r0GoYTCdLAr58T-955c1-17" target="r0GoYTCdLAr58T-955c1-8" edge="1">
          <mxGeometry relative="1" as="geometry">
            <mxPoint x="504" y="468" as="sourcePoint" />
            <mxPoint x="694" y="315" as="targetPoint" />
          </mxGeometry>
        </mxCell>
        <mxCell id="r0GoYTCdLAr58T-955c1-21" style="rounded=0;orthogonalLoop=1;jettySize=auto;html=1;entryX=0;entryY=0.5;entryDx=0;entryDy=0;" parent="1" source="r0GoYTCdLAr58T-955c1-17" target="r0GoYTCdLAr58T-955c1-9" edge="1">
          <mxGeometry relative="1" as="geometry">
            <mxPoint x="514" y="478" as="sourcePoint" />
            <mxPoint x="704" y="325" as="targetPoint" />
          </mxGeometry>
        </mxCell>
        <mxCell id="r0GoYTCdLAr58T-955c1-44" value="" style="rounded=1;whiteSpace=wrap;html=1;rotation=0;fillColor=#f5f5f5;strokeColor=#666666;fontColor=#333333;" parent="1" vertex="1">
          <mxGeometry x="673" y="671" width="102.64" height="80" as="geometry" />
        </mxCell>
        <mxCell id="r0GoYTCdLAr58T-955c1-47" value="" style="shape=image;verticalLabelPosition=bottom;labelBackgroundColor=default;verticalAlign=top;aspect=fixed;imageAspect=0;image=data:image/svg+xml,PHN2ZyB4bWxuczp4bGluaz0iaHR0cDovL3d3dy53My5vcmcvMTk5OS94bGluayIgeG1sbnM9Imh0dHA6Ly93d3cudzMub3JnLzIwMDAvc3ZnIiB4bWw6c3BhY2U9InByZXNlcnZlIiB2aWV3Qm94PSIwIDAgNjQgNjQiIGhlaWdodD0iODAwcHgiIHdpZHRoPSI4MDBweCIgaWQ9IkxheWVyXzEiIHZlcnNpb249IjEuMCI+JiN4YTs8Zz4mI3hhOwk8cGF0aCBkPSJNNTguOTgyLDMyLjA4OEM1OC45ODUsMzIuMDU3LDU5LDMyLjAzMSw1OSwzMmMwLTIuODY2LTAuNTg5LTI4LTIxLTI4SDI2QzEyLjY1NCw0LDUsMTQuMjA2LDUsMzImIzEwOyYjOTsmIzk7YzAsMC4wMzEsMC4wMTUsMC4wNTcsMC4wMTgsMC4wODhDMi4xNzYsMzIuNTU5LDAsMzUuMDI3LDAsMzh2MTBjMCwzLjMwOSwyLjY5MSw2LDYsNnY1YzAsMC41NTMsMC40NDcsMSwxLDFoOGMwLjU1MywwLDEtMC40NDcsMS0xJiMxMDsmIzk7JiM5O3YtNWgzMnY1YzAsMC41NTMsMC40NDcsMSwxLDFoOGMwLjU1MywwLDEtMC40NDcsMS0xdi01YzMuMzA5LDAsNi0yLjY5MSw2LTZWMzhDNjQsMzUuMDI3LDYxLjgyNCwzMi41NTksNTguOTgyLDMyLjA4OHogTTI2LDZoMTImIzEwOyYjOTsmIzk7YzE4LjQ2NywwLDE5LDIzLjMzOSwxOSwyNmgtMmMwLTIuNDU2LTAuNTA1LTI0LTE4LTI0SDI3QzE1LjM5Myw4LDksMTYuNTIzLDksMzJIN0M3LDkuMzc4LDE4LjkwNCw2LDI2LDZ6IE0yNCwyNCYjMTA7JiM5OyYjOTtjLTQuNDE4LDAtOCwzLjU4Mi04LDhoLTVjMC0xOC4xODQsOC43MDEtMjIsMTYtMjJoMTBjNi4zNCwwLDEwLjkwOSwzLjE2LDEzLjU4MSw5LjM5NEM1Mi44MjUsMjQuNjMyLDUzLDMwLjM2Nyw1MywzMkgzMiYjMTA7JiM5OyYjOTtDMzIsMjcuNTgyLDI4LjQxOCwyNCwyNCwyNHogTTMwLDMySDE4YzAtMy4zMTMsMi42ODctNiw2LTZTMzAsMjguNjg3LDMwLDMyeiBNMTQsNThIOHYtNGg2VjU4eiBNNTYsNThoLTZ2LTRoNlY1OHogTTYyLDQ4JiMxMDsmIzk7JiM5O2MwLDIuMjA2LTEuNzk0LDQtNCw0SDZjLTIuMjA2LDAtNC0xLjc5NC00LTRWMzhjMC0yLjIwNiwxLjc5NC00LDQtNGg1MmMyLjIwNiwwLDQsMS43OTQsNCw0VjQ4eiIgZmlsbD0iIzIzMUYyMCIvPiYjeGE7CTxwYXRoIGQ9Ik0xMSwzOWMtMi4yMDYsMC00LDEuNzk0LTQsNHMxLjc5NCw0LDQsNHM0LTEuNzk0LDQtNFMxMy4yMDYsMzksMTEsMzl6IE0xMSw0NWMtMS4xMDMsMC0yLTAuODk3LTItMiYjMTA7JiM5OyYjOTtzMC44OTctMiwyLTJzMiwwLjg5NywyLDJTMTIuMTAzLDQ1LDExLDQ1eiIgZmlsbD0iIzIzMUYyMCIvPiYjeGE7CTxwYXRoIGQ9Ik01MywzOWMtMi4yMDYsMC00LDEuNzk0LTQsNHMxLjc5NCw0LDQsNHM0LTEuNzk0LDQtNFM1NS4yMDYsMzksNTMsMzl6IE01Myw0NWMtMS4xMDMsMC0yLTAuODk3LTItMiYjMTA7JiM5OyYjOTtzMC44OTctMiwyLTJzMiwwLjg5NywyLDJTNTQuMTAzLDQ1LDUzLDQ1eiIgZmlsbD0iIzIzMUYyMCIvPiYjeGE7CTxwYXRoIGQ9Ik00Myw0MEgyMWMtMC41NTMsMC0xLDAuNDQ3LTEsMXMwLjQ0NywxLDEsMWgyMmMwLjU1MywwLDEtMC40NDcsMS0xUzQzLjU1Myw0MCw0Myw0MHoiIGZpbGw9IiMyMzFGMjAiLz4mI3hhOwk8cGF0aCBkPSJNNDMsNDRIMjFjLTAuNTUzLDAtMSwwLjQ0Ny0xLDFzMC40NDcsMSwxLDFoMjJjMC41NTMsMCwxLTAuNDQ3LDEtMVM0My41NTMsNDQsNDMsNDR6IiBmaWxsPSIjMjMxRjIwIi8+JiN4YTsJPHBhdGggZD0iTTQyLjcwNywxNS4yOTRjLTAuMzkxLTAuMzkxLTEuMDIzLTAuMzkxLTEuNDE0LDBzLTAuMzkxLDEuMDIzLDAsMS40MTRsMiwyJiMxMDsmIzk7JiM5O2MwLjE5NSwwLjE5NSwwLjQ1MSwwLjI5MywwLjcwNywwLjI5M3MwLjUxMi0wLjA5OCwwLjcwNy0wLjI5M2MwLjM5MS0wLjM5MSwwLjM5MS0xLjAyMywwLTEuNDE0TDQyLjcwNywxNS4yOTR6IiBmaWxsPSIjMjMxRjIwIi8+JiN4YTsJPHBhdGggZD0iTTM3LjcwNywxNS4yOTNjLTAuMzkxLTAuMzkxLTEuMDIzLTAuMzkxLTEuNDE0LDBzLTAuMzkxLDEuMDIzLDAsMS40MTRsNyw3QzQzLjQ4OCwyMy45MDIsNDMuNzQ0LDI0LDQ0LDI0JiMxMDsmIzk7JiM5O3MwLjUxMi0wLjA5OCwwLjcwNy0wLjI5M2MwLjM5MS0wLjM5MSwwLjM5MS0xLjAyMywwLTEuNDE0TDM3LjcwNywxNS4yOTN6IiBmaWxsPSIjMjMxRjIwIi8+JiN4YTs8L2c+JiN4YTs8L3N2Zz4=;rotation=0;" parent="1" vertex="1">
          <mxGeometry x="705" y="691.1428571428571" width="35.714285714285715" height="35.714285714285715" as="geometry" />
        </mxCell>
        <mxCell id="r0GoYTCdLAr58T-955c1-50" value="" style="rounded=1;whiteSpace=wrap;html=1;rotation=0;fillColor=#f5f5f5;strokeColor=#666666;fontColor=#333333;" parent="1" vertex="1">
          <mxGeometry x="675" y="478.14" width="199" height="80" as="geometry" />
        </mxCell>
        <mxCell id="r0GoYTCdLAr58T-955c1-52" value="" style="shape=image;verticalLabelPosition=bottom;labelBackgroundColor=default;verticalAlign=top;aspect=fixed;imageAspect=0;image=data:image/svg+xml,PHN2ZyB4bWxuczp4bGluaz0iaHR0cDovL3d3dy53My5vcmcvMTk5OS94bGluayIgeG1sbnM9Imh0dHA6Ly93d3cudzMub3JnLzIwMDAvc3ZnIiBzdHJva2U9IiMwMDAwMDAiIGZpbGw9IiMwMDAwMDAiIHhtbDpzcGFjZT0icHJlc2VydmUiIHZpZXdCb3g9IjAgMCA2NCA2NCIgaGVpZ2h0PSI4MDBweCIgd2lkdGg9IjgwMHB4IiBpZD0iTGF5ZXJfMSIgdmVyc2lvbj0iMS4wIj4mI3hhOyYjeGE7PGcgc3Ryb2tlLXdpZHRoPSIwIiBpZD0iU1ZHUmVwb19iZ0NhcnJpZXIiLz4mI3hhOyYjeGE7PGcgc3Ryb2tlLWxpbmVqb2luPSJyb3VuZCIgc3Ryb2tlLWxpbmVjYXA9InJvdW5kIiBpZD0iU1ZHUmVwb190cmFjZXJDYXJyaWVyIi8+JiN4YTsmI3hhOzxnIGlkPSJTVkdSZXBvX2ljb25DYXJyaWVyIj4gPGc+IDxyZWN0IGhlaWdodD0iNiIgd2lkdGg9IjYiIGZpbGw9IiNmZmZmZmYiIHk9IjM0IiB4PSIxNiIvPiA8cmVjdCBoZWlnaHQ9IjYiIHdpZHRoPSI2IiBmaWxsPSIjZmZmZmZmIiB5PSIzNCIgeD0iNDIiLz4gPHBhdGggZD0iTTYzLjIxMSwyOS43ODlMMzQuNDM4LDEuMDE1YzAsMC0wLjkzNy0xLjAxNS0yLjQzLTEuMDE1cy0yLjM3NiwwLjk5MS0yLjM3NiwwLjk5MUwyMCwxMC42MDRWNSBjMC0wLjU1My0wLjQ0Ny0xLTEtMWgtNmMtMC41NTMsMC0xLDAuNDQ3LTEsMXYxMy41ODlMMC43ODMsMjkuNzgzQzAuMjQsMzAuMzI2LDAsMzEuMTcyLDAsMzJjMCwxLjY1NiwxLjM0MywzLDMsMyBjMC44MjgsMCwxLjY2Mi0wLjI1MSwyLjIwNS0wLjc5NEw2LDMzLjQxMVY2MGMwLDIuMjExLDEuNzg5LDQsNCw0aDQ0YzIuMjExLDAsNC0xLjc4OSw0LTRWMzMuMzk0bDAuODA0LDAuODA0IEM1OS4zNDcsMzQuNzM5LDYwLjE3MiwzNSw2MSwzNWMxLjY1NywwLDMtMS4zNDMsMy0zQzY0LDMxLjE3MSw2My43NTQsMzAuMzMyLDYzLjIxMSwyOS43ODl6IE0yNCw0MWMwLDAuNTUzLTAuNDQ3LDEtMSwxaC04IGMtMC41NTMsMC0xLTAuNDQ3LTEtMXYtOGMwLTAuNTUzLDAuNDQ3LTEsMS0xaDhjMC41NTMsMCwxLDAuNDQ3LDEsMVY0MXogTTM4LDYyLjAwMkgyNnYtMTVjMC0wLjU1MywwLjQ0Ny0xLDEtMWgxMCBjMC41NTMsMCwxLDAuNDQ3LDEsMVY2Mi4wMDJ6IE01MCw0MWMwLDAuNTUzLTAuNDQ3LDEtMSwxaC04Yy0wLjU1MywwLTEtMC40NDctMS0xdi04YzAtMC41NTMsMC40NDctMSwxLTFoOGMwLjU1MywwLDEsMC40NDcsMSwxIFY0MXogTTYxLDMzYy0wLjI3NiwwLTAuNjAyLTAuMDM2LTAuNzgyLTAuMjE3TDMyLjcxNiw1LjI4MWMtMC4xOTUtMC4xOTUtMC40NTEtMC4yOTMtMC43MDctMC4yOTNzLTAuNTEyLDAuMDk4LTAuNzA3LDAuMjkzIEwzLjc5MSwzMi43OTNDMy42MSwzMi45NzQsMy4yNzYsMzMsMywzM2MtMC41NTMsMC0xLTAuNDQ3LTEtMWMwLTAuMjc2LDAuMDE2LTAuNjIyLDAuMTk3LTAuODAzTDMxLjAzNSwyLjQxIGMwLDAsMC4zNzMtMC40MSwwLjk3NC0wLjQxczAuOTgyLDAuMzk4LDAuOTgyLDAuMzk4bDI4LjgwNiwyOC44MDVDNjEuOTc4LDMxLjM4NCw2MiwzMS43MjQsNjIsMzJDNjIsMzIuNTUyLDYxLjU1MywzMyw2MSwzM3oiIGZpbGw9IiNmZmZmZmYiLz4gPC9nPiA8L2c+JiN4YTsmI3hhOzwvc3ZnPg==;rotation=0;" parent="1" vertex="1">
          <mxGeometry x="707" y="500.28285714285715" width="35.714285714285715" height="35.714285714285715" as="geometry" />
        </mxCell>
        <mxCell id="r0GoYTCdLAr58T-955c1-56" value="" style="rounded=1;whiteSpace=wrap;html=1;rotation=0;fillColor=#f5f5f5;strokeColor=#666666;fontColor=#333333;" parent="1" vertex="1">
          <mxGeometry x="677" y="262" width="267" height="80" as="geometry" />
        </mxCell>
        <mxCell id="r0GoYTCdLAr58T-955c1-57" value="" style="shape=image;verticalLabelPosition=bottom;labelBackgroundColor=default;verticalAlign=top;aspect=fixed;imageAspect=0;image=data:image/svg+xml,PHN2ZyB4bWxuczp4bGluaz0iaHR0cDovL3d3dy53My5vcmcvMTk5OS94bGluayIgeG1sbnM9Imh0dHA6Ly93d3cudzMub3JnLzIwMDAvc3ZnIiB4bWw6c3BhY2U9InByZXNlcnZlIiB2aWV3Qm94PSIwIDAgNjQgNjQiIGhlaWdodD0iODAwcHgiIHdpZHRoPSI4MDBweCIgaWQ9IkxheWVyXzEiIHZlcnNpb249IjEuMCI+JiN4YTs8cGF0aCBkPSJNNjIuNzQzLDI2LjE0M2wtMjIuMDk5LTguODRsMC4zNDktMy4xMzdjMC4wNjUtMC43ODEsMC41MzItNy43NDktMy4wNjEtMTEuNjU0QzM2LjQyLDAuODY4LDM0LjM2OSwwLDMyLDAmIzEwOyYjOTtzLTQuNDIsMC44NjgtNS45MzMsMi41MTJjLTMuNTkzLDMuOTA1LTMuMTI2LDEwLjg3My0zLjA1NSwxMS43MDlsMC4zNywzLjMzNGwtMjIuMTc4LDkuNjFDMC40NzQsMjcuNDgxLDAsMjguMjAzLDAsMjl2NSYjMTA7JiM5O2MwLDEuMTA0LDAuODk2LDIsMiwyaDIzLjQzM2wxLjQ5OSwxMy40OTRsLTYuMTgxLDQuOTQ0QzIwLjI3Niw1NC44MTcsMjAsNTUuMzkzLDIwLDU2djJjMCwxLjEwNCwwLjg5NiwyLDIsMmg2LjEzJiMxMDsmIzk7YzAuNDE2LDIuMTAxLDEuNjk1LDQsMy44Nyw0YzIuMTg2LDAsMy40NjUtMS45MTYsMy44NzEtNEg0MmMxLjEwNCwwLDItMC44OTYsMi0ydi0yYzAtMC42MDctMC4yNzYtMS4xODMtMC43NTEtMS41NjJsLTYuMTgxLTQuOTQ0JiMxMDsmIzk7TDM4LjU2NywzNkg2MmMxLjEwNCwwLDItMC44OTYsMi0ydi02QzY0LDI3LjE4Myw2My41MDIsMjYuNDQ2LDYyLjc0MywyNi4xNDN6IE0yLDI5bDIxLjYxNC05LjM2NkwyNC43NjYsMzBIMlYyOXogTTI1LjIxLDM0SDJ2LTImIzEwOyYjOTtoMjIuOTg4TDI1LjIxLDM0eiBNMjIsNTh2LTJsNS4xOTMtNC4xNTRMMjcuODc3LDU4SDIyeiBNNDIsNTZ2MmgtNS44NzdsMC42ODQtNi4xNTRMNDIsNTZ6IE0zMy45OTUsNTkuMDQyJiMxMDsmIzk7QzMzLjkwMyw2MC4wNjQsMzMuMzY4LDYyLDMyLDYyYy0xLjM2NywwLTEuOTA2LTEuOTYzLTIuMDA1LTMuMDRsLTQuOTkxLTQ0LjkzM2MtMC4wNDEtMC41MDgtMC40ODMtNi44ODEsMi41MzUtMTAuMTYxJiMxMDsmIzk7QzI4LjY3OSwyLjYyOCwzMC4xOCwyLDMyLDJzMy4zMjEsMC42MjgsNC40NjEsMS44NjZjMy4wMDgsMy4yNywyLjU4MSw5LjU5NiwyLjU0MSwxMC4xMDhMMzMuOTk1LDU5LjA0MnogTTYyLDM0SDM4Ljc4OWwwLjIyMy0ySDYyJiMxMDsmIzk7VjM0eiBNNjIsMzBIMzkuMjM0bDEuMTgxLTEwLjYzNEw2MiwyOFYzMHoiIGZpbGw9IiMyMzFGMjAiLz4mI3hhOzwvc3ZnPg==;rotation=60;" parent="1" vertex="1">
          <mxGeometry x="709" y="281.14285714285717" width="35.714285714285715" height="35.714285714285715" as="geometry" />
        </mxCell>
        <mxCell id="r0GoYTCdLAr58T-955c1-76" value="" style="shape=image;verticalLabelPosition=bottom;labelBackgroundColor=default;verticalAlign=top;aspect=fixed;imageAspect=0;image=data:image/svg+xml,PHN2ZyB4bWxucz0iaHR0cDovL3d3dy53My5vcmcvMjAwMC9zdmciIGZpbGw9Im5vbmUiIHZpZXdCb3g9IjAgMCA0OCA0OCIgaGVpZ2h0PSI4MDBweCIgd2lkdGg9IjgwMHB4Ij4mI3hhOyYjeGE7PGcgc3Ryb2tlLXdpZHRoPSIwIiBpZD0iU1ZHUmVwb19iZ0NhcnJpZXIiLz4mI3hhOyYjeGE7PGcgc3Ryb2tlLWxpbmVqb2luPSJyb3VuZCIgc3Ryb2tlLWxpbmVjYXA9InJvdW5kIiBpZD0iU1ZHUmVwb190cmFjZXJDYXJyaWVyIi8+JiN4YTsmI3hhOzxnIGlkPSJTVkdSZXBvX2ljb25DYXJyaWVyIj4gPHBhdGggc3Ryb2tlLWxpbmVqb2luPSJyb3VuZCIgc3Ryb2tlLXdpZHRoPSIyIiBzdHJva2U9IiM2OTcyNzAiIGZpbGw9IiMiIGQ9Ik0zNiAzM0w0MiA0QzQyIDQgMzEuNSA2IDMxLjUgMTBDMzEuNSAxMi41IDM1LjUgMTQgMzQgMTUuNUMzMi41IDE3IDI3IDE4LjUgMjcgMjIuNUMyNyAyNSAyOC42NDA2IDI2Ljg1OTQgMjcgMjguNUMyNS41IDMwIDI0IDI5LjIxNDMgMjEuNSAyOC41QzE4LjcgMjcuNyAxMyAyNyAxMSAyNy41QzkgMjggNi45OTk5NyAyOSA3IDMyQzcuMDAwMDEgMzMuNjQ5MiA4IDM1LjUgMTAuNSAzNkMxMyAzNi41IDE2IDM0IDIwIDM0QzI0IDM0IDI5IDM3IDMyIDM3QzM1IDM3IDM2IDMzIDM2IDMzWiIvPiA8cGF0aCBzdHJva2UtbGluZWpvaW49InJvdW5kIiBzdHJva2Utd2lkdGg9IjIiIHN0cm9rZT0iIzY5NzI3MCIgZD0iTTExIDM2TDggNDRINDFMMzUgMzYiLz4gPC9nPiYjeGE7JiN4YTs8L3N2Zz4=;" parent="1" vertex="1">
          <mxGeometry x="808" y="283" width="38" height="38" as="geometry" />
        </mxCell>
        <mxCell id="r0GoYTCdLAr58T-955c1-82" style="rounded=0;orthogonalLoop=1;jettySize=auto;html=1;entryX=0;entryY=0.5;entryDx=0;entryDy=0;" parent="1" source="r0GoYTCdLAr58T-955c1-17" target="r0GoYTCdLAr58T-955c1-6" edge="1">
          <mxGeometry relative="1" as="geometry">
            <mxPoint x="494" y="483" as="sourcePoint" />
            <mxPoint x="684" y="448" as="targetPoint" />
          </mxGeometry>
        </mxCell>
        <mxCell id="r0GoYTCdLAr58T-955c1-85" value="Flight" style="text;html=1;strokeColor=none;fillColor=none;align=center;verticalAlign=middle;whiteSpace=wrap;rounded=0;" parent="1" vertex="1">
          <mxGeometry x="696.86" y="318" width="60" height="24" as="geometry" />
        </mxCell>
        <mxCell id="r0GoYTCdLAr58T-955c1-87" value="Remaining seats count: 4" style="text;html=1;strokeColor=none;fillColor=none;align=center;verticalAlign=middle;whiteSpace=wrap;rounded=0;" parent="1" vertex="1">
          <mxGeometry x="762.5" y="318" width="169.5" height="24" as="geometry" />
        </mxCell>
        <mxCell id="r0GoYTCdLAr58T-955c1-88" value="Hotel" style="text;html=1;strokeColor=none;fillColor=none;align=center;verticalAlign=middle;whiteSpace=wrap;rounded=0;" parent="1" vertex="1">
          <mxGeometry x="694.86" y="537.14" width="60" height="21" as="geometry" />
        </mxCell>
        <mxCell id="r0GoYTCdLAr58T-955c1-89" value="Room" style="text;html=1;strokeColor=none;fillColor=none;align=center;verticalAlign=middle;whiteSpace=wrap;rounded=0;" parent="1" vertex="1">
          <mxGeometry x="795" y="537.14" width="60" height="21" as="geometry" />
        </mxCell>
        <mxCell id="r0GoYTCdLAr58T-955c1-91" value="Car" style="text;html=1;strokeColor=none;fillColor=none;align=center;verticalAlign=middle;whiteSpace=wrap;rounded=0;" parent="1" vertex="1">
          <mxGeometry x="692.86" y="730" width="60" height="21" as="geometry" />
        </mxCell>
        <mxCell id="998wLme6r4xHPnH6D-DP-1" value="" style="shape=image;verticalLabelPosition=bottom;labelBackgroundColor=default;verticalAlign=top;aspect=fixed;imageAspect=0;image=data:image/svg+xml,PHN2ZyB4bWxucz0iaHR0cDovL3d3dy53My5vcmcvMjAwMC9zdmciIGZpbGw9Im5vbmUiIHZpZXdCb3g9IjAgMCA0OCA0OCIgaGVpZ2h0PSI4MDBweCIgd2lkdGg9IjgwMHB4Ij4mI3hhOyYjeGE7PGcgc3Ryb2tlLXdpZHRoPSIwIiBpZD0iU1ZHUmVwb19iZ0NhcnJpZXIiLz4mI3hhOyYjeGE7PGcgc3Ryb2tlLWxpbmVqb2luPSJyb3VuZCIgc3Ryb2tlLWxpbmVjYXA9InJvdW5kIiBpZD0iU1ZHUmVwb190cmFjZXJDYXJyaWVyIi8+JiN4YTsmI3hhOzxnIGlkPSJTVkdSZXBvX2ljb25DYXJyaWVyIj4gPHBhdGggc3Ryb2tlLWxpbmVqb2luPSJyb3VuZCIgc3Ryb2tlLXdpZHRoPSIyIiBzdHJva2U9IiMzOTQyNDAiIGZpbGw9IiNCNENDQjkiIGQ9Ik0zNiAzM0w0MiA0QzQyIDQgMzEuNSA2IDMxLjUgMTBDMzEuNSAxMi41IDM1LjUgMTQgMzQgMTUuNUMzMi41IDE3IDI3IDE4LjUgMjcgMjIuNUMyNyAyNSAyOC42NDA2IDI2Ljg1OTQgMjcgMjguNUMyNS41IDMwIDI0IDI5LjIxNDMgMjEuNSAyOC41QzE4LjcgMjcuNyAxMyAyNyAxMSAyNy41QzkgMjggNi45OTk5NyAyOSA3IDMyQzcuMDAwMDEgMzMuNjQ5MiA4IDM1LjUgMTAuNSAzNkMxMyAzNi41IDE2IDM0IDIwIDM0QzI0IDM0IDI5IDM3IDMyIDM3QzM1IDM3IDM2IDMzIDM2IDMzWiIvPiA8cGF0aCBzdHJva2UtbGluZWpvaW49InJvdW5kIiBzdHJva2Utd2lkdGg9IjIiIHN0cm9rZT0iIzM5NDI0MCIgZD0iTTExIDM2TDggNDRINDFMMzUgMzYiLz4gPC9nPiYjeGE7JiN4YTs8L3N2Zz4=;" parent="1" vertex="1">
          <mxGeometry x="2104" y="44" width="150.67" height="150.67" as="geometry" />
        </mxCell>
        <mxCell id="998wLme6r4xHPnH6D-DP-2" value="" style="shape=image;verticalLabelPosition=bottom;labelBackgroundColor=default;verticalAlign=top;aspect=fixed;imageAspect=0;image=data:image/svg+xml,PHN2ZyB4bWxuczp4bGluaz0iaHR0cDovL3d3dy53My5vcmcvMTk5OS94bGluayIgeG1sbnM9Imh0dHA6Ly93d3cudzMub3JnLzIwMDAvc3ZnIiBmaWxsPSIjMDAwMDAwIiB4bWw6c3BhY2U9InByZXNlcnZlIiB2ZXJzaW9uPSIxLjEiIGlkPSJMYXllcl8xIiB2aWV3Qm94PSIwIDAgNTEyIDUxMiIgaGVpZ2h0PSI4MDBweCIgd2lkdGg9IjgwMHB4Ij4mI3hhOyYjeGE7PGcgc3Ryb2tlLXdpZHRoPSIwIiBpZD0iU1ZHUmVwb19iZ0NhcnJpZXIiLz4mI3hhOyYjeGE7PGcgc3Ryb2tlLWxpbmVqb2luPSJyb3VuZCIgc3Ryb2tlLWxpbmVjYXA9InJvdW5kIiBpZD0iU1ZHUmVwb190cmFjZXJDYXJyaWVyIi8+JiN4YTsmI3hhOzxnIGlkPSJTVkdSZXBvX2ljb25DYXJyaWVyIj4gPGc+IDxnPiA8cGF0aCBmaWxsPSIjMzk0MjQwIiBkPSJNMzkyLjA3NSw0MjIuMDI3aC0yNzIuMTVjLTUuNTIzLDAtMTAtNC40NzgtMTAtMTB2LTE3My4yN2MwLTUuNTIyLDQuNDc3LTEwLDEwLTEwaDI3Mi4xNSBjNS41MjMsMCwxMCw0LjQ3OCwxMCwxMHYxNzMuMjdDNDAyLjA3NSw0MTcuNTUsMzk3LjU5OCw0MjIuMDI3LDM5Mi4wNzUsNDIyLjAyN3ogTTEyOS45MjUsNDAyLjAyN2gyNTIuMTV2LTE1My4yN2gtMjUyLjE1IFY0MDIuMDI3eiIvPiA8L2c+IDxnPiA8Zz4gPGxpbmUgeTI9IjE1NS45MDYiIHkxPSIyMzguMjc1IiB4Mj0iMjU2Ljk3MSIgeDE9IjI1Ni45NzEiIGZpbGw9IiNGNzZENTciLz4gPHBhdGggZmlsbD0iIzM5NDI0MCIgZD0iTTI1Ni45NzEsMjQ4LjI3NWMtNS41MjMsMC0xMC00LjQ3OC0xMC0xMHYtODIuMzY5YzAtNS41MjIsNC40NzctMTAsMTAtMTBzMTAsNC40NzgsMTAsMTB2ODIuMzY5IEMyNjYuOTcxLDI0My43OTgsMjYyLjQ5NCwyNDguMjc1LDI1Ni45NzEsMjQ4LjI3NXoiLz4gPC9nPiA8Zz4gPHBvbHlnb24gcG9pbnRzPSIzMTIuNzYsMTU1LjkwNiAyMDEuMTgsMTU1LjkwNiAyMTIuMjQ1LDUwLjgxOCAzMDEuNjk2LDUwLjgxOCIgZmlsbD0iI0Y3NkQ1NyIvPiA8cGF0aCBmaWxsPSIjMzk0MjQwIiBkPSJNMzEyLjc4LDE2NS45MDZjLTAuMDA3LDAtMC4wMTMsMC0wLjAyLDBIMjAxLjE4Yy0yLjgzNCwwLTUuNTM2LTEuMjAzLTcuNDMyLTMuMzEgcy0yLjgxLTQuOTE5LTIuNTEzLTcuNzM3TDIwMi4zLDQ5Ljc3MWMwLjUzNi01LjA5LDQuODI3LTguOTUzLDkuOTQ1LTguOTUzaDg5LjQ1MWM1LjExOCwwLDkuNDA5LDMuODYzLDkuOTQ1LDguOTUzIGwxMC45OTYsMTA0LjQzOGMwLjA5NCwwLjU1MSwwLjE0NCwxLjExOCwwLjE0NCwxLjY5NkMzMjIuNzgsMTYxLjQyOSwzMTguMzAzLDE2NS45MDYsMzEyLjc4LDE2NS45MDZ6IE0yMTIuMjg5LDE0NS45MDZoODkuMzYzIGwtOC45NTgtODUuMDg4aC03MS40NDZMMjEyLjI4OSwxNDUuOTA2eiIvPiA8L2c+IDwvZz4gPGc+IDxwYXRoIGZpbGw9IiMzOTQyNDAiIGQ9Ik0yODQuNjMyLDE5OS4yNDhjLTUuNTIzLDAtMTAtNC40NzgtMTAtMTB2LTMzLjM0MmMwLTUuNTIyLDQuNDc3LTEwLDEwLTEwczEwLDQuNDc4LDEwLDEwdjMzLjM0MiBDMjk0LjYzMiwxOTQuNzcxLDI5MC4xNTUsMTk5LjI0OCwyODQuNjMyLDE5OS4yNDh6Ii8+IDwvZz4gPGc+IDxwYXRoIGZpbGw9IiMzOTQyNDAiIGQ9Ik0xMTkuOTI1LDQ3MS4xODJjLTUuNTIzLDAtMTAtNC40NzgtMTAtMTB2LTQ5LjE1NGMwLTUuNTIyLDQuNDc3LTEwLDEwLTEwczEwLDQuNDc4LDEwLDEwdjQ5LjE1NCBDMTI5LjkyNSw0NjYuNzA0LDEyNS40NDgsNDcxLjE4MiwxMTkuOTI1LDQ3MS4xODJ6Ii8+IDwvZz4gPGc+IDxwYXRoIGZpbGw9IiMzOTQyNDAiIGQ9Ik0zOTIuMDc1LDQ3MS4xODJjLTUuNTIzLDAtMTAtNC40NzgtMTAtMTB2LTQ5LjE1NGMwLTUuNTIyLDQuNDc3LTEwLDEwLTEwczEwLDQuNDc4LDEwLDEwdjQ5LjE1NCBDNDAyLjA3NSw0NjYuNzA0LDM5Ny41OTgsNDcxLjE4MiwzOTIuMDc1LDQ3MS4xODJ6Ii8+IDwvZz4gPGc+IDxwYXRoIGZpbGw9IiMzOTQyNDAiIGQ9Ik0yODQuNjMyLDMzNS4zOTNoLTY0LjI4MWMtNS41MjMsMC0xMC00LjQ3OC0xMC0xMHM0LjQ3Ny0xMCwxMC0xMGg2NC4yODFjNS41MjMsMCwxMCw0LjQ3OCwxMCwxMCBTMjkwLjE1NSwzMzUuMzkzLDI4NC42MzIsMzM1LjM5M3oiLz4gPC9nPiA8Zz4gPHJlY3QgeT0iMjM4Ljc1OCIgeD0iMTE5LjkyNSIgd2lkdGg9IjI3Mi4xNSIgaGVpZ2h0PSIxNzMuMjciIGZpbGw9IiNGOUVCQjIiLz4gPHBhdGggZmlsbD0iIzM5NDI0MCIgZD0iTTM5Mi4wNzUsNDIyLjAyN2gtMjcyLjE1Yy01LjUyMywwLTEwLTQuNDc4LTEwLTEwdi0xNzMuMjdjMC01LjUyMiw0LjQ3Ny0xMCwxMC0xMGgyNzIuMTUgYzUuNTIzLDAsMTAsNC40NzgsMTAsMTB2MTczLjI3QzQwMi4wNzUsNDE3LjU1LDM5Ny41OTgsNDIyLjAyNywzOTIuMDc1LDQyMi4wMjd6IE0xMjkuOTI1LDQwMi4wMjdoMjUyLjE1di0xNTMuMjdoLTI1Mi4xNSBWNDAyLjAyN3oiLz4gPC9nPiA8Zz4gPGc+IDxsaW5lIHkyPSIxNTUuOTA2IiB5MT0iMjM4LjI3NSIgeDI9IjI1Ni45NzEiIHgxPSIyNTYuOTcxIiBmaWxsPSIjRjc2RDU3Ii8+IDxwYXRoIGZpbGw9IiMzOTQyNDAiIGQ9Ik0yNTYuOTcxLDI0OC4yNzVjLTUuNTIzLDAtMTAtNC40NzgtMTAtMTB2LTgyLjM2OWMwLTUuNTIyLDQuNDc3LTEwLDEwLTEwczEwLDQuNDc4LDEwLDEwdjgyLjM2OSBDMjY2Ljk3MSwyNDMuNzk4LDI2Mi40OTQsMjQ4LjI3NSwyNTYuOTcxLDI0OC4yNzV6Ii8+IDwvZz4gPGc+IDxwb2x5Z29uIHBvaW50cz0iMzEyLjc2LDE1NS45MDYgMjAxLjE4LDE1NS45MDYgMjEyLjI0NSw1MC44MTggMzAxLjY5Niw1MC44MTgiIGZpbGw9IiNGNzZENTciLz4gPHBhdGggZmlsbD0iIzM5NDI0MCIgZD0iTTMxMi43OCwxNjUuOTA2Yy0wLjAwNywwLTAuMDEzLDAtMC4wMiwwSDIwMS4xOGMtMi44MzQsMC01LjUzNi0xLjIwMy03LjQzMi0zLjMxIHMtMi44MS00LjkxOS0yLjUxMy03LjczN0wyMDIuMyw0OS43NzFjMC41MzYtNS4wOSw0LjgyNy04Ljk1Myw5Ljk0NS04Ljk1M2g4OS40NTFjNS4xMTgsMCw5LjQwOSwzLjg2Myw5Ljk0NSw4Ljk1MyBsMTAuOTk2LDEwNC40MzhjMC4wOTQsMC41NTEsMC4xNDQsMS4xMTgsMC4xNDQsMS42OTZDMzIyLjc4LDE2MS40MjksMzE4LjMwMywxNjUuOTA2LDMxMi43OCwxNjUuOTA2eiBNMjEyLjI4OSwxNDUuOTA2aDg5LjM2MyBsLTguOTU4LTg1LjA4OGgtNzEuNDQ2TDIxMi4yODksMTQ1LjkwNnoiLz4gPC9nPiA8L2c+IDxnPiA8cGF0aCBmaWxsPSIjMzk0MjQwIiBkPSJNMjg0LjYzMiwxOTkuMjQ4Yy01LjUyMywwLTEwLTQuNDc4LTEwLTEwdi0zMy4zNDJjMC01LjUyMiw0LjQ3Ny0xMCwxMC0xMHMxMCw0LjQ3OCwxMCwxMHYzMy4zNDIgQzI5NC42MzIsMTk0Ljc3MSwyOTAuMTU1LDE5OS4yNDgsMjg0LjYzMiwxOTkuMjQ4eiIvPiA8L2c+IDxnPiA8cGF0aCBmaWxsPSIjMzk0MjQwIiBkPSJNMTE5LjkyNSw0NzEuMTgyYy01LjUyMywwLTEwLTQuNDc4LTEwLTEwdi00OS4xNTRjMC01LjUyMiw0LjQ3Ny0xMCwxMC0xMHMxMCw0LjQ3OCwxMCwxMHY0OS4xNTQgQzEyOS45MjUsNDY2LjcwNCwxMjUuNDQ4LDQ3MS4xODIsMTE5LjkyNSw0NzEuMTgyeiIvPiA8L2c+IDxnPiA8cGF0aCBmaWxsPSIjMzk0MjQwIiBkPSJNMzkyLjA3NSw0NzEuMTgyYy01LjUyMywwLTEwLTQuNDc4LTEwLTEwdi00OS4xNTRjMC01LjUyMiw0LjQ3Ny0xMCwxMC0xMHMxMCw0LjQ3OCwxMCwxMHY0OS4xNTQgQzQwMi4wNzUsNDY2LjcwNCwzOTcuNTk4LDQ3MS4xODIsMzkyLjA3NSw0NzEuMTgyeiIvPiA8L2c+IDxnPiA8cGF0aCBmaWxsPSIjMzk0MjQwIiBkPSJNMjg0LjYzMiwzMzUuMzkzaC02NC4yODFjLTUuNTIzLDAtMTAtNC40NzgtMTAtMTBzNC40NzctMTAsMTAtMTBoNjQuMjgxYzUuNTIzLDAsMTAsNC40NzgsMTAsMTAgUzI5MC4xNTUsMzM1LjM5MywyODQuNjMyLDMzNS4zOTN6Ii8+IDwvZz4gPC9nPiA8L2c+JiN4YTsmI3hhOzwvc3ZnPg==;" parent="1" vertex="1">
          <mxGeometry x="2156" y="245" width="112" height="112" as="geometry" />
        </mxCell>
        <mxCell id="998wLme6r4xHPnH6D-DP-3" value="" style="shape=image;verticalLabelPosition=bottom;labelBackgroundColor=default;verticalAlign=top;aspect=fixed;imageAspect=0;image=data:image/svg+xml,PHN2ZyB4bWxuczp4bGluaz0iaHR0cDovL3d3dy53My5vcmcvMTk5OS94bGluayIgeG1sbnM9Imh0dHA6Ly93d3cudzMub3JnLzIwMDAvc3ZnIiB4bWw6c3BhY2U9InByZXNlcnZlIiB2aWV3Qm94PSIwIDAgNjQgNjQiIGhlaWdodD0iODAwcHgiIHdpZHRoPSI4MDBweCIgaWQ9IkxheWVyXzEiIHZlcnNpb249IjEuMCI+JiN4YTs8Zz4mI3hhOwk8Zz4mI3hhOwkJPGc+JiN4YTsJCQk8cGF0aCBkPSJNNTAsMmMtMC41NTMsMC0xLDAuNDQ3LTEsMXYxdjJ2NGMwLDAuNTUzLDAuNDQ3LDEsMSwxczEtMC40NDcsMS0xVjZWNFYzQzUxLDIuNDQ3LDUwLjU1MywyLDUwLDJ6IiBmaWxsPSIjNTA2QzdGIi8+JiN4YTsJCQk8cGF0aCBkPSJNMTQsMmMtMC41NTMsMC0xLDAuNDQ3LTEsMXYxdjJ2NGMwLDAuNTUzLDAuNDQ3LDEsMSwxczEtMC40NDcsMS0xVjZWNFYzQzE1LDIuNDQ3LDE0LjU1MywyLDE0LDJ6IiBmaWxsPSIjNTA2QzdGIi8+JiN4YTsJCTwvZz4mI3hhOwkJPHBhdGggZD0iTTYyLDYwYzAsMS4xMDQtMC44OTYsMi0yLDJINGMtMS4xMDQsMC0yLTAuODk2LTItMlYxN2g2MFY2MHoiIGZpbGw9IiNGOUVCQjIiLz4mI3hhOwkJPHBhdGggZD0iTTYyLDE1SDJWOGMwLTEuMTA0LDAuODk2LTIsMi0yaDd2NGMwLDEuNjU3LDEuMzQzLDMsMywzczMtMS4zNDMsMy0zVjZoMzB2NGMwLDEuNjU3LDEuMzQzLDMsMywzJiMxMDsmIzk7JiM5OyYjOTtzMy0xLjM0MywzLTNWNmg3YzEuMTA0LDAsMiwwLjg5NiwyLDJWMTV6IiBmaWxsPSIjRjc2RDU3Ii8+JiN4YTsJCTxnPiYjeGE7CQkJPHBhdGggZD0iTTExLDU0aDZjMC41NTMsMCwxLTAuNDQ3LDEtMXYtNWMwLTAuNTUzLTAuNDQ3LTEtMS0xaC02Yy0wLjU1MywwLTEsMC40NDctMSwxdjUmIzEwOyYjOTsmIzk7JiM5OyYjOTtDMTAsNTMuNTUzLDEwLjQ0Nyw1NCwxMSw1NHogTTEyLDQ5aDR2M2gtNFY0OXoiIGZpbGw9IiMzOTQyNDAiLz4mI3hhOwkJCTxwYXRoIGQ9Ik0yMyw1NGg2YzAuNTUzLDAsMS0wLjQ0NywxLTF2LTVjMC0wLjU1My0wLjQ0Ny0xLTEtMWgtNmMtMC41NTMsMC0xLDAuNDQ3LTEsMXY1JiMxMDsmIzk7JiM5OyYjOTsmIzk7QzIyLDUzLjU1MywyMi40NDcsNTQsMjMsNTR6IE0yNCw0OWg0djNoLTRWNDl6IiBmaWxsPSIjMzk0MjQwIi8+JiN4YTsJCQk8cGF0aCBkPSJNMzUsNTRoNmMwLjU1MywwLDEtMC40NDcsMS0xdi01YzAtMC41NTMtMC40NDctMS0xLTFoLTZjLTAuNTUzLDAtMSwwLjQ0Ny0xLDF2NSYjMTA7JiM5OyYjOTsmIzk7JiM5O0MzNCw1My41NTMsMzQuNDQ3LDU0LDM1LDU0eiBNMzYsNDloNHYzaC00VjQ5eiIgZmlsbD0iIzM5NDI0MCIvPiYjeGE7CQkJPHBhdGggZD0iTTExLDQzaDZjMC41NTMsMCwxLTAuNDQ3LDEtMXYtNWMwLTAuNTUzLTAuNDQ3LTEtMS0xaC02Yy0wLjU1MywwLTEsMC40NDctMSwxdjUmIzEwOyYjOTsmIzk7JiM5OyYjOTtDMTAsNDIuNTUzLDEwLjQ0Nyw0MywxMSw0M3ogTTEyLDM4aDR2M2gtNFYzOHoiIGZpbGw9IiMzOTQyNDAiLz4mI3hhOwkJCTxwYXRoIGQ9Ik0yMyw0M2g2YzAuNTUzLDAsMS0wLjQ0NywxLTF2LTVjMC0wLjU1My0wLjQ0Ny0xLTEtMWgtNmMtMC41NTMsMC0xLDAuNDQ3LTEsMXY1JiMxMDsmIzk7JiM5OyYjOTsmIzk7QzIyLDQyLjU1MywyMi40NDcsNDMsMjMsNDN6IE0yNCwzOGg0djNoLTRWMzh6IiBmaWxsPSIjMzk0MjQwIi8+JiN4YTsJCQk8cGF0aCBkPSJNMzUsNDNoNmMwLjU1MywwLDEtMC40NDcsMS0xdi01YzAtMC41NTMtMC40NDctMS0xLTFoLTZjLTAuNTUzLDAtMSwwLjQ0Ny0xLDF2NSYjMTA7JiM5OyYjOTsmIzk7JiM5O0MzNCw0Mi41NTMsMzQuNDQ3LDQzLDM1LDQzeiBNMzYsMzhoNHYzaC00VjM4eiIgZmlsbD0iIzM5NDI0MCIvPiYjeGE7CQkJPHBhdGggZD0iTTQ3LDQzaDZjMC41NTMsMCwxLTAuNDQ3LDEtMXYtNWMwLTAuNTUzLTAuNDQ3LTEtMS0xaC02Yy0wLjU1MywwLTEsMC40NDctMSwxdjUmIzEwOyYjOTsmIzk7JiM5OyYjOTtDNDYsNDIuNTUzLDQ2LjQ0Nyw0Myw0Nyw0M3ogTTQ4LDM4aDR2M2gtNFYzOHoiIGZpbGw9IiMzOTQyNDAiLz4mI3hhOwkJCTxwYXRoIGQ9Ik0xMSwzMmg2YzAuNTUzLDAsMS0wLjQ0NywxLTF2LTVjMC0wLjU1My0wLjQ0Ny0xLTEtMWgtNmMtMC41NTMsMC0xLDAuNDQ3LTEsMXY1JiMxMDsmIzk7JiM5OyYjOTsmIzk7QzEwLDMxLjU1MywxMC40NDcsMzIsMTEsMzJ6IE0xMiwyN2g0djNoLTRWMjd6IiBmaWxsPSIjMzk0MjQwIi8+JiN4YTsJCQk8cGF0aCBkPSJNMjMsMzJoNmMwLjU1MywwLDEtMC40NDcsMS0xdi01YzAtMC41NTMtMC40NDctMS0xLTFoLTZjLTAuNTUzLDAtMSwwLjQ0Ny0xLDF2NSYjMTA7JiM5OyYjOTsmIzk7JiM5O0MyMiwzMS41NTMsMjIuNDQ3LDMyLDIzLDMyeiBNMjQsMjdoNHYzaC00VjI3eiIgZmlsbD0iIzM5NDI0MCIvPiYjeGE7CQkJPHBhdGggZD0iTTM1LDMyaDZjMC41NTMsMCwxLTAuNDQ3LDEtMXYtNWMwLTAuNTUzLTAuNDQ3LTEtMS0xaC02Yy0wLjU1MywwLTEsMC40NDctMSwxdjUmIzEwOyYjOTsmIzk7JiM5OyYjOTtDMzQsMzEuNTUzLDM0LjQ0NywzMiwzNSwzMnogTTM2LDI3aDR2M2gtNFYyN3oiIGZpbGw9IiMzOTQyNDAiLz4mI3hhOwkJCTxwYXRoIGQ9Ik00NywzMmg2YzAuNTUzLDAsMS0wLjQ0NywxLTF2LTVjMC0wLjU1My0wLjQ0Ny0xLTEtMWgtNmMtMC41NTMsMC0xLDAuNDQ3LTEsMXY1JiMxMDsmIzk7JiM5OyYjOTsmIzk7QzQ2LDMxLjU1Myw0Ni40NDcsMzIsNDcsMzJ6IE00OCwyN2g0djNoLTRWMjd6IiBmaWxsPSIjMzk0MjQwIi8+JiN4YTsJCQk8cGF0aCBkPSJNNjAsNGgtN1YzYzAtMS42NTctMS4zNDMtMy0zLTNzLTMsMS4zNDMtMywzdjFIMTdWM2MwLTEuNjU3LTEuMzQzLTMtMy0zcy0zLDEuMzQzLTMsM3YxSDQmIzEwOyYjOTsmIzk7JiM5OyYjOTtDMS43ODksNCwwLDUuNzg5LDAsOHY1MmMwLDIuMjExLDEuNzg5LDQsNCw0aDU2YzIuMjExLDAsNC0xLjc4OSw0LTRWOEM2NCw1Ljc4OSw2Mi4yMTEsNCw2MCw0eiBNNDksM2MwLTAuNTUzLDAuNDQ3LTEsMS0xJiMxMDsmIzk7JiM5OyYjOTsmIzk7czEsMC40NDcsMSwxdjdjMCwwLjU1My0wLjQ0NywxLTEsMXMtMS0wLjQ0Ny0xLTFWM3ogTTEzLDNjMC0wLjU1MywwLjQ0Ny0xLDEtMXMxLDAuNDQ3LDEsMXY3YzAsMC41NTMtMC40NDcsMS0xLDFzLTEtMC40NDctMS0xJiMxMDsmIzk7JiM5OyYjOTsmIzk7VjN6IE02Miw2MGMwLDEuMTA0LTAuODk2LDItMiwySDRjLTEuMTA0LDAtMi0wLjg5Ni0yLTJWMTdoNjBWNjB6IE02MiwxNUgyVjhjMC0xLjEwNCwwLjg5Ni0yLDItMmg3djRjMCwxLjY1NywxLjM0MywzLDMsMyYjMTA7JiM5OyYjOTsmIzk7JiM5O3MzLTEuMzQzLDMtM1Y2aDMwdjRjMCwxLjY1NywxLjM0MywzLDMsM3MzLTEuMzQzLDMtM1Y2aDdjMS4xMDQsMCwyLDAuODk2LDIsMlYxNXoiIGZpbGw9IiMzOTQyNDAiLz4mI3hhOwkJPC9nPiYjeGE7CTwvZz4mI3hhOwk8Zz4mI3hhOwkJPHJlY3QgaGVpZ2h0PSIzIiB3aWR0aD0iNCIgZmlsbD0iI0I0Q0NCOSIgeT0iMjciIHg9IjEyIi8+JiN4YTsJCTxyZWN0IGhlaWdodD0iMyIgd2lkdGg9IjQiIGZpbGw9IiNCNENDQjkiIHk9IjI3IiB4PSIyNCIvPiYjeGE7CQk8cmVjdCBoZWlnaHQ9IjMiIHdpZHRoPSI0IiBmaWxsPSIjQjRDQ0I5IiB5PSIyNyIgeD0iMzYiLz4mI3hhOwkJPHJlY3QgaGVpZ2h0PSIzIiB3aWR0aD0iNCIgZmlsbD0iI0I0Q0NCOSIgeT0iMjciIHg9IjQ4Ii8+JiN4YTsJCTxyZWN0IGhlaWdodD0iMyIgd2lkdGg9IjQiIGZpbGw9IiNCNENDQjkiIHk9IjM4IiB4PSIxMiIvPiYjeGE7CQk8cmVjdCBoZWlnaHQ9IjMiIHdpZHRoPSI0IiBmaWxsPSIjQjRDQ0I5IiB5PSIzOCIgeD0iMjQiLz4mI3hhOwkJPHJlY3QgaGVpZ2h0PSIzIiB3aWR0aD0iNCIgZmlsbD0iI0I0Q0NCOSIgeT0iMzgiIHg9IjM2Ii8+JiN4YTsJCTxyZWN0IGhlaWdodD0iMyIgd2lkdGg9IjQiIGZpbGw9IiNCNENDQjkiIHk9IjM4IiB4PSI0OCIvPiYjeGE7CQk8cmVjdCBoZWlnaHQ9IjMiIHdpZHRoPSI0IiBmaWxsPSIjQjRDQ0I5IiB5PSI0OSIgeD0iMTIiLz4mI3hhOwkJPHJlY3QgaGVpZ2h0PSIzIiB3aWR0aD0iNCIgZmlsbD0iI0I0Q0NCOSIgeT0iNDkiIHg9IjI0Ii8+JiN4YTsJCTxyZWN0IGhlaWdodD0iMyIgd2lkdGg9IjQiIGZpbGw9IiNCNENDQjkiIHk9IjQ5IiB4PSIzNiIvPiYjeGE7CTwvZz4mI3hhOzwvZz4mI3hhOzwvc3ZnPg==;" parent="1" vertex="1">
          <mxGeometry x="2140" y="407" width="124" height="124" as="geometry" />
        </mxCell>
        <mxCell id="998wLme6r4xHPnH6D-DP-5" value="" style="shape=image;verticalLabelPosition=bottom;labelBackgroundColor=default;verticalAlign=top;aspect=fixed;imageAspect=0;image=data:image/svg+xml,PHN2ZyB4bWxucz0iaHR0cDovL3d3dy53My5vcmcvMjAwMC9zdmciIHZpZXdCb3g9IjAgMCAxMDI0IDEwMjQiIGhlaWdodD0iODAwcHgiIHdpZHRoPSI4MDBweCIgZmlsbD0iI0Y5RUJCMiI+JiN4YTsmI3hhOzxnIHN0cm9rZS13aWR0aD0iMCIgaWQ9IlNWR1JlcG9fYmdDYXJyaWVyIi8+JiN4YTsmI3hhOzxnIHN0cm9rZS1saW5lam9pbj0icm91bmQiIHN0cm9rZS1saW5lY2FwPSJyb3VuZCIgaWQ9IlNWR1JlcG9fdHJhY2VyQ2FycmllciIvPiYjeGE7JiN4YTs8ZyBpZD0iU1ZHUmVwb19pY29uQ2FycmllciI+JiN4YTsmI3hhOzxwYXRoIGQ9Ik01MTIgMTAyNEMyMjkuMjMgMTAyNCAwIDc5NC43NyAwIDUxMlMyMjkuMjMgMCA1MTIgMHM1MTIgMjI5LjIzIDUxMiA1MTItMjI5LjIzIDUxMi01MTIgNTEyem05NS43MzEtMjE5Ljk0N2M2Mi40MDMtMjAuMjc2IDExNC4wMzItNTguNjkzIDE1MC44NTktMTA3LjM1N2ExNS43OTMgMTUuNzkzIDAgMDA0LjgwMS0xMy44MjMgMTUuMzAyIDE1LjMwMiAwIDAwLS4wNjItLjQ3M2wtLjAwOC0uMDM5YTE1Ljc1IDE1Ljc1IDAgMDAtOC4zNzgtMTEuNDg4bC00NC43MDktMzIuODkzYTE1LjgzNyAxNS44MzcgMCAwMC0xMy43NS00LjU4N2MtLjEyNC4wMTQtLjI0OS4wMjktLjM3My4wNDZsLS4wNTguMDE0YTE1Ljg4IDE1Ljg4IDAgMDAtMTEuNDc4IDguMjM2Yy0yNS43NzYgMzMuODgxLTYxLjYyNCA2MC41NjMtMTA1LjMxIDc0Ljc1OC0xMTMuNDMyIDM2Ljg1Ni0yMzQuNzkxLTI0LjcyMi0yNzEuNTI1LTEzNy43NzdzMjUuMjUzLTIzNC4yMDYgMTM4LjY4NS0yNzEuMDYyYzEwNi4zMzUtMzQuNTUgMjE4LjkwNCAxNS44MiAyNjIuOTY2IDExNS4xNzVsLTcxLjYyMy0uODAzYy03LjE4Ny0xLjA2Ni0xNC4xODkgMi44ODUtMTYuOTgyIDkuNTgxYTE1Ljc0MyAxNS43NDMgMCAwMDQuNzQ4IDE4LjYwMWwxMjAuOTEgMTI2LjQxYzIuOTk5IDMuMTM1IDcuMTYxIDQuODk5IDExLjUxIDQuODc5czguNTAyLTEuODIzIDExLjQ4NS00Ljk4Nkw4OTAuMzcgNDQ4LjIwNmM1LjI2NS00LjE5MyA3LjMwMy0xMS4yNDIgNS4wODItMTcuNTczYTIwLjUxNiAyMC41MTYgMCAwMC0uMTE5LS4zMTggMTUuODg5IDE1Ljg4OSAwIDAwLS45NDctMi4wOTlsLS4wMzEtLjA3M2MtMy4xMTYtNS43MjktOS40NDgtOC45NTEtMTUuOTM3LTguMTA4bC03MS42NzgtLjQ5NC0uODkyLTIuNzQ0Qzc1My41IDI1NS42ODUgNTc5LjYxIDE2Ny40NSA0MTcuOTUyIDIxOS45NzZTMTY3LjQ3OCA0NDYuMDk1IDIxOS44MjYgNjA3LjIwN2M1Mi4zNDggMTYxLjExMiAyMjYuMjM4IDI0OS4zNDcgMzg3Ljg5NiAxOTYuODIxbC4wMDguMDI3eiIvPiYjeGE7JiN4YTs8L2c+JiN4YTsmI3hhOzwvc3ZnPg==;" parent="1" vertex="1">
          <mxGeometry x="2047" y="622" width="32" height="32" as="geometry" />
        </mxCell>
        <mxCell id="998wLme6r4xHPnH6D-DP-7" value="" style="shape=image;verticalLabelPosition=bottom;labelBackgroundColor=default;verticalAlign=top;aspect=fixed;imageAspect=0;image=data:image/svg+xml,PHN2ZyB4bWxuczp4bGluaz0iaHR0cDovL3d3dy53My5vcmcvMTk5OS94bGluayIgeG1sbnM9Imh0dHA6Ly93d3cudzMub3JnLzIwMDAvc3ZnIiB4bWw6c3BhY2U9InByZXNlcnZlIiB2aWV3Qm94PSIwIDAgMjQgMjQiIHk9IjBweCIgeD0iMHB4IiBpZD0iRmlsbGVkX0ljb25zIiB2ZXJzaW9uPSIxLjEiIHdpZHRoPSI4MDBweCIgaGVpZ2h0PSI4MDBweCIgZmlsbD0iI0Y3NkQ1NyI+JiN4YTsmI3hhOzxnIHN0cm9rZS13aWR0aD0iMCIgaWQ9IlNWR1JlcG9fYmdDYXJyaWVyIi8+JiN4YTsmI3hhOzxnIHN0cm9rZS1saW5lam9pbj0icm91bmQiIHN0cm9rZS1saW5lY2FwPSJyb3VuZCIgaWQ9IlNWR1JlcG9fdHJhY2VyQ2FycmllciIvPiYjeGE7JiN4YTs8ZyBpZD0iU1ZHUmVwb19pY29uQ2FycmllciI+IDxnIGlkPSJTdGF0dXMtRXJyb3ItRmlsbGVkIj4gPHBhdGggZD0iTTEyLDBDNS4zNywwLDAsNS4zNywwLDEyczUuMzcsMTIsMTIsMTJzMTItNS4zNywxMi0xMlMxOC42MywwLDEyLDB6IE0xOC4zOCwxNi42MmwtMS43NywxLjc3TDEyLDEzLjc3bC00LjYyLDQuNjIgbC0xLjc3LTEuNzdMMTAuMjMsMTJMNS42Miw3LjM4bDEuNzctMS43N0wxMiwxMC4yM2w0LjYyLTQuNjJsMS43NywxLjc3TDEzLjc3LDEyTDE4LjM4LDE2LjYyeiIvPiA8L2c+IDwvZz4mI3hhOyYjeGE7PC9zdmc+;" parent="1" vertex="1">
          <mxGeometry x="2249" y="661.6400000000001" width="76.36" height="76.36" as="geometry" />
        </mxCell>
        <mxCell id="998wLme6r4xHPnH6D-DP-8" value="" style="shape=image;verticalLabelPosition=bottom;labelBackgroundColor=default;verticalAlign=top;aspect=fixed;imageAspect=0;image=data:image/svg+xml,PHN2ZyB4bWxucz0iaHR0cDovL3d3dy53My5vcmcvMjAwMC9zdmciIHhtbDpzcGFjZT0icHJlc2VydmUiIHZlcnNpb249IjEuMCIgaGVpZ2h0PSI2NCIgd2lkdGg9IjY0IiB2aWV3Qm94PSIwIDAgNjQgNjQiPiYjeGE7IDxnIGNsYXNzPSJsYXllciI+JiN4YTsgIDx0aXRsZT5MYXllciAxPC90aXRsZT4mI3hhOyAgPGcgaWQ9InN2Z18xIj4mI3hhOyAgIDxwYXRoIGlkPSJzdmdfMiIgZmlsbD0iI0I0Q0NCOSIgZD0ibTYxLjMxLDUyLjgxYzAsMS4wNyAtMC44OCwxLjk1IC0xLjk1LDEuOTVsLTU0LjY5LDBjLTEuMDcsMCAtMS45NSwtMC44OCAtMS45NSwtMS45NWwwLC0zOS4wNmMwLC0xLjA3IDAuODgsLTEuOTUgMS45NSwtMS45NWw3LjgxLDBsLTEuMzgsLTEuMjFjMCwwLjU0IDAuNDQsMC45OCAwLjk4LDAuOThsNy4zMiwtMC4wNGMwLjU0LDAgMC45OCwtMC40NCAwLjk4LC0wLjk4bC0wLjA4LDEuMjVsMjMuNDQsMGwwLjUsLTEuMjVjMCwwLjU0IDAuNDQsMC45OCAwLjk4LDAuOThsNS44NiwwYzAuNTQsMCAwLjk4LC0wLjQ0IDAuOTgsLTAuOThsLTAuNSwxLjI1bDcuODEsMGMxLjA3LDAgMS45NSwwLjg4IDEuOTUsMS45NWwwLDM5LjA2eiIvPiYjeGE7ICAgPHBhdGggaWQ9InN2Z18zIiBmaWxsPSIjNDVBQUI4IiBkPSJtMTQuOTQsNDIuNDNjMC45MiwtMS4yNiAzLjA1LC0zLjI5IDcuMywtMy4yOWM0LjI2LDAgNi40LDIuMDMgNy4zLDMuMjljLTIsMS42IC00LjU0LDIuNTcgLTcuMywyLjU3cy01LjMsLTAuOTcgLTcuMywtMi41N3oiLz4mI3hhOyAgIDxwYXRoIGlkPSJzdmdfNCIgZmlsbD0iIzUwNkM3RiIgZD0ibTMwLjk3LDQxLjA4Yy0xLjI1LC0xLjYyIC0zLjg2LC0zLjkgLTguNzMsLTMuOXMtNy40OCwyLjI4IC04LjczLDMuOWMtMS44NiwtMi4wNyAtMi45OSwtNC44IC0yLjk5LC03LjhjMCwtNi40NyA1LjI0LC0xMS43MiAxMS43MiwtMTEuNzJzMTEuNzIsNS4yNCAxMS43MiwxMS43MmMwLDMgLTEuMTMsNS43MyAtMi45OSw3Ljh6Ii8+JiN4YTsgICA8ZyBpZD0ic3ZnXzUiPiYjeGE7ICAgIDxwYXRoIGlkPSJzdmdfNiIgZmlsbD0iIzM5NDI0MCIgZD0ibTU5LjM5LDkuODRsLTcuODEsMGwwLjA4LDAuOTdjMCwtMC41NCAxLjc4LC0wLjkzIDEuMjQsLTAuOTNsLTEwLjEyLC0wLjA0Yy0wLjU0LDAgMS4wNywwLjQ0IDEuMDcsMC45OGwtMC4wOCwtMC45N2wtMjMuNDQsMGwtMC4yLDAuOThjMCwtMC41NCAxLjg2LC0wLjk4IDEuMzIsLTAuOThsLTEwLjA0LDBjLTAuNTQsMCAwLjksMC40NCAwLjksMC45OGwwLjIsLTAuOThsLTcuODEsMGMtMi4xNiwwIC0zLjkxLDEuNzUgLTMuOTEsMy45MWwwLDM5LjA2YzAsMi4xNiAxLjc1LDMuOTEgMy45MSwzLjkxbDU0LjY5LDBjMi4xNiwwIDMuOTEsLTEuNzUgMy45MSwtMy45MWwwLC0zOS4wNmMwLC0yLjE2IC0xLjc1LC0zLjkxIC0zLjkxLC0zLjkxem0tMTMuNTksMS45NWwzLjkxLDBsMC4xNywtMS45M2wtMy45MSwwbC0wLjE3LDEuOTN6bS0zMC4yMywtMS4yMmwxLjU2LC0wLjJsMS4wNywtMC4zOWwtMy45MSwwbDEuMjcsMC41OXptNDUuNzcsNDIuMjRjMCwxLjA3IC0wLjg4LDEuOTUgLTEuOTUsMS45NWwtNTQuNjksMGMtMS4wNywwIC0xLjk1LC0wLjg4IC0xLjk1LC0xLjk1bDAsLTM5LjA2YzAsLTEuMDcgMC44OCwtMS45NSAxLjk1LC0xLjk1bDcuODEsMGwtMC4xNywtMC44M2MwLDAuNTQgLTEuMDcsMC44MSAtMC41MywwLjgxbDguNjYsMGMwLjU0LDAgLTAuMzIsLTAuMjcgLTAuMzIsLTAuODFsMC4xNywwLjgzbDIzLjQ0LDBsMC4yNSwtMC45NmMwLDAuNTQgLTEuODYsMC45MyAtMS4zMiwwLjkzbDkuNzUsMGMwLjU0LDAgLTAuNjEsLTAuNCAtMC42MSwtMC45M2wtMC4yNSwwLjk2bDcuODEsMGMxLjA3LDAgMS45NSwwLjg4IDEuOTUsMS45NWwwLDM5LjA2eiIvPiYjeGE7ICAgIDxwYXRoIGlkPSJzdmdfNyIgZmlsbD0iIzM5NDI0MCIgZD0ibTQwLjgsMzcuMThsOS43NywwYzAuNTQsMCAwLjk4LC0wLjQ0IDAuOTgsLTAuOThzLTAuNDQsLTAuOTggLTAuOTgsLTAuOThsLTkuNzcsMGMtMC41NCwwIC0wLjk4LDAuNDQgLTAuOTgsMC45OHMwLjQ0LDAuOTggMC45OCwwLjk4eiIvPiYjeGE7ICAgIDxwYXRoIGlkPSJzdmdfOCIgZmlsbD0iIzM5NDI0MCIgZD0ibTU0LjQ3LDI5LjM3bC0xMy42NywwYy0wLjU0LDAgLTAuOTgsMC40NCAtMC45OCwwLjk4czAuNDQsMC45OCAwLjk4LDAuOThsMTMuNjcsMGMwLjU0LDAgMC45OCwtMC40NCAwLjk4LC0wLjk4cy0wLjQ0LC0wLjk4IC0wLjk4LC0wLjk4eiIvPiYjeGE7ICAgIDxwYXRoIGlkPSJzdmdfOSIgZmlsbD0iIzM5NDI0MCIgZD0ibTU0LjQ3LDQxLjA5bC0xMy42NywwYy0wLjU0LDAgLTAuOTgsMC40NCAtMC45OCwwLjk4czAuNDQsMC45OCAwLjk4LDAuOThsMTMuNjcsMGMwLjU0LDAgMC45OCwtMC40NCAwLjk4LC0wLjk4cy0wLjQ0LC0wLjk4IC0wLjk4LC0wLjk4eiIvPiYjeGE7ICAgIDxwYXRoIGlkPSJzdmdfMTAiIGZpbGw9IiMzOTQyNDAiIGQ9Im00MC44LDI1LjQ3bDUuODYsMGMwLjU0LDAgMC45OCwtMC40NCAwLjk4LC0wLjk4cy0wLjQ0LC0wLjk4IC0wLjk4LC0wLjk4bC01Ljg2LDBjLTAuNTQsMCAtMC45OCwwLjQ0IC0wLjk4LDAuOThzMC40NCwwLjk4IDAuOTgsMC45OHoiLz4mI3hhOyAgICA8cGF0aCBpZD0ic3ZnXzExIiBmaWxsPSIjMzk0MjQwIiBkPSJtMjIuMjQsMTkuNjFjLTcuNTUsMCAtMTMuNjcsNi4xMiAtMTMuNjcsMTMuNjdzNi4xMiwxMy42NyAxMy42NywxMy42N3MxMy42NywtNi4xMiAxMy42NywtMTMuNjdzLTYuMTIsLTEzLjY3IC0xMy42NywtMTMuNjd6bTAsMjUuMzljLTIuNzYsMCAtNS4zLC0wLjk3IC03LjMsLTIuNTdjMC45MiwtMS4yNiAzLjA1LC0zLjI5IDcuMywtMy4yOWM0LjI2LDAgNi40LDIuMDMgNy4zLDMuMjljLTIsMS42IC00LjU0LDIuNTcgLTcuMywyLjU3em04LjczLC0zLjkyYy0xLjI1LC0xLjYyIC0zLjg2LC0zLjkgLTguNzMsLTMuOXMtNy40OCwyLjI4IC04LjczLDMuOWMtMS44NiwtMi4wNyAtMi45OSwtNC44IC0yLjk5LC03LjhjMCwtNi40NyA1LjI0LC0xMS43MiAxMS43MiwtMTEuNzJzMTEuNzIsNS4yNCAxMS43MiwxMS43MmMwLDMgLTEuMTMsNS43MyAtMi45OSw3Ljh6Ii8+JiN4YTsgICAgPHBhdGggaWQ9InN2Z18xMiIgZmlsbD0iIzM5NDI0MCIgZD0ibTI3LjEzLDMyLjNsMCwtMS45NWMwLC0yLjcgLTIuMTksLTQuODggLTQuODgsLTQuODhzLTQuODgsMi4xOSAtNC44OCw0Ljg4bDAsMS45NWMwLDIuNyAyLjE5LDQuODggNC44OCw0Ljg4czQuODgsLTIuMTkgNC44OCwtNC44OHptLTEuOTUsMGMwLDEuNjIgLTEuMzEsMi45MyAtMi45MywyLjkzcy0yLjkzLC0xLjMxIC0yLjkzLC0yLjkzbDAsLTEuOTVjMCwtMS42MiAxLjMxLC0yLjkzIDIuOTMsLTIuOTNzMi45MywxLjMxIDIuOTMsMi45M2wwLDEuOTV6Ii8+JiN4YTsgICA8L2c+JiN4YTsgICA8cGF0aCBpZD0ic3ZnXzEzIiBmaWxsPSIjRjlFQkIyIiBkPSJtMjUuMTcsMzIuM2MwLDEuNjIgLTEuMzEsMi45MyAtMi45MywyLjkzcy0yLjkzLC0xLjMxIC0yLjkzLC0yLjkzbDAsLTEuOTVjMCwtMS42MiAxLjMxLC0yLjkzIDIuOTMsLTIuOTNzMi45MywxLjMxIDIuOTMsMi45M2wwLDEuOTV6Ii8+JiN4YTsgIDwvZz4mI3hhOyA8L2c+JiN4YTs8L3N2Zz4=;" parent="1" vertex="1">
          <mxGeometry x="2021.33" y="523.33" width="57.67" height="57.67" as="geometry" />
        </mxCell>
        <mxCell id="998wLme6r4xHPnH6D-DP-9" value="" style="shape=image;verticalLabelPosition=bottom;labelBackgroundColor=default;verticalAlign=top;aspect=fixed;imageAspect=0;image=data:image/svg+xml,PHN2ZyB4bWxuczp4bGluaz0iaHR0cDovL3d3dy53My5vcmcvMTk5OS94bGluayIgeG1sbnM9Imh0dHA6Ly93d3cudzMub3JnLzIwMDAvc3ZnIiBzdHJva2U9IiMwMDAwMDAiIGZpbGw9IiMwMDAwMDAiIHhtbDpzcGFjZT0icHJlc2VydmUiIHZlcnNpb249IjEuMSIgaWQ9IkxheWVyXzEiIHZpZXdCb3g9IjAgMCA1MTIgNTEyIiBoZWlnaHQ9IjgwMHB4IiB3aWR0aD0iODAwcHgiPiYjeGE7JiN4YTs8ZyBzdHJva2Utd2lkdGg9IjAiIGlkPSJTVkdSZXBvX2JnQ2FycmllciIvPiYjeGE7JiN4YTs8ZyBzdHJva2UtbGluZWpvaW49InJvdW5kIiBzdHJva2UtbGluZWNhcD0icm91bmQiIGlkPSJTVkdSZXBvX3RyYWNlckNhcnJpZXIiLz4mI3hhOyYjeGE7PGcgaWQ9IlNWR1JlcG9faWNvbkNhcnJpZXIiPiA8Zz4gPGc+ICYjeGE7PHBhdGggZmlsbD0iIzY5NzI3MCIgZD0iTTM5Mi4wNzUsNDIyLjAyN2gtMjcyLjE1Yy01LjUyMywwLTEwLTQuNDc4LTEwLTEwdi0xNzMuMjdjMC01LjUyMiw0LjQ3Ny0xMCwxMC0xMGgyNzIuMTUgYzUuNTIzLDAsMTAsNC40NzgsMTAsMTB2MTczLjI3QzQwMi4wNzUsNDE3LjU1LDM5Ny41OTgsNDIyLjAyNywzOTIuMDc1LDQyMi4wMjd6IE0xMjkuOTI1LDQwMi4wMjdoMjUyLjE1di0xNTMuMjdoLTI1Mi4xNSBWNDAyLjAyN3oiLz4gJiN4YTs8L2c+ICYjeGE7PGc+ICYjeGE7PGc+ICYjeGE7PGxpbmUgeTI9IjE1NS45MDYiIHkxPSIyMzguMjc1IiB4Mj0iMjU2Ljk3MSIgeDE9IjI1Ni45NzEiIGZpbGw9IiNmZmZmZmYiLz4gJiN4YTs8cGF0aCBmaWxsPSIjNjk3MjcwIiBkPSJNMjU2Ljk3MSwyNDguMjc1Yy01LjUyMywwLTEwLTQuNDc4LTEwLTEwdi04Mi4zNjljMC01LjUyMiw0LjQ3Ny0xMCwxMC0xMHMxMCw0LjQ3OCwxMCwxMHY4Mi4zNjkgQzI2Ni45NzEsMjQzLjc5OCwyNjIuNDk0LDI0OC4yNzUsMjU2Ljk3MSwyNDguMjc1eiIvPiAmI3hhOzwvZz4gPGc+ICYjeGE7JiN4YTs8cGF0aCBmaWxsPSIjNjk3MjcwIiBkPSJNMzEyLjc4LDE2NS45MDZjLTAuMDA3LDAtMC4wMTMsMC0wLjAyLDBIMjAxLjE4Yy0yLjgzNCwwLTUuNTM2LTEuMjAzLTcuNDMyLTMuMzEgcy0yLjgxLTQuOTE5LTIuNTEzLTcuNzM3TDIwMi4zLDQ5Ljc3MWMwLjUzNi01LjA5LDQuODI3LTguOTUzLDkuOTQ1LTguOTUzaDg5LjQ1MWM1LjExOCwwLDkuNDA5LDMuODYzLDkuOTQ1LDguOTUzIGwxMC45OTYsMTA0LjQzOGMwLjA5NCwwLjU1MSwwLjE0NCwxLjExOCwwLjE0NCwxLjY5NkMzMjIuNzgsMTYxLjQyOSwzMTguMzAzLDE2NS45MDYsMzEyLjc4LDE2NS45MDZ6IE0yMTIuMjg5LDE0NS45MDZoODkuMzYzIGwtOC45NTgtODUuMDg4aC03MS40NDZMMjEyLjI4OSwxNDUuOTA2eiIvPiA8L2c+IDwvZz4gPGc+ICYjeGE7PHBhdGggZmlsbD0iIzY5NzI3MCIgZD0iTTI4NC42MzIsMTk5LjI0OGMtNS41MjMsMC0xMC00LjQ3OC0xMC0xMHYtMzMuMzQyYzAtNS41MjIsNC40NzctMTAsMTAtMTBzMTAsNC40NzgsMTAsMTB2MzMuMzQyIEMyOTQuNjMyLDE5NC43NzEsMjkwLjE1NSwxOTkuMjQ4LDI4NC42MzIsMTk5LjI0OHoiLz4gPC9nPiA8Zz4gJiN4YTs8cGF0aCBmaWxsPSIjNjk3MjcwIiBkPSJNMTE5LjkyNSw0NzEuMTgyYy01LjUyMywwLTEwLTQuNDc4LTEwLTEwdi00OS4xNTRjMC01LjUyMiw0LjQ3Ny0xMCwxMC0xMHMxMCw0LjQ3OCwxMCwxMHY0OS4xNTQgQzEyOS45MjUsNDY2LjcwNCwxMjUuNDQ4LDQ3MS4xODIsMTE5LjkyNSw0NzEuMTgyeiIvPiA8L2c+IDxnPiAmI3hhOzxwYXRoIGZpbGw9IiM2OTcyNzAiIGQ9Ik0zOTIuMDc1LDQ3MS4xODJjLTUuNTIzLDAtMTAtNC40NzgtMTAtMTB2LTQ5LjE1NGMwLTUuNTIyLDQuNDc3LTEwLDEwLTEwczEwLDQuNDc4LDEwLDEwdjQ5LjE1NCBDNDAyLjA3NSw0NjYuNzA0LDM5Ny41OTgsNDcxLjE4MiwzOTIuMDc1LDQ3MS4xODJ6Ii8+IDwvZz4gPGc+ICYjeGE7PHBhdGggZmlsbD0iIzY5NzI3MCIgZD0iTTI4NC42MzIsMzM1LjM5M2gtNjQuMjgxYy01LjUyMywwLTEwLTQuNDc4LTEwLTEwczQuNDc3LTEwLDEwLTEwaDY0LjI4MWM1LjUyMywwLDEwLDQuNDc4LDEwLDEwIFMyOTAuMTU1LDMzNS4zOTMsMjg0LjYzMiwzMzUuMzkzeiIvPiA8L2c+IDxnPiAmI3hhOyYjeGE7PHBhdGggZmlsbD0iIzY5NzI3MCIgZD0iTTM5Mi4wNzUsNDIyLjAyN2gtMjcyLjE1Yy01LjUyMywwLTEwLTQuNDc4LTEwLTEwdi0xNzMuMjdjMC01LjUyMiw0LjQ3Ny0xMCwxMC0xMGgyNzIuMTUgYzUuNTIzLDAsMTAsNC40NzgsMTAsMTB2MTczLjI3QzQwMi4wNzUsNDE3LjU1LDM5Ny41OTgsNDIyLjAyNywzOTIuMDc1LDQyMi4wMjd6IE0xMjkuOTI1LDQwMi4wMjdoMjUyLjE1di0xNTMuMjdoLTI1Mi4xNSBWNDAyLjAyN3oiLz4gPC9nPiA8Zz4gPGc+ICYjeGE7PGxpbmUgeTI9IjE1NS45MDYiIHkxPSIyMzguMjc1IiB4Mj0iMjU2Ljk3MSIgeDE9IjI1Ni45NzEiIGZpbGw9IiNmZmZmZmYiLz4gJiN4YTs8cGF0aCBmaWxsPSIjNjk3MjcwIiBkPSJNMjU2Ljk3MSwyNDguMjc1Yy01LjUyMywwLTEwLTQuNDc4LTEwLTEwdi04Mi4zNjljMC01LjUyMiw0LjQ3Ny0xMCwxMC0xMHMxMCw0LjQ3OCwxMCwxMHY4Mi4zNjkgQzI2Ni45NzEsMjQzLjc5OCwyNjIuNDk0LDI0OC4yNzUsMjU2Ljk3MSwyNDguMjc1eiIvPiA8L2c+IDxnPiAmI3hhOyYjeGE7PHBhdGggZmlsbD0iIzY5NzI3MCIgZD0iTTMxMi43OCwxNjUuOTA2Yy0wLjAwNywwLTAuMDEzLDAtMC4wMiwwSDIwMS4xOGMtMi44MzQsMC01LjUzNi0xLjIwMy03LjQzMi0zLjMxIHMtMi44MS00LjkxOS0yLjUxMy03LjczN0wyMDIuMyw0OS43NzFjMC41MzYtNS4wOSw0LjgyNy04Ljk1Myw5Ljk0NS04Ljk1M2g4OS40NTFjNS4xMTgsMCw5LjQwOSwzLjg2Myw5Ljk0NSw4Ljk1MyBsMTAuOTk2LDEwNC40MzhjMC4wOTQsMC41NTEsMC4xNDQsMS4xMTgsMC4xNDQsMS42OTZDMzIyLjc4LDE2MS40MjksMzE4LjMwMywxNjUuOTA2LDMxMi43OCwxNjUuOTA2eiBNMjEyLjI4OSwxNDUuOTA2aDg5LjM2MyBsLTguOTU4LTg1LjA4OGgtNzEuNDQ2TDIxMi4yODksMTQ1LjkwNnoiLz4gPC9nPiA8L2c+IDxnPiAmI3hhOzxwYXRoIGZpbGw9IiM2OTcyNzAiIGQ9Ik0yODQuNjMyLDE5OS4yNDhjLTUuNTIzLDAtMTAtNC40NzgtMTAtMTB2LTMzLjM0MmMwLTUuNTIyLDQuNDc3LTEwLDEwLTEwczEwLDQuNDc4LDEwLDEwdjMzLjM0MiBDMjk0LjYzMiwxOTQuNzcxLDI5MC4xNTUsMTk5LjI0OCwyODQuNjMyLDE5OS4yNDh6Ii8+IDwvZz4gPGc+ICYjeGE7PHBhdGggZmlsbD0iIzY5NzI3MCIgZD0iTTExOS45MjUsNDcxLjE4MmMtNS41MjMsMC0xMC00LjQ3OC0xMC0xMHYtNDkuMTU0YzAtNS41MjIsNC40NzctMTAsMTAtMTBzMTAsNC40NzgsMTAsMTB2NDkuMTU0IEMxMjkuOTI1LDQ2Ni43MDQsMTI1LjQ0OCw0NzEuMTgyLDExOS45MjUsNDcxLjE4MnoiLz4gPC9nPiA8Zz4gJiN4YTs8cGF0aCBmaWxsPSIjNjk3MjcwIiBkPSJNMzkyLjA3NSw0NzEuMTgyYy01LjUyMywwLTEwLTQuNDc4LTEwLTEwdi00OS4xNTRjMC01LjUyMiw0LjQ3Ny0xMCwxMC0xMHMxMCw0LjQ3OCwxMCwxMHY0OS4xNTQgQzQwMi4wNzUsNDY2LjcwNCwzOTcuNTk4LDQ3MS4xODIsMzkyLjA3NSw0NzEuMTgyeiIvPiA8L2c+IDxnPiAmI3hhOzxwYXRoIGZpbGw9IiM2OTcyNzAiIGQ9Ik0yODQuNjMyLDMzNS4zOTNoLTY0LjI4MWMtNS41MjMsMC0xMC00LjQ3OC0xMC0xMHM0LjQ3Ny0xMCwxMC0xMGg2NC4yODFjNS41MjMsMCwxMCw0LjQ3OCwxMCwxMCBTMjkwLjE1NSwzMzUuMzkzLDI4NC42MzIsMzM1LjM5M3oiLz4gPC9nPiA8L2c+IDwvZz4mI3hhOyYjeGE7PC9zdmc+;" parent="1" vertex="1">
          <mxGeometry x="2006" y="361.04" width="64.1" height="64.1" as="geometry" />
        </mxCell>
        <mxCell id="998wLme6r4xHPnH6D-DP-11" value="" style="shape=image;verticalLabelPosition=bottom;labelBackgroundColor=default;verticalAlign=top;aspect=fixed;imageAspect=0;image=data:image/svg+xml,PHN2ZyB4bWxucz0iaHR0cDovL3d3dy53My5vcmcvMjAwMC9zdmciIHZpZXdCb3g9IjAgMCAxMDI0IDEwMjQiIGhlaWdodD0iODAwcHgiIHdpZHRoPSI4MDBweCIgZmlsbD0iIzUwNkM3RiI+JiN4YTsmI3hhOzxnIHN0cm9rZS13aWR0aD0iMCIgaWQ9IlNWR1JlcG9fYmdDYXJyaWVyIi8+JiN4YTsmI3hhOzxnIHN0cm9rZS1saW5lam9pbj0icm91bmQiIHN0cm9rZS1saW5lY2FwPSJyb3VuZCIgaWQ9IlNWR1JlcG9fdHJhY2VyQ2FycmllciIvPiYjeGE7JiN4YTs8ZyBpZD0iU1ZHUmVwb19pY29uQ2FycmllciI+JiN4YTsmI3hhOzxwYXRoIGQ9Ik01MTIgMTAyNEMyMjkuMjMgMTAyNCAwIDc5NC43NyAwIDUxMlMyMjkuMjMgMCA1MTIgMHM1MTIgMjI5LjIzIDUxMiA1MTItMjI5LjIzIDUxMi01MTIgNTEyem05NS43MzEtMjE5Ljk0N2M2Mi40MDMtMjAuMjc2IDExNC4wMzItNTguNjkzIDE1MC44NTktMTA3LjM1N2ExNS43OTMgMTUuNzkzIDAgMDA0LjgwMS0xMy44MjMgMTUuMzAyIDE1LjMwMiAwIDAwLS4wNjItLjQ3M2wtLjAwOC0uMDM5YTE1Ljc1IDE1Ljc1IDAgMDAtOC4zNzgtMTEuNDg4bC00NC43MDktMzIuODkzYTE1LjgzNyAxNS44MzcgMCAwMC0xMy43NS00LjU4N2MtLjEyNC4wMTQtLjI0OS4wMjktLjM3My4wNDZsLS4wNTguMDE0YTE1Ljg4IDE1Ljg4IDAgMDAtMTEuNDc4IDguMjM2Yy0yNS43NzYgMzMuODgxLTYxLjYyNCA2MC41NjMtMTA1LjMxIDc0Ljc1OC0xMTMuNDMyIDM2Ljg1Ni0yMzQuNzkxLTI0LjcyMi0yNzEuNTI1LTEzNy43NzdzMjUuMjUzLTIzNC4yMDYgMTM4LjY4NS0yNzEuMDYyYzEwNi4zMzUtMzQuNTUgMjE4LjkwNCAxNS44MiAyNjIuOTY2IDExNS4xNzVsLTcxLjYyMy0uODAzYy03LjE4Ny0xLjA2Ni0xNC4xODkgMi44ODUtMTYuOTgyIDkuNTgxYTE1Ljc0MyAxNS43NDMgMCAwMDQuNzQ4IDE4LjYwMWwxMjAuOTEgMTI2LjQxYzIuOTk5IDMuMTM1IDcuMTYxIDQuODk5IDExLjUxIDQuODc5czguNTAyLTEuODIzIDExLjQ4NS00Ljk4Nkw4OTAuMzcgNDQ4LjIwNmM1LjI2NS00LjE5MyA3LjMwMy0xMS4yNDIgNS4wODItMTcuNTczYTIwLjUxNiAyMC41MTYgMCAwMC0uMTE5LS4zMTggMTUuODg5IDE1Ljg4OSAwIDAwLS45NDctMi4wOTlsLS4wMzEtLjA3M2MtMy4xMTYtNS43MjktOS40NDgtOC45NTEtMTUuOTM3LTguMTA4bC03MS42NzgtLjQ5NC0uODkyLTIuNzQ0Qzc1My41IDI1NS42ODUgNTc5LjYxIDE2Ny40NSA0MTcuOTUyIDIxOS45NzZTMTY3LjQ3OCA0NDYuMDk1IDIxOS44MjYgNjA3LjIwN2M1Mi4zNDggMTYxLjExMiAyMjYuMjM4IDI0OS4zNDcgMzg3Ljg5NiAxOTYuODIxbC4wMDguMDI3eiIvPiYjeGE7JiN4YTs8L2c+JiN4YTsmI3hhOzwvc3ZnPg==;" parent="1" vertex="1">
          <mxGeometry x="1974" y="681.93" width="105" height="105" as="geometry" />
        </mxCell>
        <mxCell id="998wLme6r4xHPnH6D-DP-13" style="rounded=0;orthogonalLoop=1;jettySize=auto;html=1;" parent="1" source="998wLme6r4xHPnH6D-DP-12" target="r0GoYTCdLAr58T-955c1-52" edge="1">
          <mxGeometry relative="1" as="geometry" />
        </mxCell>
        <mxCell id="998wLme6r4xHPnH6D-DP-12" value="" style="shape=image;verticalLabelPosition=bottom;labelBackgroundColor=default;verticalAlign=top;aspect=fixed;imageAspect=0;image=data:image/svg+xml,PHN2ZyB4bWxuczp4bGluaz0iaHR0cDovL3d3dy53My5vcmcvMTk5OS94bGluayIgeG1sbnM9Imh0dHA6Ly93d3cudzMub3JnLzIwMDAvc3ZnIiBzdHJva2U9IiMwMDAwMDAiIGZpbGw9IiMwMDAwMDAiIHhtbDpzcGFjZT0icHJlc2VydmUiIHZlcnNpb249IjEuMSIgaWQ9IkxheWVyXzEiIHZpZXdCb3g9IjAgMCA1MTIgNTEyIiBoZWlnaHQ9IjgwMHB4IiB3aWR0aD0iODAwcHgiPiYjeGE7JiN4YTs8ZyBzdHJva2Utd2lkdGg9IjAiIGlkPSJTVkdSZXBvX2JnQ2FycmllciIvPiYjeGE7JiN4YTs8ZyBzdHJva2UtbGluZWpvaW49InJvdW5kIiBzdHJva2UtbGluZWNhcD0icm91bmQiIGlkPSJTVkdSZXBvX3RyYWNlckNhcnJpZXIiLz4mI3hhOyYjeGE7PGcgaWQ9IlNWR1JlcG9faWNvbkNhcnJpZXIiPiA8Zz4gPGc+ICYjeGE7PHBhdGggZmlsbD0iIzY5NzI3MCIgZD0iTTM5Mi4wNzUsNDIyLjAyN2gtMjcyLjE1Yy01LjUyMywwLTEwLTQuNDc4LTEwLTEwdi0xNzMuMjdjMC01LjUyMiw0LjQ3Ny0xMCwxMC0xMGgyNzIuMTUgYzUuNTIzLDAsMTAsNC40NzgsMTAsMTB2MTczLjI3QzQwMi4wNzUsNDE3LjU1LDM5Ny41OTgsNDIyLjAyNywzOTIuMDc1LDQyMi4wMjd6IE0xMjkuOTI1LDQwMi4wMjdoMjUyLjE1di0xNTMuMjdoLTI1Mi4xNSBWNDAyLjAyN3oiLz4gJiN4YTs8L2c+ICYjeGE7PGc+ICYjeGE7PGc+ICYjeGE7PGxpbmUgeTI9IjE1NS45MDYiIHkxPSIyMzguMjc1IiB4Mj0iMjU2Ljk3MSIgeDE9IjI1Ni45NzEiIGZpbGw9IiNmZmZmZmYiLz4gJiN4YTs8cGF0aCBmaWxsPSIjNjk3MjcwIiBkPSJNMjU2Ljk3MSwyNDguMjc1Yy01LjUyMywwLTEwLTQuNDc4LTEwLTEwdi04Mi4zNjljMC01LjUyMiw0LjQ3Ny0xMCwxMC0xMHMxMCw0LjQ3OCwxMCwxMHY4Mi4zNjkgQzI2Ni45NzEsMjQzLjc5OCwyNjIuNDk0LDI0OC4yNzUsMjU2Ljk3MSwyNDguMjc1eiIvPiAmI3hhOzwvZz4gPGc+ICYjeGE7JiN4YTs8cGF0aCBmaWxsPSIjNjk3MjcwIiBkPSJNMzEyLjc4LDE2NS45MDZjLTAuMDA3LDAtMC4wMTMsMC0wLjAyLDBIMjAxLjE4Yy0yLjgzNCwwLTUuNTM2LTEuMjAzLTcuNDMyLTMuMzEgcy0yLjgxLTQuOTE5LTIuNTEzLTcuNzM3TDIwMi4zLDQ5Ljc3MWMwLjUzNi01LjA5LDQuODI3LTguOTUzLDkuOTQ1LTguOTUzaDg5LjQ1MWM1LjExOCwwLDkuNDA5LDMuODYzLDkuOTQ1LDguOTUzIGwxMC45OTYsMTA0LjQzOGMwLjA5NCwwLjU1MSwwLjE0NCwxLjExOCwwLjE0NCwxLjY5NkMzMjIuNzgsMTYxLjQyOSwzMTguMzAzLDE2NS45MDYsMzEyLjc4LDE2NS45MDZ6IE0yMTIuMjg5LDE0NS45MDZoODkuMzYzIGwtOC45NTgtODUuMDg4aC03MS40NDZMMjEyLjI4OSwxNDUuOTA2eiIvPiA8L2c+IDwvZz4gPGc+ICYjeGE7PHBhdGggZmlsbD0iIzY5NzI3MCIgZD0iTTI4NC42MzIsMTk5LjI0OGMtNS41MjMsMC0xMC00LjQ3OC0xMC0xMHYtMzMuMzQyYzAtNS41MjIsNC40NzctMTAsMTAtMTBzMTAsNC40NzgsMTAsMTB2MzMuMzQyIEMyOTQuNjMyLDE5NC43NzEsMjkwLjE1NSwxOTkuMjQ4LDI4NC42MzIsMTk5LjI0OHoiLz4gPC9nPiA8Zz4gJiN4YTs8cGF0aCBmaWxsPSIjNjk3MjcwIiBkPSJNMTE5LjkyNSw0NzEuMTgyYy01LjUyMywwLTEwLTQuNDc4LTEwLTEwdi00OS4xNTRjMC01LjUyMiw0LjQ3Ny0xMCwxMC0xMHMxMCw0LjQ3OCwxMCwxMHY0OS4xNTQgQzEyOS45MjUsNDY2LjcwNCwxMjUuNDQ4LDQ3MS4xODIsMTE5LjkyNSw0NzEuMTgyeiIvPiA8L2c+IDxnPiAmI3hhOzxwYXRoIGZpbGw9IiM2OTcyNzAiIGQ9Ik0zOTIuMDc1LDQ3MS4xODJjLTUuNTIzLDAtMTAtNC40NzgtMTAtMTB2LTQ5LjE1NGMwLTUuNTIyLDQuNDc3LTEwLDEwLTEwczEwLDQuNDc4LDEwLDEwdjQ5LjE1NCBDNDAyLjA3NSw0NjYuNzA0LDM5Ny41OTgsNDcxLjE4MiwzOTIuMDc1LDQ3MS4xODJ6Ii8+IDwvZz4gPGc+ICYjeGE7PHBhdGggZmlsbD0iIzY5NzI3MCIgZD0iTTI4NC42MzIsMzM1LjM5M2gtNjQuMjgxYy01LjUyMywwLTEwLTQuNDc4LTEwLTEwczQuNDc3LTEwLDEwLTEwaDY0LjI4MWM1LjUyMywwLDEwLDQuNDc4LDEwLDEwIFMyOTAuMTU1LDMzNS4zOTMsMjg0LjYzMiwzMzUuMzkzeiIvPiA8L2c+IDxnPiAmI3hhOyYjeGE7PHBhdGggZmlsbD0iIzY5NzI3MCIgZD0iTTM5Mi4wNzUsNDIyLjAyN2gtMjcyLjE1Yy01LjUyMywwLTEwLTQuNDc4LTEwLTEwdi0xNzMuMjdjMC01LjUyMiw0LjQ3Ny0xMCwxMC0xMGgyNzIuMTUgYzUuNTIzLDAsMTAsNC40NzgsMTAsMTB2MTczLjI3QzQwMi4wNzUsNDE3LjU1LDM5Ny41OTgsNDIyLjAyNywzOTIuMDc1LDQyMi4wMjd6IE0xMjkuOTI1LDQwMi4wMjdoMjUyLjE1di0xNTMuMjdoLTI1Mi4xNSBWNDAyLjAyN3oiLz4gPC9nPiA8Zz4gPGc+ICYjeGE7PGxpbmUgeTI9IjE1NS45MDYiIHkxPSIyMzguMjc1IiB4Mj0iMjU2Ljk3MSIgeDE9IjI1Ni45NzEiIGZpbGw9IiNmZmZmZmYiLz4gJiN4YTs8cGF0aCBmaWxsPSIjNjk3MjcwIiBkPSJNMjU2Ljk3MSwyNDguMjc1Yy01LjUyMywwLTEwLTQuNDc4LTEwLTEwdi04Mi4zNjljMC01LjUyMiw0LjQ3Ny0xMCwxMC0xMHMxMCw0LjQ3OCwxMCwxMHY4Mi4zNjkgQzI2Ni45NzEsMjQzLjc5OCwyNjIuNDk0LDI0OC4yNzUsMjU2Ljk3MSwyNDguMjc1eiIvPiA8L2c+IDxnPiAmI3hhOyYjeGE7PHBhdGggZmlsbD0iIzY5NzI3MCIgZD0iTTMxMi43OCwxNjUuOTA2Yy0wLjAwNywwLTAuMDEzLDAtMC4wMiwwSDIwMS4xOGMtMi44MzQsMC01LjUzNi0xLjIwMy03LjQzMi0zLjMxIHMtMi44MS00LjkxOS0yLjUxMy03LjczN0wyMDIuMyw0OS43NzFjMC41MzYtNS4wOSw0LjgyNy04Ljk1Myw5Ljk0NS04Ljk1M2g4OS40NTFjNS4xMTgsMCw5LjQwOSwzLjg2Myw5Ljk0NSw4Ljk1MyBsMTAuOTk2LDEwNC40MzhjMC4wOTQsMC41NTEsMC4xNDQsMS4xMTgsMC4xNDQsMS42OTZDMzIyLjc4LDE2MS40MjksMzE4LjMwMywxNjUuOTA2LDMxMi43OCwxNjUuOTA2eiBNMjEyLjI4OSwxNDUuOTA2aDg5LjM2MyBsLTguOTU4LTg1LjA4OGgtNzEuNDQ2TDIxMi4yODksMTQ1LjkwNnoiLz4gPC9nPiA8L2c+IDxnPiAmI3hhOzxwYXRoIGZpbGw9IiM2OTcyNzAiIGQ9Ik0yODQuNjMyLDE5OS4yNDhjLTUuNTIzLDAtMTAtNC40NzgtMTAtMTB2LTMzLjM0MmMwLTUuNTIyLDQuNDc3LTEwLDEwLTEwczEwLDQuNDc4LDEwLDEwdjMzLjM0MiBDMjk0LjYzMiwxOTQuNzcxLDI5MC4xNTUsMTk5LjI0OCwyODQuNjMyLDE5OS4yNDh6Ii8+IDwvZz4gPGc+ICYjeGE7PHBhdGggZmlsbD0iIzY5NzI3MCIgZD0iTTExOS45MjUsNDcxLjE4MmMtNS41MjMsMC0xMC00LjQ3OC0xMC0xMHYtNDkuMTU0YzAtNS41MjIsNC40NzctMTAsMTAtMTBzMTAsNC40NzgsMTAsMTB2NDkuMTU0IEMxMjkuOTI1LDQ2Ni43MDQsMTI1LjQ0OCw0NzEuMTgyLDExOS45MjUsNDcxLjE4MnoiLz4gPC9nPiA8Zz4gJiN4YTs8cGF0aCBmaWxsPSIjNjk3MjcwIiBkPSJNMzkyLjA3NSw0NzEuMTgyYy01LjUyMywwLTEwLTQuNDc4LTEwLTEwdi00OS4xNTRjMC01LjUyMiw0LjQ3Ny0xMCwxMC0xMHMxMCw0LjQ3OCwxMCwxMHY0OS4xNTQgQzQwMi4wNzUsNDY2LjcwNCwzOTcuNTk4LDQ3MS4xODIsMzkyLjA3NSw0NzEuMTgyeiIvPiA8L2c+IDxnPiAmI3hhOzxwYXRoIGZpbGw9IiM2OTcyNzAiIGQ9Ik0yODQuNjMyLDMzNS4zOTNoLTY0LjI4MWMtNS41MjMsMC0xMC00LjQ3OC0xMC0xMHM0LjQ3Ny0xMCwxMC0xMGg2NC4yODFjNS41MjMsMCwxMCw0LjQ3OCwxMCwxMCBTMjkwLjE1NSwzMzUuMzkzLDI4NC42MzIsMzM1LjM5M3oiLz4gPC9nPiA8L2c+IDwvZz4mI3hhOyYjeGE7PC9zdmc+;" parent="1" vertex="1">
          <mxGeometry x="805.32" y="498.46" width="39.36" height="39.36" as="geometry" />
        </mxCell>
        <mxCell id="998wLme6r4xHPnH6D-DP-18" value="" style="group" parent="1" vertex="1" connectable="0">
          <mxGeometry x="1357" y="384.20000000000005" width="134" height="269" as="geometry" />
        </mxCell>
        <mxCell id="998wLme6r4xHPnH6D-DP-14" value="" style="rounded=1;whiteSpace=wrap;html=1;rotation=90;fillColor=#f8cecc;strokeColor=#b85450;" parent="998wLme6r4xHPnH6D-DP-18" vertex="1">
          <mxGeometry x="-67.5" y="67.5" width="269" height="134" as="geometry" />
        </mxCell>
        <mxCell id="998wLme6r4xHPnH6D-DP-15" value="" style="shape=image;verticalLabelPosition=bottom;labelBackgroundColor=default;verticalAlign=top;aspect=fixed;imageAspect=0;image=data:image/svg+xml,PHN2ZyB4bWxuczp4bGluaz0iaHR0cDovL3d3dy53My5vcmcvMTk5OS94bGluayIgeG1sbnM9Imh0dHA6Ly93d3cudzMub3JnLzIwMDAvc3ZnIiBwcmVzZXJ2ZUFzcGVjdFJhdGlvPSJ4TWlkWU1pZCIgdmVyc2lvbj0iMS4xIiB2aWV3Qm94PSItMC4wMDAwNjI2NDQwMzA1NDk1NjM0NyAtNC43NjgzNzE1ODIwMzEyNWUtNyAyNTYgMjU2LjA2MTMwOTgxNDQ1MzEiIGhlaWdodD0iNzk3LjA3ODAwNzIwNDUyMzQiIHdpZHRoPSI3OTYuODg3MTU5NTMzMDczOSI+JiN4YTsgICAgPGc+JiN4YTsgICAgICAgIDxwYXRoIGZpbGw9IiNGRjY2MDAiIGQ9Ik0yNDUuNzMzNzU0LDEwMi40Mzc0MzIgTDE2My44MjI2MTUsMTAyLjQzNzQzMiBDMTYxLjA5NTQ3NSwxMDIuNDU0NjM5IDE1OC40NzUwNDUsMTAxLjM3ODg5MyAxNTYuNTQ2NjI3LDk5LjQ1MDQ3NDkgQzE1NC42MTgyMDgsOTcuNTIyMDU2NyAxNTMuNTQyNDYzLDk0LjkwMTYyNyAxNTMuNTU5NjY5LDkyLjE3NDQ4NiBMMTUzLjU1OTY2OSwxMC4yNjMzNDc5IEMxNTMuNTU5NzIzLDcuNTQ3MzA2OTEgMTUyLjQ3NjQwOSw0Ljk0MzQzMzI3IDE1MC41NDk4NjcsMy4wMjg5MzIxNyBDMTQ4LjYyMzMyNSwxLjExNDQzMTA3IDE0Ni4wMTI3MTEsMC4wNDc0NjMyMTM1IDE0My4yOTY3MjMsMC4wNjQ1NDUyMzI2IEwxMTIuNjM2MTcyLDAuMDY0NTQ1MjMyNiBDMTA5LjkyMDE4NSwwLjA0NzQ2MzIxMzUgMTA3LjMwOTU3LDEuMTE0NDMxMDcgMTA1LjM4MzAyOSwzLjAyODkzMjE3IEMxMDMuNDU2NDg3LDQuOTQzNDMzMjcgMTAyLjM3MzE3Miw3LjU0NzMwNjkxIDEwMi4zNzMyMjYsMTAuMjYzMzQ3OSBMMTAyLjM3MzIyNiw5Mi4xNzQ0ODYgQzEwMi4zOTA0MzIsOTQuOTAxNjI3IDEwMS4zMTQ2ODcsOTcuNTIyMDU2NyA5OS4zODYyNjg5LDk5LjQ1MDQ3NDkgQzk3LjQ1Nzg1MDYsMTAxLjM3ODg5MyA5NC44Mzc0MjA5LDEwMi40NTQ2MzkgOTIuMTEwMjgsMTAyLjQzNzQzMiBMNjEuNDQ5NzI4NiwxMDIuNDM3NDMyIEM1OC43MjI1ODc3LDEwMi40NTQ2MzkgNTYuMTAyMTU4LDEwMS4zNzg4OTMgNTQuMTczNzM5Nyw5OS40NTA0NzQ5IEM1Mi4yNDUzMjE1LDk3LjUyMjA1NjcgNTEuMTY5NTc2MSw5NC45MDE2MjcgNTEuMTg2NzgyNiw5Mi4xNzQ0ODYgTDUxLjE4Njc4MjYsMTAuMjYzMzQ3OSBDNTEuMjAzOTg5LDcuNTM2MjA2OSA1MC4xMjgyNDM3LDQuOTE1Nzc3MjIgNDguMTk5ODI1NSwyLjk4NzM1ODk2IEM0Ni4yNzE0MDcyLDEuMDU4OTQwNzEgNDMuNjUwOTc3NSwtMC4wMTY4MDQ2MzE3IDQwLjkyMzgzNjUsMC4wMDAxOTg1NDAyNzUgTDEwLjE5OTE0MTgsMC4wMDAxOTg1NDAyNzUgQzcuNDgzMTAwODUsMC4wMDAxOTg1NDAyNzUgNC44NzkyMjcyMiwxLjA4MzY2MjMxIDIuOTY0NzI2MTEsMy4wMTAyMDQzIEMxLjA1MDIyNTAxLDQuOTM2NzQ2MjkgLTAuMDE2NzQyODQzMyw3LjU0NzM2MDYyIDAuMDAwMTM1ODk2MzA0LDEwLjI2MzM0NzkgTDAuMDAwMTM1ODk2MzA0LDI0NS43OTc5NiBDLTAuMDE2ODY3Mjc1NiwyNDguNTI1MTAxIDEuMDU4ODc4MDcsMjUxLjE0NTUzIDIuOTg3Mjk2MzIsMjUzLjA3Mzk0OSBDNC45MTU3MTQ1NywyNTUuMDAyMzY3IDcuNTM2MTQ0MjYsMjU2LjA3ODExMiAxMC4yNjMyODUyLDI1Ni4wNjExMDkgTDI0NS43MzM3NTQsMjU2LjA2MTEwOSBDMjQ4LjQ2MDg5NSwyNTYuMDc4MTEyIDI1MS4wODEzMjQsMjU1LjAwMjM2NyAyNTMuMDA5NzQzLDI1My4wNzM5NDkgQzI1NC45MzgxNjEsMjUxLjE0NTUzIDI1Ni4wMTM5MDYsMjQ4LjUyNTEwMSAyNTUuOTk2NywyNDUuNzk3OTYgTDI1NS45OTY3LDExMi44OTI4MDggQzI1Ni4wNjYyMjIsMTEwLjEzMjU3NyAyNTUuMDEzNjIsMTA3LjQ2MjEwNSAyNTMuMDc5NDQsMTA1LjQ5MTY1OSBDMjUxLjE0NTI2LDEwMy41MjEyMTMgMjQ4LjQ5NDgsMTAyLjQxOTE5MSAyNDUuNzMzNzU0LDEwMi40Mzc0MzIgWiBNMjA0LjU1MzgxNywxODkuNDE1OSBDMjA0LjU3MDc0MSwxOTMuNDkyODQ0IDIwMi45NjMxMjYsMTk3LjQwODY1OCAyMDAuMDg2MjksMjAwLjI5NzUzMSBDMTk3LjIwOTQ1NSwyMDMuMTg2NDAzIDE5My4zMDAzODcsMjA0LjgxMDMxOSAxODkuMjIzNDA3LDIwNC44MTAzMTkgTDE2OC42OTc1MTUsMjA0LjgxMDMxOSBDMTY0LjYyMDUzNSwyMDQuODEwMzE5IDE2MC43MTE0NjcsMjAzLjE4NjQwMyAxNTcuODM0NjMyLDIwMC4yOTc1MzEgQzE1NC45NTc3OTYsMTk3LjQwODY1OCAxNTMuMzUwMTgxLDE5My40OTI4NDQgMTUzLjM2NzEwNSwxODkuNDE1OSBMMTUzLjM2NzEwNSwxNjguOTU0MTUxIEMxNTMuMzUwMTgxLDE2NC44NzcyMDcgMTU0Ljk1Nzc5NiwxNjAuOTYxMzkzIDE1Ny44MzQ2MzIsMTU4LjA3MjUyIEMxNjAuNzExNDY3LDE1NS4xODM2NDggMTY0LjYyMDUzNSwxNTMuNTU5NzMyIDE2OC42OTc1MTUsMTUzLjU1OTczMiBMMTg5LjIyMzQwNywxNTMuNTU5NzMyIEMxOTMuMzAwMzg3LDE1My41NTk3MzIgMTk3LjIwOTQ1NSwxNTUuMTgzNjQ4IDIwMC4wODYyOSwxNTguMDcyNTIgQzIwMi45NjMxMjYsMTYwLjk2MTM5MyAyMDQuNTcwNzQxLDE2NC44NzcyMDcgMjA0LjU1MzgxNywxNjguOTU0MTUxIEwyMDQuNTUzODE3LDE4OS40MTU5IEwyMDQuNTUzODE3LDE4OS40MTU5IFoiPiYjeGE7JiN4YTs8L3BhdGg+JiN4YTsgICAgPC9nPiYjeGE7PC9zdmc+;" parent="998wLme6r4xHPnH6D-DP-18" vertex="1">
          <mxGeometry x="46.950000000000045" y="91.5" width="40.09" height="40.09" as="geometry" />
        </mxCell>
        <mxCell id="998wLme6r4xHPnH6D-DP-16" value="" style="shape=image;verticalLabelPosition=bottom;labelBackgroundColor=default;verticalAlign=top;aspect=fixed;imageAspect=0;image=data:image/svg+xml,PHN2ZyB4bWxuczp4bGluaz0iaHR0cDovL3d3dy53My5vcmcvMTk5OS94bGluayIgeG1sbnM9Imh0dHA6Ly93d3cudzMub3JnLzIwMDAvc3ZnIiBwcmVzZXJ2ZUFzcGVjdFJhdGlvPSJ4TWlkWU1pZCIgdmVyc2lvbj0iMS4xIiB2aWV3Qm94PSItMC4wMDAwMDM4MTQ2OTcyNjU2MjUgMCAyNTYgNDEyLjY3MzI3ODgwODU5Mzc1IiBoZWlnaHQ9Ijc5OS4zNjcxMjYwMjE0ODkxIiB3aWR0aD0iNDk1Ljg4Mzc3NzIzOTcwOTQ1Ij4mI3hhOyAgICA8Zz4mI3hhOyAgICAgICAgPHBhdGggZmlsbD0iIzFBMTkxOSIgZD0iTTg3LjkzMjA2OTIsMzYuNzE0MTgxIEM4My4zODI5MzYsMzIuMTQyNzQ4MiA3Ny4wMzY0NDkxLDI5LjMxOTYwOTYgNjkuOTgwODMyNywyOS4zMTk2MDk2IEM2Mi45NTE5NzU5LDI5LjMxOTYwOTYgNTYuNjU0NTQ4MywzMi4xNDI3NDgyIDUyLjE1ODkzNDMsMzYuNzE0MTgxIEw1Mi4wMjk1OTYyLDM2LjcxNDE4MSBDNDcuNDkzODQyOCw0MS4yNjMzMTQzIDQ0LjY3MDcwNDIsNDcuNjE0MjYxIDQ0LjY3MDcwNDIsNTQuNjQzMTE3OSBDNDQuNjcwNzA0Miw2MS42OTg3MzQzIDQ3LjQ5Mzg0MjgsNjcuOTk2MTYxOCA1Mi4wMjk1OTYyLDcyLjUxODUzNTUgTDUyLjE1ODkzNDMsNzIuNjIxMTEzOSBDNTYuNjU0NTQ4Myw3Ny4xNzAyNDcyIDYyLjk1MTk3NTksNzkuOTY2NjI2MSA2OS45ODA4MzI3LDc5Ljk2NjYyNjEgQzc3LjAzNjQ0OTEsNzkuOTY2NjI2MSA4My4zODI5MzYsNzcuMTcwMjQ3MiA4Ny45MzIwNjkyLDcyLjYyMTExMzkgTDg3Ljk5ODk2ODIsNzIuNTE4NTM1NSBDOTIuNTU3MDIxMyw2Ny45OTYxNjE4IDk1LjM1MzQwMDIsNjEuNjk4NzM0MyA5NS4zNTM0MDAyLDU0LjY0MzExNzkgQzk1LjM1MzQwMDIsNDcuNjE0MjYxIDkyLjU1NzAyMTMsNDEuMjYzMzE0MyA4Ny45OTg5NjgyLDM2LjcxNDE4MSBMODcuOTMyMDY5MiwzNi43MTQxODEgWiBNNjkuOTgwODMyNywzODMuMzUzNjcyIEM3Ny4wMzY0NDkxLDM4My4zNTM2NzIgODMuMzgyOTM2LDM4MC40ODE0NzUgODcuOTMyMDY5MiwzNzUuOTg1ODYxIEw4Ny45OTg5NjgyLDM3NS44NTIwNjMgQzkyLjU1NzAyMTMsMzcxLjM2NTM2OCA5NS4zNTM0MDAyLDM2NS4wMTQ0MjIgOTUuMzUzNDAwMiwzNTguMDM0NjI0IEM5NS4zNTM0MDAyLDM1MC45NzkwMDggOTIuNTU3MDIxMywzNDQuNjU0ODIxIDg3Ljk5ODk2ODIsMzQwLjA4MzM4OCBMODcuOTMyMDY5MiwzNDAuMDgzMzg4IEM4My4zODI5MzYsMzM1LjQ1ODQzNiA3Ny4wMzY0NDkxLDMzMi42NjIwNTcgNjkuOTgwODMyNywzMzIuNjYyMDU3IEM2Mi45NTE5NzU5LDMzMi42NjIwNTcgNTYuNjU0NTQ4MywzMzUuNDU4NDM2IDUyLjE1ODkzNDMsMzQwLjA4MzM4OCBMNTIuMDI5NTk2MiwzNDAuMDgzMzg4IEM0Ny40OTM4NDI4LDM0NC42NTQ4MjEgNDQuNjcwNzA0MiwzNTAuOTc5MDA4IDQ0LjY3MDcwNDIsMzU4LjAzNDYyNCBDNDQuNjcwNzA0MiwzNjUuMDE0NDIyIDQ3LjQ5Mzg0MjgsMzcxLjM2NTM2OCA1Mi4wMjk1OTYyLDM3NS44NTIwNjMgTDUyLjE1ODkzNDMsMzc1Ljk4NTg2MSBDNTYuNjU0NTQ4MywzODAuNDgxNDc1IDYyLjk1MTk3NTksMzgzLjM1MzY3MiA2OS45ODA4MzI3LDM4My4zNTM2NzIgWiBNMjA3Ljk1MzM2NywzMDYuNjMzODc5IEMyMTQuMjI4NDk1LDMwNC45ODgxNjMgMjE5LjkxMDQ1MiwzMDAuOTYwODQyIDIyMy4zNzU4MjEsMjk0Ljg3MzAzMSBMMjIzLjg0NDExNCwyOTMuOTg1NTA0IEMyMjYuOTI1OTI5LDI4OC4yMDk4ODkgMjI3LjQ4Nzg4MSwyODEuNTQ2NzQ3IDIyNS44NDIxNjUsMjc1LjY0MTc5NCBDMjI0LjE4MzA2OSwyNjkuMzE3NjA3IDIyMC4xMDY2ODksMjYzLjcyNDg0OSAyMTQuMDMyMjU4LDI2MC4yMjM4IEwyMTMuNjc5OTIzLDI1OS45ODc0MjMgQzIwNy43NjE1OSwyNTYuNzQ1MDUxIDIwMS4wMTgxNjksMjU2LjA0MDM4MSAxOTQuODIzMzIsMjU3LjcxMjg1NyBDMTg4LjUyNTg5MywyNTkuMjgyNzU0IDE4Mi44NzA2OTYsMjYzLjQ4ODQ3MiAxNzkuNDIzMTY2LDI2OS41MjcyMjMgQzE3NS45MzEwMzcsMjc1LjUwNzk5NiAxNzUuMTk5NjA4LDI4Mi40MDc1MTQgMTc2Ljg3MjA4NCwyODguNzU4NDYxIEMxNzguNTk4MDc4LDI5NS4wMDIzNjkgMTgyLjYzNDMxOSwzMDAuNjQ4NjQ3IDE4OC42Njg2MSwzMDQuMTc2NDU1IEwxODguNzA4NzUsMzA0LjE3NjQ1NSBDMTk0Ljc1NjQyMSwzMDcuNjUwNzQ0IDIwMS42MDY4OCwzMDguMjc5NTk1IDIwNy45NTMzNjcsMzA2LjYzMzg3OSBaIE05NS45Njg4NzEyLDE4MC4zODY1MTIgQzg5LjMxNDY0ODksMTczLjc1MDEyOSA4MC4xNDUwMjM1LDE2OS41OTM0NyA2OS45ODA4MzI3LDE2OS41OTM0NyBDNTkuODU2NzgxMywxNjkuNTkzNDcgNTAuNzA5NDU1NiwxNzMuNzUwMTI5IDQ0LjA2ODYxMzEsMTgwLjM4NjUxMiBDMzcuNDU4OTkwMSwxODcuMDAwNTk1IDMzLjM4MjYxLDE5Ni4xNDc5MjEgMzMuMzgyNjEsMjA2LjI4NTM1MiBDMzMuMzgyNjEsMjE2LjQ0OTU0MyAzNy40NTg5OTAxLDIyNS42MjM2MjggNDQuMDY4NjEzMSwyMzIuMzEzNTMgQzUwLjcwOTQ1NTYsMjM4Ljg5NjM5MyA1OS44NTY3ODEzLDI0My4wMjYyOTIgNjkuOTgwODMyNywyNDMuMDI2MjkyIEM4MC4xNDUwMjM1LDI0My4wMjYyOTIgODkuMzE0NjQ4OSwyMzguODk2MzkzIDk1Ljk2ODg3MTIsMjMyLjMxMzUzIEMxMDIuNTkxODc0LDIyNS42MjM2MjggMTA2LjY2ODI1NCwyMTYuNDQ5NTQzIDEwNi42NjgyNTQsMjA2LjI4NTM1MiBDMTA2LjY2ODI1NCwxOTYuMTQ3OTIxIDEwMi41OTE4NzQsMTg3LjAwMDU5NSA5NS45Njg4NzEyLDE4MC4zODY1MTIgWiBNODEuMzU4MTI1NywxMzcuMjIzMjY2IEM5Ni4wODQ4Mjk1LDEzOS42NDk0NyAxMDkuMzM1Mjk1LDE0Ni43MDUwODYgMTE5LjQ0NTk2NywxNTYuODk2MDM3IEwxMTkuNTI2MjQ1LDE1Ni44OTYwMzcgQzEyMS4xMzE4MjIsMTU4LjUxNDk5MyAxMjIuNzAxNzE5LDE2MC4yNjc3NDcgMTI0LjE1MTE5OCwxNjIuMDQyODAxIEwxNDkuNDM0NTY2LDE0Ny40MTQyMTYgQzE0Ni4wMzYwOTYsMTM3LjE0Mjk4NyAxNDUuODc5OTk5LDEyNi40MDM0NjQgMTQ4LjYwOTQ3OCwxMTYuMzQxODUyIEMxNTIuMjE3NTY1LDEwMi44NTUwMSAxNjAuOTU5MDM3LDkwLjc4MTk2NzQgMTc0LjA2MjMyNSw4My4yMDQ1Mzg2IEwxNzQuNDk0OTM4LDgyLjk0NTg2MjQgQzE4Ny40NTU1MDgsNzUuNjAwMzUwMiAyMDIuMTkxMTMyLDc0LjA4Mzk3MjUgMjE1LjQ5NTExNyw3Ny42OTIwNTk1IEMyMjguOTY0MTE5LDgxLjI5NTY4NjYgMjQxLjExNzQ0LDkwLjA3NzI5NzcgMjQ4LjY4MTQ4OSwxMDMuMTcxNjY1IEwyNDguNjgxNDg5LDEwMy4xOTg0MjUgQzI1Ni4yMDk4NTksMTE2LjIxMjUxNCAyNTcuNzM5NjE2LDEzMS4xNTc3NTUgMjU0LjE0NDkwOSwxNDQuNTkxMDc3IEMyNTAuNTYzNTgyLDE1OC4wNjkgMjQxLjc4MTk3MSwxNzAuMjIyMzIxIDIyOC42OTIwNjMsMTc3Ljc0NjIzMSBMMjI1LjI0MDA3NCwxNzkuNzg4ODgxIEwyMjQuODg3NzM5LDE3OS43ODg4ODEgQzIxMi43NzkwMTYsMTg1LjU2MDAzNiAxOTkuNDYxNjUyLDE4Ni40NTIwMjMgMTg3LjIzMjUxMSwxODMuMjM2NDEgQzE3Ny4xODg3MzksMTgwLjU2OTM2OSAxNjcuOTc0NTE0LDE3NC45NzY2MTEgMTYwLjc2MjgsMTY3LjAwNjcwOCBMMTM1LjUxOTU3MSwxODEuNTkwNjk0IEMxMzguNDE4NTI4LDE4OS4yNzA3MDIgMTQwLjAyODU2NCwxOTcuNTU3MjYgMTQwLjAyODU2NCwyMDYuMjg1MzUyIEMxNDAuMDI4NTY0LDIxNC45ODY2ODQgMTM4LjQxODUyOCwyMjMuMzc1ODIxIDEzNS41MTk1NzEsMjMxLjEwOTM0NyBMMTYwLjc2MjgsMjQ1LjYzOTgxNCBDMTY3Ljk3NDUxNCwyMzcuNTY3MzMzIDE3Ny4xODg3MzksMjMyLjA3NzE1MyAxODcuMjMyNTExLDIyOS40MTAxMTIgQzIwMC43MDE1MTQsMjI1LjcyNjIwNiAyMTUuNjM3ODM1LDIyNy4yOTYxMDMgMjI4LjY5MjA2MywyMzQuOTAwMjkyIEwyMjkuNTI2MDcxLDIzNS4yOTI3NjYgTDIyOS41MjYwNzEsMjM1LjM0NjI4NSBDMjQyLjEzODc2NSwyNDIuOTcyNzczIDI1MC42MDM3MjEsMjU0Ljc4NzE0IDI1NC4xNDQ5MDksMjY4LjExMzQyNCBDMjU3LjczOTYxNiwyODEuNDY2NDY4IDI1Ni4yMDk4NTksMjk2LjQxNjE2OSAyNDguNjgxNDg5LDMwOS40NTcwMTcgTDI0OC4yMjY1NzYsMzEwLjM3MTMwNCBMMjQ4LjE3MzA1NywzMTAuMjkxMDI1IEMyNDAuNjA5MDA4LDMyMi44NjM1OCAyMjguNjkyMDYzLDMzMS4zODIwNTUgMjE1LjUzNTI1NiwzMzQuOTg1NjgzIEMyMDIuMDM1MDM0LDMzOC41NDAyNSAxODcuMTAzMTczLDMzNy4wMjM4NzMgMTc0LjA2MjMyNSwzMjkuNTI2NzIzIEwxNzQuMDYyMzI1LDMyOS40MTk2ODQgQzE2MC45NTkwMzcsMzIxLjg0MjI1NSAxNTIuMjE3NTY1LDMwOS43NDI0NTMgMTQ4LjYwOTQ3OCwyOTYuMjg2ODMxIEMxNDUuODc5OTk5LDI4Ni4yNTE5NzggMTQ2LjAzNjA5NiwyNzUuNTA3OTk2IDE0OS40MzQ1NjYsMjY1LjI0MTIyNiBMMTI0LjE1MTE5OCwyNTAuNjU3MjQgQzEyMi43MDE3MTksMjUyLjQzNjc1NCAxMjEuMTMxODIyLDI1NC4xMDkyMyAxMTkuNTI2MjQ1LDI1NS43MjgxODYgTDExOS40NDU5NjcsMjU1LjgwNDAwNSBDMTA5LjMzNTI5NSwyNjUuOTQ1ODk2IDk2LjA4NDgyOTUsMjczLjAwMTUxMiA4MS4zNTgxMjU3LDI3NS4zNTE4OTggTDgxLjM1ODEyNTcsMzA0LjU2ODkyOSBDOTEuODUyMzUxNiwzMDYuNzYzMjE3IDEwMS4yNTgzNTQsMzEyLjAxNzAyIDEwOC42MzA2MjUsMzE5LjM4NDgzMiBMMTA4LjY2NjMwNSwzMTkuNDY1MTEgQzExOC41NDUwNiwzMjkuMjkwMzQ2IDEyNC42NTk2MywzNDIuOTgyMzQ1IDEyNC42NTk2MywzNTguMDM0NjI0IEMxMjQuNjU5NjMsMzczLjAzNzg0NCAxMTguNTQ1MDYsMzg2LjY0NTEwNCAxMDguNjY2MzA1LDM5Ni41MjM4NTkgTDEwOC42MzA2MjUsMzk2LjY3OTk1NyBDOTguNjg0OTcxMyw0MDYuNTU4NzEyIDg1LjAzMzExMTcsNDEyLjY3MzI4MiA2OS45ODA4MzI3LDQxMi42NzMyODIgQzU1LjAwODgzMjUsNDEyLjY3MzI4MiA0MS4zMzkxMzMyLDQwNi41NTg3MTIgMzEuNDIwMjM4OCwzOTYuNjc5OTU3IEwzMS4zODQ1NTkzLDM5Ni42Nzk5NTcgTDMxLjM4NDU1OTMsMzk2LjUyMzg1OSBDMjEuNDkyNDI0NSwzODYuNjQ1MTA0IDE1LjM2NDQ3NDUsMzczLjAzNzg0NCAxNS4zNjQ0NzQ1LDM1OC4wMzQ2MjQgQzE1LjM2NDQ3NDUsMzQyLjk4MjM0NSAyMS40OTI0MjQ1LDMyOS4yOTAzNDYgMzEuMzg0NTU5MywzMTkuNDY1MTEgTDMxLjM4NDU1OTMsMzE5LjM4NDgzMiBMMzEuNDIwMjM4OCwzMTkuMzg0ODMyIEMzOC43NzkxMzA3LDMxMi4wMTcwMiA0OC4xOTg1MTI1LDMwNi43NjMyMTcgNTguNjY1OTc4OCwzMDQuNTY4OTI5IEw1OC42NjU5Nzg4LDI3NS4zNTE4OTggQzQzLjkyNTg5NTIsMjczLjAwMTUxMiAzMC43MTU1NjkxLDI2NS45NDU4OTYgMjAuNjE4Mjc3MywyNTUuODA0MDA1IEwyMC41MTEyMzg5LDI1NS43MjgxODYgQzcuODg5NjI0MTgsMjQzLjA1MzA1MiAwLDIyNS42MjM2MjggMCwyMDYuMjg1MzUyIEMwLDE4Ny4wMDA1OTUgNy44ODk2MjQxOCwxNjkuNTcxMTcxIDIwLjUxMTIzODksMTU2Ljg5NjAzNyBMMjAuNjE4Mjc3MywxNTYuODk2MDM3IEMzMC43MTU1NjkxLDE0Ni43MDUwODYgNDMuOTI1ODk1MiwxMzkuNjQ5NDcgNTguNjY1OTc4OCwxMzcuMjIzMjY2IEw1OC42NjU5Nzg4LDEwOC4xMzU1NzMgQzQ4LjE5ODUxMjUsMTA1Ljg2MTAwNiAzOC43NzkxMzA3LDEwMC42MTE2NjMgMzEuNDIwMjM4OCw5My4yOTI5MTA1IEwzMS4zODQ1NTkzLDkzLjI5MjkxMDUgTDMxLjM4NDU1OTMsOTMuMjEyNjMxNyBDMjEuNDkyNDI0NSw4My4yODQ4MTc0IDE1LjM2NDQ3NDUsNjkuNjk1Mzk2OSAxNS4zNjQ0NzQ1LDU0LjY0MzExNzkgQzE1LjM2NDQ3NDUsMzkuNjY2NjU3NyAyMS40OTI0MjQ1LDI1Ljk0Nzg5OTEgMzEuMzg0NTU5MywxNi4wNjkxNDQxIEwzMS40MjAyMzg4LDE2LjAyMDA4NDggQzQxLjMzOTEzMzIsNi4xMTQ1NzAyNCA1NS4wMDg4MzI1LDAgNjkuOTgwODMyNywwIEM4NS4wMzMxMTE3LDAgOTguNjg0OTcxMyw2LjExNDU3MDI0IDEwOC42MzA2MjUsMTYuMDIwMDg0OCBMMTA4LjYzMDYyNSwxNi4wNjkxNDQxIEwxMDguNjY2MzA1LDE2LjA2OTE0NDEgQzExOC41NDUwNiwyNS45NDc4OTkxIDEyNC42NTk2MywzOS42NjY2NTc3IDEyNC42NTk2Myw1NC42NDMxMTc5IEMxMjQuNjU5NjMsNjkuNjk1Mzk2OSAxMTguNTQ1MDYsODMuMjg0ODE3NCAxMDguNjY2MzA1LDkzLjIxMjYzMTcgTDEwOC42MzA2MjUsOTMuMjkyOTEwNSBDMTAxLjI1ODM1NCwxMDAuNjExNjYzIDkxLjg1MjM1MTYsMTA1Ljg2MTAwNiA4MS4zNTgxMjU3LDEwOC4xMzU1NzMgTDgxLjM1ODEyNTcsMTM3LjIyMzI2NiBaIE0yMjMuMzc1ODIxLDExNy44MzE0NyBMMjIzLjE2NjIwNCwxMTcuNTE5Mjc1IEMyMTkuNjc0MDc1LDExMS42MzY2MjEgMjE0LjEwODA3NywxMDcuNzE2MzM5IDIwNy45NTMzNjcsMTA2LjAxNzEwNCBDMjAxLjYwNjg4LDEwNC4zNDQ2MjggMTk0Ljc1NjQyMSwxMDUuMDUzNzU4IDE4OC42Njg2MSwxMDguNTI4MDQ3IEwxODguNzA4NzUsMTA4LjUyODA0NyBDMTgyLjYzNDMxOSwxMTEuOTc1NTc2IDE3OC41NzEzMTksMTE3LjYyMTg1MyAxNzYuODcyMDg0LDEyMy45NDYwNDEgQzE3NS4xOTk2MDgsMTMwLjIxNjcwOCAxNzUuOTMxMDM3LDEzNy4xNDI5ODcgMTc5LjQyMzE2NiwxNDMuMTc3Mjc4IEwxNzkuNTM5MTI0LDE0My4zMzc4MzYgQzE4My4wNDAxNzMsMTQ5LjI5MTg0OCAxODguNjA2MTcxLDE1My4yODc5NSAxOTQuODIzMzIsMTU0LjkwNjkwNiBDMjAxLjA3MTY4OCwxNTYuNjU5NjYgMjA4LjAzMzY0NiwxNTUuOTI4MjMxIDIxNC4wMzIyNTgsMTUyLjQyNzE4MiBMMjE0LjM1NzgzMywxNTIuMjcxMDg1IEMyMjAuMjYyNzg3LDE0OC43NDMyNzYgMjI0LjE5NjQ0OSwxNDMuMTc3Mjc4IDIyNS44NDIxNjUsMTM3LjA2MjcwOCBDMjI3LjUxNDY0LDEzMC43NjUyOCAyMjYuODUwMTEsMTIzLjg2NTc2MiAyMjMuMzc1ODIxLDExNy44MzE0NyBaIj4mI3hhOyYjeGE7PC9wYXRoPiYjeGE7ICAgIDwvZz4mI3hhOzwvc3ZnPg==;" parent="998wLme6r4xHPnH6D-DP-18" vertex="1">
          <mxGeometry x="49.73000000000002" y="162.5" width="34.54" height="55.64" as="geometry" />
        </mxCell>
        <mxCell id="998wLme6r4xHPnH6D-DP-17" value="RabbitMQ / Kafka" style="text;html=1;align=center;verticalAlign=middle;resizable=0;points=[];autosize=1;strokeColor=none;fillColor=none;" parent="998wLme6r4xHPnH6D-DP-18" vertex="1">
          <mxGeometry x="10.5" y="41.5" width="113" height="26" as="geometry" />
        </mxCell>
        <mxCell id="998wLme6r4xHPnH6D-DP-21" style="edgeStyle=orthogonalEdgeStyle;rounded=0;orthogonalLoop=1;jettySize=auto;html=1;exitX=1;exitY=0.5;exitDx=0;exitDy=0;startArrow=classic;startFill=1;dashed=1;dashPattern=1 4;fillColor=#f8cecc;strokeColor=#b85450;" parent="1" source="r0GoYTCdLAr58T-955c1-6" target="998wLme6r4xHPnH6D-DP-14" edge="1">
          <mxGeometry relative="1" as="geometry" />
        </mxCell>
        <mxCell id="998wLme6r4xHPnH6D-DP-23" style="edgeStyle=orthogonalEdgeStyle;rounded=0;orthogonalLoop=1;jettySize=auto;html=1;exitX=1;exitY=0.5;exitDx=0;exitDy=0;entryX=0.25;entryY=1;entryDx=0;entryDy=0;startArrow=classic;startFill=1;dashed=1;dashPattern=1 4;fillColor=#f8cecc;strokeColor=#b85450;" parent="1" source="r0GoYTCdLAr58T-955c1-7" target="998wLme6r4xHPnH6D-DP-14" edge="1">
          <mxGeometry relative="1" as="geometry" />
        </mxCell>
        <mxCell id="998wLme6r4xHPnH6D-DP-26" style="edgeStyle=orthogonalEdgeStyle;rounded=0;orthogonalLoop=1;jettySize=auto;html=1;exitX=1;exitY=0.5;exitDx=0;exitDy=0;entryX=1;entryY=0.5;entryDx=0;entryDy=0;dashed=1;dashPattern=1 4;startArrow=classic;startFill=1;fillColor=#f8cecc;strokeColor=#b85450;" parent="1" source="r0GoYTCdLAr58T-955c1-9" target="998wLme6r4xHPnH6D-DP-14" edge="1">
          <mxGeometry relative="1" as="geometry" />
        </mxCell>
        <mxCell id="998wLme6r4xHPnH6D-DP-27" style="edgeStyle=orthogonalEdgeStyle;rounded=0;orthogonalLoop=1;jettySize=auto;html=1;exitX=1;exitY=0.5;exitDx=0;exitDy=0;entryX=0.75;entryY=1;entryDx=0;entryDy=0;dashed=1;dashPattern=1 4;startArrow=classic;startFill=1;fillColor=#f8cecc;strokeColor=#b85450;" parent="1" source="r0GoYTCdLAr58T-955c1-8" target="998wLme6r4xHPnH6D-DP-14" edge="1">
          <mxGeometry relative="1" as="geometry" />
        </mxCell>
        <mxCell id="998wLme6r4xHPnH6D-DP-28" value="14" style="ellipse;whiteSpace=wrap;html=1;aspect=fixed;fillColor=#f8cecc;strokeColor=#b85450;" parent="1" vertex="1">
          <mxGeometry x="1917" y="628.0000000000002" width="27" height="29" as="geometry" />
        </mxCell>
        <mxCell id="998wLme6r4xHPnH6D-DP-29" value="" style="rounded=1;whiteSpace=wrap;html=1;rotation=0;fillColor=#fff2cc;strokeColor=#d6b656;" parent="1" vertex="1">
          <mxGeometry x="952" y="846.5" width="488" height="83" as="geometry" />
        </mxCell>
        <mxCell id="998wLme6r4xHPnH6D-DP-40" value="" style="rounded=1;whiteSpace=wrap;html=1;rotation=0;fillColor=#fff2cc;strokeColor=#d6b656;" parent="1" vertex="1">
          <mxGeometry x="950" y="262" width="249" height="83" as="geometry" />
        </mxCell>
        <mxCell id="998wLme6r4xHPnH6D-DP-53" value="" style="rounded=1;whiteSpace=wrap;html=1;rotation=0;fillColor=#fff2cc;strokeColor=#d6b656;" parent="1" vertex="1">
          <mxGeometry x="953" y="671" width="249" height="81" as="geometry" />
        </mxCell>
        <mxCell id="998wLme6r4xHPnH6D-DP-69" value="Reservation" style="text;html=1;align=center;verticalAlign=middle;resizable=0;points=[];autosize=1;strokeColor=none;fillColor=none;fontStyle=5" parent="1" vertex="1">
          <mxGeometry x="1031" y="260" width="87" height="26" as="geometry" />
        </mxCell>
        <mxCell id="998wLme6r4xHPnH6D-DP-71" value="Reservation" style="text;html=1;align=center;verticalAlign=middle;resizable=0;points=[];autosize=1;strokeColor=none;fillColor=none;fontStyle=5" parent="1" vertex="1">
          <mxGeometry x="1034" y="671" width="87" height="26" as="geometry" />
        </mxCell>
        <mxCell id="998wLme6r4xHPnH6D-DP-72" value="Reservation" style="text;html=1;align=center;verticalAlign=middle;resizable=0;points=[];autosize=1;strokeColor=none;fillColor=none;fontStyle=5" parent="1" vertex="1">
          <mxGeometry x="1152.5" y="846.4999999999999" width="87" height="26" as="geometry" />
        </mxCell>
        <mxCell id="998wLme6r4xHPnH6D-DP-73" value="" style="rounded=1;whiteSpace=wrap;html=1;rotation=0;fillColor=#fff2cc;strokeColor=#d6b656;" parent="1" vertex="1">
          <mxGeometry x="3011.38" y="736.3199999999999" width="488" height="113" as="geometry" />
        </mxCell>
        <mxCell id="998wLme6r4xHPnH6D-DP-74" value="" style="shape=image;verticalLabelPosition=bottom;labelBackgroundColor=default;verticalAlign=top;aspect=fixed;imageAspect=0;image=data:image/svg+xml,PHN2ZyB4bWxuczp4bGluaz0iaHR0cDovL3d3dy53My5vcmcvMTk5OS94bGluayIgeG1sbnM9Imh0dHA6Ly93d3cudzMub3JnLzIwMDAvc3ZnIiB4bWw6c3BhY2U9InByZXNlcnZlIiB2aWV3Qm94PSIwIDAgNjQgNjQiIGhlaWdodD0iODAwcHgiIHdpZHRoPSI4MDBweCIgaWQ9IkxheWVyXzEiIHZlcnNpb249IjEuMCI+JiN4YTs8cGF0aCBkPSJNNjIuNzQzLDI2LjE0M2wtMjIuMDk5LTguODRsMC4zNDktMy4xMzdjMC4wNjUtMC43ODEsMC41MzItNy43NDktMy4wNjEtMTEuNjU0QzM2LjQyLDAuODY4LDM0LjM2OSwwLDMyLDAmIzEwOyYjOTtzLTQuNDIsMC44NjgtNS45MzMsMi41MTJjLTMuNTkzLDMuOTA1LTMuMTI2LDEwLjg3My0zLjA1NSwxMS43MDlsMC4zNywzLjMzNGwtMjIuMTc4LDkuNjFDMC40NzQsMjcuNDgxLDAsMjguMjAzLDAsMjl2NSYjMTA7JiM5O2MwLDEuMTA0LDAuODk2LDIsMiwyaDIzLjQzM2wxLjQ5OSwxMy40OTRsLTYuMTgxLDQuOTQ0QzIwLjI3Niw1NC44MTcsMjAsNTUuMzkzLDIwLDU2djJjMCwxLjEwNCwwLjg5NiwyLDIsMmg2LjEzJiMxMDsmIzk7YzAuNDE2LDIuMTAxLDEuNjk1LDQsMy44Nyw0YzIuMTg2LDAsMy40NjUtMS45MTYsMy44NzEtNEg0MmMxLjEwNCwwLDItMC44OTYsMi0ydi0yYzAtMC42MDctMC4yNzYtMS4xODMtMC43NTEtMS41NjJsLTYuMTgxLTQuOTQ0JiMxMDsmIzk7TDM4LjU2NywzNkg2MmMxLjEwNCwwLDItMC44OTYsMi0ydi02QzY0LDI3LjE4Myw2My41MDIsMjYuNDQ2LDYyLjc0MywyNi4xNDN6IE0yLDI5bDIxLjYxNC05LjM2NkwyNC43NjYsMzBIMlYyOXogTTI1LjIxLDM0SDJ2LTImIzEwOyYjOTtoMjIuOTg4TDI1LjIxLDM0eiBNMjIsNTh2LTJsNS4xOTMtNC4xNTRMMjcuODc3LDU4SDIyeiBNNDIsNTZ2MmgtNS44NzdsMC42ODQtNi4xNTRMNDIsNTZ6IE0zMy45OTUsNTkuMDQyJiMxMDsmIzk7QzMzLjkwMyw2MC4wNjQsMzMuMzY4LDYyLDMyLDYyYy0xLjM2NywwLTEuOTA2LTEuOTYzLTIuMDA1LTMuMDRsLTQuOTkxLTQ0LjkzM2MtMC4wNDEtMC41MDgtMC40ODMtNi44ODEsMi41MzUtMTAuMTYxJiMxMDsmIzk7QzI4LjY3OSwyLjYyOCwzMC4xOCwyLDMyLDJzMy4zMjEsMC42MjgsNC40NjEsMS44NjZjMy4wMDgsMy4yNywyLjU4MSw5LjU5NiwyLjU0MSwxMC4xMDhMMzMuOTk1LDU5LjA0MnogTTYyLDM0SDM4Ljc4OWwwLjIyMy0ySDYyJiMxMDsmIzk7VjM0eiBNNjIsMzBIMzkuMjM0bDEuMTgxLTEwLjYzNEw2MiwyOFYzMHoiIGZpbGw9IiMyMzFGMjAiLz4mI3hhOzwvc3ZnPg==;rotation=60;" parent="1" vertex="1">
          <mxGeometry x="3132.38" y="773.462857142857" width="35.714285714285715" height="35.714285714285715" as="geometry" />
        </mxCell>
        <mxCell id="998wLme6r4xHPnH6D-DP-75" value="" style="shape=image;verticalLabelPosition=bottom;labelBackgroundColor=default;verticalAlign=top;aspect=fixed;imageAspect=0;image=data:image/svg+xml,PHN2ZyB4bWxuczp4bGluaz0iaHR0cDovL3d3dy53My5vcmcvMTk5OS94bGluayIgeG1sbnM9Imh0dHA6Ly93d3cudzMub3JnLzIwMDAvc3ZnIiBzdHJva2U9IiMwMDAwMDAiIGZpbGw9IiMwMDAwMDAiIHhtbDpzcGFjZT0icHJlc2VydmUiIHZpZXdCb3g9IjAgMCA2NCA2NCIgaGVpZ2h0PSI4MDBweCIgd2lkdGg9IjgwMHB4IiBpZD0iTGF5ZXJfMSIgdmVyc2lvbj0iMS4wIj4mI3hhOyYjeGE7PGcgc3Ryb2tlLXdpZHRoPSIwIiBpZD0iU1ZHUmVwb19iZ0NhcnJpZXIiLz4mI3hhOyYjeGE7PGcgc3Ryb2tlLWxpbmVqb2luPSJyb3VuZCIgc3Ryb2tlLWxpbmVjYXA9InJvdW5kIiBpZD0iU1ZHUmVwb190cmFjZXJDYXJyaWVyIi8+JiN4YTsmI3hhOzxnIGlkPSJTVkdSZXBvX2ljb25DYXJyaWVyIj4gPGc+IDxyZWN0IGhlaWdodD0iNiIgd2lkdGg9IjYiIGZpbGw9IiNmZmZmZmYiIHk9IjM0IiB4PSIxNiIvPiA8cmVjdCBoZWlnaHQ9IjYiIHdpZHRoPSI2IiBmaWxsPSIjZmZmZmZmIiB5PSIzNCIgeD0iNDIiLz4gPHBhdGggZD0iTTYzLjIxMSwyOS43ODlMMzQuNDM4LDEuMDE1YzAsMC0wLjkzNy0xLjAxNS0yLjQzLTEuMDE1cy0yLjM3NiwwLjk5MS0yLjM3NiwwLjk5MUwyMCwxMC42MDRWNSBjMC0wLjU1My0wLjQ0Ny0xLTEtMWgtNmMtMC41NTMsMC0xLDAuNDQ3LTEsMXYxMy41ODlMMC43ODMsMjkuNzgzQzAuMjQsMzAuMzI2LDAsMzEuMTcyLDAsMzJjMCwxLjY1NiwxLjM0MywzLDMsMyBjMC44MjgsMCwxLjY2Mi0wLjI1MSwyLjIwNS0wLjc5NEw2LDMzLjQxMVY2MGMwLDIuMjExLDEuNzg5LDQsNCw0aDQ0YzIuMjExLDAsNC0xLjc4OSw0LTRWMzMuMzk0bDAuODA0LDAuODA0IEM1OS4zNDcsMzQuNzM5LDYwLjE3MiwzNSw2MSwzNWMxLjY1NywwLDMtMS4zNDMsMy0zQzY0LDMxLjE3MSw2My43NTQsMzAuMzMyLDYzLjIxMSwyOS43ODl6IE0yNCw0MWMwLDAuNTUzLTAuNDQ3LDEtMSwxaC04IGMtMC41NTMsMC0xLTAuNDQ3LTEtMXYtOGMwLTAuNTUzLDAuNDQ3LTEsMS0xaDhjMC41NTMsMCwxLDAuNDQ3LDEsMVY0MXogTTM4LDYyLjAwMkgyNnYtMTVjMC0wLjU1MywwLjQ0Ny0xLDEtMWgxMCBjMC41NTMsMCwxLDAuNDQ3LDEsMVY2Mi4wMDJ6IE01MCw0MWMwLDAuNTUzLTAuNDQ3LDEtMSwxaC04Yy0wLjU1MywwLTEtMC40NDctMS0xdi04YzAtMC41NTMsMC40NDctMSwxLTFoOGMwLjU1MywwLDEsMC40NDcsMSwxIFY0MXogTTYxLDMzYy0wLjI3NiwwLTAuNjAyLTAuMDM2LTAuNzgyLTAuMjE3TDMyLjcxNiw1LjI4MWMtMC4xOTUtMC4xOTUtMC40NTEtMC4yOTMtMC43MDctMC4yOTNzLTAuNTEyLDAuMDk4LTAuNzA3LDAuMjkzIEwzLjc5MSwzMi43OTNDMy42MSwzMi45NzQsMy4yNzYsMzMsMywzM2MtMC41NTMsMC0xLTAuNDQ3LTEtMWMwLTAuMjc2LDAuMDE2LTAuNjIyLDAuMTk3LTAuODAzTDMxLjAzNSwyLjQxIGMwLDAsMC4zNzMtMC40MSwwLjk3NC0wLjQxczAuOTgyLDAuMzk4LDAuOTgyLDAuMzk4bDI4LjgwNiwyOC44MDVDNjEuOTc4LDMxLjM4NCw2MiwzMS43MjQsNjIsMzJDNjIsMzIuNTUyLDYxLjU1MywzMyw2MSwzM3oiIGZpbGw9IiNmZmZmZmYiLz4gPC9nPiA8L2c+JiN4YTsmI3hhOzwvc3ZnPg==;rotation=0;" parent="1" vertex="1">
          <mxGeometry x="3331.52" y="773.462857142857" width="35.714285714285715" height="35.714285714285715" as="geometry" />
        </mxCell>
        <mxCell id="998wLme6r4xHPnH6D-DP-76" value="" style="shape=image;verticalLabelPosition=bottom;labelBackgroundColor=default;verticalAlign=top;aspect=fixed;imageAspect=0;image=data:image/svg+xml,PHN2ZyB4bWxuczp4bGluaz0iaHR0cDovL3d3dy53My5vcmcvMTk5OS94bGluayIgeG1sbnM9Imh0dHA6Ly93d3cudzMub3JnLzIwMDAvc3ZnIiB4bWw6c3BhY2U9InByZXNlcnZlIiB2aWV3Qm94PSIwIDAgNjQgNjQiIGhlaWdodD0iODAwcHgiIHdpZHRoPSI4MDBweCIgaWQ9IkxheWVyXzEiIHZlcnNpb249IjEuMCI+JiN4YTs8Zz4mI3hhOwk8cGF0aCBkPSJNNTguOTgyLDMyLjA4OEM1OC45ODUsMzIuMDU3LDU5LDMyLjAzMSw1OSwzMmMwLTIuODY2LTAuNTg5LTI4LTIxLTI4SDI2QzEyLjY1NCw0LDUsMTQuMjA2LDUsMzImIzEwOyYjOTsmIzk7YzAsMC4wMzEsMC4wMTUsMC4wNTcsMC4wMTgsMC4wODhDMi4xNzYsMzIuNTU5LDAsMzUuMDI3LDAsMzh2MTBjMCwzLjMwOSwyLjY5MSw2LDYsNnY1YzAsMC41NTMsMC40NDcsMSwxLDFoOGMwLjU1MywwLDEtMC40NDcsMS0xJiMxMDsmIzk7JiM5O3YtNWgzMnY1YzAsMC41NTMsMC40NDcsMSwxLDFoOGMwLjU1MywwLDEtMC40NDcsMS0xdi01YzMuMzA5LDAsNi0yLjY5MSw2LTZWMzhDNjQsMzUuMDI3LDYxLjgyNCwzMi41NTksNTguOTgyLDMyLjA4OHogTTI2LDZoMTImIzEwOyYjOTsmIzk7YzE4LjQ2NywwLDE5LDIzLjMzOSwxOSwyNmgtMmMwLTIuNDU2LTAuNTA1LTI0LTE4LTI0SDI3QzE1LjM5Myw4LDksMTYuNTIzLDksMzJIN0M3LDkuMzc4LDE4LjkwNCw2LDI2LDZ6IE0yNCwyNCYjMTA7JiM5OyYjOTtjLTQuNDE4LDAtOCwzLjU4Mi04LDhoLTVjMC0xOC4xODQsOC43MDEtMjIsMTYtMjJoMTBjNi4zNCwwLDEwLjkwOSwzLjE2LDEzLjU4MSw5LjM5NEM1Mi44MjUsMjQuNjMyLDUzLDMwLjM2Nyw1MywzMkgzMiYjMTA7JiM5OyYjOTtDMzIsMjcuNTgyLDI4LjQxOCwyNCwyNCwyNHogTTMwLDMySDE4YzAtMy4zMTMsMi42ODctNiw2LTZTMzAsMjguNjg3LDMwLDMyeiBNMTQsNThIOHYtNGg2VjU4eiBNNTYsNThoLTZ2LTRoNlY1OHogTTYyLDQ4JiMxMDsmIzk7JiM5O2MwLDIuMjA2LTEuNzk0LDQtNCw0SDZjLTIuMjA2LDAtNC0xLjc5NC00LTRWMzhjMC0yLjIwNiwxLjc5NC00LDQtNGg1MmMyLjIwNiwwLDQsMS43OTQsNCw0VjQ4eiIgZmlsbD0iIzIzMUYyMCIvPiYjeGE7CTxwYXRoIGQ9Ik0xMSwzOWMtMi4yMDYsMC00LDEuNzk0LTQsNHMxLjc5NCw0LDQsNHM0LTEuNzk0LDQtNFMxMy4yMDYsMzksMTEsMzl6IE0xMSw0NWMtMS4xMDMsMC0yLTAuODk3LTItMiYjMTA7JiM5OyYjOTtzMC44OTctMiwyLTJzMiwwLjg5NywyLDJTMTIuMTAzLDQ1LDExLDQ1eiIgZmlsbD0iIzIzMUYyMCIvPiYjeGE7CTxwYXRoIGQ9Ik01MywzOWMtMi4yMDYsMC00LDEuNzk0LTQsNHMxLjc5NCw0LDQsNHM0LTEuNzk0LDQtNFM1NS4yMDYsMzksNTMsMzl6IE01Myw0NWMtMS4xMDMsMC0yLTAuODk3LTItMiYjMTA7JiM5OyYjOTtzMC44OTctMiwyLTJzMiwwLjg5NywyLDJTNTQuMTAzLDQ1LDUzLDQ1eiIgZmlsbD0iIzIzMUYyMCIvPiYjeGE7CTxwYXRoIGQ9Ik00Myw0MEgyMWMtMC41NTMsMC0xLDAuNDQ3LTEsMXMwLjQ0NywxLDEsMWgyMmMwLjU1MywwLDEtMC40NDcsMS0xUzQzLjU1Myw0MCw0Myw0MHoiIGZpbGw9IiMyMzFGMjAiLz4mI3hhOwk8cGF0aCBkPSJNNDMsNDRIMjFjLTAuNTUzLDAtMSwwLjQ0Ny0xLDFzMC40NDcsMSwxLDFoMjJjMC41NTMsMCwxLTAuNDQ3LDEtMVM0My41NTMsNDQsNDMsNDR6IiBmaWxsPSIjMjMxRjIwIi8+JiN4YTsJPHBhdGggZD0iTTQyLjcwNywxNS4yOTRjLTAuMzkxLTAuMzkxLTEuMDIzLTAuMzkxLTEuNDE0LDBzLTAuMzkxLDEuMDIzLDAsMS40MTRsMiwyJiMxMDsmIzk7JiM5O2MwLjE5NSwwLjE5NSwwLjQ1MSwwLjI5MywwLjcwNywwLjI5M3MwLjUxMi0wLjA5OCwwLjcwNy0wLjI5M2MwLjM5MS0wLjM5MSwwLjM5MS0xLjAyMywwLTEuNDE0TDQyLjcwNywxNS4yOTR6IiBmaWxsPSIjMjMxRjIwIi8+JiN4YTsJPHBhdGggZD0iTTM3LjcwNywxNS4yOTNjLTAuMzkxLTAuMzkxLTEuMDIzLTAuMzkxLTEuNDE0LDBzLTAuMzkxLDEuMDIzLDAsMS40MTRsNyw3QzQzLjQ4OCwyMy45MDIsNDMuNzQ0LDI0LDQ0LDI0JiMxMDsmIzk7JiM5O3MwLjUxMi0wLjA5OCwwLjcwNy0wLjI5M2MwLjM5MS0wLjM5MSwwLjM5MS0xLjAyMywwLTEuNDE0TDM3LjcwNywxNS4yOTN6IiBmaWxsPSIjMjMxRjIwIi8+JiN4YTs8L2c+JiN4YTs8L3N2Zz4=;rotation=0;" parent="1" vertex="1">
          <mxGeometry x="3232.52" y="773.462857142857" width="35.714285714285715" height="35.714285714285715" as="geometry" />
        </mxCell>
        <mxCell id="998wLme6r4xHPnH6D-DP-77" value="flight_booked" style="text;html=1;align=center;verticalAlign=middle;resizable=0;points=[];autosize=1;strokeColor=none;fillColor=none;" parent="1" vertex="1">
          <mxGeometry x="3106.74" y="806.3199999999999" width="89" height="26" as="geometry" />
        </mxCell>
        <mxCell id="998wLme6r4xHPnH6D-DP-78" value="car_booked" style="text;html=1;align=center;verticalAlign=middle;resizable=0;points=[];autosize=1;strokeColor=none;fillColor=none;" parent="1" vertex="1">
          <mxGeometry x="3210.38" y="806.3199999999999" width="81" height="26" as="geometry" />
        </mxCell>
        <mxCell id="998wLme6r4xHPnH6D-DP-79" value="room_booked" style="text;html=1;align=center;verticalAlign=middle;resizable=0;points=[];autosize=1;strokeColor=none;fillColor=none;" parent="1" vertex="1">
          <mxGeometry x="3303.88" y="806.3199999999999" width="91" height="26" as="geometry" />
        </mxCell>
        <mxCell id="998wLme6r4xHPnH6D-DP-80" value="status" style="text;html=1;align=center;verticalAlign=middle;resizable=0;points=[];autosize=1;strokeColor=none;fillColor=none;" parent="1" vertex="1">
          <mxGeometry x="3423.7400000000002" y="805.3199999999999" width="50" height="26" as="geometry" />
        </mxCell>
        <mxCell id="998wLme6r4xHPnH6D-DP-81" value="" style="shape=image;verticalLabelPosition=bottom;labelBackgroundColor=default;verticalAlign=top;aspect=fixed;imageAspect=0;image=data:image/svg+xml,PHN2ZyB4bWxucz0iaHR0cDovL3d3dy53My5vcmcvMjAwMC9zdmciIGZpbGw9Im5vbmUiIHZpZXdCb3g9IjAgMCAyNCAyNCIgaGVpZ2h0PSI4MDBweCIgd2lkdGg9IjgwMHB4Ij4mI3hhOzxwYXRoIGZpbGw9IiMxQzI3NEMiIGQ9Ik01Ljc1IDFDNi4xNjQyMSAxIDYuNSAxLjMzNTc5IDYuNSAxLjc1VjMuNkw4LjIyMDY3IDMuMjU1ODdDOS44NzEyIDIuOTI1NzYgMTEuNTgyMSAzLjA4Mjg0IDEzLjE0NDkgMy43MDc5N0wxMy41NTgyIDMuODczMjlDMTQuOTgzMSA0LjQ0MzIzIDE2LjU1MTMgNC41NDk2NyAxOC4wNDAxIDQuMTc3NDZDMTguNjcxMSA0LjAxOTcyIDE5LjE3NzggNC43MDM2IDE4Ljg0MzIgNS4yNjEzMkwxNy41NjQ3IDcuMzkyMjFDMTcuMjIzMiA3Ljk2MTM3IDE3LjA1MjQgOC4yNDU5NSAxNy4wMTE5IDguNTU1NDlDMTYuOTk1MSA4LjY4NDYxIDE2Ljk5NTEgOC44MTUzOSAxNy4wMTE5IDguOTQ0NTFDMTcuMDUyNCA5LjI1NDA1IDE3LjIyMzIgOS41Mzg2MyAxNy41NjQ3IDEwLjEwNzhMMTkuMTI1MyAxMi43MDg5QzE5LjQzNjEgMTMuMjI2OSAxOS4xNTgyIDEzLjg5OCAxOC41NzIxIDE0LjA0NDVMMTguNDcyIDE0LjA2OTVDMTYuNzAyNCAxNC41MTE5IDE0LjgzODUgMTQuMzg1NCAxMy4xNDQ5IDEzLjcwOEMxMS41ODIxIDEzLjA4MjggOS44NzEyIDEyLjkyNTggOC4yMjA2NyAxMy4yNTU5TDYuNSAxMy42VjIxLjc1QzYuNSAyMi4xNjQyIDYuMTY0MjEgMjIuNSA1Ljc1IDIyLjVDNS4zMzU3OSAyMi41IDUgMjIuMTY0MiA1IDIxLjc1VjEuNzVDNSAxLjMzNTc5IDUuMzM1NzkgMSA1Ljc1IDFaIi8+JiN4YTs8L3N2Zz4=;rotation=0;" parent="1" vertex="1">
          <mxGeometry x="3156.16" y="769.3200000000002" width="12.93" height="12.93" as="geometry" />
        </mxCell>
        <mxCell id="998wLme6r4xHPnH6D-DP-82" value="" style="shape=image;verticalLabelPosition=bottom;labelBackgroundColor=default;verticalAlign=top;aspect=fixed;imageAspect=0;image=data:image/svg+xml,PHN2ZyB4bWxucz0iaHR0cDovL3d3dy53My5vcmcvMjAwMC9zdmciIGZpbGw9Im5vbmUiIHZpZXdCb3g9IjAgMCAyNCAyNCIgaGVpZ2h0PSI4MDBweCIgd2lkdGg9IjgwMHB4Ij4mI3hhOzxwYXRoIGZpbGw9IiMxQzI3NEMiIGQ9Ik01Ljc1IDFDNi4xNjQyMSAxIDYuNSAxLjMzNTc5IDYuNSAxLjc1VjMuNkw4LjIyMDY3IDMuMjU1ODdDOS44NzEyIDIuOTI1NzYgMTEuNTgyMSAzLjA4Mjg0IDEzLjE0NDkgMy43MDc5N0wxMy41NTgyIDMuODczMjlDMTQuOTgzMSA0LjQ0MzIzIDE2LjU1MTMgNC41NDk2NyAxOC4wNDAxIDQuMTc3NDZDMTguNjcxMSA0LjAxOTcyIDE5LjE3NzggNC43MDM2IDE4Ljg0MzIgNS4yNjEzMkwxNy41NjQ3IDcuMzkyMjFDMTcuMjIzMiA3Ljk2MTM3IDE3LjA1MjQgOC4yNDU5NSAxNy4wMTE5IDguNTU1NDlDMTYuOTk1MSA4LjY4NDYxIDE2Ljk5NTEgOC44MTUzOSAxNy4wMTE5IDguOTQ0NTFDMTcuMDUyNCA5LjI1NDA1IDE3LjIyMzIgOS41Mzg2MyAxNy41NjQ3IDEwLjEwNzhMMTkuMTI1MyAxMi43MDg5QzE5LjQzNjEgMTMuMjI2OSAxOS4xNTgyIDEzLjg5OCAxOC41NzIxIDE0LjA0NDVMMTguNDcyIDE0LjA2OTVDMTYuNzAyNCAxNC41MTE5IDE0LjgzODUgMTQuMzg1NCAxMy4xNDQ5IDEzLjcwOEMxMS41ODIxIDEzLjA4MjggOS44NzEyIDEyLjkyNTggOC4yMjA2NyAxMy4yNTU5TDYuNSAxMy42VjIxLjc1QzYuNSAyMi4xNjQyIDYuMTY0MjEgMjIuNSA1Ljc1IDIyLjVDNS4zMzU3OSAyMi41IDUgMjIuMTY0MiA1IDIxLjc1VjEuNzVDNSAxLjMzNTc5IDUuMzM1NzkgMSA1Ljc1IDFaIi8+JiN4YTs8L3N2Zz4=;rotation=0;" parent="1" vertex="1">
          <mxGeometry x="3258.5200000000004" y="768.3200000000002" width="12.93" height="12.93" as="geometry" />
        </mxCell>
        <mxCell id="998wLme6r4xHPnH6D-DP-83" value="" style="shape=image;verticalLabelPosition=bottom;labelBackgroundColor=default;verticalAlign=top;aspect=fixed;imageAspect=0;image=data:image/svg+xml,PHN2ZyB4bWxucz0iaHR0cDovL3d3dy53My5vcmcvMjAwMC9zdmciIGZpbGw9Im5vbmUiIHZpZXdCb3g9IjAgMCAyNCAyNCIgaGVpZ2h0PSI4MDBweCIgd2lkdGg9IjgwMHB4Ij4mI3hhOzxwYXRoIGZpbGw9IiMxQzI3NEMiIGQ9Ik01Ljc1IDFDNi4xNjQyMSAxIDYuNSAxLjMzNTc5IDYuNSAxLjc1VjMuNkw4LjIyMDY3IDMuMjU1ODdDOS44NzEyIDIuOTI1NzYgMTEuNTgyMSAzLjA4Mjg0IDEzLjE0NDkgMy43MDc5N0wxMy41NTgyIDMuODczMjlDMTQuOTgzMSA0LjQ0MzIzIDE2LjU1MTMgNC41NDk2NyAxOC4wNDAxIDQuMTc3NDZDMTguNjcxMSA0LjAxOTcyIDE5LjE3NzggNC43MDM2IDE4Ljg0MzIgNS4yNjEzMkwxNy41NjQ3IDcuMzkyMjFDMTcuMjIzMiA3Ljk2MTM3IDE3LjA1MjQgOC4yNDU5NSAxNy4wMTE5IDguNTU1NDlDMTYuOTk1MSA4LjY4NDYxIDE2Ljk5NTEgOC44MTUzOSAxNy4wMTE5IDguOTQ0NTFDMTcuMDUyNCA5LjI1NDA1IDE3LjIyMzIgOS41Mzg2MyAxNy41NjQ3IDEwLjEwNzhMMTkuMTI1MyAxMi43MDg5QzE5LjQzNjEgMTMuMjI2OSAxOS4xNTgyIDEzLjg5OCAxOC41NzIxIDE0LjA0NDVMMTguNDcyIDE0LjA2OTVDMTYuNzAyNCAxNC41MTE5IDE0LjgzODUgMTQuMzg1NCAxMy4xNDQ5IDEzLjcwOEMxMS41ODIxIDEzLjA4MjggOS44NzEyIDEyLjkyNTggOC4yMjA2NyAxMy4yNTU5TDYuNSAxMy42VjIxLjc1QzYuNSAyMi4xNjQyIDYuMTY0MjEgMjIuNSA1Ljc1IDIyLjVDNS4zMzU3OSAyMi41IDUgMjIuMTY0MiA1IDIxLjc1VjEuNzVDNSAxLjMzNTc5IDUuMzM1NzkgMSA1Ljc1IDFaIi8+JiN4YTs8L3N2Zz4=;rotation=0;" parent="1" vertex="1">
          <mxGeometry x="3354.3" y="768.3200000000002" width="12.93" height="12.93" as="geometry" />
        </mxCell>
        <mxCell id="998wLme6r4xHPnH6D-DP-84" value="" style="rounded=1;whiteSpace=wrap;html=1;rotation=0;fillColor=#fff2cc;strokeColor=#d6b656;" parent="1" vertex="1">
          <mxGeometry x="3010.92" y="191.32" width="249" height="137" as="geometry" />
        </mxCell>
        <mxCell id="998wLme6r4xHPnH6D-DP-85" value="" style="shape=image;verticalLabelPosition=bottom;labelBackgroundColor=default;verticalAlign=top;aspect=fixed;imageAspect=0;image=data:image/svg+xml,PHN2ZyB4bWxucz0iaHR0cDovL3d3dy53My5vcmcvMjAwMC9zdmciIHhtbDpzcGFjZT0icHJlc2VydmUiIHZlcnNpb249IjEuMCIgaGVpZ2h0PSI2NCIgd2lkdGg9IjY0IiB2aWV3Qm94PSIwIDAgNjQgNjQiPiYjeGE7IDxnIGNsYXNzPSJsYXllciI+JiN4YTsgIDx0aXRsZT5MYXllciAxPC90aXRsZT4mI3hhOyAgPGcgaWQ9InN2Z18xIj4mI3hhOyAgIDxnIGlkPSJzdmdfNSI+JiN4YTsgICAgPHBhdGggaWQ9InN2Z182IiBmaWxsPSIjMzk0MjQwIiBkPSJtNTkuMzksOS44NGwtNy44MSwwbDAuMDgsMC45N2MwLC0wLjU0IDEuNzgsLTAuOTMgMS4yNCwtMC45M2wtMTAuMTIsLTAuMDRjLTAuNTQsMCAxLjA3LDAuNDQgMS4wNywwLjk4bC0wLjA4LC0wLjk3bC0yMy40NCwwbC0wLjIsMC45OGMwLC0wLjU0IDEuODYsLTAuOTggMS4zMiwtMC45OGwtMTAuMDQsMGMtMC41NCwwIDAuOSwwLjQ0IDAuOSwwLjk4bDAuMiwtMC45OGwtNy44MSwwYy0yLjE2LDAgLTMuOTEsMS43NSAtMy45MSwzLjkxbDAsMzkuMDZjMCwyLjE2IDEuNzUsMy45MSAzLjkxLDMuOTFsNTQuNjksMGMyLjE2LDAgMy45MSwtMS43NSAzLjkxLC0zLjkxbDAsLTM5LjA2YzAsLTIuMTYgLTEuNzUsLTMuOTEgLTMuOTEsLTMuOTF6bS0xMy41OSwxLjk1bDMuOTEsMGwwLjE3LC0xLjkzbC0zLjkxLDBsLTAuMTcsMS45M3ptLTMwLjIzLC0xLjIybDEuNTYsLTAuMmwxLjA3LC0wLjM5bC0zLjkxLDBsMS4yNywwLjU5em00NS43Nyw0Mi4yNGMwLDEuMDcgLTAuODgsMS45NSAtMS45NSwxLjk1bC01NC42OSwwYy0xLjA3LDAgLTEuOTUsLTAuODggLTEuOTUsLTEuOTVsMCwtMzkuMDZjMCwtMS4wNyAwLjg4LC0xLjk1IDEuOTUsLTEuOTVsNy44MSwwbC0wLjE3LC0wLjgzYzAsMC41NCAtMS4wNywwLjgxIC0wLjUzLDAuODFsOC42NiwwYzAuNTQsMCAtMC4zMiwtMC4yNyAtMC4zMiwtMC44MWwwLjE3LDAuODNsMjMuNDQsMGwwLjI1LC0wLjk2YzAsMC41NCAtMS44NiwwLjkzIC0xLjMyLDAuOTNsOS43NSwwYzAuNTQsMCAtMC42MSwtMC40IC0wLjYxLC0wLjkzbC0wLjI1LDAuOTZsNy44MSwwYzEuMDcsMCAxLjk1LDAuODggMS45NSwxLjk1bDAsMzkuMDZ6Ii8+JiN4YTsgICAgPHBhdGggaWQ9InN2Z183IiBmaWxsPSIjMzk0MjQwIiBkPSJtNDAuOCwzNy4xOGw5Ljc3LDBjMC41NCwwIDAuOTgsLTAuNDQgMC45OCwtMC45OHMtMC40NCwtMC45OCAtMC45OCwtMC45OGwtOS43NywwYy0wLjU0LDAgLTAuOTgsMC40NCAtMC45OCwwLjk4czAuNDQsMC45OCAwLjk4LDAuOTh6Ii8+JiN4YTsgICAgPHBhdGggaWQ9InN2Z184IiBmaWxsPSIjMzk0MjQwIiBkPSJtNTQuNDcsMjkuMzdsLTEzLjY3LDBjLTAuNTQsMCAtMC45OCwwLjQ0IC0wLjk4LDAuOThzMC40NCwwLjk4IDAuOTgsMC45OGwxMy42NywwYzAuNTQsMCAwLjk4LC0wLjQ0IDAuOTgsLTAuOThzLTAuNDQsLTAuOTggLTAuOTgsLTAuOTh6Ii8+JiN4YTsgICAgPHBhdGggaWQ9InN2Z185IiBmaWxsPSIjMzk0MjQwIiBkPSJtNTQuNDcsNDEuMDlsLTEzLjY3LDBjLTAuNTQsMCAtMC45OCwwLjQ0IC0wLjk4LDAuOThzMC40NCwwLjk4IDAuOTgsMC45OGwxMy42NywwYzAuNTQsMCAwLjk4LC0wLjQ0IDAuOTgsLTAuOThzLTAuNDQsLTAuOTggLTAuOTgsLTAuOTh6Ii8+JiN4YTsgICAgPHBhdGggaWQ9InN2Z18xMCIgZmlsbD0iIzM5NDI0MCIgZD0ibTQwLjgsMjUuNDdsNS44NiwwYzAuNTQsMCAwLjk4LC0wLjQ0IDAuOTgsLTAuOThzLTAuNDQsLTAuOTggLTAuOTgsLTAuOThsLTUuODYsMGMtMC41NCwwIC0wLjk4LDAuNDQgLTAuOTgsMC45OHMwLjQ0LDAuOTggMC45OCwwLjk4eiIvPiYjeGE7ICAgIDxwYXRoIGlkPSJzdmdfMTEiIGZpbGw9IiMzOTQyNDAiIGQ9Im0yMi4yNCwxOS42MWMtNy41NSwwIC0xMy42Nyw2LjEyIC0xMy42NywxMy42N3M2LjEyLDEzLjY3IDEzLjY3LDEzLjY3czEzLjY3LC02LjEyIDEzLjY3LC0xMy42N3MtNi4xMiwtMTMuNjcgLTEzLjY3LC0xMy42N3ptMCwyNS4zOWMtMi43NiwwIC01LjMsLTAuOTcgLTcuMywtMi41N2MwLjkyLC0xLjI2IDMuMDUsLTMuMjkgNy4zLC0zLjI5YzQuMjYsMCA2LjQsMi4wMyA3LjMsMy4yOWMtMiwxLjYgLTQuNTQsMi41NyAtNy4zLDIuNTd6bTguNzMsLTMuOTJjLTEuMjUsLTEuNjIgLTMuODYsLTMuOSAtOC43MywtMy45cy03LjQ4LDIuMjggLTguNzMsMy45Yy0xLjg2LC0yLjA3IC0yLjk5LC00LjggLTIuOTksLTcuOGMwLC02LjQ3IDUuMjQsLTExLjcyIDExLjcyLC0xMS43MnMxMS43Miw1LjI0IDExLjcyLDExLjcyYzAsMyAtMS4xMyw1LjczIC0yLjk5LDcuOHoiLz4mI3hhOyAgICA8cGF0aCBpZD0ic3ZnXzEyIiBmaWxsPSIjMzk0MjQwIiBkPSJtMjcuMTMsMzIuM2wwLC0xLjk1YzAsLTIuNyAtMi4xOSwtNC44OCAtNC44OCwtNC44OHMtNC44OCwyLjE5IC00Ljg4LDQuODhsMCwxLjk1YzAsMi43IDIuMTksNC44OCA0Ljg4LDQuODhzNC44OCwtMi4xOSA0Ljg4LC00Ljg4em0tMS45NSwwYzAsMS42MiAtMS4zMSwyLjkzIC0yLjkzLDIuOTNzLTIuOTMsLTEuMzEgLTIuOTMsLTIuOTNsMCwtMS45NWMwLC0xLjYyIDEuMzEsLTIuOTMgMi45MywtMi45M3MyLjkzLDEuMzEgMi45MywyLjkzbDAsMS45NXoiLz4mI3hhOyAgIDwvZz4mI3hhOyAgPC9nPiYjeGE7IDwvZz4mI3hhOzwvc3ZnPg==;" parent="1" vertex="1">
          <mxGeometry x="3039.92" y="226.82" width="43" height="43" as="geometry" />
        </mxCell>
        <mxCell id="998wLme6r4xHPnH6D-DP-86" value="" style="shape=image;verticalLabelPosition=bottom;labelBackgroundColor=default;verticalAlign=top;aspect=fixed;imageAspect=0;image=data:image/svg+xml,PHN2ZyB4bWxucz0iaHR0cDovL3d3dy53My5vcmcvMjAwMC9zdmciIHZpZXdCb3g9IjAgMCAxMDI0IDEwMjQiIGhlaWdodD0iODAwcHgiIHdpZHRoPSI4MDBweCIgZmlsbD0iIzUwNkM3RiI+JiN4YTsmI3hhOzxnIHN0cm9rZS13aWR0aD0iMCIgaWQ9IlNWR1JlcG9fYmdDYXJyaWVyIi8+JiN4YTsmI3hhOzxnIHN0cm9rZS1saW5lam9pbj0icm91bmQiIHN0cm9rZS1saW5lY2FwPSJyb3VuZCIgaWQ9IlNWR1JlcG9fdHJhY2VyQ2FycmllciIvPiYjeGE7JiN4YTs8ZyBpZD0iU1ZHUmVwb19pY29uQ2FycmllciI+JiN4YTsmI3hhOzxwYXRoIGQ9Ik01MTIgMTAyNEMyMjkuMjMgMTAyNCAwIDc5NC43NyAwIDUxMlMyMjkuMjMgMCA1MTIgMHM1MTIgMjI5LjIzIDUxMiA1MTItMjI5LjIzIDUxMi01MTIgNTEyem05NS43MzEtMjE5Ljk0N2M2Mi40MDMtMjAuMjc2IDExNC4wMzItNTguNjkzIDE1MC44NTktMTA3LjM1N2ExNS43OTMgMTUuNzkzIDAgMDA0LjgwMS0xMy44MjMgMTUuMzAyIDE1LjMwMiAwIDAwLS4wNjItLjQ3M2wtLjAwOC0uMDM5YTE1Ljc1IDE1Ljc1IDAgMDAtOC4zNzgtMTEuNDg4bC00NC43MDktMzIuODkzYTE1LjgzNyAxNS44MzcgMCAwMC0xMy43NS00LjU4N2MtLjEyNC4wMTQtLjI0OS4wMjktLjM3My4wNDZsLS4wNTguMDE0YTE1Ljg4IDE1Ljg4IDAgMDAtMTEuNDc4IDguMjM2Yy0yNS43NzYgMzMuODgxLTYxLjYyNCA2MC41NjMtMTA1LjMxIDc0Ljc1OC0xMTMuNDMyIDM2Ljg1Ni0yMzQuNzkxLTI0LjcyMi0yNzEuNTI1LTEzNy43NzdzMjUuMjUzLTIzNC4yMDYgMTM4LjY4NS0yNzEuMDYyYzEwNi4zMzUtMzQuNTUgMjE4LjkwNCAxNS44MiAyNjIuOTY2IDExNS4xNzVsLTcxLjYyMy0uODAzYy03LjE4Ny0xLjA2Ni0xNC4xODkgMi44ODUtMTYuOTgyIDkuNTgxYTE1Ljc0MyAxNS43NDMgMCAwMDQuNzQ4IDE4LjYwMWwxMjAuOTEgMTI2LjQxYzIuOTk5IDMuMTM1IDcuMTYxIDQuODk5IDExLjUxIDQuODc5czguNTAyLTEuODIzIDExLjQ4NS00Ljk4Nkw4OTAuMzcgNDQ4LjIwNmM1LjI2NS00LjE5MyA3LjMwMy0xMS4yNDIgNS4wODItMTcuNTczYTIwLjUxNiAyMC41MTYgMCAwMC0uMTE5LS4zMTggMTUuODg5IDE1Ljg4OSAwIDAwLS45NDctMi4wOTlsLS4wMzEtLjA3M2MtMy4xMTYtNS43MjktOS40NDgtOC45NTEtMTUuOTM3LTguMTA4bC03MS42NzgtLjQ5NC0uODkyLTIuNzQ0Qzc1My41IDI1NS42ODUgNTc5LjYxIDE2Ny40NSA0MTcuOTUyIDIxOS45NzZTMTY3LjQ3OCA0NDYuMDk1IDIxOS44MjYgNjA3LjIwN2M1Mi4zNDggMTYxLjExMiAyMjYuMjM4IDI0OS4zNDcgMzg3Ljg5NiAxOTYuODIxbC4wMDguMDI3eiIvPiYjeGE7JiN4YTs8L2c+JiN4YTsmI3hhOzwvc3ZnPg==;" parent="1" vertex="1">
          <mxGeometry x="3185.92" y="230.32" width="30" height="30" as="geometry" />
        </mxCell>
        <mxCell id="998wLme6r4xHPnH6D-DP-87" value="" style="shape=image;verticalLabelPosition=bottom;labelBackgroundColor=default;verticalAlign=top;aspect=fixed;imageAspect=0;image=data:image/svg+xml,PHN2ZyB4bWxuczp4bGluaz0iaHR0cDovL3d3dy53My5vcmcvMTk5OS94bGluayIgeG1sbnM9Imh0dHA6Ly93d3cudzMub3JnLzIwMDAvc3ZnIiB4bWw6c3BhY2U9InByZXNlcnZlIiB2aWV3Qm94PSIwIDAgNjQgNjQiIGhlaWdodD0iODAwcHgiIHdpZHRoPSI4MDBweCIgaWQ9IkxheWVyXzEiIHZlcnNpb249IjEuMCI+JiN4YTs8cGF0aCBkPSJNNjIuNzQzLDI2LjE0M2wtMjIuMDk5LTguODRsMC4zNDktMy4xMzdjMC4wNjUtMC43ODEsMC41MzItNy43NDktMy4wNjEtMTEuNjU0QzM2LjQyLDAuODY4LDM0LjM2OSwwLDMyLDAmIzEwOyYjOTtzLTQuNDIsMC44NjgtNS45MzMsMi41MTJjLTMuNTkzLDMuOTA1LTMuMTI2LDEwLjg3My0zLjA1NSwxMS43MDlsMC4zNywzLjMzNGwtMjIuMTc4LDkuNjFDMC40NzQsMjcuNDgxLDAsMjguMjAzLDAsMjl2NSYjMTA7JiM5O2MwLDEuMTA0LDAuODk2LDIsMiwyaDIzLjQzM2wxLjQ5OSwxMy40OTRsLTYuMTgxLDQuOTQ0QzIwLjI3Niw1NC44MTcsMjAsNTUuMzkzLDIwLDU2djJjMCwxLjEwNCwwLjg5NiwyLDIsMmg2LjEzJiMxMDsmIzk7YzAuNDE2LDIuMTAxLDEuNjk1LDQsMy44Nyw0YzIuMTg2LDAsMy40NjUtMS45MTYsMy44NzEtNEg0MmMxLjEwNCwwLDItMC44OTYsMi0ydi0yYzAtMC42MDctMC4yNzYtMS4xODMtMC43NTEtMS41NjJsLTYuMTgxLTQuOTQ0JiMxMDsmIzk7TDM4LjU2NywzNkg2MmMxLjEwNCwwLDItMC44OTYsMi0ydi02QzY0LDI3LjE4Myw2My41MDIsMjYuNDQ2LDYyLjc0MywyNi4xNDN6IE0yLDI5bDIxLjYxNC05LjM2NkwyNC43NjYsMzBIMlYyOXogTTI1LjIxLDM0SDJ2LTImIzEwOyYjOTtoMjIuOTg4TDI1LjIxLDM0eiBNMjIsNTh2LTJsNS4xOTMtNC4xNTRMMjcuODc3LDU4SDIyeiBNNDIsNTZ2MmgtNS44NzdsMC42ODQtNi4xNTRMNDIsNTZ6IE0zMy45OTUsNTkuMDQyJiMxMDsmIzk7QzMzLjkwMyw2MC4wNjQsMzMuMzY4LDYyLDMyLDYyYy0xLjM2NywwLTEuOTA2LTEuOTYzLTIuMDA1LTMuMDRsLTQuOTkxLTQ0LjkzM2MtMC4wNDEtMC41MDgtMC40ODMtNi44ODEsMi41MzUtMTAuMTYxJiMxMDsmIzk7QzI4LjY3OSwyLjYyOCwzMC4xOCwyLDMyLDJzMy4zMjEsMC42MjgsNC40NjEsMS44NjZjMy4wMDgsMy4yNywyLjU4MSw5LjU5NiwyLjU0MSwxMC4xMDhMMzMuOTk1LDU5LjA0MnogTTYyLDM0SDM4Ljc4OWwwLjIyMy0ySDYyJiMxMDsmIzk7VjM0eiBNNjIsMzBIMzkuMjM0bDEuMTgxLTEwLjYzNEw2MiwyOFYzMHoiIGZpbGw9IiMyMzFGMjAiLz4mI3hhOzwvc3ZnPg==;rotation=60;" parent="1" vertex="1">
          <mxGeometry x="3121.02" y="233.45999999999998" width="29.72" height="29.72" as="geometry" />
        </mxCell>
        <mxCell id="998wLme6r4xHPnH6D-DP-88" value="id (original)" style="text;html=1;strokeColor=none;fillColor=none;align=center;verticalAlign=middle;whiteSpace=wrap;rounded=0;" parent="1" vertex="1">
          <mxGeometry x="3028.38" y="265.82" width="67" height="21" as="geometry" />
        </mxCell>
        <mxCell id="998wLme6r4xHPnH6D-DP-89" value="flight_id" style="text;html=1;strokeColor=none;fillColor=none;align=center;verticalAlign=middle;whiteSpace=wrap;rounded=0;" parent="1" vertex="1">
          <mxGeometry x="3105.38" y="265.82" width="61" height="21" as="geometry" />
        </mxCell>
        <mxCell id="998wLme6r4xHPnH6D-DP-90" value="status" style="text;html=1;strokeColor=none;fillColor=none;align=center;verticalAlign=middle;whiteSpace=wrap;rounded=0;" parent="1" vertex="1">
          <mxGeometry x="3172.92" y="265.82" width="61" height="21" as="geometry" />
        </mxCell>
        <mxCell id="998wLme6r4xHPnH6D-DP-91" value="" style="rounded=1;whiteSpace=wrap;html=1;rotation=0;fillColor=#fff2cc;strokeColor=#d6b656;" parent="1" vertex="1">
          <mxGeometry x="3010.92" y="343.59999999999997" width="249" height="180.72" as="geometry" />
        </mxCell>
        <mxCell id="998wLme6r4xHPnH6D-DP-92" value="" style="shape=image;verticalLabelPosition=bottom;labelBackgroundColor=default;verticalAlign=top;aspect=fixed;imageAspect=0;image=data:image/svg+xml,PHN2ZyB4bWxucz0iaHR0cDovL3d3dy53My5vcmcvMjAwMC9zdmciIHhtbDpzcGFjZT0icHJlc2VydmUiIHZlcnNpb249IjEuMCIgaGVpZ2h0PSI2NCIgd2lkdGg9IjY0IiB2aWV3Qm94PSIwIDAgNjQgNjQiPiYjeGE7IDxnIGNsYXNzPSJsYXllciI+JiN4YTsgIDx0aXRsZT5MYXllciAxPC90aXRsZT4mI3hhOyAgPGcgaWQ9InN2Z18xIj4mI3hhOyAgIDxnIGlkPSJzdmdfNSI+JiN4YTsgICAgPHBhdGggaWQ9InN2Z182IiBmaWxsPSIjMzk0MjQwIiBkPSJtNTkuMzksOS44NGwtNy44MSwwbDAuMDgsMC45N2MwLC0wLjU0IDEuNzgsLTAuOTMgMS4yNCwtMC45M2wtMTAuMTIsLTAuMDRjLTAuNTQsMCAxLjA3LDAuNDQgMS4wNywwLjk4bC0wLjA4LC0wLjk3bC0yMy40NCwwbC0wLjIsMC45OGMwLC0wLjU0IDEuODYsLTAuOTggMS4zMiwtMC45OGwtMTAuMDQsMGMtMC41NCwwIDAuOSwwLjQ0IDAuOSwwLjk4bDAuMiwtMC45OGwtNy44MSwwYy0yLjE2LDAgLTMuOTEsMS43NSAtMy45MSwzLjkxbDAsMzkuMDZjMCwyLjE2IDEuNzUsMy45MSAzLjkxLDMuOTFsNTQuNjksMGMyLjE2LDAgMy45MSwtMS43NSAzLjkxLC0zLjkxbDAsLTM5LjA2YzAsLTIuMTYgLTEuNzUsLTMuOTEgLTMuOTEsLTMuOTF6bS0xMy41OSwxLjk1bDMuOTEsMGwwLjE3LC0xLjkzbC0zLjkxLDBsLTAuMTcsMS45M3ptLTMwLjIzLC0xLjIybDEuNTYsLTAuMmwxLjA3LC0wLjM5bC0zLjkxLDBsMS4yNywwLjU5em00NS43Nyw0Mi4yNGMwLDEuMDcgLTAuODgsMS45NSAtMS45NSwxLjk1bC01NC42OSwwYy0xLjA3LDAgLTEuOTUsLTAuODggLTEuOTUsLTEuOTVsMCwtMzkuMDZjMCwtMS4wNyAwLjg4LC0xLjk1IDEuOTUsLTEuOTVsNy44MSwwbC0wLjE3LC0wLjgzYzAsMC41NCAtMS4wNywwLjgxIC0wLjUzLDAuODFsOC42NiwwYzAuNTQsMCAtMC4zMiwtMC4yNyAtMC4zMiwtMC44MWwwLjE3LDAuODNsMjMuNDQsMGwwLjI1LC0wLjk2YzAsMC41NCAtMS44NiwwLjkzIC0xLjMyLDAuOTNsOS43NSwwYzAuNTQsMCAtMC42MSwtMC40IC0wLjYxLC0wLjkzbC0wLjI1LDAuOTZsNy44MSwwYzEuMDcsMCAxLjk1LDAuODggMS45NSwxLjk1bDAsMzkuMDZ6Ii8+JiN4YTsgICAgPHBhdGggaWQ9InN2Z183IiBmaWxsPSIjMzk0MjQwIiBkPSJtNDAuOCwzNy4xOGw5Ljc3LDBjMC41NCwwIDAuOTgsLTAuNDQgMC45OCwtMC45OHMtMC40NCwtMC45OCAtMC45OCwtMC45OGwtOS43NywwYy0wLjU0LDAgLTAuOTgsMC40NCAtMC45OCwwLjk4czAuNDQsMC45OCAwLjk4LDAuOTh6Ii8+JiN4YTsgICAgPHBhdGggaWQ9InN2Z184IiBmaWxsPSIjMzk0MjQwIiBkPSJtNTQuNDcsMjkuMzdsLTEzLjY3LDBjLTAuNTQsMCAtMC45OCwwLjQ0IC0wLjk4LDAuOThzMC40NCwwLjk4IDAuOTgsMC45OGwxMy42NywwYzAuNTQsMCAwLjk4LC0wLjQ0IDAuOTgsLTAuOThzLTAuNDQsLTAuOTggLTAuOTgsLTAuOTh6Ii8+JiN4YTsgICAgPHBhdGggaWQ9InN2Z185IiBmaWxsPSIjMzk0MjQwIiBkPSJtNTQuNDcsNDEuMDlsLTEzLjY3LDBjLTAuNTQsMCAtMC45OCwwLjQ0IC0wLjk4LDAuOThzMC40NCwwLjk4IDAuOTgsMC45OGwxMy42NywwYzAuNTQsMCAwLjk4LC0wLjQ0IDAuOTgsLTAuOThzLTAuNDQsLTAuOTggLTAuOTgsLTAuOTh6Ii8+JiN4YTsgICAgPHBhdGggaWQ9InN2Z18xMCIgZmlsbD0iIzM5NDI0MCIgZD0ibTQwLjgsMjUuNDdsNS44NiwwYzAuNTQsMCAwLjk4LC0wLjQ0IDAuOTgsLTAuOThzLTAuNDQsLTAuOTggLTAuOTgsLTAuOThsLTUuODYsMGMtMC41NCwwIC0wLjk4LDAuNDQgLTAuOTgsMC45OHMwLjQ0LDAuOTggMC45OCwwLjk4eiIvPiYjeGE7ICAgIDxwYXRoIGlkPSJzdmdfMTEiIGZpbGw9IiMzOTQyNDAiIGQ9Im0yMi4yNCwxOS42MWMtNy41NSwwIC0xMy42Nyw2LjEyIC0xMy42NywxMy42N3M2LjEyLDEzLjY3IDEzLjY3LDEzLjY3czEzLjY3LC02LjEyIDEzLjY3LC0xMy42N3MtNi4xMiwtMTMuNjcgLTEzLjY3LC0xMy42N3ptMCwyNS4zOWMtMi43NiwwIC01LjMsLTAuOTcgLTcuMywtMi41N2MwLjkyLC0xLjI2IDMuMDUsLTMuMjkgNy4zLC0zLjI5YzQuMjYsMCA2LjQsMi4wMyA3LjMsMy4yOWMtMiwxLjYgLTQuNTQsMi41NyAtNy4zLDIuNTd6bTguNzMsLTMuOTJjLTEuMjUsLTEuNjIgLTMuODYsLTMuOSAtOC43MywtMy45cy03LjQ4LDIuMjggLTguNzMsMy45Yy0xLjg2LC0yLjA3IC0yLjk5LC00LjggLTIuOTksLTcuOGMwLC02LjQ3IDUuMjQsLTExLjcyIDExLjcyLC0xMS43MnMxMS43Miw1LjI0IDExLjcyLDExLjcyYzAsMyAtMS4xMyw1LjczIC0yLjk5LDcuOHoiLz4mI3hhOyAgICA8cGF0aCBpZD0ic3ZnXzEyIiBmaWxsPSIjMzk0MjQwIiBkPSJtMjcuMTMsMzIuM2wwLC0xLjk1YzAsLTIuNyAtMi4xOSwtNC44OCAtNC44OCwtNC44OHMtNC44OCwyLjE5IC00Ljg4LDQuODhsMCwxLjk1YzAsMi43IDIuMTksNC44OCA0Ljg4LDQuODhzNC44OCwtMi4xOSA0Ljg4LC00Ljg4em0tMS45NSwwYzAsMS42MiAtMS4zMSwyLjkzIC0yLjkzLDIuOTNzLTIuOTMsLTEuMzEgLTIuOTMsLTIuOTNsMCwtMS45NWMwLC0xLjYyIDEuMzEsLTIuOTMgMi45MywtMi45M3MyLjkzLDEuMzEgMi45MywyLjkzbDAsMS45NXoiLz4mI3hhOyAgIDwvZz4mI3hhOyAgPC9nPiYjeGE7IDwvZz4mI3hhOzwvc3ZnPg==;" parent="1" vertex="1">
          <mxGeometry x="3039.92" y="402.09999999999997" width="43" height="43" as="geometry" />
        </mxCell>
        <mxCell id="998wLme6r4xHPnH6D-DP-93" value="" style="shape=image;verticalLabelPosition=bottom;labelBackgroundColor=default;verticalAlign=top;aspect=fixed;imageAspect=0;image=data:image/svg+xml,PHN2ZyB4bWxucz0iaHR0cDovL3d3dy53My5vcmcvMjAwMC9zdmciIHZpZXdCb3g9IjAgMCAxMDI0IDEwMjQiIGhlaWdodD0iODAwcHgiIHdpZHRoPSI4MDBweCIgZmlsbD0iIzUwNkM3RiI+JiN4YTsmI3hhOzxnIHN0cm9rZS13aWR0aD0iMCIgaWQ9IlNWR1JlcG9fYmdDYXJyaWVyIi8+JiN4YTsmI3hhOzxnIHN0cm9rZS1saW5lam9pbj0icm91bmQiIHN0cm9rZS1saW5lY2FwPSJyb3VuZCIgaWQ9IlNWR1JlcG9fdHJhY2VyQ2FycmllciIvPiYjeGE7JiN4YTs8ZyBpZD0iU1ZHUmVwb19pY29uQ2FycmllciI+JiN4YTsmI3hhOzxwYXRoIGQ9Ik01MTIgMTAyNEMyMjkuMjMgMTAyNCAwIDc5NC43NyAwIDUxMlMyMjkuMjMgMCA1MTIgMHM1MTIgMjI5LjIzIDUxMiA1MTItMjI5LjIzIDUxMi01MTIgNTEyem05NS43MzEtMjE5Ljk0N2M2Mi40MDMtMjAuMjc2IDExNC4wMzItNTguNjkzIDE1MC44NTktMTA3LjM1N2ExNS43OTMgMTUuNzkzIDAgMDA0LjgwMS0xMy44MjMgMTUuMzAyIDE1LjMwMiAwIDAwLS4wNjItLjQ3M2wtLjAwOC0uMDM5YTE1Ljc1IDE1Ljc1IDAgMDAtOC4zNzgtMTEuNDg4bC00NC43MDktMzIuODkzYTE1LjgzNyAxNS44MzcgMCAwMC0xMy43NS00LjU4N2MtLjEyNC4wMTQtLjI0OS4wMjktLjM3My4wNDZsLS4wNTguMDE0YTE1Ljg4IDE1Ljg4IDAgMDAtMTEuNDc4IDguMjM2Yy0yNS43NzYgMzMuODgxLTYxLjYyNCA2MC41NjMtMTA1LjMxIDc0Ljc1OC0xMTMuNDMyIDM2Ljg1Ni0yMzQuNzkxLTI0LjcyMi0yNzEuNTI1LTEzNy43NzdzMjUuMjUzLTIzNC4yMDYgMTM4LjY4NS0yNzEuMDYyYzEwNi4zMzUtMzQuNTUgMjE4LjkwNCAxNS44MiAyNjIuOTY2IDExNS4xNzVsLTcxLjYyMy0uODAzYy03LjE4Ny0xLjA2Ni0xNC4xODkgMi44ODUtMTYuOTgyIDkuNTgxYTE1Ljc0MyAxNS43NDMgMCAwMDQuNzQ4IDE4LjYwMWwxMjAuOTEgMTI2LjQxYzIuOTk5IDMuMTM1IDcuMTYxIDQuODk5IDExLjUxIDQuODc5czguNTAyLTEuODIzIDExLjQ4NS00Ljk4Nkw4OTAuMzcgNDQ4LjIwNmM1LjI2NS00LjE5MyA3LjMwMy0xMS4yNDIgNS4wODItMTcuNTczYTIwLjUxNiAyMC41MTYgMCAwMC0uMTE5LS4zMTggMTUuODg5IDE1Ljg4OSAwIDAwLS45NDctMi4wOTlsLS4wMzEtLjA3M2MtMy4xMTYtNS43MjktOS40NDgtOC45NTEtMTUuOTM3LTguMTA4bC03MS42NzgtLjQ5NC0uODkyLTIuNzQ0Qzc1My41IDI1NS42ODUgNTc5LjYxIDE2Ny40NSA0MTcuOTUyIDIxOS45NzZTMTY3LjQ3OCA0NDYuMDk1IDIxOS44MjYgNjA3LjIwN2M1Mi4zNDggMTYxLjExMiAyMjYuMjM4IDI0OS4zNDcgMzg3Ljg5NiAxOTYuODIxbC4wMDguMDI3eiIvPiYjeGE7JiN4YTs8L2c+JiN4YTsmI3hhOzwvc3ZnPg==;" parent="1" vertex="1">
          <mxGeometry x="3185.92" y="405.59999999999997" width="30" height="30" as="geometry" />
        </mxCell>
        <mxCell id="998wLme6r4xHPnH6D-DP-94" value="id" style="text;html=1;strokeColor=none;fillColor=none;align=center;verticalAlign=middle;whiteSpace=wrap;rounded=0;" parent="1" vertex="1">
          <mxGeometry x="3030.92" y="441.09999999999997" width="61" height="21" as="geometry" />
        </mxCell>
        <mxCell id="998wLme6r4xHPnH6D-DP-95" value="room_id" style="text;html=1;strokeColor=none;fillColor=none;align=center;verticalAlign=middle;whiteSpace=wrap;rounded=0;" parent="1" vertex="1">
          <mxGeometry x="3105.38" y="441.09999999999997" width="61" height="21" as="geometry" />
        </mxCell>
        <mxCell id="998wLme6r4xHPnH6D-DP-96" value="status" style="text;html=1;strokeColor=none;fillColor=none;align=center;verticalAlign=middle;whiteSpace=wrap;rounded=0;" parent="1" vertex="1">
          <mxGeometry x="3172.92" y="441.09999999999997" width="61" height="21" as="geometry" />
        </mxCell>
        <mxCell id="998wLme6r4xHPnH6D-DP-97" value="" style="rounded=1;whiteSpace=wrap;html=1;rotation=0;fillColor=#fff2cc;strokeColor=#d6b656;" parent="1" vertex="1">
          <mxGeometry x="3011.38" y="536.3199999999999" width="249" height="184" as="geometry" />
        </mxCell>
        <mxCell id="998wLme6r4xHPnH6D-DP-98" value="" style="shape=image;verticalLabelPosition=bottom;labelBackgroundColor=default;verticalAlign=top;aspect=fixed;imageAspect=0;image=data:image/svg+xml,PHN2ZyB4bWxucz0iaHR0cDovL3d3dy53My5vcmcvMjAwMC9zdmciIHhtbDpzcGFjZT0icHJlc2VydmUiIHZlcnNpb249IjEuMCIgaGVpZ2h0PSI2NCIgd2lkdGg9IjY0IiB2aWV3Qm94PSIwIDAgNjQgNjQiPiYjeGE7IDxnIGNsYXNzPSJsYXllciI+JiN4YTsgIDx0aXRsZT5MYXllciAxPC90aXRsZT4mI3hhOyAgPGcgaWQ9InN2Z18xIj4mI3hhOyAgIDxnIGlkPSJzdmdfNSI+JiN4YTsgICAgPHBhdGggaWQ9InN2Z182IiBmaWxsPSIjMzk0MjQwIiBkPSJtNTkuMzksOS44NGwtNy44MSwwbDAuMDgsMC45N2MwLC0wLjU0IDEuNzgsLTAuOTMgMS4yNCwtMC45M2wtMTAuMTIsLTAuMDRjLTAuNTQsMCAxLjA3LDAuNDQgMS4wNywwLjk4bC0wLjA4LC0wLjk3bC0yMy40NCwwbC0wLjIsMC45OGMwLC0wLjU0IDEuODYsLTAuOTggMS4zMiwtMC45OGwtMTAuMDQsMGMtMC41NCwwIDAuOSwwLjQ0IDAuOSwwLjk4bDAuMiwtMC45OGwtNy44MSwwYy0yLjE2LDAgLTMuOTEsMS43NSAtMy45MSwzLjkxbDAsMzkuMDZjMCwyLjE2IDEuNzUsMy45MSAzLjkxLDMuOTFsNTQuNjksMGMyLjE2LDAgMy45MSwtMS43NSAzLjkxLC0zLjkxbDAsLTM5LjA2YzAsLTIuMTYgLTEuNzUsLTMuOTEgLTMuOTEsLTMuOTF6bS0xMy41OSwxLjk1bDMuOTEsMGwwLjE3LC0xLjkzbC0zLjkxLDBsLTAuMTcsMS45M3ptLTMwLjIzLC0xLjIybDEuNTYsLTAuMmwxLjA3LC0wLjM5bC0zLjkxLDBsMS4yNywwLjU5em00NS43Nyw0Mi4yNGMwLDEuMDcgLTAuODgsMS45NSAtMS45NSwxLjk1bC01NC42OSwwYy0xLjA3LDAgLTEuOTUsLTAuODggLTEuOTUsLTEuOTVsMCwtMzkuMDZjMCwtMS4wNyAwLjg4LC0xLjk1IDEuOTUsLTEuOTVsNy44MSwwbC0wLjE3LC0wLjgzYzAsMC41NCAtMS4wNywwLjgxIC0wLjUzLDAuODFsOC42NiwwYzAuNTQsMCAtMC4zMiwtMC4yNyAtMC4zMiwtMC44MWwwLjE3LDAuODNsMjMuNDQsMGwwLjI1LC0wLjk2YzAsMC41NCAtMS44NiwwLjkzIC0xLjMyLDAuOTNsOS43NSwwYzAuNTQsMCAtMC42MSwtMC40IC0wLjYxLC0wLjkzbC0wLjI1LDAuOTZsNy44MSwwYzEuMDcsMCAxLjk1LDAuODggMS45NSwxLjk1bDAsMzkuMDZ6Ii8+JiN4YTsgICAgPHBhdGggaWQ9InN2Z183IiBmaWxsPSIjMzk0MjQwIiBkPSJtNDAuOCwzNy4xOGw5Ljc3LDBjMC41NCwwIDAuOTgsLTAuNDQgMC45OCwtMC45OHMtMC40NCwtMC45OCAtMC45OCwtMC45OGwtOS43NywwYy0wLjU0LDAgLTAuOTgsMC40NCAtMC45OCwwLjk4czAuNDQsMC45OCAwLjk4LDAuOTh6Ii8+JiN4YTsgICAgPHBhdGggaWQ9InN2Z184IiBmaWxsPSIjMzk0MjQwIiBkPSJtNTQuNDcsMjkuMzdsLTEzLjY3LDBjLTAuNTQsMCAtMC45OCwwLjQ0IC0wLjk4LDAuOThzMC40NCwwLjk4IDAuOTgsMC45OGwxMy42NywwYzAuNTQsMCAwLjk4LC0wLjQ0IDAuOTgsLTAuOThzLTAuNDQsLTAuOTggLTAuOTgsLTAuOTh6Ii8+JiN4YTsgICAgPHBhdGggaWQ9InN2Z185IiBmaWxsPSIjMzk0MjQwIiBkPSJtNTQuNDcsNDEuMDlsLTEzLjY3LDBjLTAuNTQsMCAtMC45OCwwLjQ0IC0wLjk4LDAuOThzMC40NCwwLjk4IDAuOTgsMC45OGwxMy42NywwYzAuNTQsMCAwLjk4LC0wLjQ0IDAuOTgsLTAuOThzLTAuNDQsLTAuOTggLTAuOTgsLTAuOTh6Ii8+JiN4YTsgICAgPHBhdGggaWQ9InN2Z18xMCIgZmlsbD0iIzM5NDI0MCIgZD0ibTQwLjgsMjUuNDdsNS44NiwwYzAuNTQsMCAwLjk4LC0wLjQ0IDAuOTgsLTAuOThzLTAuNDQsLTAuOTggLTAuOTgsLTAuOThsLTUuODYsMGMtMC41NCwwIC0wLjk4LDAuNDQgLTAuOTgsMC45OHMwLjQ0LDAuOTggMC45OCwwLjk4eiIvPiYjeGE7ICAgIDxwYXRoIGlkPSJzdmdfMTEiIGZpbGw9IiMzOTQyNDAiIGQ9Im0yMi4yNCwxOS42MWMtNy41NSwwIC0xMy42Nyw2LjEyIC0xMy42NywxMy42N3M2LjEyLDEzLjY3IDEzLjY3LDEzLjY3czEzLjY3LC02LjEyIDEzLjY3LC0xMy42N3MtNi4xMiwtMTMuNjcgLTEzLjY3LC0xMy42N3ptMCwyNS4zOWMtMi43NiwwIC01LjMsLTAuOTcgLTcuMywtMi41N2MwLjkyLC0xLjI2IDMuMDUsLTMuMjkgNy4zLC0zLjI5YzQuMjYsMCA2LjQsMi4wMyA3LjMsMy4yOWMtMiwxLjYgLTQuNTQsMi41NyAtNy4zLDIuNTd6bTguNzMsLTMuOTJjLTEuMjUsLTEuNjIgLTMuODYsLTMuOSAtOC43MywtMy45cy03LjQ4LDIuMjggLTguNzMsMy45Yy0xLjg2LC0yLjA3IC0yLjk5LC00LjggLTIuOTksLTcuOGMwLC02LjQ3IDUuMjQsLTExLjcyIDExLjcyLC0xMS43MnMxMS43Miw1LjI0IDExLjcyLDExLjcyYzAsMyAtMS4xMyw1LjczIC0yLjk5LDcuOHoiLz4mI3hhOyAgICA8cGF0aCBpZD0ic3ZnXzEyIiBmaWxsPSIjMzk0MjQwIiBkPSJtMjcuMTMsMzIuM2wwLC0xLjk1YzAsLTIuNyAtMi4xOSwtNC44OCAtNC44OCwtNC44OHMtNC44OCwyLjE5IC00Ljg4LDQuODhsMCwxLjk1YzAsMi43IDIuMTksNC44OCA0Ljg4LDQuODhzNC44OCwtMi4xOSA0Ljg4LC00Ljg4em0tMS45NSwwYzAsMS42MiAtMS4zMSwyLjkzIC0yLjkzLDIuOTNzLTIuOTMsLTEuMzEgLTIuOTMsLTIuOTNsMCwtMS45NWMwLC0xLjYyIDEuMzEsLTIuOTMgMi45MywtMi45M3MyLjkzLDEuMzEgMi45MywyLjkzbDAsMS45NXoiLz4mI3hhOyAgIDwvZz4mI3hhOyAgPC9nPiYjeGE7IDwvZz4mI3hhOzwvc3ZnPg==;" parent="1" vertex="1">
          <mxGeometry x="986.73" y="691" width="43" height="43" as="geometry" />
        </mxCell>
        <mxCell id="998wLme6r4xHPnH6D-DP-100" value="id" style="text;html=1;strokeColor=none;fillColor=none;align=center;verticalAlign=middle;whiteSpace=wrap;rounded=0;" parent="1" vertex="1">
          <mxGeometry x="977.73" y="730" width="61" height="21" as="geometry" />
        </mxCell>
        <mxCell id="998wLme6r4xHPnH6D-DP-101" value="car_id" style="text;html=1;strokeColor=none;fillColor=none;align=center;verticalAlign=middle;whiteSpace=wrap;rounded=0;" parent="1" vertex="1">
          <mxGeometry x="1052.19" y="730" width="61" height="21" as="geometry" />
        </mxCell>
        <mxCell id="998wLme6r4xHPnH6D-DP-102" value="status" style="text;html=1;strokeColor=none;fillColor=none;align=center;verticalAlign=middle;whiteSpace=wrap;rounded=0;" parent="1" vertex="1">
          <mxGeometry x="1119.73" y="730" width="61" height="21" as="geometry" />
        </mxCell>
        <mxCell id="998wLme6r4xHPnH6D-DP-103" value="" style="shape=image;verticalLabelPosition=bottom;labelBackgroundColor=default;verticalAlign=top;aspect=fixed;imageAspect=0;image=data:image/svg+xml,PHN2ZyB4bWxuczp4bGluaz0iaHR0cDovL3d3dy53My5vcmcvMTk5OS94bGluayIgeG1sbnM9Imh0dHA6Ly93d3cudzMub3JnLzIwMDAvc3ZnIiB4bWw6c3BhY2U9InByZXNlcnZlIiB2aWV3Qm94PSIwIDAgNjQgNjQiIGhlaWdodD0iODAwcHgiIHdpZHRoPSI4MDBweCIgaWQ9IkxheWVyXzEiIHZlcnNpb249IjEuMCI+JiN4YTs8Zz4mI3hhOwk8cGF0aCBkPSJNNTguOTgyLDMyLjA4OEM1OC45ODUsMzIuMDU3LDU5LDMyLjAzMSw1OSwzMmMwLTIuODY2LTAuNTg5LTI4LTIxLTI4SDI2QzEyLjY1NCw0LDUsMTQuMjA2LDUsMzImIzEwOyYjOTsmIzk7YzAsMC4wMzEsMC4wMTUsMC4wNTcsMC4wMTgsMC4wODhDMi4xNzYsMzIuNTU5LDAsMzUuMDI3LDAsMzh2MTBjMCwzLjMwOSwyLjY5MSw2LDYsNnY1YzAsMC41NTMsMC40NDcsMSwxLDFoOGMwLjU1MywwLDEtMC40NDcsMS0xJiMxMDsmIzk7JiM5O3YtNWgzMnY1YzAsMC41NTMsMC40NDcsMSwxLDFoOGMwLjU1MywwLDEtMC40NDcsMS0xdi01YzMuMzA5LDAsNi0yLjY5MSw2LTZWMzhDNjQsMzUuMDI3LDYxLjgyNCwzMi41NTksNTguOTgyLDMyLjA4OHogTTI2LDZoMTImIzEwOyYjOTsmIzk7YzE4LjQ2NywwLDE5LDIzLjMzOSwxOSwyNmgtMmMwLTIuNDU2LTAuNTA1LTI0LTE4LTI0SDI3QzE1LjM5Myw4LDksMTYuNTIzLDksMzJIN0M3LDkuMzc4LDE4LjkwNCw2LDI2LDZ6IE0yNCwyNCYjMTA7JiM5OyYjOTtjLTQuNDE4LDAtOCwzLjU4Mi04LDhoLTVjMC0xOC4xODQsOC43MDEtMjIsMTYtMjJoMTBjNi4zNCwwLDEwLjkwOSwzLjE2LDEzLjU4MSw5LjM5NEM1Mi44MjUsMjQuNjMyLDUzLDMwLjM2Nyw1MywzMkgzMiYjMTA7JiM5OyYjOTtDMzIsMjcuNTgyLDI4LjQxOCwyNCwyNCwyNHogTTMwLDMySDE4YzAtMy4zMTMsMi42ODctNiw2LTZTMzAsMjguNjg3LDMwLDMyeiBNMTQsNThIOHYtNGg2VjU4eiBNNTYsNThoLTZ2LTRoNlY1OHogTTYyLDQ4JiMxMDsmIzk7JiM5O2MwLDIuMjA2LTEuNzk0LDQtNCw0SDZjLTIuMjA2LDAtNC0xLjc5NC00LTRWMzhjMC0yLjIwNiwxLjc5NC00LDQtNGg1MmMyLjIwNiwwLDQsMS43OTQsNCw0VjQ4eiIgZmlsbD0iIzIzMUYyMCIvPiYjeGE7CTxwYXRoIGQ9Ik0xMSwzOWMtMi4yMDYsMC00LDEuNzk0LTQsNHMxLjc5NCw0LDQsNHM0LTEuNzk0LDQtNFMxMy4yMDYsMzksMTEsMzl6IE0xMSw0NWMtMS4xMDMsMC0yLTAuODk3LTItMiYjMTA7JiM5OyYjOTtzMC44OTctMiwyLTJzMiwwLjg5NywyLDJTMTIuMTAzLDQ1LDExLDQ1eiIgZmlsbD0iIzIzMUYyMCIvPiYjeGE7CTxwYXRoIGQ9Ik01MywzOWMtMi4yMDYsMC00LDEuNzk0LTQsNHMxLjc5NCw0LDQsNHM0LTEuNzk0LDQtNFM1NS4yMDYsMzksNTMsMzl6IE01Myw0NWMtMS4xMDMsMC0yLTAuODk3LTItMiYjMTA7JiM5OyYjOTtzMC44OTctMiwyLTJzMiwwLjg5NywyLDJTNTQuMTAzLDQ1LDUzLDQ1eiIgZmlsbD0iIzIzMUYyMCIvPiYjeGE7CTxwYXRoIGQ9Ik00Myw0MEgyMWMtMC41NTMsMC0xLDAuNDQ3LTEsMXMwLjQ0NywxLDEsMWgyMmMwLjU1MywwLDEtMC40NDcsMS0xUzQzLjU1Myw0MCw0Myw0MHoiIGZpbGw9IiMyMzFGMjAiLz4mI3hhOwk8cGF0aCBkPSJNNDMsNDRIMjFjLTAuNTUzLDAtMSwwLjQ0Ny0xLDFzMC40NDcsMSwxLDFoMjJjMC41NTMsMCwxLTAuNDQ3LDEtMVM0My41NTMsNDQsNDMsNDR6IiBmaWxsPSIjMjMxRjIwIi8+JiN4YTsJPHBhdGggZD0iTTQyLjcwNywxNS4yOTRjLTAuMzkxLTAuMzkxLTEuMDIzLTAuMzkxLTEuNDE0LDBzLTAuMzkxLDEuMDIzLDAsMS40MTRsMiwyJiMxMDsmIzk7JiM5O2MwLjE5NSwwLjE5NSwwLjQ1MSwwLjI5MywwLjcwNywwLjI5M3MwLjUxMi0wLjA5OCwwLjcwNy0wLjI5M2MwLjM5MS0wLjM5MSwwLjM5MS0xLjAyMywwLTEuNDE0TDQyLjcwNywxNS4yOTR6IiBmaWxsPSIjMjMxRjIwIi8+JiN4YTsJPHBhdGggZD0iTTM3LjcwNywxNS4yOTNjLTAuMzkxLTAuMzkxLTEuMDIzLTAuMzkxLTEuNDE0LDBzLTAuMzkxLDEuMDIzLDAsMS40MTRsNyw3QzQzLjQ4OCwyMy45MDIsNDMuNzQ0LDI0LDQ0LDI0JiMxMDsmIzk7JiM5O3MwLjUxMi0wLjA5OCwwLjcwNy0wLjI5M2MwLjM5MS0wLjM5MSwwLjM5MS0xLjAyMywwLTEuNDE0TDM3LjcwNywxNS4yOTN6IiBmaWxsPSIjMjMxRjIwIi8+JiN4YTs8L2c+JiN4YTs8L3N2Zz4=;rotation=0;" parent="1" vertex="1">
          <mxGeometry x="1064.8299999999995" y="694.6428571428571" width="35.714285714285715" height="35.714285714285715" as="geometry" />
        </mxCell>
        <mxCell id="998wLme6r4xHPnH6D-DP-104" value="" style="shape=image;verticalLabelPosition=bottom;labelBackgroundColor=default;verticalAlign=top;aspect=fixed;imageAspect=0;image=data:image/svg+xml,PHN2ZyB4bWxucz0iaHR0cDovL3d3dy53My5vcmcvMjAwMC9zdmciIHZpZXdCb3g9IjAgMCAxMDI0IDEwMjQiIGhlaWdodD0iODAwcHgiIHdpZHRoPSI4MDBweCIgZmlsbD0iIzUwNkM3RiI+JiN4YTsmI3hhOzxnIHN0cm9rZS13aWR0aD0iMCIgaWQ9IlNWR1JlcG9fYmdDYXJyaWVyIi8+JiN4YTsmI3hhOzxnIHN0cm9rZS1saW5lam9pbj0icm91bmQiIHN0cm9rZS1saW5lY2FwPSJyb3VuZCIgaWQ9IlNWR1JlcG9fdHJhY2VyQ2FycmllciIvPiYjeGE7JiN4YTs8ZyBpZD0iU1ZHUmVwb19pY29uQ2FycmllciI+JiN4YTsmI3hhOzxwYXRoIGQ9Ik01MTIgMTAyNEMyMjkuMjMgMTAyNCAwIDc5NC43NyAwIDUxMlMyMjkuMjMgMCA1MTIgMHM1MTIgMjI5LjIzIDUxMiA1MTItMjI5LjIzIDUxMi01MTIgNTEyem05NS43MzEtMjE5Ljk0N2M2Mi40MDMtMjAuMjc2IDExNC4wMzItNTguNjkzIDE1MC44NTktMTA3LjM1N2ExNS43OTMgMTUuNzkzIDAgMDA0LjgwMS0xMy44MjMgMTUuMzAyIDE1LjMwMiAwIDAwLS4wNjItLjQ3M2wtLjAwOC0uMDM5YTE1Ljc1IDE1Ljc1IDAgMDAtOC4zNzgtMTEuNDg4bC00NC43MDktMzIuODkzYTE1LjgzNyAxNS44MzcgMCAwMC0xMy43NS00LjU4N2MtLjEyNC4wMTQtLjI0OS4wMjktLjM3My4wNDZsLS4wNTguMDE0YTE1Ljg4IDE1Ljg4IDAgMDAtMTEuNDc4IDguMjM2Yy0yNS43NzYgMzMuODgxLTYxLjYyNCA2MC41NjMtMTA1LjMxIDc0Ljc1OC0xMTMuNDMyIDM2Ljg1Ni0yMzQuNzkxLTI0LjcyMi0yNzEuNTI1LTEzNy43NzdzMjUuMjUzLTIzNC4yMDYgMTM4LjY4NS0yNzEuMDYyYzEwNi4zMzUtMzQuNTUgMjE4LjkwNCAxNS44MiAyNjIuOTY2IDExNS4xNzVsLTcxLjYyMy0uODAzYy03LjE4Ny0xLjA2Ni0xNC4xODkgMi44ODUtMTYuOTgyIDkuNTgxYTE1Ljc0MyAxNS43NDMgMCAwMDQuNzQ4IDE4LjYwMWwxMjAuOTEgMTI2LjQxYzIuOTk5IDMuMTM1IDcuMTYxIDQuODk5IDExLjUxIDQuODc5czguNTAyLTEuODIzIDExLjQ4NS00Ljk4Nkw4OTAuMzcgNDQ4LjIwNmM1LjI2NS00LjE5MyA3LjMwMy0xMS4yNDIgNS4wODItMTcuNTczYTIwLjUxNiAyMC41MTYgMCAwMC0uMTE5LS4zMTggMTUuODg5IDE1Ljg4OSAwIDAwLS45NDctMi4wOTlsLS4wMzEtLjA3M2MtMy4xMTYtNS43MjktOS40NDgtOC45NTEtMTUuOTM3LTguMTA4bC03MS42NzgtLjQ5NC0uODkyLTIuNzQ0Qzc1My41IDI1NS42ODUgNTc5LjYxIDE2Ny40NSA0MTcuOTUyIDIxOS45NzZTMTY3LjQ3OCA0NDYuMDk1IDIxOS44MjYgNjA3LjIwN2M1Mi4zNDggMTYxLjExMiAyMjYuMjM4IDI0OS4zNDcgMzg3Ljg5NiAxOTYuODIxbC4wMDguMDI3eiIvPiYjeGE7JiN4YTs8L2c+JiN4YTsmI3hhOzwvc3ZnPg==;" parent="1" vertex="1">
          <mxGeometry x="3433.7400000000002" y="777.3199999999999" width="30" height="30" as="geometry" />
        </mxCell>
        <mxCell id="998wLme6r4xHPnH6D-DP-105" value="" style="shape=image;verticalLabelPosition=bottom;labelBackgroundColor=default;verticalAlign=top;aspect=fixed;imageAspect=0;image=data:image/svg+xml,PHN2ZyB4bWxuczp4bGluaz0iaHR0cDovL3d3dy53My5vcmcvMTk5OS94bGluayIgeG1sbnM9Imh0dHA6Ly93d3cudzMub3JnLzIwMDAvc3ZnIiBzdHJva2U9IiMwMDAwMDAiIGZpbGw9IiMwMDAwMDAiIHhtbDpzcGFjZT0icHJlc2VydmUiIHZlcnNpb249IjEuMSIgaWQ9IkxheWVyXzEiIHZpZXdCb3g9IjAgMCA1MTIgNTEyIiBoZWlnaHQ9IjgwMHB4IiB3aWR0aD0iODAwcHgiPiYjeGE7JiN4YTs8ZyBzdHJva2Utd2lkdGg9IjAiIGlkPSJTVkdSZXBvX2JnQ2FycmllciIvPiYjeGE7JiN4YTs8ZyBzdHJva2UtbGluZWpvaW49InJvdW5kIiBzdHJva2UtbGluZWNhcD0icm91bmQiIGlkPSJTVkdSZXBvX3RyYWNlckNhcnJpZXIiLz4mI3hhOyYjeGE7PGcgaWQ9IlNWR1JlcG9faWNvbkNhcnJpZXIiPiA8Zz4gPGc+ICYjeGE7PHBhdGggZmlsbD0iIzY5NzI3MCIgZD0iTTM5Mi4wNzUsNDIyLjAyN2gtMjcyLjE1Yy01LjUyMywwLTEwLTQuNDc4LTEwLTEwdi0xNzMuMjdjMC01LjUyMiw0LjQ3Ny0xMCwxMC0xMGgyNzIuMTUgYzUuNTIzLDAsMTAsNC40NzgsMTAsMTB2MTczLjI3QzQwMi4wNzUsNDE3LjU1LDM5Ny41OTgsNDIyLjAyNywzOTIuMDc1LDQyMi4wMjd6IE0xMjkuOTI1LDQwMi4wMjdoMjUyLjE1di0xNTMuMjdoLTI1Mi4xNSBWNDAyLjAyN3oiLz4gJiN4YTs8L2c+ICYjeGE7PGc+ICYjeGE7PGc+ICYjeGE7PGxpbmUgeTI9IjE1NS45MDYiIHkxPSIyMzguMjc1IiB4Mj0iMjU2Ljk3MSIgeDE9IjI1Ni45NzEiIGZpbGw9IiNmZmZmZmYiLz4gJiN4YTs8cGF0aCBmaWxsPSIjNjk3MjcwIiBkPSJNMjU2Ljk3MSwyNDguMjc1Yy01LjUyMywwLTEwLTQuNDc4LTEwLTEwdi04Mi4zNjljMC01LjUyMiw0LjQ3Ny0xMCwxMC0xMHMxMCw0LjQ3OCwxMCwxMHY4Mi4zNjkgQzI2Ni45NzEsMjQzLjc5OCwyNjIuNDk0LDI0OC4yNzUsMjU2Ljk3MSwyNDguMjc1eiIvPiAmI3hhOzwvZz4gPGc+ICYjeGE7JiN4YTs8cGF0aCBmaWxsPSIjNjk3MjcwIiBkPSJNMzEyLjc4LDE2NS45MDZjLTAuMDA3LDAtMC4wMTMsMC0wLjAyLDBIMjAxLjE4Yy0yLjgzNCwwLTUuNTM2LTEuMjAzLTcuNDMyLTMuMzEgcy0yLjgxLTQuOTE5LTIuNTEzLTcuNzM3TDIwMi4zLDQ5Ljc3MWMwLjUzNi01LjA5LDQuODI3LTguOTUzLDkuOTQ1LTguOTUzaDg5LjQ1MWM1LjExOCwwLDkuNDA5LDMuODYzLDkuOTQ1LDguOTUzIGwxMC45OTYsMTA0LjQzOGMwLjA5NCwwLjU1MSwwLjE0NCwxLjExOCwwLjE0NCwxLjY5NkMzMjIuNzgsMTYxLjQyOSwzMTguMzAzLDE2NS45MDYsMzEyLjc4LDE2NS45MDZ6IE0yMTIuMjg5LDE0NS45MDZoODkuMzYzIGwtOC45NTgtODUuMDg4aC03MS40NDZMMjEyLjI4OSwxNDUuOTA2eiIvPiA8L2c+IDwvZz4gPGc+ICYjeGE7PHBhdGggZmlsbD0iIzY5NzI3MCIgZD0iTTI4NC42MzIsMTk5LjI0OGMtNS41MjMsMC0xMC00LjQ3OC0xMC0xMHYtMzMuMzQyYzAtNS41MjIsNC40NzctMTAsMTAtMTBzMTAsNC40NzgsMTAsMTB2MzMuMzQyIEMyOTQuNjMyLDE5NC43NzEsMjkwLjE1NSwxOTkuMjQ4LDI4NC42MzIsMTk5LjI0OHoiLz4gPC9nPiA8Zz4gJiN4YTs8cGF0aCBmaWxsPSIjNjk3MjcwIiBkPSJNMTE5LjkyNSw0NzEuMTgyYy01LjUyMywwLTEwLTQuNDc4LTEwLTEwdi00OS4xNTRjMC01LjUyMiw0LjQ3Ny0xMCwxMC0xMHMxMCw0LjQ3OCwxMCwxMHY0OS4xNTQgQzEyOS45MjUsNDY2LjcwNCwxMjUuNDQ4LDQ3MS4xODIsMTE5LjkyNSw0NzEuMTgyeiIvPiA8L2c+IDxnPiAmI3hhOzxwYXRoIGZpbGw9IiM2OTcyNzAiIGQ9Ik0zOTIuMDc1LDQ3MS4xODJjLTUuNTIzLDAtMTAtNC40NzgtMTAtMTB2LTQ5LjE1NGMwLTUuNTIyLDQuNDc3LTEwLDEwLTEwczEwLDQuNDc4LDEwLDEwdjQ5LjE1NCBDNDAyLjA3NSw0NjYuNzA0LDM5Ny41OTgsNDcxLjE4MiwzOTIuMDc1LDQ3MS4xODJ6Ii8+IDwvZz4gPGc+ICYjeGE7PHBhdGggZmlsbD0iIzY5NzI3MCIgZD0iTTI4NC42MzIsMzM1LjM5M2gtNjQuMjgxYy01LjUyMywwLTEwLTQuNDc4LTEwLTEwczQuNDc3LTEwLDEwLTEwaDY0LjI4MWM1LjUyMywwLDEwLDQuNDc4LDEwLDEwIFMyOTAuMTU1LDMzNS4zOTMsMjg0LjYzMiwzMzUuMzkzeiIvPiA8L2c+IDxnPiAmI3hhOyYjeGE7PHBhdGggZmlsbD0iIzY5NzI3MCIgZD0iTTM5Mi4wNzUsNDIyLjAyN2gtMjcyLjE1Yy01LjUyMywwLTEwLTQuNDc4LTEwLTEwdi0xNzMuMjdjMC01LjUyMiw0LjQ3Ny0xMCwxMC0xMGgyNzIuMTUgYzUuNTIzLDAsMTAsNC40NzgsMTAsMTB2MTczLjI3QzQwMi4wNzUsNDE3LjU1LDM5Ny41OTgsNDIyLjAyNywzOTIuMDc1LDQyMi4wMjd6IE0xMjkuOTI1LDQwMi4wMjdoMjUyLjE1di0xNTMuMjdoLTI1Mi4xNSBWNDAyLjAyN3oiLz4gPC9nPiA8Zz4gPGc+ICYjeGE7PGxpbmUgeTI9IjE1NS45MDYiIHkxPSIyMzguMjc1IiB4Mj0iMjU2Ljk3MSIgeDE9IjI1Ni45NzEiIGZpbGw9IiNmZmZmZmYiLz4gJiN4YTs8cGF0aCBmaWxsPSIjNjk3MjcwIiBkPSJNMjU2Ljk3MSwyNDguMjc1Yy01LjUyMywwLTEwLTQuNDc4LTEwLTEwdi04Mi4zNjljMC01LjUyMiw0LjQ3Ny0xMCwxMC0xMHMxMCw0LjQ3OCwxMCwxMHY4Mi4zNjkgQzI2Ni45NzEsMjQzLjc5OCwyNjIuNDk0LDI0OC4yNzUsMjU2Ljk3MSwyNDguMjc1eiIvPiA8L2c+IDxnPiAmI3hhOyYjeGE7PHBhdGggZmlsbD0iIzY5NzI3MCIgZD0iTTMxMi43OCwxNjUuOTA2Yy0wLjAwNywwLTAuMDEzLDAtMC4wMiwwSDIwMS4xOGMtMi44MzQsMC01LjUzNi0xLjIwMy03LjQzMi0zLjMxIHMtMi44MS00LjkxOS0yLjUxMy03LjczN0wyMDIuMyw0OS43NzFjMC41MzYtNS4wOSw0LjgyNy04Ljk1Myw5Ljk0NS04Ljk1M2g4OS40NTFjNS4xMTgsMCw5LjQwOSwzLjg2Myw5Ljk0NSw4Ljk1MyBsMTAuOTk2LDEwNC40MzhjMC4wOTQsMC41NTEsMC4xNDQsMS4xMTgsMC4xNDQsMS42OTZDMzIyLjc4LDE2MS40MjksMzE4LjMwMywxNjUuOTA2LDMxMi43OCwxNjUuOTA2eiBNMjEyLjI4OSwxNDUuOTA2aDg5LjM2MyBsLTguOTU4LTg1LjA4OGgtNzEuNDQ2TDIxMi4yODksMTQ1LjkwNnoiLz4gPC9nPiA8L2c+IDxnPiAmI3hhOzxwYXRoIGZpbGw9IiM2OTcyNzAiIGQ9Ik0yODQuNjMyLDE5OS4yNDhjLTUuNTIzLDAtMTAtNC40NzgtMTAtMTB2LTMzLjM0MmMwLTUuNTIyLDQuNDc3LTEwLDEwLTEwczEwLDQuNDc4LDEwLDEwdjMzLjM0MiBDMjk0LjYzMiwxOTQuNzcxLDI5MC4xNTUsMTk5LjI0OCwyODQuNjMyLDE5OS4yNDh6Ii8+IDwvZz4gPGc+ICYjeGE7PHBhdGggZmlsbD0iIzY5NzI3MCIgZD0iTTExOS45MjUsNDcxLjE4MmMtNS41MjMsMC0xMC00LjQ3OC0xMC0xMHYtNDkuMTU0YzAtNS41MjIsNC40NzctMTAsMTAtMTBzMTAsNC40NzgsMTAsMTB2NDkuMTU0IEMxMjkuOTI1LDQ2Ni43MDQsMTI1LjQ0OCw0NzEuMTgyLDExOS45MjUsNDcxLjE4MnoiLz4gPC9nPiA8Zz4gJiN4YTs8cGF0aCBmaWxsPSIjNjk3MjcwIiBkPSJNMzkyLjA3NSw0NzEuMTgyYy01LjUyMywwLTEwLTQuNDc4LTEwLTEwdi00OS4xNTRjMC01LjUyMiw0LjQ3Ny0xMCwxMC0xMHMxMCw0LjQ3OCwxMCwxMHY0OS4xNTQgQzQwMi4wNzUsNDY2LjcwNCwzOTcuNTk4LDQ3MS4xODIsMzkyLjA3NSw0NzEuMTgyeiIvPiA8L2c+IDxnPiAmI3hhOzxwYXRoIGZpbGw9IiM2OTcyNzAiIGQ9Ik0yODQuNjMyLDMzNS4zOTNoLTY0LjI4MWMtNS41MjMsMC0xMC00LjQ3OC0xMC0xMHM0LjQ3Ny0xMCwxMC0xMGg2NC4yODFjNS41MjMsMCwxMCw0LjQ3OCwxMCwxMCBTMjkwLjE1NSwzMzUuMzkzLDI4NC42MzIsMzM1LjM5M3oiLz4gPC9nPiA8L2c+IDwvZz4mI3hhOyYjeGE7PC9zdmc+;" parent="1" vertex="1">
          <mxGeometry x="3116.76" y="404.48999999999995" width="38.23" height="38.23" as="geometry" />
        </mxCell>
        <mxCell id="998wLme6r4xHPnH6D-DP-106" value="" style="rounded=1;whiteSpace=wrap;html=1;rotation=0;fillColor=#f5f5f5;strokeColor=#666666;fontColor=#333333;" parent="1" vertex="1">
          <mxGeometry x="3321.06" y="228.93" width="138.64" height="22" as="geometry" />
        </mxCell>
        <mxCell id="998wLme6r4xHPnH6D-DP-107" value="" style="rounded=1;whiteSpace=wrap;html=1;rotation=0;fillColor=#fff2cc;strokeColor=#d6b656;" parent="1" vertex="1">
          <mxGeometry x="3321.06" y="266.93" width="138.64" height="22" as="geometry" />
        </mxCell>
        <mxCell id="998wLme6r4xHPnH6D-DP-108" value="" style="ellipse;whiteSpace=wrap;html=1;aspect=fixed;fillColor=#ffe6cc;strokeColor=#d79b00;" parent="1" vertex="1">
          <mxGeometry x="3372.38" y="179.93" width="36" height="36" as="geometry" />
        </mxCell>
        <mxCell id="998wLme6r4xHPnH6D-DP-109" value="" style="shape=image;verticalLabelPosition=bottom;labelBackgroundColor=default;verticalAlign=top;aspect=fixed;imageAspect=0;image=data:image/svg+xml,PHN2ZyB4bWxucz0iaHR0cDovL3d3dy53My5vcmcvMjAwMC9zdmciIHhtbDpzcGFjZT0icHJlc2VydmUiIHZlcnNpb249IjEuMCIgaGVpZ2h0PSI2NCIgd2lkdGg9IjY0IiB2aWV3Qm94PSIwIDAgNjQgNjQiPiYjeGE7IDxnIGNsYXNzPSJsYXllciI+JiN4YTsgIDx0aXRsZT5MYXllciAxPC90aXRsZT4mI3hhOyAgPGcgaWQ9InN2Z18xIj4mI3hhOyAgIDxnIGlkPSJzdmdfNSI+JiN4YTsgICAgPHBhdGggaWQ9InN2Z182IiBmaWxsPSIjMzk0MjQwIiBkPSJtNTkuMzksOS44NGwtNy44MSwwbDAuMDgsMC45N2MwLC0wLjU0IDEuNzgsLTAuOTMgMS4yNCwtMC45M2wtMTAuMTIsLTAuMDRjLTAuNTQsMCAxLjA3LDAuNDQgMS4wNywwLjk4bC0wLjA4LC0wLjk3bC0yMy40NCwwbC0wLjIsMC45OGMwLC0wLjU0IDEuODYsLTAuOTggMS4zMiwtMC45OGwtMTAuMDQsMGMtMC41NCwwIDAuOSwwLjQ0IDAuOSwwLjk4bDAuMiwtMC45OGwtNy44MSwwYy0yLjE2LDAgLTMuOTEsMS43NSAtMy45MSwzLjkxbDAsMzkuMDZjMCwyLjE2IDEuNzUsMy45MSAzLjkxLDMuOTFsNTQuNjksMGMyLjE2LDAgMy45MSwtMS43NSAzLjkxLC0zLjkxbDAsLTM5LjA2YzAsLTIuMTYgLTEuNzUsLTMuOTEgLTMuOTEsLTMuOTF6bS0xMy41OSwxLjk1bDMuOTEsMGwwLjE3LC0xLjkzbC0zLjkxLDBsLTAuMTcsMS45M3ptLTMwLjIzLC0xLjIybDEuNTYsLTAuMmwxLjA3LC0wLjM5bC0zLjkxLDBsMS4yNywwLjU5em00NS43Nyw0Mi4yNGMwLDEuMDcgLTAuODgsMS45NSAtMS45NSwxLjk1bC01NC42OSwwYy0xLjA3LDAgLTEuOTUsLTAuODggLTEuOTUsLTEuOTVsMCwtMzkuMDZjMCwtMS4wNyAwLjg4LC0xLjk1IDEuOTUsLTEuOTVsNy44MSwwbC0wLjE3LC0wLjgzYzAsMC41NCAtMS4wNywwLjgxIC0wLjUzLDAuODFsOC42NiwwYzAuNTQsMCAtMC4zMiwtMC4yNyAtMC4zMiwtMC44MWwwLjE3LDAuODNsMjMuNDQsMGwwLjI1LC0wLjk2YzAsMC41NCAtMS44NiwwLjkzIC0xLjMyLDAuOTNsOS43NSwwYzAuNTQsMCAtMC42MSwtMC40IC0wLjYxLC0wLjkzbC0wLjI1LDAuOTZsNy44MSwwYzEuMDcsMCAxLjk1LDAuODggMS45NSwxLjk1bDAsMzkuMDZ6Ii8+JiN4YTsgICAgPHBhdGggaWQ9InN2Z183IiBmaWxsPSIjMzk0MjQwIiBkPSJtNDAuOCwzNy4xOGw5Ljc3LDBjMC41NCwwIDAuOTgsLTAuNDQgMC45OCwtMC45OHMtMC40NCwtMC45OCAtMC45OCwtMC45OGwtOS43NywwYy0wLjU0LDAgLTAuOTgsMC40NCAtMC45OCwwLjk4czAuNDQsMC45OCAwLjk4LDAuOTh6Ii8+JiN4YTsgICAgPHBhdGggaWQ9InN2Z184IiBmaWxsPSIjMzk0MjQwIiBkPSJtNTQuNDcsMjkuMzdsLTEzLjY3LDBjLTAuNTQsMCAtMC45OCwwLjQ0IC0wLjk4LDAuOThzMC40NCwwLjk4IDAuOTgsMC45OGwxMy42NywwYzAuNTQsMCAwLjk4LC0wLjQ0IDAuOTgsLTAuOThzLTAuNDQsLTAuOTggLTAuOTgsLTAuOTh6Ii8+JiN4YTsgICAgPHBhdGggaWQ9InN2Z185IiBmaWxsPSIjMzk0MjQwIiBkPSJtNTQuNDcsNDEuMDlsLTEzLjY3LDBjLTAuNTQsMCAtMC45OCwwLjQ0IC0wLjk4LDAuOThzMC40NCwwLjk4IDAuOTgsMC45OGwxMy42NywwYzAuNTQsMCAwLjk4LC0wLjQ0IDAuOTgsLTAuOThzLTAuNDQsLTAuOTggLTAuOTgsLTAuOTh6Ii8+JiN4YTsgICAgPHBhdGggaWQ9InN2Z18xMCIgZmlsbD0iIzM5NDI0MCIgZD0ibTQwLjgsMjUuNDdsNS44NiwwYzAuNTQsMCAwLjk4LC0wLjQ0IDAuOTgsLTAuOThzLTAuNDQsLTAuOTggLTAuOTgsLTAuOThsLTUuODYsMGMtMC41NCwwIC0wLjk4LDAuNDQgLTAuOTgsMC45OHMwLjQ0LDAuOTggMC45OCwwLjk4eiIvPiYjeGE7ICAgIDxwYXRoIGlkPSJzdmdfMTEiIGZpbGw9IiMzOTQyNDAiIGQ9Im0yMi4yNCwxOS42MWMtNy41NSwwIC0xMy42Nyw2LjEyIC0xMy42NywxMy42N3M2LjEyLDEzLjY3IDEzLjY3LDEzLjY3czEzLjY3LC02LjEyIDEzLjY3LC0xMy42N3MtNi4xMiwtMTMuNjcgLTEzLjY3LC0xMy42N3ptMCwyNS4zOWMtMi43NiwwIC01LjMsLTAuOTcgLTcuMywtMi41N2MwLjkyLC0xLjI2IDMuMDUsLTMuMjkgNy4zLC0zLjI5YzQuMjYsMCA2LjQsMi4wMyA3LjMsMy4yOWMtMiwxLjYgLTQuNTQsMi41NyAtNy4zLDIuNTd6bTguNzMsLTMuOTJjLTEuMjUsLTEuNjIgLTMuODYsLTMuOSAtOC43MywtMy45cy03LjQ4LDIuMjggLTguNzMsMy45Yy0xLjg2LC0yLjA3IC0yLjk5LC00LjggLTIuOTksLTcuOGMwLC02LjQ3IDUuMjQsLTExLjcyIDExLjcyLC0xMS43MnMxMS43Miw1LjI0IDExLjcyLDExLjcyYzAsMyAtMS4xMyw1LjczIC0yLjk5LDcuOHoiLz4mI3hhOyAgICA8cGF0aCBpZD0ic3ZnXzEyIiBmaWxsPSIjMzk0MjQwIiBkPSJtMjcuMTMsMzIuM2wwLC0xLjk1YzAsLTIuNyAtMi4xOSwtNC44OCAtNC44OCwtNC44OHMtNC44OCwyLjE5IC00Ljg4LDQuODhsMCwxLjk1YzAsMi43IDIuMTksNC44OCA0Ljg4LDQuODhzNC44OCwtMi4xOSA0Ljg4LC00Ljg4em0tMS45NSwwYzAsMS42MiAtMS4zMSwyLjkzIC0yLjkzLDIuOTNzLTIuOTMsLTEuMzEgLTIuOTMsLTIuOTNsMCwtMS45NWMwLC0xLjYyIDEuMzEsLTIuOTMgMi45MywtMi45M3MyLjkzLDEuMzEgMi45MywyLjkzbDAsMS45NXoiLz4mI3hhOyAgIDwvZz4mI3hhOyAgPC9nPiYjeGE7IDwvZz4mI3hhOzwvc3ZnPg==;" parent="1" vertex="1">
          <mxGeometry x="3039.74" y="769.3199999999999" width="43" height="43" as="geometry" />
        </mxCell>
        <mxCell id="998wLme6r4xHPnH6D-DP-110" value="id" style="text;html=1;strokeColor=none;fillColor=none;align=center;verticalAlign=middle;whiteSpace=wrap;rounded=0;" parent="1" vertex="1">
          <mxGeometry x="3030.74" y="808.3199999999999" width="61" height="21" as="geometry" />
        </mxCell>
        <mxCell id="998wLme6r4xHPnH6D-DP-111" value="" style="rounded=1;whiteSpace=wrap;html=1;rotation=-90;fillColor=none;strokeWidth=1;dashed=1;" parent="1" vertex="1">
          <mxGeometry x="2568.73" y="492" width="689.79" height="76.31" as="geometry" />
        </mxCell>
        <mxCell id="998wLme6r4xHPnH6D-DP-112" value="" style="rounded=1;whiteSpace=wrap;html=1;rotation=0;fillColor=none;strokeWidth=1;dashed=1;" parent="1" vertex="1">
          <mxGeometry x="3321.06" y="308.93" width="139" height="17" as="geometry" />
        </mxCell>
        <mxCell id="998wLme6r4xHPnH6D-DP-113" value="Reservation" style="text;html=1;align=center;verticalAlign=middle;resizable=0;points=[];autosize=1;strokeColor=none;fillColor=none;fontStyle=5" parent="1" vertex="1">
          <mxGeometry x="3098.06" y="191.32" width="87" height="26" as="geometry" />
        </mxCell>
        <mxCell id="998wLme6r4xHPnH6D-DP-114" value="Reservation" style="text;html=1;align=center;verticalAlign=middle;resizable=0;points=[];autosize=1;strokeColor=none;fillColor=none;fontStyle=5" parent="1" vertex="1">
          <mxGeometry x="3098.06" y="344.32" width="87" height="26" as="geometry" />
        </mxCell>
        <mxCell id="998wLme6r4xHPnH6D-DP-115" value="Reservation" style="text;html=1;align=center;verticalAlign=middle;resizable=0;points=[];autosize=1;strokeColor=none;fillColor=none;fontStyle=5" parent="1" vertex="1">
          <mxGeometry x="3098.06" y="536.3199999999999" width="87" height="26" as="geometry" />
        </mxCell>
        <mxCell id="998wLme6r4xHPnH6D-DP-116" value="Reservation" style="text;html=1;align=center;verticalAlign=middle;resizable=0;points=[];autosize=1;strokeColor=none;fillColor=none;fontStyle=5" parent="1" vertex="1">
          <mxGeometry x="3098.06" y="736.25" width="87" height="26" as="geometry" />
        </mxCell>
        <mxCell id="998wLme6r4xHPnH6D-DP-117" value="" style="group" parent="1" vertex="1" connectable="0">
          <mxGeometry x="953" y="480" width="249" height="82" as="geometry" />
        </mxCell>
        <mxCell id="998wLme6r4xHPnH6D-DP-47" value="" style="rounded=1;whiteSpace=wrap;html=1;rotation=0;fillColor=#fff2cc;strokeColor=#d6b656;" parent="998wLme6r4xHPnH6D-DP-117" vertex="1">
          <mxGeometry width="249" height="82.00000000000001" as="geometry" />
        </mxCell>
        <mxCell id="998wLme6r4xHPnH6D-DP-70" value="Reservation" style="text;html=1;align=center;verticalAlign=middle;resizable=0;points=[];autosize=1;strokeColor=none;fillColor=none;fontStyle=5" parent="998wLme6r4xHPnH6D-DP-117" vertex="1">
          <mxGeometry x="81.0000000000001" y="0.0034835582339524107" width="87" height="26" as="geometry" />
        </mxCell>
        <mxCell id="998wLme6r4xHPnH6D-DP-144" value="" style="shape=image;verticalLabelPosition=bottom;labelBackgroundColor=default;verticalAlign=top;aspect=fixed;imageAspect=0;image=data:image/svg+xml,PHN2ZyB4bWxucz0iaHR0cDovL3d3dy53My5vcmcvMjAwMC9zdmciIHhtbDpzcGFjZT0icHJlc2VydmUiIHZlcnNpb249IjEuMCIgaGVpZ2h0PSI2NCIgd2lkdGg9IjY0IiB2aWV3Qm94PSIwIDAgNjQgNjQiPiYjeGE7IDxnIGNsYXNzPSJsYXllciI+JiN4YTsgIDx0aXRsZT5MYXllciAxPC90aXRsZT4mI3hhOyAgPGcgaWQ9InN2Z18xIj4mI3hhOyAgIDxnIGlkPSJzdmdfNSI+JiN4YTsgICAgPHBhdGggaWQ9InN2Z182IiBmaWxsPSIjMzk0MjQwIiBkPSJtNTkuMzksOS44NGwtNy44MSwwbDAuMDgsMC45N2MwLC0wLjU0IDEuNzgsLTAuOTMgMS4yNCwtMC45M2wtMTAuMTIsLTAuMDRjLTAuNTQsMCAxLjA3LDAuNDQgMS4wNywwLjk4bC0wLjA4LC0wLjk3bC0yMy40NCwwbC0wLjIsMC45OGMwLC0wLjU0IDEuODYsLTAuOTggMS4zMiwtMC45OGwtMTAuMDQsMGMtMC41NCwwIDAuOSwwLjQ0IDAuOSwwLjk4bDAuMiwtMC45OGwtNy44MSwwYy0yLjE2LDAgLTMuOTEsMS43NSAtMy45MSwzLjkxbDAsMzkuMDZjMCwyLjE2IDEuNzUsMy45MSAzLjkxLDMuOTFsNTQuNjksMGMyLjE2LDAgMy45MSwtMS43NSAzLjkxLC0zLjkxbDAsLTM5LjA2YzAsLTIuMTYgLTEuNzUsLTMuOTEgLTMuOTEsLTMuOTF6bS0xMy41OSwxLjk1bDMuOTEsMGwwLjE3LC0xLjkzbC0zLjkxLDBsLTAuMTcsMS45M3ptLTMwLjIzLC0xLjIybDEuNTYsLTAuMmwxLjA3LC0wLjM5bC0zLjkxLDBsMS4yNywwLjU5em00NS43Nyw0Mi4yNGMwLDEuMDcgLTAuODgsMS45NSAtMS45NSwxLjk1bC01NC42OSwwYy0xLjA3LDAgLTEuOTUsLTAuODggLTEuOTUsLTEuOTVsMCwtMzkuMDZjMCwtMS4wNyAwLjg4LC0xLjk1IDEuOTUsLTEuOTVsNy44MSwwbC0wLjE3LC0wLjgzYzAsMC41NCAtMS4wNywwLjgxIC0wLjUzLDAuODFsOC42NiwwYzAuNTQsMCAtMC4zMiwtMC4yNyAtMC4zMiwtMC44MWwwLjE3LDAuODNsMjMuNDQsMGwwLjI1LC0wLjk2YzAsMC41NCAtMS44NiwwLjkzIC0xLjMyLDAuOTNsOS43NSwwYzAuNTQsMCAtMC42MSwtMC40IC0wLjYxLC0wLjkzbC0wLjI1LDAuOTZsNy44MSwwYzEuMDcsMCAxLjk1LDAuODggMS45NSwxLjk1bDAsMzkuMDZ6Ii8+JiN4YTsgICAgPHBhdGggaWQ9InN2Z183IiBmaWxsPSIjMzk0MjQwIiBkPSJtNDAuOCwzNy4xOGw5Ljc3LDBjMC41NCwwIDAuOTgsLTAuNDQgMC45OCwtMC45OHMtMC40NCwtMC45OCAtMC45OCwtMC45OGwtOS43NywwYy0wLjU0LDAgLTAuOTgsMC40NCAtMC45OCwwLjk4czAuNDQsMC45OCAwLjk4LDAuOTh6Ii8+JiN4YTsgICAgPHBhdGggaWQ9InN2Z184IiBmaWxsPSIjMzk0MjQwIiBkPSJtNTQuNDcsMjkuMzdsLTEzLjY3LDBjLTAuNTQsMCAtMC45OCwwLjQ0IC0wLjk4LDAuOThzMC40NCwwLjk4IDAuOTgsMC45OGwxMy42NywwYzAuNTQsMCAwLjk4LC0wLjQ0IDAuOTgsLTAuOThzLTAuNDQsLTAuOTggLTAuOTgsLTAuOTh6Ii8+JiN4YTsgICAgPHBhdGggaWQ9InN2Z185IiBmaWxsPSIjMzk0MjQwIiBkPSJtNTQuNDcsNDEuMDlsLTEzLjY3LDBjLTAuNTQsMCAtMC45OCwwLjQ0IC0wLjk4LDAuOThzMC40NCwwLjk4IDAuOTgsMC45OGwxMy42NywwYzAuNTQsMCAwLjk4LC0wLjQ0IDAuOTgsLTAuOThzLTAuNDQsLTAuOTggLTAuOTgsLTAuOTh6Ii8+JiN4YTsgICAgPHBhdGggaWQ9InN2Z18xMCIgZmlsbD0iIzM5NDI0MCIgZD0ibTQwLjgsMjUuNDdsNS44NiwwYzAuNTQsMCAwLjk4LC0wLjQ0IDAuOTgsLTAuOThzLTAuNDQsLTAuOTggLTAuOTgsLTAuOThsLTUuODYsMGMtMC41NCwwIC0wLjk4LDAuNDQgLTAuOTgsMC45OHMwLjQ0LDAuOTggMC45OCwwLjk4eiIvPiYjeGE7ICAgIDxwYXRoIGlkPSJzdmdfMTEiIGZpbGw9IiMzOTQyNDAiIGQ9Im0yMi4yNCwxOS42MWMtNy41NSwwIC0xMy42Nyw2LjEyIC0xMy42NywxMy42N3M2LjEyLDEzLjY3IDEzLjY3LDEzLjY3czEzLjY3LC02LjEyIDEzLjY3LC0xMy42N3MtNi4xMiwtMTMuNjcgLTEzLjY3LC0xMy42N3ptMCwyNS4zOWMtMi43NiwwIC01LjMsLTAuOTcgLTcuMywtMi41N2MwLjkyLC0xLjI2IDMuMDUsLTMuMjkgNy4zLC0zLjI5YzQuMjYsMCA2LjQsMi4wMyA3LjMsMy4yOWMtMiwxLjYgLTQuNTQsMi41NyAtNy4zLDIuNTd6bTguNzMsLTMuOTJjLTEuMjUsLTEuNjIgLTMuODYsLTMuOSAtOC43MywtMy45cy03LjQ4LDIuMjggLTguNzMsMy45Yy0xLjg2LC0yLjA3IC0yLjk5LC00LjggLTIuOTksLTcuOGMwLC02LjQ3IDUuMjQsLTExLjcyIDExLjcyLC0xMS43MnMxMS43Miw1LjI0IDExLjcyLDExLjcyYzAsMyAtMS4xMyw1LjczIC0yLjk5LDcuOHoiLz4mI3hhOyAgICA8cGF0aCBpZD0ic3ZnXzEyIiBmaWxsPSIjMzk0MjQwIiBkPSJtMjcuMTMsMzIuM2wwLC0xLjk1YzAsLTIuNyAtMi4xOSwtNC44OCAtNC44OCwtNC44OHMtNC44OCwyLjE5IC00Ljg4LDQuODhsMCwxLjk1YzAsMi43IDIuMTksNC44OCA0Ljg4LDQuODhzNC44OCwtMi4xOSA0Ljg4LC00Ljg4em0tMS45NSwwYzAsMS42MiAtMS4zMSwyLjkzIC0yLjkzLDIuOTNzLTIuOTMsLTEuMzEgLTIuOTMsLTIuOTNsMCwtMS45NWMwLC0xLjYyIDEuMzEsLTIuOTMgMi45MywtMi45M3MyLjkzLDEuMzEgMi45MywyLjkzbDAsMS45NXoiLz4mI3hhOyAgIDwvZz4mI3hhOyAgPC9nPiYjeGE7IDwvZz4mI3hhOzwvc3ZnPg==;" parent="998wLme6r4xHPnH6D-DP-117" vertex="1">
          <mxGeometry x="32" y="22" width="43" height="43" as="geometry" />
        </mxCell>
        <mxCell id="998wLme6r4xHPnH6D-DP-146" value="id" style="text;html=1;strokeColor=none;fillColor=none;align=center;verticalAlign=middle;whiteSpace=wrap;rounded=0;" parent="998wLme6r4xHPnH6D-DP-117" vertex="1">
          <mxGeometry x="23" y="61" width="61" height="21" as="geometry" />
        </mxCell>
        <mxCell id="998wLme6r4xHPnH6D-DP-147" value="room_id" style="text;html=1;strokeColor=none;fillColor=none;align=center;verticalAlign=middle;whiteSpace=wrap;rounded=0;" parent="998wLme6r4xHPnH6D-DP-117" vertex="1">
          <mxGeometry x="97.46000000000004" y="61" width="61" height="21" as="geometry" />
        </mxCell>
        <mxCell id="998wLme6r4xHPnH6D-DP-148" value="status" style="text;html=1;strokeColor=none;fillColor=none;align=center;verticalAlign=middle;whiteSpace=wrap;rounded=0;" parent="998wLme6r4xHPnH6D-DP-117" vertex="1">
          <mxGeometry x="165" y="61" width="61" height="21" as="geometry" />
        </mxCell>
        <mxCell id="998wLme6r4xHPnH6D-DP-149" value="" style="shape=image;verticalLabelPosition=bottom;labelBackgroundColor=default;verticalAlign=top;aspect=fixed;imageAspect=0;image=data:image/svg+xml,PHN2ZyB4bWxuczp4bGluaz0iaHR0cDovL3d3dy53My5vcmcvMTk5OS94bGluayIgeG1sbnM9Imh0dHA6Ly93d3cudzMub3JnLzIwMDAvc3ZnIiBzdHJva2U9IiMwMDAwMDAiIGZpbGw9IiMwMDAwMDAiIHhtbDpzcGFjZT0icHJlc2VydmUiIHZlcnNpb249IjEuMSIgaWQ9IkxheWVyXzEiIHZpZXdCb3g9IjAgMCA1MTIgNTEyIiBoZWlnaHQ9IjgwMHB4IiB3aWR0aD0iODAwcHgiPiYjeGE7JiN4YTs8ZyBzdHJva2Utd2lkdGg9IjAiIGlkPSJTVkdSZXBvX2JnQ2FycmllciIvPiYjeGE7JiN4YTs8ZyBzdHJva2UtbGluZWpvaW49InJvdW5kIiBzdHJva2UtbGluZWNhcD0icm91bmQiIGlkPSJTVkdSZXBvX3RyYWNlckNhcnJpZXIiLz4mI3hhOyYjeGE7PGcgaWQ9IlNWR1JlcG9faWNvbkNhcnJpZXIiPiA8Zz4gPGc+ICYjeGE7PHBhdGggZmlsbD0iIzY5NzI3MCIgZD0iTTM5Mi4wNzUsNDIyLjAyN2gtMjcyLjE1Yy01LjUyMywwLTEwLTQuNDc4LTEwLTEwdi0xNzMuMjdjMC01LjUyMiw0LjQ3Ny0xMCwxMC0xMGgyNzIuMTUgYzUuNTIzLDAsMTAsNC40NzgsMTAsMTB2MTczLjI3QzQwMi4wNzUsNDE3LjU1LDM5Ny41OTgsNDIyLjAyNywzOTIuMDc1LDQyMi4wMjd6IE0xMjkuOTI1LDQwMi4wMjdoMjUyLjE1di0xNTMuMjdoLTI1Mi4xNSBWNDAyLjAyN3oiLz4gJiN4YTs8L2c+ICYjeGE7PGc+ICYjeGE7PGc+ICYjeGE7PGxpbmUgeTI9IjE1NS45MDYiIHkxPSIyMzguMjc1IiB4Mj0iMjU2Ljk3MSIgeDE9IjI1Ni45NzEiIGZpbGw9IiNmZmZmZmYiLz4gJiN4YTs8cGF0aCBmaWxsPSIjNjk3MjcwIiBkPSJNMjU2Ljk3MSwyNDguMjc1Yy01LjUyMywwLTEwLTQuNDc4LTEwLTEwdi04Mi4zNjljMC01LjUyMiw0LjQ3Ny0xMCwxMC0xMHMxMCw0LjQ3OCwxMCwxMHY4Mi4zNjkgQzI2Ni45NzEsMjQzLjc5OCwyNjIuNDk0LDI0OC4yNzUsMjU2Ljk3MSwyNDguMjc1eiIvPiAmI3hhOzwvZz4gPGc+ICYjeGE7JiN4YTs8cGF0aCBmaWxsPSIjNjk3MjcwIiBkPSJNMzEyLjc4LDE2NS45MDZjLTAuMDA3LDAtMC4wMTMsMC0wLjAyLDBIMjAxLjE4Yy0yLjgzNCwwLTUuNTM2LTEuMjAzLTcuNDMyLTMuMzEgcy0yLjgxLTQuOTE5LTIuNTEzLTcuNzM3TDIwMi4zLDQ5Ljc3MWMwLjUzNi01LjA5LDQuODI3LTguOTUzLDkuOTQ1LTguOTUzaDg5LjQ1MWM1LjExOCwwLDkuNDA5LDMuODYzLDkuOTQ1LDguOTUzIGwxMC45OTYsMTA0LjQzOGMwLjA5NCwwLjU1MSwwLjE0NCwxLjExOCwwLjE0NCwxLjY5NkMzMjIuNzgsMTYxLjQyOSwzMTguMzAzLDE2NS45MDYsMzEyLjc4LDE2NS45MDZ6IE0yMTIuMjg5LDE0NS45MDZoODkuMzYzIGwtOC45NTgtODUuMDg4aC03MS40NDZMMjEyLjI4OSwxNDUuOTA2eiIvPiA8L2c+IDwvZz4gPGc+ICYjeGE7PHBhdGggZmlsbD0iIzY5NzI3MCIgZD0iTTI4NC42MzIsMTk5LjI0OGMtNS41MjMsMC0xMC00LjQ3OC0xMC0xMHYtMzMuMzQyYzAtNS41MjIsNC40NzctMTAsMTAtMTBzMTAsNC40NzgsMTAsMTB2MzMuMzQyIEMyOTQuNjMyLDE5NC43NzEsMjkwLjE1NSwxOTkuMjQ4LDI4NC42MzIsMTk5LjI0OHoiLz4gPC9nPiA8Zz4gJiN4YTs8cGF0aCBmaWxsPSIjNjk3MjcwIiBkPSJNMTE5LjkyNSw0NzEuMTgyYy01LjUyMywwLTEwLTQuNDc4LTEwLTEwdi00OS4xNTRjMC01LjUyMiw0LjQ3Ny0xMCwxMC0xMHMxMCw0LjQ3OCwxMCwxMHY0OS4xNTQgQzEyOS45MjUsNDY2LjcwNCwxMjUuNDQ4LDQ3MS4xODIsMTE5LjkyNSw0NzEuMTgyeiIvPiA8L2c+IDxnPiAmI3hhOzxwYXRoIGZpbGw9IiM2OTcyNzAiIGQ9Ik0zOTIuMDc1LDQ3MS4xODJjLTUuNTIzLDAtMTAtNC40NzgtMTAtMTB2LTQ5LjE1NGMwLTUuNTIyLDQuNDc3LTEwLDEwLTEwczEwLDQuNDc4LDEwLDEwdjQ5LjE1NCBDNDAyLjA3NSw0NjYuNzA0LDM5Ny41OTgsNDcxLjE4MiwzOTIuMDc1LDQ3MS4xODJ6Ii8+IDwvZz4gPGc+ICYjeGE7PHBhdGggZmlsbD0iIzY5NzI3MCIgZD0iTTI4NC42MzIsMzM1LjM5M2gtNjQuMjgxYy01LjUyMywwLTEwLTQuNDc4LTEwLTEwczQuNDc3LTEwLDEwLTEwaDY0LjI4MWM1LjUyMywwLDEwLDQuNDc4LDEwLDEwIFMyOTAuMTU1LDMzNS4zOTMsMjg0LjYzMiwzMzUuMzkzeiIvPiA8L2c+IDxnPiAmI3hhOyYjeGE7PHBhdGggZmlsbD0iIzY5NzI3MCIgZD0iTTM5Mi4wNzUsNDIyLjAyN2gtMjcyLjE1Yy01LjUyMywwLTEwLTQuNDc4LTEwLTEwdi0xNzMuMjdjMC01LjUyMiw0LjQ3Ny0xMCwxMC0xMGgyNzIuMTUgYzUuNTIzLDAsMTAsNC40NzgsMTAsMTB2MTczLjI3QzQwMi4wNzUsNDE3LjU1LDM5Ny41OTgsNDIyLjAyNywzOTIuMDc1LDQyMi4wMjd6IE0xMjkuOTI1LDQwMi4wMjdoMjUyLjE1di0xNTMuMjdoLTI1Mi4xNSBWNDAyLjAyN3oiLz4gPC9nPiA8Zz4gPGc+ICYjeGE7PGxpbmUgeTI9IjE1NS45MDYiIHkxPSIyMzguMjc1IiB4Mj0iMjU2Ljk3MSIgeDE9IjI1Ni45NzEiIGZpbGw9IiNmZmZmZmYiLz4gJiN4YTs8cGF0aCBmaWxsPSIjNjk3MjcwIiBkPSJNMjU2Ljk3MSwyNDguMjc1Yy01LjUyMywwLTEwLTQuNDc4LTEwLTEwdi04Mi4zNjljMC01LjUyMiw0LjQ3Ny0xMCwxMC0xMHMxMCw0LjQ3OCwxMCwxMHY4Mi4zNjkgQzI2Ni45NzEsMjQzLjc5OCwyNjIuNDk0LDI0OC4yNzUsMjU2Ljk3MSwyNDguMjc1eiIvPiA8L2c+IDxnPiAmI3hhOyYjeGE7PHBhdGggZmlsbD0iIzY5NzI3MCIgZD0iTTMxMi43OCwxNjUuOTA2Yy0wLjAwNywwLTAuMDEzLDAtMC4wMiwwSDIwMS4xOGMtMi44MzQsMC01LjUzNi0xLjIwMy03LjQzMi0zLjMxIHMtMi44MS00LjkxOS0yLjUxMy03LjczN0wyMDIuMyw0OS43NzFjMC41MzYtNS4wOSw0LjgyNy04Ljk1Myw5Ljk0NS04Ljk1M2g4OS40NTFjNS4xMTgsMCw5LjQwOSwzLjg2Myw5Ljk0NSw4Ljk1MyBsMTAuOTk2LDEwNC40MzhjMC4wOTQsMC41NTEsMC4xNDQsMS4xMTgsMC4xNDQsMS42OTZDMzIyLjc4LDE2MS40MjksMzE4LjMwMywxNjUuOTA2LDMxMi43OCwxNjUuOTA2eiBNMjEyLjI4OSwxNDUuOTA2aDg5LjM2MyBsLTguOTU4LTg1LjA4OGgtNzEuNDQ2TDIxMi4yODksMTQ1LjkwNnoiLz4gPC9nPiA8L2c+IDxnPiAmI3hhOzxwYXRoIGZpbGw9IiM2OTcyNzAiIGQ9Ik0yODQuNjMyLDE5OS4yNDhjLTUuNTIzLDAtMTAtNC40NzgtMTAtMTB2LTMzLjM0MmMwLTUuNTIyLDQuNDc3LTEwLDEwLTEwczEwLDQuNDc4LDEwLDEwdjMzLjM0MiBDMjk0LjYzMiwxOTQuNzcxLDI5MC4xNTUsMTk5LjI0OCwyODQuNjMyLDE5OS4yNDh6Ii8+IDwvZz4gPGc+ICYjeGE7PHBhdGggZmlsbD0iIzY5NzI3MCIgZD0iTTExOS45MjUsNDcxLjE4MmMtNS41MjMsMC0xMC00LjQ3OC0xMC0xMHYtNDkuMTU0YzAtNS41MjIsNC40NzctMTAsMTAtMTBzMTAsNC40NzgsMTAsMTB2NDkuMTU0IEMxMjkuOTI1LDQ2Ni43MDQsMTI1LjQ0OCw0NzEuMTgyLDExOS45MjUsNDcxLjE4MnoiLz4gPC9nPiA8Zz4gJiN4YTs8cGF0aCBmaWxsPSIjNjk3MjcwIiBkPSJNMzkyLjA3NSw0NzEuMTgyYy01LjUyMywwLTEwLTQuNDc4LTEwLTEwdi00OS4xNTRjMC01LjUyMiw0LjQ3Ny0xMCwxMC0xMHMxMCw0LjQ3OCwxMCwxMHY0OS4xNTQgQzQwMi4wNzUsNDY2LjcwNCwzOTcuNTk4LDQ3MS4xODIsMzkyLjA3NSw0NzEuMTgyeiIvPiA8L2c+IDxnPiAmI3hhOzxwYXRoIGZpbGw9IiM2OTcyNzAiIGQ9Ik0yODQuNjMyLDMzNS4zOTNoLTY0LjI4MWMtNS41MjMsMC0xMC00LjQ3OC0xMC0xMHM0LjQ3Ny0xMCwxMC0xMGg2NC4yODFjNS41MjMsMCwxMCw0LjQ3OCwxMCwxMCBTMjkwLjE1NSwzMzUuMzkzLDI4NC42MzIsMzM1LjM5M3oiLz4gPC9nPiA8L2c+IDwvZz4mI3hhOyYjeGE7PC9zdmc+;" parent="998wLme6r4xHPnH6D-DP-117" vertex="1">
          <mxGeometry x="108.84000000000015" y="24.389999999999986" width="38.23" height="38.23" as="geometry" />
        </mxCell>
        <mxCell id="r7fo_O5H60gug23AvUNQ-22" value="" style="shape=image;verticalLabelPosition=bottom;labelBackgroundColor=default;verticalAlign=top;aspect=fixed;imageAspect=0;image=data:image/svg+xml,PHN2ZyB4bWxucz0iaHR0cDovL3d3dy53My5vcmcvMjAwMC9zdmciIHZpZXdCb3g9IjAgMCAxMDI0IDEwMjQiIGhlaWdodD0iODAwcHgiIHdpZHRoPSI4MDBweCIgZmlsbD0iIzQ1QUFCOCI+JiN4YTsmI3hhOzxnIHN0cm9rZS13aWR0aD0iMCIgaWQ9IlNWR1JlcG9fYmdDYXJyaWVyIi8+JiN4YTsmI3hhOzxnIHN0cm9rZS1saW5lam9pbj0icm91bmQiIHN0cm9rZS1saW5lY2FwPSJyb3VuZCIgaWQ9IlNWR1JlcG9fdHJhY2VyQ2FycmllciIvPiYjeGE7JiN4YTs8ZyBpZD0iU1ZHUmVwb19pY29uQ2FycmllciI+JiN4YTsmI3hhOzxwYXRoIGQ9Ik00MjkuODExIDU3Ny4xbC04MC40ODUtODYuMzA5Yy0yMS40MjUtMjIuOTc2LTU3LjQyLTI0LjIzMy04MC4zOTYtMi44MDdzLTI0LjIzMyA1Ny40Mi0yLjgwNyA4MC4zOTZsODEuODM5IDg3Ljc2Mi0uMTU4LjE1MiA0My40OTMgNDUuMDM4YzE5LjY0MyAyMC4zNDEgNTIuMDU2IDIwLjkwNyA3Mi4zOTcgMS4yNjRsMzUuNjg2LTM0LjQ2MiA4LjE5NS03LjY0Mi0uMTMzLS4xNDMgMjUxLjgwMi0yNDMuMTYzYzIyLjYwNy0yMS44MzIgMjMuMjM2LTU3Ljg1NyAxLjQwNS04MC40NjRzLTU3Ljg1Ny0yMy4yMzYtODAuNDY0LTEuNDA1TDQyOS44MTIgNTc3LjF6TTUxMiAxMDI0QzIyOS4yMyAxMDI0IDAgNzk0Ljc3IDAgNTEyUzIyOS4yMyAwIDUxMiAwczUxMiAyMjkuMjMgNTEyIDUxMi0yMjkuMjMgNTEyLTUxMiA1MTJ6Ii8+JiN4YTsmI3hhOzwvZz4mI3hhOyYjeGE7PC9zdmc+;" vertex="1" parent="998wLme6r4xHPnH6D-DP-117">
          <mxGeometry x="180.5" y="28.5" width="30" height="30" as="geometry" />
        </mxCell>
        <mxCell id="998wLme6r4xHPnH6D-DP-119" value="" style="shape=image;verticalLabelPosition=bottom;labelBackgroundColor=default;verticalAlign=top;aspect=fixed;imageAspect=0;image=data:image/svg+xml,PHN2ZyB4bWxucz0iaHR0cDovL3d3dy53My5vcmcvMjAwMC9zdmciIHhtbDpzcGFjZT0icHJlc2VydmUiIHZlcnNpb249IjEuMCIgaGVpZ2h0PSI2NCIgd2lkdGg9IjY0IiB2aWV3Qm94PSIwIDAgNjQgNjQiPiYjeGE7IDxnIGNsYXNzPSJsYXllciI+JiN4YTsgIDx0aXRsZT5MYXllciAxPC90aXRsZT4mI3hhOyAgPGcgaWQ9InN2Z18xIj4mI3hhOyAgIDxnIGlkPSJzdmdfNSI+JiN4YTsgICAgPHBhdGggaWQ9InN2Z182IiBmaWxsPSIjMzk0MjQwIiBkPSJtNTkuMzksOS44NGwtNy44MSwwbDAuMDgsMC45N2MwLC0wLjU0IDEuNzgsLTAuOTMgMS4yNCwtMC45M2wtMTAuMTIsLTAuMDRjLTAuNTQsMCAxLjA3LDAuNDQgMS4wNywwLjk4bC0wLjA4LC0wLjk3bC0yMy40NCwwbC0wLjIsMC45OGMwLC0wLjU0IDEuODYsLTAuOTggMS4zMiwtMC45OGwtMTAuMDQsMGMtMC41NCwwIDAuOSwwLjQ0IDAuOSwwLjk4bDAuMiwtMC45OGwtNy44MSwwYy0yLjE2LDAgLTMuOTEsMS43NSAtMy45MSwzLjkxbDAsMzkuMDZjMCwyLjE2IDEuNzUsMy45MSAzLjkxLDMuOTFsNTQuNjksMGMyLjE2LDAgMy45MSwtMS43NSAzLjkxLC0zLjkxbDAsLTM5LjA2YzAsLTIuMTYgLTEuNzUsLTMuOTEgLTMuOTEsLTMuOTF6bS0xMy41OSwxLjk1bDMuOTEsMGwwLjE3LC0xLjkzbC0zLjkxLDBsLTAuMTcsMS45M3ptLTMwLjIzLC0xLjIybDEuNTYsLTAuMmwxLjA3LC0wLjM5bC0zLjkxLDBsMS4yNywwLjU5em00NS43Nyw0Mi4yNGMwLDEuMDcgLTAuODgsMS45NSAtMS45NSwxLjk1bC01NC42OSwwYy0xLjA3LDAgLTEuOTUsLTAuODggLTEuOTUsLTEuOTVsMCwtMzkuMDZjMCwtMS4wNyAwLjg4LC0xLjk1IDEuOTUsLTEuOTVsNy44MSwwbC0wLjE3LC0wLjgzYzAsMC41NCAtMS4wNywwLjgxIC0wLjUzLDAuODFsOC42NiwwYzAuNTQsMCAtMC4zMiwtMC4yNyAtMC4zMiwtMC44MWwwLjE3LDAuODNsMjMuNDQsMGwwLjI1LC0wLjk2YzAsMC41NCAtMS44NiwwLjkzIC0xLjMyLDAuOTNsOS43NSwwYzAuNTQsMCAtMC42MSwtMC40IC0wLjYxLC0wLjkzbC0wLjI1LDAuOTZsNy44MSwwYzEuMDcsMCAxLjk1LDAuODggMS45NSwxLjk1bDAsMzkuMDZ6Ii8+JiN4YTsgICAgPHBhdGggaWQ9InN2Z183IiBmaWxsPSIjMzk0MjQwIiBkPSJtNDAuOCwzNy4xOGw5Ljc3LDBjMC41NCwwIDAuOTgsLTAuNDQgMC45OCwtMC45OHMtMC40NCwtMC45OCAtMC45OCwtMC45OGwtOS43NywwYy0wLjU0LDAgLTAuOTgsMC40NCAtMC45OCwwLjk4czAuNDQsMC45OCAwLjk4LDAuOTh6Ii8+JiN4YTsgICAgPHBhdGggaWQ9InN2Z184IiBmaWxsPSIjMzk0MjQwIiBkPSJtNTQuNDcsMjkuMzdsLTEzLjY3LDBjLTAuNTQsMCAtMC45OCwwLjQ0IC0wLjk4LDAuOThzMC40NCwwLjk4IDAuOTgsMC45OGwxMy42NywwYzAuNTQsMCAwLjk4LC0wLjQ0IDAuOTgsLTAuOThzLTAuNDQsLTAuOTggLTAuOTgsLTAuOTh6Ii8+JiN4YTsgICAgPHBhdGggaWQ9InN2Z185IiBmaWxsPSIjMzk0MjQwIiBkPSJtNTQuNDcsNDEuMDlsLTEzLjY3LDBjLTAuNTQsMCAtMC45OCwwLjQ0IC0wLjk4LDAuOThzMC40NCwwLjk4IDAuOTgsMC45OGwxMy42NywwYzAuNTQsMCAwLjk4LC0wLjQ0IDAuOTgsLTAuOThzLTAuNDQsLTAuOTggLTAuOTgsLTAuOTh6Ii8+JiN4YTsgICAgPHBhdGggaWQ9InN2Z18xMCIgZmlsbD0iIzM5NDI0MCIgZD0ibTQwLjgsMjUuNDdsNS44NiwwYzAuNTQsMCAwLjk4LC0wLjQ0IDAuOTgsLTAuOThzLTAuNDQsLTAuOTggLTAuOTgsLTAuOThsLTUuODYsMGMtMC41NCwwIC0wLjk4LDAuNDQgLTAuOTgsMC45OHMwLjQ0LDAuOTggMC45OCwwLjk4eiIvPiYjeGE7ICAgIDxwYXRoIGlkPSJzdmdfMTEiIGZpbGw9IiMzOTQyNDAiIGQ9Im0yMi4yNCwxOS42MWMtNy41NSwwIC0xMy42Nyw2LjEyIC0xMy42NywxMy42N3M2LjEyLDEzLjY3IDEzLjY3LDEzLjY3czEzLjY3LC02LjEyIDEzLjY3LC0xMy42N3MtNi4xMiwtMTMuNjcgLTEzLjY3LC0xMy42N3ptMCwyNS4zOWMtMi43NiwwIC01LjMsLTAuOTcgLTcuMywtMi41N2MwLjkyLC0xLjI2IDMuMDUsLTMuMjkgNy4zLC0zLjI5YzQuMjYsMCA2LjQsMi4wMyA3LjMsMy4yOWMtMiwxLjYgLTQuNTQsMi41NyAtNy4zLDIuNTd6bTguNzMsLTMuOTJjLTEuMjUsLTEuNjIgLTMuODYsLTMuOSAtOC43MywtMy45cy03LjQ4LDIuMjggLTguNzMsMy45Yy0xLjg2LC0yLjA3IC0yLjk5LC00LjggLTIuOTksLTcuOGMwLC02LjQ3IDUuMjQsLTExLjcyIDExLjcyLC0xMS43MnMxMS43Miw1LjI0IDExLjcyLDExLjcyYzAsMyAtMS4xMyw1LjczIC0yLjk5LDcuOHoiLz4mI3hhOyAgICA8cGF0aCBpZD0ic3ZnXzEyIiBmaWxsPSIjMzk0MjQwIiBkPSJtMjcuMTMsMzIuM2wwLC0xLjk1YzAsLTIuNyAtMi4xOSwtNC44OCAtNC44OCwtNC44OHMtNC44OCwyLjE5IC00Ljg4LDQuODhsMCwxLjk1YzAsMi43IDIuMTksNC44OCA0Ljg4LDQuODhzNC44OCwtMi4xOSA0Ljg4LC00Ljg4em0tMS45NSwwYzAsMS42MiAtMS4zMSwyLjkzIC0yLjkzLDIuOTNzLTIuOTMsLTEuMzEgLTIuOTMsLTIuOTNsMCwtMS45NWMwLC0xLjYyIDEuMzEsLTIuOTMgMi45MywtMi45M3MyLjkzLDEuMzEgMi45MywyLjkzbDAsMS45NXoiLz4mI3hhOyAgIDwvZz4mI3hhOyAgPC9nPiYjeGE7IDwvZz4mI3hhOzwvc3ZnPg==;" parent="1" vertex="1">
          <mxGeometry x="983.27" y="281.14" width="43" height="43" as="geometry" />
        </mxCell>
        <mxCell id="998wLme6r4xHPnH6D-DP-121" value="" style="shape=image;verticalLabelPosition=bottom;labelBackgroundColor=default;verticalAlign=top;aspect=fixed;imageAspect=0;image=data:image/svg+xml,PHN2ZyB4bWxuczp4bGluaz0iaHR0cDovL3d3dy53My5vcmcvMTk5OS94bGluayIgeG1sbnM9Imh0dHA6Ly93d3cudzMub3JnLzIwMDAvc3ZnIiB4bWw6c3BhY2U9InByZXNlcnZlIiB2aWV3Qm94PSIwIDAgNjQgNjQiIGhlaWdodD0iODAwcHgiIHdpZHRoPSI4MDBweCIgaWQ9IkxheWVyXzEiIHZlcnNpb249IjEuMCI+JiN4YTs8cGF0aCBkPSJNNjIuNzQzLDI2LjE0M2wtMjIuMDk5LTguODRsMC4zNDktMy4xMzdjMC4wNjUtMC43ODEsMC41MzItNy43NDktMy4wNjEtMTEuNjU0QzM2LjQyLDAuODY4LDM0LjM2OSwwLDMyLDAmIzEwOyYjOTtzLTQuNDIsMC44NjgtNS45MzMsMi41MTJjLTMuNTkzLDMuOTA1LTMuMTI2LDEwLjg3My0zLjA1NSwxMS43MDlsMC4zNywzLjMzNGwtMjIuMTc4LDkuNjFDMC40NzQsMjcuNDgxLDAsMjguMjAzLDAsMjl2NSYjMTA7JiM5O2MwLDEuMTA0LDAuODk2LDIsMiwyaDIzLjQzM2wxLjQ5OSwxMy40OTRsLTYuMTgxLDQuOTQ0QzIwLjI3Niw1NC44MTcsMjAsNTUuMzkzLDIwLDU2djJjMCwxLjEwNCwwLjg5NiwyLDIsMmg2LjEzJiMxMDsmIzk7YzAuNDE2LDIuMTAxLDEuNjk1LDQsMy44Nyw0YzIuMTg2LDAsMy40NjUtMS45MTYsMy44NzEtNEg0MmMxLjEwNCwwLDItMC44OTYsMi0ydi0yYzAtMC42MDctMC4yNzYtMS4xODMtMC43NTEtMS41NjJsLTYuMTgxLTQuOTQ0JiMxMDsmIzk7TDM4LjU2NywzNkg2MmMxLjEwNCwwLDItMC44OTYsMi0ydi02QzY0LDI3LjE4Myw2My41MDIsMjYuNDQ2LDYyLjc0MywyNi4xNDN6IE0yLDI5bDIxLjYxNC05LjM2NkwyNC43NjYsMzBIMlYyOXogTTI1LjIxLDM0SDJ2LTImIzEwOyYjOTtoMjIuOTg4TDI1LjIxLDM0eiBNMjIsNTh2LTJsNS4xOTMtNC4xNTRMMjcuODc3LDU4SDIyeiBNNDIsNTZ2MmgtNS44NzdsMC42ODQtNi4xNTRMNDIsNTZ6IE0zMy45OTUsNTkuMDQyJiMxMDsmIzk7QzMzLjkwMyw2MC4wNjQsMzMuMzY4LDYyLDMyLDYyYy0xLjM2NywwLTEuOTA2LTEuOTYzLTIuMDA1LTMuMDRsLTQuOTkxLTQ0LjkzM2MtMC4wNDEtMC41MDgtMC40ODMtNi44ODEsMi41MzUtMTAuMTYxJiMxMDsmIzk7QzI4LjY3OSwyLjYyOCwzMC4xOCwyLDMyLDJzMy4zMjEsMC42MjgsNC40NjEsMS44NjZjMy4wMDgsMy4yNywyLjU4MSw5LjU5NiwyLjU0MSwxMC4xMDhMMzMuOTk1LDU5LjA0MnogTTYyLDM0SDM4Ljc4OWwwLjIyMy0ySDYyJiMxMDsmIzk7VjM0eiBNNjIsMzBIMzkuMjM0bDEuMTgxLTEwLjYzNEw2MiwyOFYzMHoiIGZpbGw9IiMyMzFGMjAiLz4mI3hhOzwvc3ZnPg==;rotation=60;" parent="1" vertex="1">
          <mxGeometry x="1064.37" y="287.78" width="29.72" height="29.72" as="geometry" />
        </mxCell>
        <mxCell id="998wLme6r4xHPnH6D-DP-122" value="id (original)" style="text;html=1;strokeColor=none;fillColor=none;align=center;verticalAlign=middle;whiteSpace=wrap;rounded=0;" parent="1" vertex="1">
          <mxGeometry x="971.73" y="320.14" width="67" height="21" as="geometry" />
        </mxCell>
        <mxCell id="998wLme6r4xHPnH6D-DP-123" value="flight_id" style="text;html=1;strokeColor=none;fillColor=none;align=center;verticalAlign=middle;whiteSpace=wrap;rounded=0;" parent="1" vertex="1">
          <mxGeometry x="1048.73" y="320.14" width="61" height="21" as="geometry" />
        </mxCell>
        <mxCell id="998wLme6r4xHPnH6D-DP-124" value="status" style="text;html=1;strokeColor=none;fillColor=none;align=center;verticalAlign=middle;whiteSpace=wrap;rounded=0;" parent="1" vertex="1">
          <mxGeometry x="1116.27" y="320.14" width="61" height="21" as="geometry" />
        </mxCell>
        <mxCell id="998wLme6r4xHPnH6D-DP-125" value="" style="shape=image;verticalLabelPosition=bottom;labelBackgroundColor=default;verticalAlign=top;aspect=fixed;imageAspect=0;image=data:image/svg+xml,PHN2ZyB4bWxucz0iaHR0cDovL3d3dy53My5vcmcvMjAwMC9zdmciIHZpZXdCb3g9IjAgMCAxMDI0IDEwMjQiIGhlaWdodD0iODAwcHgiIHdpZHRoPSI4MDBweCIgZmlsbD0iIzM5NDI0MCI+JiN4YTsmI3hhOzxnIHN0cm9rZS13aWR0aD0iMCIgaWQ9IlNWR1JlcG9fYmdDYXJyaWVyIi8+JiN4YTsmI3hhOzxnIHN0cm9rZS1saW5lam9pbj0icm91bmQiIHN0cm9rZS1saW5lY2FwPSJyb3VuZCIgaWQ9IlNWR1JlcG9fdHJhY2VyQ2FycmllciIvPiYjeGE7JiN4YTs8ZyBpZD0iU1ZHUmVwb19pY29uQ2FycmllciI+JiN4YTsmI3hhOzxwYXRoIGQ9Ik0xMDIzLjQ2IDIzMmEzMS42MjkgMzEuNjI5IDAgMCAwLTIuNDgtMTguMjcxQzEwMTIuOTE3IDE3OC4yODggOTg3LjMgMTYwIDk0NC4wMDUgMTYwaC04MzJjLTM4LjA4IDAtNzkuMTA1IDE0LTk5LjI4IDQxLjQ3Mi0xLjc0NSAxLjMyOC0zLjQwOSAyLjgzMi00LjkxMiA0LjU3Ni02LjQ0OSA3LjQ0LTguNzA1IDE3LjAwOS03LjI2NCAyNi4wMzMtLjI4OCAyLjU5Mi0uNTQ0IDUuMi0uNTQ0IDcuOTJ2NTEyYzAgNTMuMDI0IDU4Ljk5MiAxMTIgMTEyIDExMmg4MzJjNTMuMDI0IDAgODAtNTguOTc2IDgwLTExMnYtNTEyYzAtMi44MzItLjM2OC01LjMxMy0uNTQ0LTguMDAxem0tOTExLjQ1OS04bDgzMi4wMDEtLjAwMWguNDMyTDUxMi4wMDIgNTY4LjY1NSA4MS4zMTQgMjI1LjQwN0M5MS4xMDYgMjIzLjU5OSAxMDMuMTU0IDIyNCAxMTIgMjI0em04MzIuMDAxIDU3NS45OTlIMTEyLjAwM2MtMTcuNjQ4IDAtNDgtMzAuMzM2LTQ4LTQ4VjI5My41NTFsNDI3LjA0IDM0MS42NDhjNi4wMTYgNS4yIDEzLjQ4NyA3Ljc5MiAyMC45NTkgNy43OTJhMzIuMDQ2IDMyLjA0NiAwIDAgMCAyMC45NzYtNy43OTJsNDI3LjAyNC0zNDEuNjMydjQ1OC40MzJjMCAxNy42NjQgMS42NjQgNDgtMTYgNDh6Ii8+JiN4YTsmI3hhOzwvZz4mI3hhOyYjeGE7PC9zdmc+;" parent="1" vertex="1">
          <mxGeometry x="2181.22" y="885.22" width="61.56" height="61.56" as="geometry" />
        </mxCell>
        <mxCell id="998wLme6r4xHPnH6D-DP-127" value="" style="shape=image;verticalLabelPosition=bottom;labelBackgroundColor=default;verticalAlign=top;aspect=fixed;imageAspect=0;image=data:image/svg+xml,PHN2ZyB4bWxucz0iaHR0cDovL3d3dy53My5vcmcvMjAwMC9zdmciIHZpZXdCb3g9IjAgMCAxMDI0IDEwMjQiIGhlaWdodD0iODAwcHgiIHdpZHRoPSI4MDBweCIgZmlsbD0iIzM5NDI0MCI+JiN4YTsmI3hhOzxnIHN0cm9rZS13aWR0aD0iMCIgaWQ9IlNWR1JlcG9fYmdDYXJyaWVyIi8+JiN4YTsmI3hhOzxnIHN0cm9rZS1saW5lam9pbj0icm91bmQiIHN0cm9rZS1saW5lY2FwPSJyb3VuZCIgaWQ9IlNWR1JlcG9fdHJhY2VyQ2FycmllciIvPiYjeGE7JiN4YTs8ZyBpZD0iU1ZHUmVwb19pY29uQ2FycmllciI+JiN4YTsmI3hhOzxwYXRoIGQ9Ik0xMDIzLjQ2IDIzMmEzMS42MjkgMzEuNjI5IDAgMCAwLTIuNDgtMTguMjcxQzEwMTIuOTE3IDE3OC4yODggOTg3LjMgMTYwIDk0NC4wMDUgMTYwaC04MzJjLTM4LjA4IDAtNzkuMTA1IDE0LTk5LjI4IDQxLjQ3Mi0xLjc0NSAxLjMyOC0zLjQwOSAyLjgzMi00LjkxMiA0LjU3Ni02LjQ0OSA3LjQ0LTguNzA1IDE3LjAwOS03LjI2NCAyNi4wMzMtLjI4OCAyLjU5Mi0uNTQ0IDUuMi0uNTQ0IDcuOTJ2NTEyYzAgNTMuMDI0IDU4Ljk5MiAxMTIgMTEyIDExMmg4MzJjNTMuMDI0IDAgODAtNTguOTc2IDgwLTExMnYtNTEyYzAtMi44MzItLjM2OC01LjMxMy0uNTQ0LTguMDAxem0tOTExLjQ1OS04bDgzMi4wMDEtLjAwMWguNDMyTDUxMi4wMDIgNTY4LjY1NSA4MS4zMTQgMjI1LjQwN0M5MS4xMDYgMjIzLjU5OSAxMDMuMTU0IDIyNCAxMTIgMjI0em04MzIuMDAxIDU3NS45OTlIMTEyLjAwM2MtMTcuNjQ4IDAtNDgtMzAuMzM2LTQ4LTQ4VjI5My41NTFsNDI3LjA0IDM0MS42NDhjNi4wMTYgNS4yIDEzLjQ4NyA3Ljc5MiAyMC45NTkgNy43OTJhMzIuMDQ2IDMyLjA0NiAwIDAgMCAyMC45NzYtNy43OTJsNDI3LjAyNC0zNDEuNjMydjQ1OC40MzJjMCAxNy42NjQgMS42NjQgNDgtMTYgNDh6Ii8+JiN4YTsmI3hhOzwvZz4mI3hhOyYjeGE7PC9zdmc+;" parent="1" vertex="1">
          <mxGeometry x="1948" y="627" width="29" height="31" as="geometry" />
        </mxCell>
        <mxCell id="998wLme6r4xHPnH6D-DP-130" value="" style="shape=image;verticalLabelPosition=bottom;labelBackgroundColor=default;verticalAlign=top;aspect=fixed;imageAspect=0;image=data:image/svg+xml,PHN2ZyB4bWxuczp4bGluaz0iaHR0cDovL3d3dy53My5vcmcvMTk5OS94bGluayIgeG1sbnM9Imh0dHA6Ly93d3cudzMub3JnLzIwMDAvc3ZnIiB4bWw6c3BhY2U9InByZXNlcnZlIiB2aWV3Qm94PSIwIDAgNjQgNjQiIGhlaWdodD0iODAwcHgiIHdpZHRoPSI4MDBweCIgaWQ9IkxheWVyXzEiIHZlcnNpb249IjEuMCI+JiN4YTs8cGF0aCBkPSJNNjIuNzQzLDI2LjE0M2wtMjIuMDk5LTguODRsMC4zNDktMy4xMzdjMC4wNjUtMC43ODEsMC41MzItNy43NDktMy4wNjEtMTEuNjU0QzM2LjQyLDAuODY4LDM0LjM2OSwwLDMyLDAmIzEwOyYjOTtzLTQuNDIsMC44NjgtNS45MzMsMi41MTJjLTMuNTkzLDMuOTA1LTMuMTI2LDEwLjg3My0zLjA1NSwxMS43MDlsMC4zNywzLjMzNGwtMjIuMTc4LDkuNjFDMC40NzQsMjcuNDgxLDAsMjguMjAzLDAsMjl2NSYjMTA7JiM5O2MwLDEuMTA0LDAuODk2LDIsMiwyaDIzLjQzM2wxLjQ5OSwxMy40OTRsLTYuMTgxLDQuOTQ0QzIwLjI3Niw1NC44MTcsMjAsNTUuMzkzLDIwLDU2djJjMCwxLjEwNCwwLjg5NiwyLDIsMmg2LjEzJiMxMDsmIzk7YzAuNDE2LDIuMTAxLDEuNjk1LDQsMy44Nyw0YzIuMTg2LDAsMy40NjUtMS45MTYsMy44NzEtNEg0MmMxLjEwNCwwLDItMC44OTYsMi0ydi0yYzAtMC42MDctMC4yNzYtMS4xODMtMC43NTEtMS41NjJsLTYuMTgxLTQuOTQ0JiMxMDsmIzk7TDM4LjU2NywzNkg2MmMxLjEwNCwwLDItMC44OTYsMi0ydi02QzY0LDI3LjE4Myw2My41MDIsMjYuNDQ2LDYyLjc0MywyNi4xNDN6IE0yLDI5bDIxLjYxNC05LjM2NkwyNC43NjYsMzBIMlYyOXogTTI1LjIxLDM0SDJ2LTImIzEwOyYjOTtoMjIuOTg4TDI1LjIxLDM0eiBNMjIsNTh2LTJsNS4xOTMtNC4xNTRMMjcuODc3LDU4SDIyeiBNNDIsNTZ2MmgtNS44NzdsMC42ODQtNi4xNTRMNDIsNTZ6IE0zMy45OTUsNTkuMDQyJiMxMDsmIzk7QzMzLjkwMyw2MC4wNjQsMzMuMzY4LDYyLDMyLDYyYy0xLjM2NywwLTEuOTA2LTEuOTYzLTIuMDA1LTMuMDRsLTQuOTkxLTQ0LjkzM2MtMC4wNDEtMC41MDgtMC40ODMtNi44ODEsMi41MzUtMTAuMTYxJiMxMDsmIzk7QzI4LjY3OSwyLjYyOCwzMC4xOCwyLDMyLDJzMy4zMjEsMC42MjgsNC40NjEsMS44NjZjMy4wMDgsMy4yNywyLjU4MSw5LjU5NiwyLjU0MSwxMC4xMDhMMzMuOTk1LDU5LjA0MnogTTYyLDM0SDM4Ljc4OWwwLjIyMy0ySDYyJiMxMDsmIzk7VjM0eiBNNjIsMzBIMzkuMjM0bDEuMTgxLTEwLjYzNEw2MiwyOFYzMHoiIGZpbGw9IiMyMzFGMjAiLz4mI3hhOzwvc3ZnPg==;rotation=60;" parent="1" vertex="1">
          <mxGeometry x="1073.3700000000001" y="869.6428571428571" width="35.714285714285715" height="35.714285714285715" as="geometry" />
        </mxCell>
        <mxCell id="998wLme6r4xHPnH6D-DP-131" value="flight_booked" style="text;html=1;align=center;verticalAlign=middle;resizable=0;points=[];autosize=1;strokeColor=none;fillColor=none;" parent="1" vertex="1">
          <mxGeometry x="1047.7299999999998" y="902.5" width="89" height="26" as="geometry" />
        </mxCell>
        <mxCell id="998wLme6r4xHPnH6D-DP-132" value="" style="shape=image;verticalLabelPosition=bottom;labelBackgroundColor=default;verticalAlign=top;aspect=fixed;imageAspect=0;image=data:image/svg+xml,PHN2ZyB4bWxucz0iaHR0cDovL3d3dy53My5vcmcvMjAwMC9zdmciIGZpbGw9Im5vbmUiIHZpZXdCb3g9IjAgMCAyNCAyNCIgaGVpZ2h0PSI4MDBweCIgd2lkdGg9IjgwMHB4Ij4mI3hhOzxwYXRoIGZpbGw9IiMxQzI3NEMiIGQ9Ik01Ljc1IDFDNi4xNjQyMSAxIDYuNSAxLjMzNTc5IDYuNSAxLjc1VjMuNkw4LjIyMDY3IDMuMjU1ODdDOS44NzEyIDIuOTI1NzYgMTEuNTgyMSAzLjA4Mjg0IDEzLjE0NDkgMy43MDc5N0wxMy41NTgyIDMuODczMjlDMTQuOTgzMSA0LjQ0MzIzIDE2LjU1MTMgNC41NDk2NyAxOC4wNDAxIDQuMTc3NDZDMTguNjcxMSA0LjAxOTcyIDE5LjE3NzggNC43MDM2IDE4Ljg0MzIgNS4yNjEzMkwxNy41NjQ3IDcuMzkyMjFDMTcuMjIzMiA3Ljk2MTM3IDE3LjA1MjQgOC4yNDU5NSAxNy4wMTE5IDguNTU1NDlDMTYuOTk1MSA4LjY4NDYxIDE2Ljk5NTEgOC44MTUzOSAxNy4wMTE5IDguOTQ0NTFDMTcuMDUyNCA5LjI1NDA1IDE3LjIyMzIgOS41Mzg2MyAxNy41NjQ3IDEwLjEwNzhMMTkuMTI1MyAxMi43MDg5QzE5LjQzNjEgMTMuMjI2OSAxOS4xNTgyIDEzLjg5OCAxOC41NzIxIDE0LjA0NDVMMTguNDcyIDE0LjA2OTVDMTYuNzAyNCAxNC41MTE5IDE0LjgzODUgMTQuMzg1NCAxMy4xNDQ5IDEzLjcwOEMxMS41ODIxIDEzLjA4MjggOS44NzEyIDEyLjkyNTggOC4yMjA2NyAxMy4yNTU5TDYuNSAxMy42VjIxLjc1QzYuNSAyMi4xNjQyIDYuMTY0MjEgMjIuNSA1Ljc1IDIyLjVDNS4zMzU3OSAyMi41IDUgMjIuMTY0MiA1IDIxLjc1VjEuNzVDNSAxLjMzNTc5IDUuMzM1NzkgMSA1Ljc1IDFaIi8+JiN4YTs8L3N2Zz4=;rotation=0;" parent="1" vertex="1">
          <mxGeometry x="1097.1499999999999" y="865.5000000000002" width="12.93" height="12.93" as="geometry" />
        </mxCell>
        <mxCell id="998wLme6r4xHPnH6D-DP-133" value="" style="shape=image;verticalLabelPosition=bottom;labelBackgroundColor=default;verticalAlign=top;aspect=fixed;imageAspect=0;image=data:image/svg+xml,PHN2ZyB4bWxucz0iaHR0cDovL3d3dy53My5vcmcvMjAwMC9zdmciIHhtbDpzcGFjZT0icHJlc2VydmUiIHZlcnNpb249IjEuMCIgaGVpZ2h0PSI2NCIgd2lkdGg9IjY0IiB2aWV3Qm94PSIwIDAgNjQgNjQiPiYjeGE7IDxnIGNsYXNzPSJsYXllciI+JiN4YTsgIDx0aXRsZT5MYXllciAxPC90aXRsZT4mI3hhOyAgPGcgaWQ9InN2Z18xIj4mI3hhOyAgIDxnIGlkPSJzdmdfNSI+JiN4YTsgICAgPHBhdGggaWQ9InN2Z182IiBmaWxsPSIjMzk0MjQwIiBkPSJtNTkuMzksOS44NGwtNy44MSwwbDAuMDgsMC45N2MwLC0wLjU0IDEuNzgsLTAuOTMgMS4yNCwtMC45M2wtMTAuMTIsLTAuMDRjLTAuNTQsMCAxLjA3LDAuNDQgMS4wNywwLjk4bC0wLjA4LC0wLjk3bC0yMy40NCwwbC0wLjIsMC45OGMwLC0wLjU0IDEuODYsLTAuOTggMS4zMiwtMC45OGwtMTAuMDQsMGMtMC41NCwwIDAuOSwwLjQ0IDAuOSwwLjk4bDAuMiwtMC45OGwtNy44MSwwYy0yLjE2LDAgLTMuOTEsMS43NSAtMy45MSwzLjkxbDAsMzkuMDZjMCwyLjE2IDEuNzUsMy45MSAzLjkxLDMuOTFsNTQuNjksMGMyLjE2LDAgMy45MSwtMS43NSAzLjkxLC0zLjkxbDAsLTM5LjA2YzAsLTIuMTYgLTEuNzUsLTMuOTEgLTMuOTEsLTMuOTF6bS0xMy41OSwxLjk1bDMuOTEsMGwwLjE3LC0xLjkzbC0zLjkxLDBsLTAuMTcsMS45M3ptLTMwLjIzLC0xLjIybDEuNTYsLTAuMmwxLjA3LC0wLjM5bC0zLjkxLDBsMS4yNywwLjU5em00NS43Nyw0Mi4yNGMwLDEuMDcgLTAuODgsMS45NSAtMS45NSwxLjk1bC01NC42OSwwYy0xLjA3LDAgLTEuOTUsLTAuODggLTEuOTUsLTEuOTVsMCwtMzkuMDZjMCwtMS4wNyAwLjg4LC0xLjk1IDEuOTUsLTEuOTVsNy44MSwwbC0wLjE3LC0wLjgzYzAsMC41NCAtMS4wNywwLjgxIC0wLjUzLDAuODFsOC42NiwwYzAuNTQsMCAtMC4zMiwtMC4yNyAtMC4zMiwtMC44MWwwLjE3LDAuODNsMjMuNDQsMGwwLjI1LC0wLjk2YzAsMC41NCAtMS44NiwwLjkzIC0xLjMyLDAuOTNsOS43NSwwYzAuNTQsMCAtMC42MSwtMC40IC0wLjYxLC0wLjkzbC0wLjI1LDAuOTZsNy44MSwwYzEuMDcsMCAxLjk1LDAuODggMS45NSwxLjk1bDAsMzkuMDZ6Ii8+JiN4YTsgICAgPHBhdGggaWQ9InN2Z183IiBmaWxsPSIjMzk0MjQwIiBkPSJtNDAuOCwzNy4xOGw5Ljc3LDBjMC41NCwwIDAuOTgsLTAuNDQgMC45OCwtMC45OHMtMC40NCwtMC45OCAtMC45OCwtMC45OGwtOS43NywwYy0wLjU0LDAgLTAuOTgsMC40NCAtMC45OCwwLjk4czAuNDQsMC45OCAwLjk4LDAuOTh6Ii8+JiN4YTsgICAgPHBhdGggaWQ9InN2Z184IiBmaWxsPSIjMzk0MjQwIiBkPSJtNTQuNDcsMjkuMzdsLTEzLjY3LDBjLTAuNTQsMCAtMC45OCwwLjQ0IC0wLjk4LDAuOThzMC40NCwwLjk4IDAuOTgsMC45OGwxMy42NywwYzAuNTQsMCAwLjk4LC0wLjQ0IDAuOTgsLTAuOThzLTAuNDQsLTAuOTggLTAuOTgsLTAuOTh6Ii8+JiN4YTsgICAgPHBhdGggaWQ9InN2Z185IiBmaWxsPSIjMzk0MjQwIiBkPSJtNTQuNDcsNDEuMDlsLTEzLjY3LDBjLTAuNTQsMCAtMC45OCwwLjQ0IC0wLjk4LDAuOThzMC40NCwwLjk4IDAuOTgsMC45OGwxMy42NywwYzAuNTQsMCAwLjk4LC0wLjQ0IDAuOTgsLTAuOThzLTAuNDQsLTAuOTggLTAuOTgsLTAuOTh6Ii8+JiN4YTsgICAgPHBhdGggaWQ9InN2Z18xMCIgZmlsbD0iIzM5NDI0MCIgZD0ibTQwLjgsMjUuNDdsNS44NiwwYzAuNTQsMCAwLjk4LC0wLjQ0IDAuOTgsLTAuOThzLTAuNDQsLTAuOTggLTAuOTgsLTAuOThsLTUuODYsMGMtMC41NCwwIC0wLjk4LDAuNDQgLTAuOTgsMC45OHMwLjQ0LDAuOTggMC45OCwwLjk4eiIvPiYjeGE7ICAgIDxwYXRoIGlkPSJzdmdfMTEiIGZpbGw9IiMzOTQyNDAiIGQ9Im0yMi4yNCwxOS42MWMtNy41NSwwIC0xMy42Nyw2LjEyIC0xMy42NywxMy42N3M2LjEyLDEzLjY3IDEzLjY3LDEzLjY3czEzLjY3LC02LjEyIDEzLjY3LC0xMy42N3MtNi4xMiwtMTMuNjcgLTEzLjY3LC0xMy42N3ptMCwyNS4zOWMtMi43NiwwIC01LjMsLTAuOTcgLTcuMywtMi41N2MwLjkyLC0xLjI2IDMuMDUsLTMuMjkgNy4zLC0zLjI5YzQuMjYsMCA2LjQsMi4wMyA3LjMsMy4yOWMtMiwxLjYgLTQuNTQsMi41NyAtNy4zLDIuNTd6bTguNzMsLTMuOTJjLTEuMjUsLTEuNjIgLTMuODYsLTMuOSAtOC43MywtMy45cy03LjQ4LDIuMjggLTguNzMsMy45Yy0xLjg2LC0yLjA3IC0yLjk5LC00LjggLTIuOTksLTcuOGMwLC02LjQ3IDUuMjQsLTExLjcyIDExLjcyLC0xMS43MnMxMS43Miw1LjI0IDExLjcyLDExLjcyYzAsMyAtMS4xMyw1LjczIC0yLjk5LDcuOHoiLz4mI3hhOyAgICA8cGF0aCBpZD0ic3ZnXzEyIiBmaWxsPSIjMzk0MjQwIiBkPSJtMjcuMTMsMzIuM2wwLC0xLjk1YzAsLTIuNyAtMi4xOSwtNC44OCAtNC44OCwtNC44OHMtNC44OCwyLjE5IC00Ljg4LDQuODhsMCwxLjk1YzAsMi43IDIuMTksNC44OCA0Ljg4LDQuODhzNC44OCwtMi4xOSA0Ljg4LC00Ljg4em0tMS45NSwwYzAsMS42MiAtMS4zMSwyLjkzIC0yLjkzLDIuOTNzLTIuOTMsLTEuMzEgLTIuOTMsLTIuOTNsMCwtMS45NWMwLC0xLjYyIDEuMzEsLTIuOTMgMi45MywtMi45M3MyLjkzLDEuMzEgMi45MywyLjkzbDAsMS45NXoiLz4mI3hhOyAgIDwvZz4mI3hhOyAgPC9nPiYjeGE7IDwvZz4mI3hhOzwvc3ZnPg==;" parent="1" vertex="1">
          <mxGeometry x="980.7299999999998" y="865.5" width="43" height="43" as="geometry" />
        </mxCell>
        <mxCell id="998wLme6r4xHPnH6D-DP-134" value="id" style="text;html=1;strokeColor=none;fillColor=none;align=center;verticalAlign=middle;whiteSpace=wrap;rounded=0;" parent="1" vertex="1">
          <mxGeometry x="971.7299999999998" y="904.5" width="61" height="21" as="geometry" />
        </mxCell>
        <mxCell id="998wLme6r4xHPnH6D-DP-139" value="status" style="text;html=1;align=center;verticalAlign=middle;resizable=0;points=[];autosize=1;strokeColor=none;fillColor=none;" parent="1" vertex="1">
          <mxGeometry x="1362.86" y="902.5" width="50" height="26" as="geometry" />
        </mxCell>
        <mxCell id="998wLme6r4xHPnH6D-DP-143" value="" style="shape=image;verticalLabelPosition=bottom;labelBackgroundColor=default;verticalAlign=top;aspect=fixed;imageAspect=0;image=data:image/svg+xml,PHN2ZyB4bWxuczp4bGluaz0iaHR0cDovL3d3dy53My5vcmcvMTk5OS94bGluayIgeG1sbnM9Imh0dHA6Ly93d3cudzMub3JnLzIwMDAvc3ZnIiBzdHJva2U9IiMwMDAwMDAiIGZpbGw9IiMwMDAwMDAiIHhtbDpzcGFjZT0icHJlc2VydmUiIHZpZXdCb3g9IjAgMCA2NCA2NCIgaGVpZ2h0PSI4MDBweCIgd2lkdGg9IjgwMHB4IiBpZD0iTGF5ZXJfMSIgdmVyc2lvbj0iMS4wIj4mI3hhOyYjeGE7PGcgc3Ryb2tlLXdpZHRoPSIwIiBpZD0iU1ZHUmVwb19iZ0NhcnJpZXIiLz4mI3hhOyYjeGE7PGcgc3Ryb2tlLWxpbmVqb2luPSJyb3VuZCIgc3Ryb2tlLWxpbmVjYXA9InJvdW5kIiBpZD0iU1ZHUmVwb190cmFjZXJDYXJyaWVyIi8+JiN4YTsmI3hhOzxnIGlkPSJTVkdSZXBvX2ljb25DYXJyaWVyIj4gPGc+IDxyZWN0IGhlaWdodD0iNiIgd2lkdGg9IjYiIGZpbGw9IiNmZmZmZmYiIHk9IjM0IiB4PSIxNiIvPiA8cmVjdCBoZWlnaHQ9IjYiIHdpZHRoPSI2IiBmaWxsPSIjZmZmZmZmIiB5PSIzNCIgeD0iNDIiLz4gPHBhdGggZD0iTTYzLjIxMSwyOS43ODlMMzQuNDM4LDEuMDE1YzAsMC0wLjkzNy0xLjAxNS0yLjQzLTEuMDE1cy0yLjM3NiwwLjk5MS0yLjM3NiwwLjk5MUwyMCwxMC42MDRWNSBjMC0wLjU1My0wLjQ0Ny0xLTEtMWgtNmMtMC41NTMsMC0xLDAuNDQ3LTEsMXYxMy41ODlMMC43ODMsMjkuNzgzQzAuMjQsMzAuMzI2LDAsMzEuMTcyLDAsMzJjMCwxLjY1NiwxLjM0MywzLDMsMyBjMC44MjgsMCwxLjY2Mi0wLjI1MSwyLjIwNS0wLjc5NEw2LDMzLjQxMVY2MGMwLDIuMjExLDEuNzg5LDQsNCw0aDQ0YzIuMjExLDAsNC0xLjc4OSw0LTRWMzMuMzk0bDAuODA0LDAuODA0IEM1OS4zNDcsMzQuNzM5LDYwLjE3MiwzNSw2MSwzNWMxLjY1NywwLDMtMS4zNDMsMy0zQzY0LDMxLjE3MSw2My43NTQsMzAuMzMyLDYzLjIxMSwyOS43ODl6IE0yNCw0MWMwLDAuNTUzLTAuNDQ3LDEtMSwxaC04IGMtMC41NTMsMC0xLTAuNDQ3LTEtMXYtOGMwLTAuNTUzLDAuNDQ3LTEsMS0xaDhjMC41NTMsMCwxLDAuNDQ3LDEsMVY0MXogTTM4LDYyLjAwMkgyNnYtMTVjMC0wLjU1MywwLjQ0Ny0xLDEtMWgxMCBjMC41NTMsMCwxLDAuNDQ3LDEsMVY2Mi4wMDJ6IE01MCw0MWMwLDAuNTUzLTAuNDQ3LDEtMSwxaC04Yy0wLjU1MywwLTEtMC40NDctMS0xdi04YzAtMC41NTMsMC40NDctMSwxLTFoOGMwLjU1MywwLDEsMC40NDcsMSwxIFY0MXogTTYxLDMzYy0wLjI3NiwwLTAuNjAyLTAuMDM2LTAuNzgyLTAuMjE3TDMyLjcxNiw1LjI4MWMtMC4xOTUtMC4xOTUtMC40NTEtMC4yOTMtMC43MDctMC4yOTNzLTAuNTEyLDAuMDk4LTAuNzA3LDAuMjkzIEwzLjc5MSwzMi43OTNDMy42MSwzMi45NzQsMy4yNzYsMzMsMywzM2MtMC41NTMsMC0xLTAuNDQ3LTEtMWMwLTAuMjc2LDAuMDE2LTAuNjIyLDAuMTk3LTAuODAzTDMxLjAzNSwyLjQxIGMwLDAsMC4zNzMtMC40MSwwLjk3NC0wLjQxczAuOTgyLDAuMzk4LDAuOTgyLDAuMzk4bDI4LjgwNiwyOC44MDVDNjEuOTc4LDMxLjM4NCw2MiwzMS43MjQsNjIsMzJDNjIsMzIuNTUyLDYxLjU1MywzMyw2MSwzM3oiIGZpbGw9IiNmZmZmZmYiLz4gPC9nPiA8L2c+JiN4YTsmI3hhOzwvc3ZnPg==;rotation=0;" parent="1" vertex="1">
          <mxGeometry x="1917" y="430" width="26.71" height="26.71" as="geometry" />
        </mxCell>
        <mxCell id="998wLme6r4xHPnH6D-DP-153" value="" style="shape=image;verticalLabelPosition=bottom;labelBackgroundColor=default;verticalAlign=top;aspect=fixed;imageAspect=0;image=data:image/svg+xml,PHN2ZyB4bWxuczp4bGluaz0iaHR0cDovL3d3dy53My5vcmcvMTk5OS94bGluayIgeG1sbnM9Imh0dHA6Ly93d3cudzMub3JnLzIwMDAvc3ZnIiBzdHJva2U9IiMwMDAwMDAiIGZpbGw9IiMwMDAwMDAiIHhtbDpzcGFjZT0icHJlc2VydmUiIHZpZXdCb3g9IjAgMCA2NCA2NCIgaGVpZ2h0PSI4MDBweCIgd2lkdGg9IjgwMHB4IiBpZD0iTGF5ZXJfMSIgdmVyc2lvbj0iMS4wIj4mI3hhOyYjeGE7PGcgc3Ryb2tlLXdpZHRoPSIwIiBpZD0iU1ZHUmVwb19iZ0NhcnJpZXIiLz4mI3hhOyYjeGE7PGcgc3Ryb2tlLWxpbmVqb2luPSJyb3VuZCIgc3Ryb2tlLWxpbmVjYXA9InJvdW5kIiBpZD0iU1ZHUmVwb190cmFjZXJDYXJyaWVyIi8+JiN4YTsmI3hhOzxnIGlkPSJTVkdSZXBvX2ljb25DYXJyaWVyIj4gPGc+IDxyZWN0IGhlaWdodD0iNiIgd2lkdGg9IjYiIGZpbGw9IiNmZmZmZmYiIHk9IjM0IiB4PSIxNiIvPiA8cmVjdCBoZWlnaHQ9IjYiIHdpZHRoPSI2IiBmaWxsPSIjZmZmZmZmIiB5PSIzNCIgeD0iNDIiLz4gPHBhdGggZD0iTTYzLjIxMSwyOS43ODlMMzQuNDM4LDEuMDE1YzAsMC0wLjkzNy0xLjAxNS0yLjQzLTEuMDE1cy0yLjM3NiwwLjk5MS0yLjM3NiwwLjk5MUwyMCwxMC42MDRWNSBjMC0wLjU1My0wLjQ0Ny0xLTEtMWgtNmMtMC41NTMsMC0xLDAuNDQ3LTEsMXYxMy41ODlMMC43ODMsMjkuNzgzQzAuMjQsMzAuMzI2LDAsMzEuMTcyLDAsMzJjMCwxLjY1NiwxLjM0MywzLDMsMyBjMC44MjgsMCwxLjY2Mi0wLjI1MSwyLjIwNS0wLjc5NEw2LDMzLjQxMVY2MGMwLDIuMjExLDEuNzg5LDQsNCw0aDQ0YzIuMjExLDAsNC0xLjc4OSw0LTRWMzMuMzk0bDAuODA0LDAuODA0IEM1OS4zNDcsMzQuNzM5LDYwLjE3MiwzNSw2MSwzNWMxLjY1NywwLDMtMS4zNDMsMy0zQzY0LDMxLjE3MSw2My43NTQsMzAuMzMyLDYzLjIxMSwyOS43ODl6IE0yNCw0MWMwLDAuNTUzLTAuNDQ3LDEtMSwxaC04IGMtMC41NTMsMC0xLTAuNDQ3LTEtMXYtOGMwLTAuNTUzLDAuNDQ3LTEsMS0xaDhjMC41NTMsMCwxLDAuNDQ3LDEsMVY0MXogTTM4LDYyLjAwMkgyNnYtMTVjMC0wLjU1MywwLjQ0Ny0xLDEtMWgxMCBjMC41NTMsMCwxLDAuNDQ3LDEsMVY2Mi4wMDJ6IE01MCw0MWMwLDAuNTUzLTAuNDQ3LDEtMSwxaC04Yy0wLjU1MywwLTEtMC40NDctMS0xdi04YzAtMC41NTMsMC40NDctMSwxLTFoOGMwLjU1MywwLDEsMC40NDcsMSwxIFY0MXogTTYxLDMzYy0wLjI3NiwwLTAuNjAyLTAuMDM2LTAuNzgyLTAuMjE3TDMyLjcxNiw1LjI4MWMtMC4xOTUtMC4xOTUtMC40NTEtMC4yOTMtMC43MDctMC4yOTNzLTAuNTEyLDAuMDk4LTAuNzA3LDAuMjkzIEwzLjc5MSwzMi43OTNDMy42MSwzMi45NzQsMy4yNzYsMzMsMywzM2MtMC41NTMsMC0xLTAuNDQ3LTEtMWMwLTAuMjc2LDAuMDE2LTAuNjIyLDAuMTk3LTAuODAzTDMxLjAzNSwyLjQxIGMwLDAsMC4zNzMtMC40MSwwLjk3NC0wLjQxczAuOTgyLDAuMzk4LDAuOTgyLDAuMzk4bDI4LjgwNiwyOC44MDVDNjEuOTc4LDMxLjM4NCw2MiwzMS43MjQsNjIsMzJDNjIsMzIuNTUyLDYxLjU1MywzMyw2MSwzM3oiIGZpbGw9IiNmZmZmZmYiLz4gPC9nPiA8L2c+JiN4YTsmI3hhOzwvc3ZnPg==;rotation=0;" parent="1" vertex="1">
          <mxGeometry x="1169.6399999999996" y="870.6428571428571" width="35.714285714285715" height="35.714285714285715" as="geometry" />
        </mxCell>
        <mxCell id="998wLme6r4xHPnH6D-DP-154" value="room_booked" style="text;html=1;align=center;verticalAlign=middle;resizable=0;points=[];autosize=1;strokeColor=none;fillColor=none;" parent="1" vertex="1">
          <mxGeometry x="1141.9999999999998" y="903.5" width="91" height="26" as="geometry" />
        </mxCell>
        <mxCell id="998wLme6r4xHPnH6D-DP-155" value="" style="shape=image;verticalLabelPosition=bottom;labelBackgroundColor=default;verticalAlign=top;aspect=fixed;imageAspect=0;image=data:image/svg+xml,PHN2ZyB4bWxucz0iaHR0cDovL3d3dy53My5vcmcvMjAwMC9zdmciIGZpbGw9Im5vbmUiIHZpZXdCb3g9IjAgMCAyNCAyNCIgaGVpZ2h0PSI4MDBweCIgd2lkdGg9IjgwMHB4Ij4mI3hhOzxwYXRoIGZpbGw9IiMxQzI3NEMiIGQ9Ik01Ljc1IDFDNi4xNjQyMSAxIDYuNSAxLjMzNTc5IDYuNSAxLjc1VjMuNkw4LjIyMDY3IDMuMjU1ODdDOS44NzEyIDIuOTI1NzYgMTEuNTgyMSAzLjA4Mjg0IDEzLjE0NDkgMy43MDc5N0wxMy41NTgyIDMuODczMjlDMTQuOTgzMSA0LjQ0MzIzIDE2LjU1MTMgNC41NDk2NyAxOC4wNDAxIDQuMTc3NDZDMTguNjcxMSA0LjAxOTcyIDE5LjE3NzggNC43MDM2IDE4Ljg0MzIgNS4yNjEzMkwxNy41NjQ3IDcuMzkyMjFDMTcuMjIzMiA3Ljk2MTM3IDE3LjA1MjQgOC4yNDU5NSAxNy4wMTE5IDguNTU1NDlDMTYuOTk1MSA4LjY4NDYxIDE2Ljk5NTEgOC44MTUzOSAxNy4wMTE5IDguOTQ0NTFDMTcuMDUyNCA5LjI1NDA1IDE3LjIyMzIgOS41Mzg2MyAxNy41NjQ3IDEwLjEwNzhMMTkuMTI1MyAxMi43MDg5QzE5LjQzNjEgMTMuMjI2OSAxOS4xNTgyIDEzLjg5OCAxOC41NzIxIDE0LjA0NDVMMTguNDcyIDE0LjA2OTVDMTYuNzAyNCAxNC41MTE5IDE0LjgzODUgMTQuMzg1NCAxMy4xNDQ5IDEzLjcwOEMxMS41ODIxIDEzLjA4MjggOS44NzEyIDEyLjkyNTggOC4yMjA2NyAxMy4yNTU5TDYuNSAxMy42VjIxLjc1QzYuNSAyMi4xNjQyIDYuMTY0MjEgMjIuNSA1Ljc1IDIyLjVDNS4zMzU3OSAyMi41IDUgMjIuMTY0MiA1IDIxLjc1VjEuNzVDNSAxLjMzNTc5IDUuMzM1NzkgMSA1Ljc1IDFaIi8+JiN4YTs8L3N2Zz4=;rotation=0;" parent="1" vertex="1">
          <mxGeometry x="1192.42" y="865.5000000000002" width="12.93" height="12.93" as="geometry" />
        </mxCell>
        <mxCell id="r7fo_O5H60gug23AvUNQ-1" value="" style="rounded=1;whiteSpace=wrap;html=1;rotation=0;fillColor=#f5f5f5;strokeColor=#666666;fontColor=#333333;" vertex="1" parent="1">
          <mxGeometry x="424" y="910" width="78" height="18" as="geometry" />
        </mxCell>
        <mxCell id="r7fo_O5H60gug23AvUNQ-2" value="" style="rounded=1;whiteSpace=wrap;html=1;rotation=0;fillColor=#fff2cc;strokeColor=#d6b656;" vertex="1" parent="1">
          <mxGeometry x="424" y="937" width="79" height="19" as="geometry" />
        </mxCell>
        <mxCell id="r7fo_O5H60gug23AvUNQ-3" value="flight-service" style="text;html=1;align=center;verticalAlign=middle;resizable=0;points=[];autosize=1;strokeColor=none;fillColor=none;" vertex="1" parent="1">
          <mxGeometry x="676" y="156" width="85" height="26" as="geometry" />
        </mxCell>
        <mxCell id="r7fo_O5H60gug23AvUNQ-4" value="hotel-service" style="text;html=1;align=center;verticalAlign=middle;resizable=0;points=[];autosize=1;strokeColor=none;fillColor=none;" vertex="1" parent="1">
          <mxGeometry x="674" y="371" width="86" height="26" as="geometry" />
        </mxCell>
        <mxCell id="r7fo_O5H60gug23AvUNQ-5" value="car-service" style="text;html=1;align=center;verticalAlign=middle;resizable=0;points=[];autosize=1;strokeColor=none;fillColor=none;" vertex="1" parent="1">
          <mxGeometry x="675.5" y="565" width="77" height="26" as="geometry" />
        </mxCell>
        <mxCell id="r7fo_O5H60gug23AvUNQ-6" value="payment-service" style="text;html=1;align=center;verticalAlign=middle;resizable=0;points=[];autosize=1;strokeColor=none;fillColor=none;" vertex="1" parent="1">
          <mxGeometry x="659.5" y="768" width="106" height="26" as="geometry" />
        </mxCell>
        <mxCell id="r7fo_O5H60gug23AvUNQ-7" value="Domain data" style="text;html=1;align=left;verticalAlign=middle;resizable=0;points=[];autosize=1;strokeColor=none;fillColor=none;" vertex="1" parent="1">
          <mxGeometry x="507" y="907.36" width="86" height="26" as="geometry" />
        </mxCell>
        <mxCell id="r7fo_O5H60gug23AvUNQ-8" value="Saga data" style="text;html=1;align=left;verticalAlign=middle;resizable=0;points=[];autosize=1;strokeColor=none;fillColor=none;" vertex="1" parent="1">
          <mxGeometry x="507" y="933.5000000000001" width="73" height="26" as="geometry" />
        </mxCell>
        <mxCell id="r7fo_O5H60gug23AvUNQ-11" value="" style="shape=image;verticalLabelPosition=bottom;labelBackgroundColor=default;verticalAlign=top;aspect=fixed;imageAspect=0;image=data:image/svg+xml,PHN2ZyB4bWxuczp4bGluaz0iaHR0cDovL3d3dy53My5vcmcvMTk5OS94bGluayIgeG1sbnM9Imh0dHA6Ly93d3cudzMub3JnLzIwMDAvc3ZnIiB4bWw6c3BhY2U9InByZXNlcnZlIiB2aWV3Qm94PSIwIDAgNjQgNjQiIGhlaWdodD0iODAwcHgiIHdpZHRoPSI4MDBweCIgaWQ9IkxheWVyXzEiIHZlcnNpb249IjEuMCI+JiN4YTs8cGF0aCBkPSJNNjIuNzQzLDI2LjE0M2wtMjIuMDk5LTguODRsMC4zNDktMy4xMzdjMC4wNjUtMC43ODEsMC41MzItNy43NDktMy4wNjEtMTEuNjU0QzM2LjQyLDAuODY4LDM0LjM2OSwwLDMyLDAmIzEwOyYjOTtzLTQuNDIsMC44NjgtNS45MzMsMi41MTJjLTMuNTkzLDMuOTA1LTMuMTI2LDEwLjg3My0zLjA1NSwxMS43MDlsMC4zNywzLjMzNGwtMjIuMTc4LDkuNjFDMC40NzQsMjcuNDgxLDAsMjguMjAzLDAsMjl2NSYjMTA7JiM5O2MwLDEuMTA0LDAuODk2LDIsMiwyaDIzLjQzM2wxLjQ5OSwxMy40OTRsLTYuMTgxLDQuOTQ0QzIwLjI3Niw1NC44MTcsMjAsNTUuMzkzLDIwLDU2djJjMCwxLjEwNCwwLjg5NiwyLDIsMmg2LjEzJiMxMDsmIzk7YzAuNDE2LDIuMTAxLDEuNjk1LDQsMy44Nyw0YzIuMTg2LDAsMy40NjUtMS45MTYsMy44NzEtNEg0MmMxLjEwNCwwLDItMC44OTYsMi0ydi0yYzAtMC42MDctMC4yNzYtMS4xODMtMC43NTEtMS41NjJsLTYuMTgxLTQuOTQ0JiMxMDsmIzk7TDM4LjU2NywzNkg2MmMxLjEwNCwwLDItMC44OTYsMi0ydi02QzY0LDI3LjE4Myw2My41MDIsMjYuNDQ2LDYyLjc0MywyNi4xNDN6IE0yLDI5bDIxLjYxNC05LjM2NkwyNC43NjYsMzBIMlYyOXogTTI1LjIxLDM0SDJ2LTImIzEwOyYjOTtoMjIuOTg4TDI1LjIxLDM0eiBNMjIsNTh2LTJsNS4xOTMtNC4xNTRMMjcuODc3LDU4SDIyeiBNNDIsNTZ2MmgtNS44NzdsMC42ODQtNi4xNTRMNDIsNTZ6IE0zMy45OTUsNTkuMDQyJiMxMDsmIzk7QzMzLjkwMyw2MC4wNjQsMzMuMzY4LDYyLDMyLDYyYy0xLjM2NywwLTEuOTA2LTEuOTYzLTIuMDA1LTMuMDRsLTQuOTkxLTQ0LjkzM2MtMC4wNDEtMC41MDgtMC40ODMtNi44ODEsMi41MzUtMTAuMTYxJiMxMDsmIzk7QzI4LjY3OSwyLjYyOCwzMC4xOCwyLDMyLDJzMy4zMjEsMC42MjgsNC40NjEsMS44NjZjMy4wMDgsMy4yNywyLjU4MSw5LjU5NiwyLjU0MSwxMC4xMDhMMzMuOTk1LDU5LjA0MnogTTYyLDM0SDM4Ljc4OWwwLjIyMy0ySDYyJiMxMDsmIzk7VjM0eiBNNjIsMzBIMzkuMjM0bDEuMTgxLTEwLjYzNEw2MiwyOFYzMHoiIGZpbGw9IiMyMzFGMjAiLz4mI3hhOzwvc3ZnPg==;rotation=45;" vertex="1" parent="1">
          <mxGeometry x="1867.83" y="296.8228571428572" width="35.714285714285715" height="35.714285714285715" as="geometry" />
        </mxCell>
        <mxCell id="r7fo_O5H60gug23AvUNQ-12" value="" style="shape=image;verticalLabelPosition=bottom;labelBackgroundColor=default;verticalAlign=top;aspect=fixed;imageAspect=0;image=data:image/svg+xml,PHN2ZyB4bWxuczp4bGluaz0iaHR0cDovL3d3dy53My5vcmcvMTk5OS94bGluayIgeG1sbnM9Imh0dHA6Ly93d3cudzMub3JnLzIwMDAvc3ZnIiB4bWw6c3BhY2U9InByZXNlcnZlIiB2aWV3Qm94PSIwIDAgNjQgNjQiIGhlaWdodD0iODAwcHgiIHdpZHRoPSI4MDBweCIgaWQ9IkxheWVyXzEiIHZlcnNpb249IjEuMCI+JiN4YTs8Zz4mI3hhOwk8cGF0aCBkPSJNNTguOTgyLDMyLjA4OEM1OC45ODUsMzIuMDU3LDU5LDMyLjAzMSw1OSwzMmMwLTIuODY2LTAuNTg5LTI4LTIxLTI4SDI2QzEyLjY1NCw0LDUsMTQuMjA2LDUsMzImIzEwOyYjOTsmIzk7YzAsMC4wMzEsMC4wMTUsMC4wNTcsMC4wMTgsMC4wODhDMi4xNzYsMzIuNTU5LDAsMzUuMDI3LDAsMzh2MTBjMCwzLjMwOSwyLjY5MSw2LDYsNnY1YzAsMC41NTMsMC40NDcsMSwxLDFoOGMwLjU1MywwLDEtMC40NDcsMS0xJiMxMDsmIzk7JiM5O3YtNWgzMnY1YzAsMC41NTMsMC40NDcsMSwxLDFoOGMwLjU1MywwLDEtMC40NDcsMS0xdi01YzMuMzA5LDAsNi0yLjY5MSw2LTZWMzhDNjQsMzUuMDI3LDYxLjgyNCwzMi41NTksNTguOTgyLDMyLjA4OHogTTI2LDZoMTImIzEwOyYjOTsmIzk7YzE4LjQ2NywwLDE5LDIzLjMzOSwxOSwyNmgtMmMwLTIuNDU2LTAuNTA1LTI0LTE4LTI0SDI3QzE1LjM5Myw4LDksMTYuNTIzLDksMzJIN0M3LDkuMzc4LDE4LjkwNCw2LDI2LDZ6IE0yNCwyNCYjMTA7JiM5OyYjOTtjLTQuNDE4LDAtOCwzLjU4Mi04LDhoLTVjMC0xOC4xODQsOC43MDEtMjIsMTYtMjJoMTBjNi4zNCwwLDEwLjkwOSwzLjE2LDEzLjU4MSw5LjM5NEM1Mi44MjUsMjQuNjMyLDUzLDMwLjM2Nyw1MywzMkgzMiYjMTA7JiM5OyYjOTtDMzIsMjcuNTgyLDI4LjQxOCwyNCwyNCwyNHogTTMwLDMySDE4YzAtMy4zMTMsMi42ODctNiw2LTZTMzAsMjguNjg3LDMwLDMyeiBNMTQsNThIOHYtNGg2VjU4eiBNNTYsNThoLTZ2LTRoNlY1OHogTTYyLDQ4JiMxMDsmIzk7JiM5O2MwLDIuMjA2LTEuNzk0LDQtNCw0SDZjLTIuMjA2LDAtNC0xLjc5NC00LTRWMzhjMC0yLjIwNiwxLjc5NC00LDQtNGg1MmMyLjIwNiwwLDQsMS43OTQsNCw0VjQ4eiIgZmlsbD0iIzIzMUYyMCIvPiYjeGE7CTxwYXRoIGQ9Ik0xMSwzOWMtMi4yMDYsMC00LDEuNzk0LTQsNHMxLjc5NCw0LDQsNHM0LTEuNzk0LDQtNFMxMy4yMDYsMzksMTEsMzl6IE0xMSw0NWMtMS4xMDMsMC0yLTAuODk3LTItMiYjMTA7JiM5OyYjOTtzMC44OTctMiwyLTJzMiwwLjg5NywyLDJTMTIuMTAzLDQ1LDExLDQ1eiIgZmlsbD0iIzIzMUYyMCIvPiYjeGE7CTxwYXRoIGQ9Ik01MywzOWMtMi4yMDYsMC00LDEuNzk0LTQsNHMxLjc5NCw0LDQsNHM0LTEuNzk0LDQtNFM1NS4yMDYsMzksNTMsMzl6IE01Myw0NWMtMS4xMDMsMC0yLTAuODk3LTItMiYjMTA7JiM5OyYjOTtzMC44OTctMiwyLTJzMiwwLjg5NywyLDJTNTQuMTAzLDQ1LDUzLDQ1eiIgZmlsbD0iIzIzMUYyMCIvPiYjeGE7CTxwYXRoIGQ9Ik00Myw0MEgyMWMtMC41NTMsMC0xLDAuNDQ3LTEsMXMwLjQ0NywxLDEsMWgyMmMwLjU1MywwLDEtMC40NDcsMS0xUzQzLjU1Myw0MCw0Myw0MHoiIGZpbGw9IiMyMzFGMjAiLz4mI3hhOwk8cGF0aCBkPSJNNDMsNDRIMjFjLTAuNTUzLDAtMSwwLjQ0Ny0xLDFzMC40NDcsMSwxLDFoMjJjMC41NTMsMCwxLTAuNDQ3LDEtMVM0My41NTMsNDQsNDMsNDR6IiBmaWxsPSIjMjMxRjIwIi8+JiN4YTsJPHBhdGggZD0iTTQyLjcwNywxNS4yOTRjLTAuMzkxLTAuMzkxLTEuMDIzLTAuMzkxLTEuNDE0LDBzLTAuMzkxLDEuMDIzLDAsMS40MTRsMiwyJiMxMDsmIzk7JiM5O2MwLjE5NSwwLjE5NSwwLjQ1MSwwLjI5MywwLjcwNywwLjI5M3MwLjUxMi0wLjA5OCwwLjcwNy0wLjI5M2MwLjM5MS0wLjM5MSwwLjM5MS0xLjAyMywwLTEuNDE0TDQyLjcwNywxNS4yOTR6IiBmaWxsPSIjMjMxRjIwIi8+JiN4YTsJPHBhdGggZD0iTTM3LjcwNywxNS4yOTNjLTAuMzkxLTAuMzkxLTEuMDIzLTAuMzkxLTEuNDE0LDBzLTAuMzkxLDEuMDIzLDAsMS40MTRsNyw3QzQzLjQ4OCwyMy45MDIsNDMuNzQ0LDI0LDQ0LDI0JiMxMDsmIzk7JiM5O3MwLjUxMi0wLjA5OCwwLjcwNy0wLjI5M2MwLjM5MS0wLjM5MSwwLjM5MS0xLjAyMywwLTEuNDE0TDM3LjcwNywxNS4yOTN6IiBmaWxsPSIjMjMxRjIwIi8+JiN4YTs8L2c+JiN4YTs8L3N2Zz4=;rotation=0;" vertex="1" parent="1">
          <mxGeometry x="1914.38" y="561.67" width="29.33" height="29.33" as="geometry" />
        </mxCell>
        <mxCell id="r7fo_O5H60gug23AvUNQ-13" value="" style="shape=image;verticalLabelPosition=bottom;labelBackgroundColor=default;verticalAlign=top;aspect=fixed;imageAspect=0;image=data:image/svg+xml,PHN2ZyB4bWxuczp4bGluaz0iaHR0cDovL3d3dy53My5vcmcvMTk5OS94bGluayIgeG1sbnM9Imh0dHA6Ly93d3cudzMub3JnLzIwMDAvc3ZnIiB4bWw6c3BhY2U9InByZXNlcnZlIiB2aWV3Qm94PSIwIDAgNjQgNjQiIGhlaWdodD0iODAwcHgiIHdpZHRoPSI4MDBweCIgaWQ9IkxheWVyXzEiIHZlcnNpb249IjEuMCI+JiN4YTs8Zz4mI3hhOwk8cGF0aCBkPSJNNTguOTgyLDMyLjA4OEM1OC45ODUsMzIuMDU3LDU5LDMyLjAzMSw1OSwzMmMwLTIuODY2LTAuNTg5LTI4LTIxLTI4SDI2QzEyLjY1NCw0LDUsMTQuMjA2LDUsMzImIzEwOyYjOTsmIzk7YzAsMC4wMzEsMC4wMTUsMC4wNTcsMC4wMTgsMC4wODhDMi4xNzYsMzIuNTU5LDAsMzUuMDI3LDAsMzh2MTBjMCwzLjMwOSwyLjY5MSw2LDYsNnY1YzAsMC41NTMsMC40NDcsMSwxLDFoOGMwLjU1MywwLDEtMC40NDcsMS0xJiMxMDsmIzk7JiM5O3YtNWgzMnY1YzAsMC41NTMsMC40NDcsMSwxLDFoOGMwLjU1MywwLDEtMC40NDcsMS0xdi01YzMuMzA5LDAsNi0yLjY5MSw2LTZWMzhDNjQsMzUuMDI3LDYxLjgyNCwzMi41NTksNTguOTgyLDMyLjA4OHogTTI2LDZoMTImIzEwOyYjOTsmIzk7YzE4LjQ2NywwLDE5LDIzLjMzOSwxOSwyNmgtMmMwLTIuNDU2LTAuNTA1LTI0LTE4LTI0SDI3QzE1LjM5Myw4LDksMTYuNTIzLDksMzJIN0M3LDkuMzc4LDE4LjkwNCw2LDI2LDZ6IE0yNCwyNCYjMTA7JiM5OyYjOTtjLTQuNDE4LDAtOCwzLjU4Mi04LDhoLTVjMC0xOC4xODQsOC43MDEtMjIsMTYtMjJoMTBjNi4zNCwwLDEwLjkwOSwzLjE2LDEzLjU4MSw5LjM5NEM1Mi44MjUsMjQuNjMyLDUzLDMwLjM2Nyw1MywzMkgzMiYjMTA7JiM5OyYjOTtDMzIsMjcuNTgyLDI4LjQxOCwyNCwyNCwyNHogTTMwLDMySDE4YzAtMy4zMTMsMi42ODctNiw2LTZTMzAsMjguNjg3LDMwLDMyeiBNMTQsNThIOHYtNGg2VjU4eiBNNTYsNThoLTZ2LTRoNlY1OHogTTYyLDQ4JiMxMDsmIzk7JiM5O2MwLDIuMjA2LTEuNzk0LDQtNCw0SDZjLTIuMjA2LDAtNC0xLjc5NC00LTRWMzhjMC0yLjIwNiwxLjc5NC00LDQtNGg1MmMyLjIwNiwwLDQsMS43OTQsNCw0VjQ4eiIgZmlsbD0iIzIzMUYyMCIvPiYjeGE7CTxwYXRoIGQ9Ik0xMSwzOWMtMi4yMDYsMC00LDEuNzk0LTQsNHMxLjc5NCw0LDQsNHM0LTEuNzk0LDQtNFMxMy4yMDYsMzksMTEsMzl6IE0xMSw0NWMtMS4xMDMsMC0yLTAuODk3LTItMiYjMTA7JiM5OyYjOTtzMC44OTctMiwyLTJzMiwwLjg5NywyLDJTMTIuMTAzLDQ1LDExLDQ1eiIgZmlsbD0iIzIzMUYyMCIvPiYjeGE7CTxwYXRoIGQ9Ik01MywzOWMtMi4yMDYsMC00LDEuNzk0LTQsNHMxLjc5NCw0LDQsNHM0LTEuNzk0LDQtNFM1NS4yMDYsMzksNTMsMzl6IE01Myw0NWMtMS4xMDMsMC0yLTAuODk3LTItMiYjMTA7JiM5OyYjOTtzMC44OTctMiwyLTJzMiwwLjg5NywyLDJTNTQuMTAzLDQ1LDUzLDQ1eiIgZmlsbD0iIzIzMUYyMCIvPiYjeGE7CTxwYXRoIGQ9Ik00Myw0MEgyMWMtMC41NTMsMC0xLDAuNDQ3LTEsMXMwLjQ0NywxLDEsMWgyMmMwLjU1MywwLDEtMC40NDcsMS0xUzQzLjU1Myw0MCw0Myw0MHoiIGZpbGw9IiMyMzFGMjAiLz4mI3hhOwk8cGF0aCBkPSJNNDMsNDRIMjFjLTAuNTUzLDAtMSwwLjQ0Ny0xLDFzMC40NDcsMSwxLDFoMjJjMC41NTMsMCwxLTAuNDQ3LDEtMVM0My41NTMsNDQsNDMsNDR6IiBmaWxsPSIjMjMxRjIwIi8+JiN4YTsJPHBhdGggZD0iTTQyLjcwNywxNS4yOTRjLTAuMzkxLTAuMzkxLTEuMDIzLTAuMzkxLTEuNDE0LDBzLTAuMzkxLDEuMDIzLDAsMS40MTRsMiwyJiMxMDsmIzk7JiM5O2MwLjE5NSwwLjE5NSwwLjQ1MSwwLjI5MywwLjcwNywwLjI5M3MwLjUxMi0wLjA5OCwwLjcwNy0wLjI5M2MwLjM5MS0wLjM5MSwwLjM5MS0xLjAyMywwLTEuNDE0TDQyLjcwNywxNS4yOTR6IiBmaWxsPSIjMjMxRjIwIi8+JiN4YTsJPHBhdGggZD0iTTM3LjcwNywxNS4yOTNjLTAuMzkxLTAuMzkxLTEuMDIzLTAuMzkxLTEuNDE0LDBzLTAuMzkxLDEuMDIzLDAsMS40MTRsNyw3QzQzLjQ4OCwyMy45MDIsNDMuNzQ0LDI0LDQ0LDI0JiMxMDsmIzk7JiM5O3MwLjUxMi0wLjA5OCwwLjcwNy0wLjI5M2MwLjM5MS0wLjM5MSwwLjM5MS0xLjAyMywwLTEuNDE0TDM3LjcwNywxNS4yOTN6IiBmaWxsPSIjMjMxRjIwIi8+JiN4YTs8L2c+JiN4YTs8L3N2Zz4=;rotation=0;" vertex="1" parent="1">
          <mxGeometry x="1278.1399999999999" y="869.6428571428571" width="35.714285714285715" height="35.714285714285715" as="geometry" />
        </mxCell>
        <mxCell id="r7fo_O5H60gug23AvUNQ-14" value="car_booked" style="text;html=1;align=center;verticalAlign=middle;resizable=0;points=[];autosize=1;strokeColor=none;fillColor=none;" vertex="1" parent="1">
          <mxGeometry x="1256" y="902.5" width="81" height="26" as="geometry" />
        </mxCell>
        <mxCell id="r7fo_O5H60gug23AvUNQ-15" value="" style="shape=image;verticalLabelPosition=bottom;labelBackgroundColor=default;verticalAlign=top;aspect=fixed;imageAspect=0;image=data:image/svg+xml,PHN2ZyB4bWxucz0iaHR0cDovL3d3dy53My5vcmcvMjAwMC9zdmciIGZpbGw9Im5vbmUiIHZpZXdCb3g9IjAgMCAyNCAyNCIgaGVpZ2h0PSI4MDBweCIgd2lkdGg9IjgwMHB4Ij4mI3hhOzxwYXRoIGZpbGw9IiMxQzI3NEMiIGQ9Ik01Ljc1IDFDNi4xNjQyMSAxIDYuNSAxLjMzNTc5IDYuNSAxLjc1VjMuNkw4LjIyMDY3IDMuMjU1ODdDOS44NzEyIDIuOTI1NzYgMTEuNTgyMSAzLjA4Mjg0IDEzLjE0NDkgMy43MDc5N0wxMy41NTgyIDMuODczMjlDMTQuOTgzMSA0LjQ0MzIzIDE2LjU1MTMgNC41NDk2NyAxOC4wNDAxIDQuMTc3NDZDMTguNjcxMSA0LjAxOTcyIDE5LjE3NzggNC43MDM2IDE4Ljg0MzIgNS4yNjEzMkwxNy41NjQ3IDcuMzkyMjFDMTcuMjIzMiA3Ljk2MTM3IDE3LjA1MjQgOC4yNDU5NSAxNy4wMTE5IDguNTU1NDlDMTYuOTk1MSA4LjY4NDYxIDE2Ljk5NTEgOC44MTUzOSAxNy4wMTE5IDguOTQ0NTFDMTcuMDUyNCA5LjI1NDA1IDE3LjIyMzIgOS41Mzg2MyAxNy41NjQ3IDEwLjEwNzhMMTkuMTI1MyAxMi43MDg5QzE5LjQzNjEgMTMuMjI2OSAxOS4xNTgyIDEzLjg5OCAxOC41NzIxIDE0LjA0NDVMMTguNDcyIDE0LjA2OTVDMTYuNzAyNCAxNC41MTE5IDE0LjgzODUgMTQuMzg1NCAxMy4xNDQ5IDEzLjcwOEMxMS41ODIxIDEzLjA4MjggOS44NzEyIDEyLjkyNTggOC4yMjA2NyAxMy4yNTU5TDYuNSAxMy42VjIxLjc1QzYuNSAyMi4xNjQyIDYuMTY0MjEgMjIuNSA1Ljc1IDIyLjVDNS4zMzU3OSAyMi41IDUgMjIuMTY0MiA1IDIxLjc1VjEuNzVDNSAxLjMzNTc5IDUuMzM1NzkgMSA1Ljc1IDFaIi8+JiN4YTs8L3N2Zz4=;rotation=0;" vertex="1" parent="1">
          <mxGeometry x="1304.1400000000003" y="864.5000000000002" width="12.93" height="12.93" as="geometry" />
        </mxCell>
        <mxCell id="r7fo_O5H60gug23AvUNQ-16" value="" style="shape=image;verticalLabelPosition=bottom;labelBackgroundColor=default;verticalAlign=top;aspect=fixed;imageAspect=0;image=data:image/svg+xml,PHN2ZyB4bWxuczp4bGluaz0iaHR0cDovL3d3dy53My5vcmcvMTk5OS94bGluayIgeG1sbnM9Imh0dHA6Ly93d3cudzMub3JnLzIwMDAvc3ZnIiBzdHJva2U9IiMwMDAwMDAiIGZpbGw9IiMwMDAwMDAiIHhtbDpzcGFjZT0icHJlc2VydmUiIHZpZXdCb3g9IjAgMCA2NCA2NCIgaGVpZ2h0PSI4MDBweCIgd2lkdGg9IjgwMHB4IiBpZD0iTGF5ZXJfMSIgdmVyc2lvbj0iMS4wIj4mI3hhOyYjeGE7PGcgc3Ryb2tlLXdpZHRoPSIwIiBpZD0iU1ZHUmVwb19iZ0NhcnJpZXIiLz4mI3hhOyYjeGE7PGcgc3Ryb2tlLWxpbmVqb2luPSJyb3VuZCIgc3Ryb2tlLWxpbmVjYXA9InJvdW5kIiBpZD0iU1ZHUmVwb190cmFjZXJDYXJyaWVyIi8+JiN4YTsmI3hhOzxnIGlkPSJTVkdSZXBvX2ljb25DYXJyaWVyIj4gPGc+IDxyZWN0IGhlaWdodD0iNCIgd2lkdGg9IjYiIGZpbGw9IiNmZmZmZmYiIHk9IjQwIiB4PSI0NiIvPiA8cmVjdCBoZWlnaHQ9IjgiIHdpZHRoPSI2NCIgZmlsbD0iI2ZmZmZmZiIgeT0iMjAiLz4gPHBhdGggZD0iTTY0LDE4di02YzAtMi4yMTEtMS43ODktNC00LTRINGMtMi4yMTEsMC00LDEuNzg5LTQsNHY2SDY0eiIgZmlsbD0iI2ZmZmZmZiIvPiA8cGF0aCBkPSJNMCwzMHYyMmMwLDIuMjExLDEuNzg5LDQsNCw0aDU2YzIuMjExLDAsNC0xLjc4OSw0LTRWMzBIMHogTTIxLDQ2SDExYy0wLjU1MywwLTEtMC40NDctMS0xczAuNDQ3LTEsMS0xaDEwIGMwLjU1MywwLDEsMC40NDcsMSwxUzIxLjU1Myw0NiwyMSw0NnogTTI1LDQwSDExYy0wLjU1MywwLTEtMC40NDctMS0xczAuNDQ3LTEsMS0xaDE0YzAuNTUzLDAsMSwwLjQ0NywxLDFTMjUuNTUzLDQwLDI1LDQweiBNMzUsNDBoLTZjLTAuNTUzLDAtMS0wLjQ0Ny0xLTFzMC40NDctMSwxLTFoNmMwLjU1MywwLDEsMC40NDcsMSwxUzM1LjU1Myw0MCwzNSw0MHogTTU0LDQ1YzAsMC41NTMtMC40NDcsMS0xLDFoLTggYy0wLjU1MywwLTEtMC40NDctMS0xdi02YzAtMC41NTMsMC40NDctMSwxLTFoOGMwLjU1MywwLDEsMC40NDcsMSwxVjQ1eiIgZmlsbD0iI2ZmZmZmZiIvPiA8L2c+IDwvZz4mI3hhOyYjeGE7PC9zdmc+;" vertex="1" parent="1">
          <mxGeometry x="1879.26" y="712.8199999999999" width="26.35" height="26.35" as="geometry" />
        </mxCell>
        <mxCell id="998wLme6r4xHPnH6D-DP-6" value="" style="shape=image;verticalLabelPosition=bottom;labelBackgroundColor=default;verticalAlign=top;aspect=fixed;imageAspect=0;image=data:image/svg+xml,PHN2ZyB4bWxucz0iaHR0cDovL3d3dy53My5vcmcvMjAwMC9zdmciIHZpZXdCb3g9IjAgMCAxMDI0IDEwMjQiIGhlaWdodD0iODAwcHgiIHdpZHRoPSI4MDBweCIgZmlsbD0iIzQ1QUFCOCI+JiN4YTsmI3hhOzxnIHN0cm9rZS13aWR0aD0iMCIgaWQ9IlNWR1JlcG9fYmdDYXJyaWVyIi8+JiN4YTsmI3hhOzxnIHN0cm9rZS1saW5lam9pbj0icm91bmQiIHN0cm9rZS1saW5lY2FwPSJyb3VuZCIgaWQ9IlNWR1JlcG9fdHJhY2VyQ2FycmllciIvPiYjeGE7JiN4YTs8ZyBpZD0iU1ZHUmVwb19pY29uQ2FycmllciI+JiN4YTsmI3hhOzxwYXRoIGQ9Ik00MjkuODExIDU3Ny4xbC04MC40ODUtODYuMzA5Yy0yMS40MjUtMjIuOTc2LTU3LjQyLTI0LjIzMy04MC4zOTYtMi44MDdzLTI0LjIzMyA1Ny40Mi0yLjgwNyA4MC4zOTZsODEuODM5IDg3Ljc2Mi0uMTU4LjE1MiA0My40OTMgNDUuMDM4YzE5LjY0MyAyMC4zNDEgNTIuMDU2IDIwLjkwNyA3Mi4zOTcgMS4yNjRsMzUuNjg2LTM0LjQ2MiA4LjE5NS03LjY0Mi0uMTMzLS4xNDMgMjUxLjgwMi0yNDMuMTYzYzIyLjYwNy0yMS44MzIgMjMuMjM2LTU3Ljg1NyAxLjQwNS04MC40NjRzLTU3Ljg1Ny0yMy4yMzYtODAuNDY0LTEuNDA1TDQyOS44MTIgNTc3LjF6TTUxMiAxMDI0QzIyOS4yMyAxMDI0IDAgNzk0Ljc3IDAgNTEyUzIyOS4yMyAwIDUxMiAwczUxMiAyMjkuMjMgNTEyIDUxMi0yMjkuMjMgNTEyLTUxMiA1MTJ6Ii8+JiN4YTsmI3hhOzwvZz4mI3hhOyYjeGE7PC9zdmc+;" parent="1" vertex="1">
          <mxGeometry x="1372.86" y="874.5" width="30" height="30" as="geometry" />
        </mxCell>
        <mxCell id="r7fo_O5H60gug23AvUNQ-21" value="" style="shape=image;verticalLabelPosition=bottom;labelBackgroundColor=default;verticalAlign=top;aspect=fixed;imageAspect=0;image=data:image/svg+xml,PHN2ZyB4bWxucz0iaHR0cDovL3d3dy53My5vcmcvMjAwMC9zdmciIHZpZXdCb3g9IjAgMCAxMDI0IDEwMjQiIGhlaWdodD0iODAwcHgiIHdpZHRoPSI4MDBweCIgZmlsbD0iIzQ1QUFCOCI+JiN4YTsmI3hhOzxnIHN0cm9rZS13aWR0aD0iMCIgaWQ9IlNWR1JlcG9fYmdDYXJyaWVyIi8+JiN4YTsmI3hhOzxnIHN0cm9rZS1saW5lam9pbj0icm91bmQiIHN0cm9rZS1saW5lY2FwPSJyb3VuZCIgaWQ9IlNWR1JlcG9fdHJhY2VyQ2FycmllciIvPiYjeGE7JiN4YTs8ZyBpZD0iU1ZHUmVwb19pY29uQ2FycmllciI+JiN4YTsmI3hhOzxwYXRoIGQ9Ik00MjkuODExIDU3Ny4xbC04MC40ODUtODYuMzA5Yy0yMS40MjUtMjIuOTc2LTU3LjQyLTI0LjIzMy04MC4zOTYtMi44MDdzLTI0LjIzMyA1Ny40Mi0yLjgwNyA4MC4zOTZsODEuODM5IDg3Ljc2Mi0uMTU4LjE1MiA0My40OTMgNDUuMDM4YzE5LjY0MyAyMC4zNDEgNTIuMDU2IDIwLjkwNyA3Mi4zOTcgMS4yNjRsMzUuNjg2LTM0LjQ2MiA4LjE5NS03LjY0Mi0uMTMzLS4xNDMgMjUxLjgwMi0yNDMuMTYzYzIyLjYwNy0yMS44MzIgMjMuMjM2LTU3Ljg1NyAxLjQwNS04MC40NjRzLTU3Ljg1Ny0yMy4yMzYtODAuNDY0LTEuNDA1TDQyOS44MTIgNTc3LjF6TTUxMiAxMDI0QzIyOS4yMyAxMDI0IDAgNzk0Ljc3IDAgNTEyUzIyOS4yMyAwIDUxMiAwczUxMiAyMjkuMjMgNTEyIDUxMi0yMjkuMjMgNTEyLTUxMiA1MTJ6Ii8+JiN4YTsmI3hhOzwvZz4mI3hhOyYjeGE7PC9zdmc+;" vertex="1" parent="1">
          <mxGeometry x="1135.23" y="697.5" width="30" height="30" as="geometry" />
        </mxCell>
        <mxCell id="r7fo_O5H60gug23AvUNQ-23" value="" style="shape=image;verticalLabelPosition=bottom;labelBackgroundColor=default;verticalAlign=top;aspect=fixed;imageAspect=0;image=data:image/svg+xml,PHN2ZyB4bWxucz0iaHR0cDovL3d3dy53My5vcmcvMjAwMC9zdmciIHZpZXdCb3g9IjAgMCAxMDI0IDEwMjQiIGhlaWdodD0iODAwcHgiIHdpZHRoPSI4MDBweCIgZmlsbD0iIzQ1QUFCOCI+JiN4YTsmI3hhOzxnIHN0cm9rZS13aWR0aD0iMCIgaWQ9IlNWR1JlcG9fYmdDYXJyaWVyIi8+JiN4YTsmI3hhOzxnIHN0cm9rZS1saW5lam9pbj0icm91bmQiIHN0cm9rZS1saW5lY2FwPSJyb3VuZCIgaWQ9IlNWR1JlcG9fdHJhY2VyQ2FycmllciIvPiYjeGE7JiN4YTs8ZyBpZD0iU1ZHUmVwb19pY29uQ2FycmllciI+JiN4YTsmI3hhOzxwYXRoIGQ9Ik00MjkuODExIDU3Ny4xbC04MC40ODUtODYuMzA5Yy0yMS40MjUtMjIuOTc2LTU3LjQyLTI0LjIzMy04MC4zOTYtMi44MDdzLTI0LjIzMyA1Ny40Mi0yLjgwNyA4MC4zOTZsODEuODM5IDg3Ljc2Mi0uMTU4LjE1MiA0My40OTMgNDUuMDM4YzE5LjY0MyAyMC4zNDEgNTIuMDU2IDIwLjkwNyA3Mi4zOTcgMS4yNjRsMzUuNjg2LTM0LjQ2MiA4LjE5NS03LjY0Mi0uMTMzLS4xNDMgMjUxLjgwMi0yNDMuMTYzYzIyLjYwNy0yMS44MzIgMjMuMjM2LTU3Ljg1NyAxLjQwNS04MC40NjRzLTU3Ljg1Ny0yMy4yMzYtODAuNDY0LTEuNDA1TDQyOS44MTIgNTc3LjF6TTUxMiAxMDI0QzIyOS4yMyAxMDI0IDAgNzk0Ljc3IDAgNTEyUzIyOS4yMyAwIDUxMiAwczUxMiAyMjkuMjMgNTEyIDUxMi0yMjkuMjMgNTEyLTUxMiA1MTJ6Ii8+JiN4YTsmI3hhOzwvZz4mI3hhOyYjeGE7PC9zdmc+;" vertex="1" parent="1">
          <mxGeometry x="1131.77" y="288.5" width="30" height="30" as="geometry" />
        </mxCell>
      </root>
    </mxGraphModel>
  </diagram>
</mxfile>
